<?xml version="1.0" encoding="UTF-8"?>
<!--Generator: Apple Native CoreSVG 123-->
<!DOCTYPE svg
PUBLIC "-//W3C//DTD SVG 1.1//EN"
       "http://www.w3.org/Graphics/SVG/1.1/DTD/svg11.dtd">
<svg version="1.1" xmlns="http://www.w3.org/2000/svg" xmlns:xlink="http://www.w3.org/1999/xlink" width="3300" height="2200">
 <!--glyph: "uni100147.medium", point size: 100.000000, font version: "Version 15.0d7e11", template writer version: "5"-->
 <g id="Notes">
  <rect height="2200" id="artboard" style="fill:white;opacity:1" width="3300" x="0" y="0"/>
  <line id="" style="fill:none;stroke:black;opacity:1;stroke-width:0.5;" x1="263" x2="3036" y1="292" y2="292"/>
  <text style="stroke:none;fill:black;font-family:-apple-system,&quot;SF Pro Display&quot;,&quot;SF Pro Text&quot;,Helvetica,sans-serif;font-weight:bold;" transform="matrix(1 0 0 1 263 322)">Weight/Scale Variations</text>
  <text style="stroke:none;fill:black;font-family:-apple-system,&quot;SF Pro Display&quot;,&quot;SF Pro Text&quot;,Helvetica,sans-serif;text-anchor:middle;" transform="matrix(1 0 0 1 559.711 322)">Ultralight</text>
  <text style="stroke:none;fill:black;font-family:-apple-system,&quot;SF Pro Display&quot;,&quot;SF Pro Text&quot;,Helvetica,sans-serif;text-anchor:middle;" transform="matrix(1 0 0 1 856.422 322)">Thin</text>
  <text style="stroke:none;fill:black;font-family:-apple-system,&quot;SF Pro Display&quot;,&quot;SF Pro Text&quot;,Helvetica,sans-serif;text-anchor:middle;" transform="matrix(1 0 0 1 1153.13 322)">Light</text>
  <text style="stroke:none;fill:black;font-family:-apple-system,&quot;SF Pro Display&quot;,&quot;SF Pro Text&quot;,Helvetica,sans-serif;text-anchor:middle;" transform="matrix(1 0 0 1 1449.84 322)">Regular</text>
  <text style="stroke:none;fill:black;font-family:-apple-system,&quot;SF Pro Display&quot;,&quot;SF Pro Text&quot;,Helvetica,sans-serif;text-anchor:middle;" transform="matrix(1 0 0 1 1746.56 322)">Medium</text>
  <text style="stroke:none;fill:black;font-family:-apple-system,&quot;SF Pro Display&quot;,&quot;SF Pro Text&quot;,Helvetica,sans-serif;text-anchor:middle;" transform="matrix(1 0 0 1 2043.27 322)">Semibold</text>
  <text style="stroke:none;fill:black;font-family:-apple-system,&quot;SF Pro Display&quot;,&quot;SF Pro Text&quot;,Helvetica,sans-serif;text-anchor:middle;" transform="matrix(1 0 0 1 2339.98 322)">Bold</text>
  <text style="stroke:none;fill:black;font-family:-apple-system,&quot;SF Pro Display&quot;,&quot;SF Pro Text&quot;,Helvetica,sans-serif;text-anchor:middle;" transform="matrix(1 0 0 1 2636.69 322)">Heavy</text>
  <text style="stroke:none;fill:black;font-family:-apple-system,&quot;SF Pro Display&quot;,&quot;SF Pro Text&quot;,Helvetica,sans-serif;text-anchor:middle;" transform="matrix(1 0 0 1 2933.4 322)">Black</text>
  <line id="" style="fill:none;stroke:black;opacity:1;stroke-width:0.5;" x1="263" x2="3036" y1="1903" y2="1903"/>
  <g id="" transform="matrix(1 0 0 1 263 1933)">
   <path d="M 9.24805 0.830078 C 13.5547 0.830078 17.1387 -2.74414 17.1387 -7.05078 C 17.1387 -11.3574 13.5449 -14.9316 9.23828 -14.9316 C 4.94141 -14.9316 1.36719 -11.3574 1.36719 -7.05078 C 1.36719 -2.74414 4.95117 0.830078 9.24805 0.830078 Z M 9.24805 -0.654297 C 5.70312 -0.654297 2.87109 -3.49609 2.87109 -7.05078 C 2.87109 -10.6055 5.69336 -13.4473 9.23828 -13.4473 C 12.793 -13.4473 15.6348 -10.6055 15.6445 -7.05078 C 15.6543 -3.49609 12.8027 -0.654297 9.24805 -0.654297 Z M 9.22852 -3.42773 C 9.69727 -3.42773 9.9707 -3.74023 9.9707 -4.25781 L 9.9707 -6.31836 L 12.1973 -6.31836 C 12.6953 -6.31836 13.0371 -6.57227 13.0371 -7.04102 C 13.0371 -7.51953 12.7148 -7.7832 12.1973 -7.7832 L 9.9707 -7.7832 L 9.9707 -10.0098 C 9.9707 -10.5273 9.69727 -10.8496 9.22852 -10.8496 C 8.75977 -10.8496 8.50586 -10.5078 8.50586 -10.0098 L 8.50586 -7.7832 L 6.29883 -7.7832 C 5.78125 -7.7832 5.44922 -7.51953 5.44922 -7.04102 C 5.44922 -6.57227 5.80078 -6.31836 6.29883 -6.31836 L 8.50586 -6.31836 L 8.50586 -4.25781 C 8.50586 -3.75977 8.75977 -3.42773 9.22852 -3.42773 Z"/>
  </g>
  <g id="" transform="matrix(1 0 0 1 281.506 1933)">
   <path d="M 11.709 2.91016 C 17.1582 2.91016 21.6699 -1.60156 21.6699 -7.05078 C 21.6699 -12.4902 17.1484 -17.0117 11.6992 -17.0117 C 6.25977 -17.0117 1.74805 -12.4902 1.74805 -7.05078 C 1.74805 -1.60156 6.26953 2.91016 11.709 2.91016 Z M 11.709 1.25 C 7.09961 1.25 3.41797 -2.44141 3.41797 -7.05078 C 3.41797 -11.6504 7.08984 -15.3516 11.6992 -15.3516 C 16.3086 -15.3516 20 -11.6504 20.0098 -7.05078 C 20.0195 -2.44141 16.3184 1.25 11.709 1.25 Z M 11.6895 -2.41211 C 12.207 -2.41211 12.5195 -2.77344 12.5195 -3.33984 L 12.5195 -6.23047 L 15.5762 -6.23047 C 16.123 -6.23047 16.5039 -6.51367 16.5039 -7.03125 C 16.5039 -7.55859 16.1426 -7.86133 15.5762 -7.86133 L 12.5195 -7.86133 L 12.5195 -10.9277 C 12.5195 -11.5039 12.207 -11.8555 11.6895 -11.8555 C 11.1719 -11.8555 10.8789 -11.4844 10.8789 -10.9277 L 10.8789 -7.86133 L 7.83203 -7.86133 C 7.26562 -7.86133 6.89453 -7.55859 6.89453 -7.03125 C 6.89453 -6.51367 7.28516 -6.23047 7.83203 -6.23047 L 10.8789 -6.23047 L 10.8789 -3.33984 C 10.8789 -2.79297 11.1719 -2.41211 11.6895 -2.41211 Z"/>
  </g>
  <g id="" transform="matrix(1 0 0 1 304.924 1933)">
   <path d="M 14.9707 5.67383 C 21.9336 5.67383 27.6953 -0.078125 27.6953 -7.04102 C 27.6953 -14.0039 21.9238 -19.7559 14.9609 -19.7559 C 8.00781 -19.7559 2.25586 -14.0039 2.25586 -7.04102 C 2.25586 -0.078125 8.01758 5.67383 14.9707 5.67383 Z M 14.9707 3.85742 C 8.93555 3.85742 4.08203 -1.00586 4.08203 -7.04102 C 4.08203 -13.0762 8.92578 -17.9395 14.9609 -17.9395 C 21.0059 -17.9395 25.8594 -13.0762 25.8691 -7.04102 C 25.8789 -1.00586 21.0156 3.85742 14.9707 3.85742 Z M 14.9512 -1.06445 C 15.5176 -1.06445 15.8691 -1.45508 15.8691 -2.06055 L 15.8691 -6.13281 L 20.1074 -6.13281 C 20.6934 -6.13281 21.1133 -6.46484 21.1133 -7.02148 C 21.1133 -7.59766 20.7227 -7.93945 20.1074 -7.93945 L 15.8691 -7.93945 L 15.8691 -12.1875 C 15.8691 -12.8027 15.5176 -13.1934 14.9512 -13.1934 C 14.3848 -13.1934 14.0625 -12.7832 14.0625 -12.1875 L 14.0625 -7.93945 L 9.83398 -7.93945 C 9.21875 -7.93945 8.80859 -7.59766 8.80859 -7.02148 C 8.80859 -6.46484 9.23828 -6.13281 9.83398 -6.13281 L 14.0625 -6.13281 L 14.0625 -2.06055 C 14.0625 -1.47461 14.3848 -1.06445 14.9512 -1.06445 Z"/>
  </g>
  <text style="stroke:none;fill:black;font-family:-apple-system,&quot;SF Pro Display&quot;,&quot;SF Pro Text&quot;,Helvetica,sans-serif;font-weight:bold;" transform="matrix(1 0 0 1 263 1953)">Design Variations</text>
  <text style="stroke:none;fill:black;font-family:-apple-system,&quot;SF Pro Display&quot;,&quot;SF Pro Text&quot;,Helvetica,sans-serif;" transform="matrix(1 0 0 1 263 1971)">Symbols are supported in up to nine weights and three scales.</text>
  <text style="stroke:none;fill:black;font-family:-apple-system,&quot;SF Pro Display&quot;,&quot;SF Pro Text&quot;,Helvetica,sans-serif;" transform="matrix(1 0 0 1 263 1989)">For optimal layout with text and other symbols, vertically align</text>
  <text style="stroke:none;fill:black;font-family:-apple-system,&quot;SF Pro Display&quot;,&quot;SF Pro Text&quot;,Helvetica,sans-serif;" transform="matrix(1 0 0 1 263 2007)">symbols with the adjacent text.</text>
  <rect height="14" id="" style="fill:#00AEEF;stroke:none;opacity:0.4;" width="3" x="776" y="1919"/>
  <g id="" transform="matrix(1 0 0 1 779 1933)">
   <path d="M 10.5273 0 L 12.373 0 L 7.17773 -14.0918 L 5.43945 -14.0918 L 0.244141 0 L 2.08984 0 L 3.50586 -4.0332 L 9.11133 -4.0332 Z M 6.2793 -11.9531 L 6.33789 -11.9531 L 8.59375 -5.52734 L 4.02344 -5.52734 Z"/>
  </g>
  <rect height="14" id="" style="fill:#00AEEF;stroke:none;opacity:0.4;" width="3" x="791.617" y="1919"/>
  <text style="stroke:none;fill:black;font-family:-apple-system,&quot;SF Pro Display&quot;,&quot;SF Pro Text&quot;,Helvetica,sans-serif;font-weight:bold;" transform="matrix(1 0 0 1 776 1953)">Margins</text>
  <text style="stroke:none;fill:black;font-family:-apple-system,&quot;SF Pro Display&quot;,&quot;SF Pro Text&quot;,Helvetica,sans-serif;" transform="matrix(1 0 0 1 776 1971)">Leading and trailing margins on the left and right side of each symbol</text>
  <text style="stroke:none;fill:black;font-family:-apple-system,&quot;SF Pro Display&quot;,&quot;SF Pro Text&quot;,Helvetica,sans-serif;" transform="matrix(1 0 0 1 776 1989)">can be adjusted by modifying the width of the blue rectangles.</text>
  <text style="stroke:none;fill:black;font-family:-apple-system,&quot;SF Pro Display&quot;,&quot;SF Pro Text&quot;,Helvetica,sans-serif;" transform="matrix(1 0 0 1 776 2007)">Modifications are automatically applied proportionally to all</text>
  <text style="stroke:none;fill:black;font-family:-apple-system,&quot;SF Pro Display&quot;,&quot;SF Pro Text&quot;,Helvetica,sans-serif;" transform="matrix(1 0 0 1 776 2025)">scales and weights.</text>
  <g id="" transform="matrix(1 0 0 1 1289 1933)">
   <path d="M 2.83203 3.11523 L 4.375 4.6582 C 5.22461 5.48828 6.19141 5.41992 7.06055 4.46289 L 17.2754 -6.66016 C 17.7051 -6.36719 18.0957 -6.37695 18.5645 -6.47461 L 19.6094 -6.68945 L 20.3027 -5.99609 L 20.2539 -5.47852 C 20.1855 -4.95117 20.3516 -4.53125 20.8496 -4.0332 L 21.6602 -3.22266 C 22.168 -2.71484 22.8223 -2.68555 23.3008 -3.16406 L 26.5527 -6.41602 C 27.0312 -6.89453 27.0117 -7.54883 26.5039 -8.05664 L 25.6836 -8.87695 C 25.1855 -9.375 24.7754 -9.55078 24.2383 -9.47266 L 23.7109 -9.41406 L 23.0566 -10.0781 L 23.3398 -11.2207 C 23.4863 -11.7871 23.3398 -12.2559 22.7148 -12.8613 L 20.3027 -15.2539 C 16.7578 -18.7793 12.2266 -18.6719 9.11133 -15.5371 C 8.69141 -15.1074 8.64258 -14.5215 8.91602 -14.0918 C 9.15039 -13.7207 9.62891 -13.4961 10.2734 -13.6621 C 11.7871 -14.043 13.3008 -13.9258 14.7852 -12.9199 L 14.1602 -11.3379 C 13.9258 -10.752 13.9453 -10.2734 14.1797 -9.83398 L 3.01758 0.439453 C 2.08008 1.30859 1.97266 2.25586 2.83203 3.11523 Z M 10.6738 -15.1465 C 13.3398 -17.1387 16.6504 -16.8262 19.0527 -14.4141 L 21.6797 -11.8066 C 21.9141 -11.5723 21.9434 -11.3867 21.8848 -11.0938 L 21.5039 -9.53125 L 23.0762 -7.95898 L 24.043 -8.04688 C 24.3262 -8.07617 24.4141 -8.05664 24.6387 -7.83203 L 25.2637 -7.20703 L 22.5098 -4.46289 L 21.8848 -5.07812 C 21.6602 -5.30273 21.6406 -5.40039 21.6699 -5.68359 L 21.7578 -6.64062 L 20.1953 -8.20312 L 18.5742 -7.89062 C 18.291 -7.83203 18.1445 -7.83203 17.9102 -8.07617 L 15.7324 -10.2539 C 15.5078 -10.4883 15.4785 -10.625 15.6055 -10.9473 L 16.5527 -13.2227 C 14.9512 -14.7559 12.8418 -15.6055 10.8008 -14.9512 C 10.7129 -14.9219 10.6445 -14.9414 10.6152 -14.9805 C 10.5859 -15.0293 10.5859 -15.0781 10.6738 -15.1465 Z M 4.10156 2.41211 C 3.61328 1.91406 3.78906 1.61133 4.12109 1.30859 L 15.0781 -8.80859 L 16.3086 -7.57812 L 6.15234 3.34961 C 5.84961 3.68164 5.46875 3.7793 5.06836 3.37891 Z"/>
  </g>
  <text style="stroke:none;fill:black;font-family:-apple-system,&quot;SF Pro Display&quot;,&quot;SF Pro Text&quot;,Helvetica,sans-serif;font-weight:bold;" transform="matrix(1 0 0 1 1289 1953)">Exporting</text>
  <text style="stroke:none;fill:black;font-family:-apple-system,&quot;SF Pro Display&quot;,&quot;SF Pro Text&quot;,Helvetica,sans-serif;" transform="matrix(1 0 0 1 1289 1971)">Symbols should be outlined when exporting to ensure the</text>
  <text style="stroke:none;fill:black;font-family:-apple-system,&quot;SF Pro Display&quot;,&quot;SF Pro Text&quot;,Helvetica,sans-serif;" transform="matrix(1 0 0 1 1289 1989)">design is preserved when submitting to Xcode.</text>
  <text id="template-version" style="stroke:none;fill:black;font-family:-apple-system,&quot;SF Pro Display&quot;,&quot;SF Pro Text&quot;,Helvetica,sans-serif;text-anchor:end;" transform="matrix(1 0 0 1 3036 1933)">Template v.1.0</text>
  <text style="stroke:none;fill:black;font-family:-apple-system,&quot;SF Pro Display&quot;,&quot;SF Pro Text&quot;,Helvetica,sans-serif;text-anchor:end;" transform="matrix(1 0 0 1 3036 1951)">Generated from return</text>
  <text style="stroke:none;fill:black;font-family:-apple-system,&quot;SF Pro Display&quot;,&quot;SF Pro Text&quot;,Helvetica,sans-serif;text-anchor:end;" transform="matrix(1 0 0 1 3036 1969)">Typeset at 100 points</text>
  <text style="stroke:none;fill:black;font-family:-apple-system,&quot;SF Pro Display&quot;,&quot;SF Pro Text&quot;,Helvetica,sans-serif;" transform="matrix(1 0 0 1 263 726)">Small</text>
  <text style="stroke:none;fill:black;font-family:-apple-system,&quot;SF Pro Display&quot;,&quot;SF Pro Text&quot;,Helvetica,sans-serif;" transform="matrix(1 0 0 1 263 1156)">Medium</text>
  <text style="stroke:none;fill:black;font-family:-apple-system,&quot;SF Pro Display&quot;,&quot;SF Pro Text&quot;,Helvetica,sans-serif;" transform="matrix(1 0 0 1 263 1586)">Large</text>
 </g>
 <g id="Guides">
  <g id="H-reference" style="fill:#27AAE1;stroke:none;" transform="matrix(1 0 0 1 339 696)">
   <path d="M 54.9316 0 L 57.666 0 L 30.5664 -70.459 L 28.0762 -70.459 L 0.976562 0 L 3.66211 0 L 12.9395 -24.4629 L 45.7031 -24.4629 Z M 29.1992 -67.0898 L 29.4434 -67.0898 L 44.8242 -26.709 L 13.8184 -26.709 Z"/>
  </g>
  <line id="Baseline-S" style="fill:none;stroke:#27AAE1;opacity:1;stroke-width:0.577;" x1="263" x2="3036" y1="696" y2="696"/>
  <line id="Capline-S" style="fill:none;stroke:#27AAE1;opacity:1;stroke-width:0.577;" x1="263" x2="3036" y1="625.541" y2="625.541"/>
  <g id="H-reference" style="fill:#27AAE1;stroke:none;" transform="matrix(1 0 0 1 339 1126)">
   <path d="M 54.9316 0 L 57.666 0 L 30.5664 -70.459 L 28.0762 -70.459 L 0.976562 0 L 3.66211 0 L 12.9395 -24.4629 L 45.7031 -24.4629 Z M 29.1992 -67.0898 L 29.4434 -67.0898 L 44.8242 -26.709 L 13.8184 -26.709 Z"/>
  </g>
  <line id="Baseline-M" style="fill:none;stroke:#27AAE1;opacity:1;stroke-width:0.577;" x1="263" x2="3036" y1="1126" y2="1126"/>
  <line id="Capline-M" style="fill:none;stroke:#27AAE1;opacity:1;stroke-width:0.577;" x1="263" x2="3036" y1="1055.54" y2="1055.54"/>
  <g id="H-reference" style="fill:#27AAE1;stroke:none;" transform="matrix(1 0 0 1 339 1556)">
   <path d="M 54.9316 0 L 57.666 0 L 30.5664 -70.459 L 28.0762 -70.459 L 0.976562 0 L 3.66211 0 L 12.9395 -24.4629 L 45.7031 -24.4629 Z M 29.1992 -67.0898 L 29.4434 -67.0898 L 44.8242 -26.709 L 13.8184 -26.709 Z"/>
  </g>
  <line id="Baseline-L" style="fill:none;stroke:#27AAE1;opacity:1;stroke-width:0.577;" x1="263" x2="3036" y1="1556" y2="1556"/>
  <line id="Capline-L" style="fill:none;stroke:#27AAE1;opacity:1;stroke-width:0.577;" x1="263" x2="3036" y1="1485.54" y2="1485.54"/>
  <rect height="119.336" id="left-margin" style="fill:#00AEEF;stroke:none;opacity:0.4;" width="12.4512" x="1385.88" y="1030.79"/>
  <rect height="119.336" id="right-margin" style="fill:#00AEEF;stroke:none;opacity:0.4;" width="12.4512" x="1501.36" y="1030.79"/>
 </g>
 <g id="Symbols">
  <g id="Black-L" transform="matrix(1 0 0 1 2842.75 1556)">
   <path d="M 60.8398 27.8809 C 67.4316 27.8809 71.875 23.1934 71.875 17.041 C 71.875 13.4766 70.2637 10.9863 68.1641 8.88672 L 58.8867 -0.0976562 L 51.0254 -6.34766 L 64.7949 -5.71289 L 136.914 -5.71289 C 156.543 -5.71289 165.234 -14.0625 165.234 -34.0332 L 165.234 -71.6309 C 165.234 -91.2109 156.543 -99.9512 136.914 -99.9512 L 103.613 -99.9512 C 97.0215 -99.9512 92.041 -94.8242 92.041 -88.5254 C 92.041 -82.1777 97.0215 -77.0996 103.613 -77.0996 L 135.645 -77.0996 C 140.918 -77.0996 142.969 -75.0488 142.969 -69.7754 L 142.969 -35.8887 C 142.969 -30.6152 140.918 -28.5645 135.645 -28.5645 L 64.7949 -28.5645 L 51.0254 -27.9297 L 58.8867 -34.1797 L 68.1641 -43.1152 C 70.2637 -45.2148 71.875 -47.7051 71.875 -51.2695 C 71.875 -57.4219 67.4316 -62.0605 60.8398 -62.0605 C 57.9102 -62.0605 54.9805 -60.791 52.6855 -58.5449 L 19.3848 -25.5371 C 17.334 -23.4863 16.0645 -20.2148 16.0645 -17.1387 C 16.0645 -14.0625 17.334 -10.791 19.3848 -8.74023 L 52.6855 24.3164 C 54.9805 26.6113 57.9102 27.8809 60.8398 27.8809 Z"/>
  </g>
  <g id="Heavy-L" transform="matrix(1 0 0 1 2548.11 1556)">
   <path d="M 60.3027 25.7324 C 66.0156 25.7324 69.8242 21.6797 69.8242 16.3574 C 69.8242 13.2812 68.5059 11.1328 66.6504 9.32617 L 55.0781 -2.00195 L 46.0449 -9.375 L 60.1074 -8.74023 L 134.814 -8.74023 C 153.027 -8.74023 161.084 -16.6504 161.084 -35.0586 L 161.084 -72.6562 C 161.084 -90.8691 153.027 -98.9258 134.814 -98.9258 L 100.537 -98.9258 C 94.8242 -98.9258 90.5762 -94.5312 90.5762 -89.0625 C 90.5762 -83.6426 94.8242 -79.248 100.537 -79.248 L 133.838 -79.248 C 139.502 -79.248 141.846 -76.9043 141.846 -71.2402 L 141.846 -36.4746 C 141.846 -30.7617 139.502 -28.418 133.838 -28.418 L 60.1074 -28.418 L 46.0449 -27.7832 L 55.0781 -35.1562 L 66.6504 -46.4355 C 68.5059 -48.1934 69.8242 -50.3906 69.8242 -53.418 C 69.8242 -58.7891 66.0156 -62.793 60.3027 -62.793 C 57.7637 -62.793 55.1758 -61.7188 53.2227 -59.7656 L 18.9453 -25.8301 C 17.1387 -24.0234 16.0645 -21.2402 16.0645 -18.5547 C 16.0645 -15.918 17.1387 -13.0859 18.9453 -11.3281 L 53.2227 22.6562 C 55.1758 24.6094 57.7637 25.7324 60.3027 25.7324 Z"/>
  </g>
  <g id="Bold-L" transform="matrix(1 0 0 1 2253.72 1556)">
   <path d="M 59.668 23.291 C 64.4043 23.291 67.5293 20.0195 67.5293 15.5762 C 67.5293 13.0859 66.5039 11.2793 65.0391 9.86328 L 50.7812 -4.10156 L 40.5273 -12.6953 L 54.834 -12.0605 L 132.471 -12.0605 C 149.072 -12.0605 156.445 -19.4824 156.445 -36.1816 L 156.445 -73.8281 C 156.445 -90.4297 149.072 -97.8027 132.471 -97.8027 L 97.1191 -97.8027 C 92.3828 -97.8027 88.916 -94.1895 88.916 -89.6973 C 88.916 -85.2051 92.3828 -81.5918 97.1191 -81.5918 L 131.836 -81.5918 C 137.891 -81.5918 140.576 -78.9551 140.576 -72.9004 L 140.576 -37.1094 C 140.576 -30.9082 137.891 -28.2227 131.836 -28.2227 L 54.834 -28.2227 L 40.5273 -27.6367 L 50.7812 -36.2305 L 65.0391 -50.1465 C 66.5039 -51.6113 67.5293 -53.3691 67.5293 -55.8594 C 67.5293 -60.3027 64.4043 -63.623 59.668 -63.623 C 57.6172 -63.623 55.4688 -62.6953 53.8574 -61.084 L 18.5059 -26.123 C 16.9434 -24.6094 16.0645 -22.3633 16.0645 -20.166 C 16.0645 -17.9688 16.9434 -15.7227 18.5059 -14.209 L 53.8574 20.8008 C 55.4688 22.4121 57.6172 23.291 59.668 23.291 Z"/>
  </g>
  <g id="Semibold-L" transform="matrix(1 0 0 1 1958.62 1556)">
   <path d="M 59.2285 21.6797 C 63.2812 21.6797 65.9668 18.8477 65.9668 15.0391 C 65.9668 12.9395 65.1367 11.4258 63.8672 10.2051 L 47.8027 -5.56641 L 36.7676 -14.9902 L 51.2207 -14.4043 L 130.859 -14.4043 C 146.387 -14.4043 153.223 -21.4355 153.223 -36.9629 L 153.223 -74.6582 C 153.223 -90.1367 146.387 -96.9727 130.859 -96.9727 L 94.7754 -96.9727 C 90.7227 -96.9727 87.793 -93.8965 87.793 -90.1367 C 87.793 -86.3281 90.6738 -83.252 94.7754 -83.252 L 130.469 -83.252 C 136.816 -83.252 139.648 -80.4199 139.648 -74.0723 L 139.648 -37.5488 C 139.648 -30.957 136.816 -28.125 130.469 -28.125 L 51.2207 -28.125 L 36.7676 -27.5391 L 47.8027 -36.9629 L 63.8672 -52.6855 C 65.1367 -53.9062 65.9668 -55.4688 65.9668 -57.5195 C 65.9668 -61.3281 63.2812 -64.1602 59.2285 -64.1602 C 57.5195 -64.1602 55.6152 -63.3789 54.2969 -62.0117 L 18.1641 -26.3672 C 16.7969 -25 16.0645 -23.1445 16.0645 -21.2402 C 16.0645 -19.3848 16.7969 -17.5293 18.1641 -16.1621 L 54.2969 19.5312 C 55.6152 20.8496 57.5195 21.6797 59.2285 21.6797 Z"/>
  </g>
  <g id="Medium-L" transform="matrix(1 0 0 1 1663.13 1556)">
   <path d="M 58.8867 20.4102 C 62.4023 20.4102 64.7461 17.9688 64.7461 14.5996 C 64.7461 12.8418 64.1113 11.5234 63.0371 10.4492 L 45.5566 -6.68945 L 33.9355 -16.748 L 48.4375 -16.1621 L 129.639 -16.1621 C 144.336 -16.1621 150.781 -22.9492 150.781 -37.5488 L 150.781 -75.2441 C 150.781 -89.9414 144.336 -96.3867 129.639 -96.3867 L 92.9688 -96.3867 C 89.4043 -96.3867 86.9629 -93.75 86.9629 -90.4297 C 86.9629 -87.1582 89.4043 -84.5215 92.9688 -84.5215 L 129.395 -84.5215 C 135.986 -84.5215 139.014 -81.4941 139.014 -74.9023 L 139.014 -37.8906 C 139.014 -31.0547 135.986 -28.0273 129.395 -28.0273 L 48.4375 -28.0273 L 33.9355 -27.4414 L 45.5566 -37.5 L 63.0371 -54.6387 C 64.1113 -55.7129 64.7461 -57.0312 64.7461 -58.7891 C 64.7461 -62.1582 62.4023 -64.5996 58.8867 -64.5996 C 57.4219 -64.5996 55.7617 -63.916 54.5898 -62.7441 L 17.9688 -26.5137 C 16.6992 -25.3418 16.0645 -23.7305 16.0645 -22.1191 C 16.0645 -20.459 16.6992 -18.8965 17.9688 -17.6758 L 54.5898 18.5547 C 55.7617 19.7266 57.4219 20.4102 58.8867 20.4102 Z"/>
  </g>
  <g id="Regular-L" transform="matrix(1 0 0 1 1368.01 1556)">
   <path d="M 58.4961 18.75 C 61.3281 18.75 63.1836 16.7969 63.1836 14.0625 C 63.1836 12.6953 62.7441 11.6211 61.9141 10.791 L 42.627 -8.1543 L 30.3223 -18.9941 L 44.873 -18.457 L 128.027 -18.457 C 141.65 -18.457 147.607 -24.9023 147.607 -38.3301 L 147.607 -76.0254 C 147.607 -89.6484 141.65 -95.6055 128.027 -95.6055 L 90.6738 -95.6055 C 87.7441 -95.6055 85.8398 -93.5059 85.8398 -90.8691 C 85.8398 -88.2812 87.7441 -86.1328 90.625 -86.1328 L 128.027 -86.1328 C 134.912 -86.1328 138.135 -82.9102 138.135 -76.0254 L 138.135 -38.3301 C 138.135 -31.1523 134.863 -27.9297 128.027 -27.9297 L 44.873 -27.9297 L 30.3223 -27.3438 L 42.627 -38.2324 L 61.9141 -57.1777 C 62.7441 -58.0078 63.1836 -59.082 63.1836 -60.4492 C 63.1836 -63.1836 61.3281 -65.1367 58.4961 -65.1367 C 57.3242 -65.1367 55.957 -64.5508 55.0293 -63.6719 L 17.627 -26.709 C 16.5527 -25.7324 16.0645 -24.5117 16.0645 -23.1934 C 16.0645 -21.875 16.5527 -20.6543 17.627 -19.6289 L 55.0293 17.2852 C 55.957 18.2129 57.3242 18.75 58.4961 18.75 Z"/>
  </g>
  <g id="Light-L" transform="matrix(1 0 0 1 1072.25 1556)">
   <path d="M 57.666 17.6758 C 59.8145 17.6758 61.2305 16.1621 61.2305 14.1602 C 61.2305 13.0859 60.8887 12.2559 60.3027 11.6211 L 39.502 -8.93555 L 26.709 -20.7031 L 40.8691 -20.2637 L 127.832 -20.2637 C 139.941 -20.2637 145.703 -26.3672 145.703 -38.6719 L 145.703 -77.002 C 145.703 -89.1113 139.941 -94.9219 127.832 -94.9219 L 87.5977 -94.9219 C 85.4004 -94.9219 83.9844 -93.3594 83.9844 -91.3574 C 83.9844 -89.4043 85.3516 -87.8418 87.5488 -87.8418 L 127.832 -87.8418 C 134.961 -87.8418 138.623 -84.1309 138.623 -77.002 L 138.623 -38.6719 C 138.623 -31.0547 134.912 -27.3438 127.832 -27.3438 L 40.8691 -27.3438 L 26.709 -26.9043 L 39.502 -38.6719 L 60.3027 -59.2285 C 60.8887 -59.8633 61.2305 -60.6934 61.2305 -61.7188 C 61.2305 -63.7207 59.8145 -65.2344 57.666 -65.2344 C 56.7871 -65.2344 55.8105 -64.8438 55.127 -64.1602 L 17.2363 -26.416 C 16.4551 -25.6836 16.0645 -24.8047 16.0645 -23.7793 C 16.0645 -22.8027 16.4551 -21.9238 17.2363 -21.1426 L 55.127 16.5527 C 55.8105 17.2363 56.7871 17.6758 57.666 17.6758 Z"/>
  </g>
  <g id="Thin-L" transform="matrix(1 0 0 1 776.784 1556)">
   <path d="M 56.6406 16.1621 C 57.8613 16.1621 58.6426 15.2832 58.6426 14.2578 C 58.6426 13.623 58.4473 13.0859 58.1543 12.7441 L 35.3516 -9.96094 L 22.1191 -22.8516 L 35.6445 -22.6562 L 127.539 -22.6562 C 137.695 -22.6562 143.213 -28.2715 143.213 -39.1113 L 143.213 -78.2715 C 143.213 -88.4277 137.695 -93.9941 127.539 -93.9941 L 83.4961 -93.9941 C 82.3242 -93.9941 81.543 -93.1641 81.543 -92.041 C 81.543 -90.918 82.2754 -90.0879 83.3984 -90.0879 L 127.539 -90.0879 C 135.01 -90.0879 139.307 -85.7422 139.307 -78.2715 L 139.307 -39.1113 C 139.307 -30.9082 134.912 -26.5625 127.539 -26.5625 L 35.6445 -26.5625 L 22.1191 -26.3184 L 35.3516 -39.209 L 58.1543 -61.9629 C 58.4473 -62.3047 58.6426 -62.8418 58.6426 -63.4277 C 58.6426 -64.502 57.8613 -65.3809 56.6406 -65.3809 C 56.0547 -65.3809 55.6152 -65.1855 55.2246 -64.7949 L 16.6992 -26.0254 C 16.2598 -25.6348 16.0645 -25.1953 16.0645 -24.6094 C 16.0645 -24.0234 16.2598 -23.584 16.6992 -23.1445 L 55.2246 15.5762 C 55.6152 15.9668 56.0547 16.1621 56.6406 16.1621 Z"/>
  </g>
  <g id="Ultralight-L" transform="matrix(1 0 0 1 480.707 1556)">
   <path d="M 56.1035 15.4297 C 56.8359 15.4297 57.3242 14.8438 57.3242 14.3066 C 57.3242 13.916 57.1777 13.5254 57.0312 13.3301 L 33.2031 -10.498 L 19.7754 -23.9746 L 32.959 -23.877 L 127.393 -23.877 C 136.523 -23.877 141.943 -29.248 141.943 -39.3066 L 141.943 -78.9062 C 141.943 -88.0859 136.523 -93.5059 127.393 -93.5059 L 81.3965 -93.5059 C 80.7617 -93.5059 80.2734 -93.0664 80.2734 -92.3828 C 80.2734 -91.6992 80.6641 -91.2109 81.2988 -91.2109 L 127.393 -91.2109 C 135.01 -91.2109 139.697 -86.5723 139.697 -78.9062 L 139.697 -39.3066 C 139.697 -30.8105 134.912 -26.1719 127.393 -26.1719 L 32.959 -26.1719 L 19.7754 -26.0742 L 33.2031 -39.502 L 57.0312 -63.3789 C 57.1777 -63.5254 57.3242 -63.9648 57.3242 -64.3066 C 57.3242 -64.8926 56.8359 -65.4785 56.1035 -65.4785 C 55.7129 -65.4785 55.5176 -65.332 55.2734 -65.0879 L 16.4062 -25.8301 C 16.1621 -25.5859 16.0645 -25.3906 16.0645 -25 C 16.0645 -24.6582 16.1621 -24.4141 16.4062 -24.1699 L 55.2734 15.0879 C 55.5176 15.332 55.7129 15.4297 56.1035 15.4297 Z"/>
  </g>
  <g id="Black-M" transform="matrix(1 0 0 1 2860.84 1126)">
   <path d="M 47.5098 15.9668 C 53.418 15.9668 57.4219 11.7676 57.4219 6.25 C 57.4219 2.97852 55.8594 0.732422 53.9062 -1.17188 L 49.1211 -5.85938 L 44.1895 -9.76562 L 54.4434 -9.27734 L 108.838 -9.27734 C 125.146 -9.27734 132.666 -16.1621 132.666 -33.1055 L 132.666 -62.5488 C 132.666 -78.8574 125.146 -86.377 108.838 -86.377 L 82.7637 -86.377 C 76.9043 -86.377 72.3145 -81.7871 72.3145 -76.0254 C 72.3145 -70.3125 76.9043 -65.7227 82.7637 -65.7227 L 107.422 -65.7227 C 111.133 -65.7227 112.646 -64.209 112.646 -60.498 L 112.646 -35.1562 C 112.646 -31.4453 111.133 -29.9316 107.422 -29.9316 L 54.4434 -29.9316 L 44.1895 -29.4922 L 49.1211 -33.3496 L 53.9062 -37.9883 C 55.8594 -39.8926 57.4219 -42.1387 57.4219 -45.4102 C 57.4219 -50.9277 53.418 -55.127 47.5098 -55.127 C 44.7754 -55.127 42.1875 -54.0039 40.1367 -51.9043 L 15.332 -27.1973 C 13.5742 -25.4395 12.4512 -22.3633 12.4512 -19.6289 C 12.4512 -16.8457 13.5742 -13.8184 15.332 -12.0605 L 40.1367 12.7441 C 42.1875 14.8438 44.7754 15.9668 47.5098 15.9668 Z"/>
  </g>
  <g id="Heavy-M" transform="matrix(1 0 0 1 2566.16 1126)">
   <path d="M 47.1191 13.916 C 52.2461 13.916 55.6641 10.2539 55.6641 5.46875 C 55.6641 2.68555 54.3945 0.732422 52.7344 -0.927734 L 45.752 -7.71484 L 39.7461 -12.5488 L 50.3418 -12.0605 L 106.592 -12.0605 C 121.729 -12.0605 128.613 -18.5547 128.613 -34.1309 L 128.613 -63.4277 C 128.613 -78.5645 121.729 -85.4492 106.592 -85.4492 L 80.2246 -85.4492 C 75.0977 -85.4492 71.1914 -81.4941 71.1914 -76.5137 C 71.1914 -71.582 75.0977 -67.5781 80.2246 -67.5781 L 105.518 -67.5781 C 109.57 -67.5781 111.23 -65.918 111.23 -61.8652 L 111.23 -35.6934 C 111.23 -31.5918 109.57 -29.9316 105.518 -29.9316 L 50.3418 -29.9316 L 39.7461 -29.4434 L 45.752 -34.2773 L 52.7344 -41.0645 C 54.3945 -42.6758 55.6641 -44.6289 55.6641 -47.4609 C 55.6641 -52.2461 52.2461 -55.9082 47.1191 -55.9082 C 44.7754 -55.9082 42.4805 -54.8828 40.7227 -53.125 L 14.9902 -27.5391 C 13.4277 -25.9766 12.4512 -23.4375 12.4512 -20.9961 C 12.4512 -18.6035 13.4277 -16.0156 14.9902 -14.4531 L 40.7227 11.1328 C 42.4805 12.9395 44.7754 13.916 47.1191 13.916 Z"/>
  </g>
  <g id="Bold-M" transform="matrix(1 0 0 1 2271.72 1126)">
   <path d="M 46.6309 11.6211 C 50.8789 11.6211 53.7598 8.59375 53.7598 4.58984 C 53.7598 2.34375 52.7832 0.732422 51.416 -0.634766 L 41.9922 -9.81445 L 34.8145 -15.7227 L 45.752 -15.2344 L 104.102 -15.2344 C 117.92 -15.2344 124.072 -21.2891 124.072 -35.2539 L 124.072 -64.4531 C 124.072 -78.2715 117.92 -84.4238 104.102 -84.4238 L 77.3926 -84.4238 C 73.1445 -84.4238 69.9219 -81.1035 69.9219 -77.0508 C 69.9219 -72.998 73.0957 -69.7266 77.3926 -69.7266 L 103.418 -69.7266 C 107.861 -69.7266 109.668 -67.8711 109.668 -63.4277 L 109.668 -36.2793 C 109.668 -31.7871 107.812 -29.9316 103.418 -29.9316 L 45.752 -29.9316 L 34.8145 -29.4434 L 41.9922 -35.3516 L 51.416 -44.5312 C 52.7832 -45.8496 53.7598 -47.4609 53.7598 -49.707 C 53.7598 -53.7109 50.8789 -56.7383 46.6309 -56.7383 C 44.7754 -56.7383 42.8223 -55.9082 41.3574 -54.4434 L 14.5996 -27.9785 C 13.2324 -26.6602 12.4512 -24.5605 12.4512 -22.5586 C 12.4512 -20.6055 13.2324 -18.5059 14.5996 -17.1875 L 41.3574 9.32617 C 42.8223 10.791 44.7754 11.6211 46.6309 11.6211 Z"/>
  </g>
  <g id="Semibold-M" transform="matrix(1 0 0 1 1976.57 1126)">
   <path d="M 46.3379 10.0098 C 50 10.0098 52.4414 7.4707 52.4414 4.00391 C 52.4414 2.09961 51.6602 0.732422 50.4883 -0.390625 L 39.4043 -11.2793 L 31.3965 -17.9199 L 42.5781 -17.3828 L 102.393 -17.3828 C 115.332 -17.3828 120.947 -23.1445 120.947 -36.0352 L 120.947 -65.1367 C 120.947 -78.0762 115.332 -83.6914 102.393 -83.6914 L 75.4395 -83.6914 C 71.7285 -83.6914 69.0918 -80.8594 69.0918 -77.4414 C 69.0918 -73.9746 71.7285 -71.1426 75.4395 -71.1426 L 101.904 -71.1426 C 106.641 -71.1426 108.643 -69.1895 108.643 -64.4531 L 108.643 -36.7188 C 108.643 -31.8848 106.641 -29.9316 101.904 -29.9316 L 42.5781 -29.9316 L 31.3965 -29.4434 L 39.4043 -36.084 L 50.4883 -46.875 C 51.6602 -47.998 52.4414 -49.4141 52.4414 -51.3184 C 52.4414 -54.7363 50 -57.3242 46.3379 -57.3242 C 44.7266 -57.3242 43.0664 -56.5918 41.7969 -55.3711 L 14.3555 -28.2715 C 13.1348 -27.0996 12.4512 -25.3418 12.4512 -23.6816 C 12.4512 -21.9727 13.1348 -20.2148 14.3555 -19.043 L 41.7969 8.05664 C 43.0664 9.32617 44.7266 10.0098 46.3379 10.0098 Z"/>
  </g>
  <g id="Medium-M" transform="matrix(1 0 0 1 1681.05 1126)">
   <path d="M 46.0938 8.83789 C 49.2676 8.83789 51.416 6.5918 51.416 3.51562 C 51.416 1.9043 50.7812 0.732422 49.8047 -0.244141 L 37.4023 -12.3535 L 28.8574 -19.5312 L 40.1367 -19.043 L 101.074 -19.043 C 113.33 -19.043 118.555 -24.5605 118.555 -36.6699 L 118.555 -65.625 C 118.555 -77.8809 113.33 -83.1543 101.074 -83.1543 L 73.9746 -83.1543 C 70.7031 -83.1543 68.4082 -80.7129 68.4082 -77.6855 C 68.4082 -74.707 70.7031 -72.2656 73.9258 -72.2656 L 100.83 -72.2656 C 105.713 -72.2656 107.812 -70.166 107.812 -65.2832 L 107.812 -37.0117 C 107.812 -31.9824 105.713 -29.9316 100.83 -29.9316 L 40.1367 -29.9316 L 28.8574 -29.3945 L 37.4023 -36.6211 L 49.8047 -48.6816 C 50.7812 -49.6582 51.416 -50.8789 51.416 -52.4902 C 51.416 -55.5176 49.2676 -57.7637 46.0938 -57.7637 C 44.7266 -57.7637 43.2129 -57.1289 42.1387 -56.0547 L 14.1602 -28.5156 C 13.0371 -27.4414 12.4512 -25.9766 12.4512 -24.4629 C 12.4512 -22.998 13.0371 -21.5332 14.1602 -20.459 L 42.1387 7.12891 C 43.2129 8.20312 44.7266 8.83789 46.0938 8.83789 Z"/>
  </g>
  <g id="Regular-M" transform="matrix(1 0 0 1 1385.88 1126)">
   <path d="M 45.752 7.22656 C 48.3887 7.22656 50.0977 5.46875 50.0977 2.92969 C 50.0977 1.66016 49.6582 0.732422 48.9258 -0.0488281 L 34.8145 -13.7695 L 25.5859 -21.6797 L 37.0117 -21.1914 L 99.3652 -21.1914 C 110.742 -21.1914 115.479 -26.416 115.479 -37.4512 L 115.479 -66.3086 C 115.479 -77.6855 110.742 -82.4219 99.3652 -82.4219 L 72.0215 -82.4219 C 69.3359 -82.4219 67.5781 -80.4688 67.5781 -78.0762 C 67.5781 -75.6836 69.3359 -73.7305 72.0215 -73.7305 L 99.3652 -73.7305 C 104.541 -73.7305 106.738 -71.4844 106.738 -66.3086 L 106.738 -37.4512 C 106.738 -32.1289 104.541 -29.8828 99.3652 -29.8828 L 37.0117 -29.8828 L 25.5859 -29.3945 L 34.8145 -37.3047 L 48.9258 -51.0254 C 49.6582 -51.8066 50.0977 -52.7832 50.0977 -54.0527 C 50.0977 -56.543 48.3887 -58.3496 45.752 -58.3496 C 44.7266 -58.3496 43.457 -57.8125 42.627 -56.9824 L 13.916 -28.8086 C 12.9395 -27.8809 12.4512 -26.7578 12.4512 -25.5371 C 12.4512 -24.3652 12.9395 -23.1934 13.916 -22.2656 L 42.627 5.9082 C 43.457 6.73828 44.7266 7.22656 45.752 7.22656 Z"/>
  </g>
  <g id="Light-M" transform="matrix(1 0 0 1 1090.02 1126)">
   <path d="M 45.0684 6.25 C 47.0215 6.25 48.3398 4.88281 48.3398 2.97852 C 48.3398 2.05078 47.998 1.26953 47.4609 0.732422 L 32.0312 -14.502 L 22.3145 -23.1934 L 33.4473 -22.8027 L 99.1699 -22.8027 C 109.229 -22.8027 113.77 -27.6855 113.77 -37.7441 L 113.77 -67.1875 C 113.77 -77.2461 109.229 -81.7871 99.1699 -81.7871 L 69.2383 -81.7871 C 67.2363 -81.7871 65.918 -80.3223 65.918 -78.5156 C 65.918 -76.709 67.2363 -75.2441 69.2383 -75.2441 L 99.1699 -75.2441 C 104.541 -75.2441 107.227 -72.6074 107.227 -67.1875 L 107.227 -37.7441 C 107.227 -32.0312 104.541 -29.3945 99.1699 -29.3945 L 33.4473 -29.3945 L 22.3145 -29.0039 L 32.0312 -37.6953 L 47.4609 -52.8809 C 47.998 -53.4668 48.3398 -54.248 48.3398 -55.1758 C 48.3398 -57.0801 47.0215 -58.4473 45.0684 -58.4473 C 44.2383 -58.4473 43.3105 -58.0566 42.6758 -57.4219 L 13.5254 -28.5645 C 12.793 -27.832 12.4512 -27.002 12.4512 -26.0742 C 12.4512 -25.1953 12.793 -24.3652 13.5254 -23.6328 L 42.6758 5.22461 C 43.3105 5.85938 44.2383 6.25 45.0684 6.25 Z"/>
  </g>
  <g id="Thin-M" transform="matrix(1 0 0 1 794.435 1126)">
   <path d="M 44.1406 4.93164 C 45.2637 4.93164 45.9961 4.10156 45.9961 3.07617 C 45.9961 2.53906 45.8496 2.05078 45.5078 1.70898 L 28.2715 -15.4297 L 18.1152 -25.1953 L 28.7598 -24.9512 L 98.877 -24.9512 C 107.178 -24.9512 111.523 -29.3945 111.523 -38.1348 L 111.523 -68.3105 C 111.523 -76.6113 107.178 -80.957 98.877 -80.957 L 65.5762 -80.957 C 64.502 -80.957 63.7207 -80.1758 63.7207 -79.1016 C 63.7207 -78.0762 64.4531 -77.2461 65.5273 -77.2461 L 98.877 -77.2461 C 104.59 -77.2461 107.812 -74.0234 107.812 -68.3105 L 107.812 -38.1348 C 107.812 -31.8848 104.541 -28.6621 98.877 -28.6621 L 28.7598 -28.6621 L 18.1152 -28.4668 L 28.2715 -38.1836 L 45.5078 -55.3711 C 45.8496 -55.6641 45.9961 -56.1523 45.9961 -56.7383 C 45.9961 -57.7637 45.2637 -58.5938 44.1406 -58.5938 C 43.6035 -58.5938 43.1152 -58.3496 42.7734 -58.0078 L 13.0371 -28.1738 C 12.6465 -27.7832 12.4512 -27.3438 12.4512 -26.8066 C 12.4512 -26.2695 12.6465 -25.8301 13.0371 -25.4395 L 42.7734 4.3457 C 43.1152 4.73633 43.6035 4.93164 44.1406 4.93164 Z"/>
  </g>
  <g id="Ultralight-M" transform="matrix(1 0 0 1 498.285 1126)">
   <path d="M 43.6523 4.24805 C 44.3359 4.24805 44.8242 3.71094 44.8242 3.125 C 44.8242 2.7832 44.7266 2.39258 44.5312 2.24609 L 26.3672 -15.918 L 16.0156 -26.1719 L 26.3184 -26.0742 L 98.7793 -26.0742 C 106.152 -26.0742 110.4 -30.2734 110.4 -38.3301 L 110.4 -68.8965 C 110.4 -76.3184 106.152 -80.5176 98.7793 -80.5176 L 63.7207 -80.5176 C 63.0859 -80.5176 62.5977 -80.0781 62.5977 -79.3945 C 62.5977 -78.7598 62.9883 -78.2715 63.6719 -78.2715 L 98.7793 -78.2715 C 104.639 -78.2715 108.154 -74.7559 108.154 -68.8965 L 108.154 -38.3301 C 108.154 -31.8359 104.59 -28.3203 98.7793 -28.3203 L 26.3184 -28.3203 L 16.0156 -28.2227 L 26.3672 -38.4766 L 44.5312 -56.5918 C 44.7266 -56.7871 44.8242 -57.1777 44.8242 -57.5195 C 44.8242 -58.1055 44.3359 -58.6426 43.6523 -58.6426 C 43.2617 -58.6426 43.0664 -58.4961 42.8223 -58.3008 L 12.793 -28.0273 C 12.5488 -27.7832 12.4512 -27.5391 12.4512 -27.1973 C 12.4512 -26.8066 12.5488 -26.6113 12.793 -26.3672 L 42.8223 3.90625 C 43.0664 4.15039 43.2617 4.24805 43.6523 4.24805 Z"/>
  </g>
  <g id="Black-S" transform="matrix(1 0 0 1 2876.69 696)">
   <path d="M 37.207 4.73633 C 41.7969 4.73633 44.873 1.46484 44.873 -2.7832 C 44.873 -5.32227 43.7012 -7.08008 42.1875 -8.54492 L 38.2812 -12.3535 L 34.3262 -15.4785 L 42.3828 -15.0879 L 85.1074 -15.0879 C 97.8027 -15.0879 103.662 -20.459 103.662 -33.6426 L 103.662 -56.6895 C 103.662 -69.3848 97.8027 -75.2441 85.1074 -75.2441 L 64.6973 -75.2441 C 60.1562 -75.2441 56.5918 -71.6797 56.5918 -67.2363 C 56.5918 -62.793 60.1562 -59.2285 64.6973 -59.2285 L 84.0332 -59.2285 C 86.9629 -59.2285 88.1348 -58.0566 88.1348 -55.127 L 88.1348 -35.2051 C 88.1348 -32.2754 86.9629 -31.1035 84.0332 -31.1035 L 42.3828 -31.1035 L 34.3262 -30.7129 L 38.2812 -33.8379 L 42.1875 -37.5977 C 43.7012 -39.0625 44.873 -40.8203 44.873 -43.3594 C 44.873 -47.6074 41.7969 -50.8789 37.207 -50.8789 C 35.1074 -50.8789 33.1055 -50 31.4941 -48.3887 L 12.0117 -28.9551 C 10.6445 -27.5879 9.76562 -25.2441 9.76562 -23.0957 C 9.76562 -20.9473 10.6445 -18.6035 12.0117 -17.2363 L 31.4941 2.24609 C 33.1055 3.85742 35.1074 4.73633 37.207 4.73633 Z"/>
  </g>
  <g id="Heavy-S" transform="matrix(1 0 0 1 2581.44 696)">
   <path d="M 36.9629 3.27148 C 41.0156 3.27148 43.75 0.390625 43.75 -3.36914 C 43.75 -5.61523 42.7734 -7.12891 41.4551 -8.44727 L 36.0352 -13.7207 L 31.3477 -17.4316 L 39.6484 -17.041 L 83.3984 -17.041 C 95.3613 -17.041 100.732 -22.168 100.732 -34.375 L 100.732 -57.2754 C 100.732 -69.2383 95.3613 -74.6094 83.3984 -74.6094 L 63.0859 -74.6094 C 59.0332 -74.6094 55.9082 -71.4355 55.9082 -67.5293 C 55.9082 -63.6719 59.0332 -60.498 63.0859 -60.498 L 82.6172 -60.498 C 85.7422 -60.498 87.0117 -59.2285 87.0117 -56.1035 L 87.0117 -35.5957 C 87.0117 -32.4219 85.7422 -31.1523 82.6172 -31.1523 L 39.6484 -31.1523 L 31.3477 -30.7617 L 36.0352 -34.5215 L 41.4551 -39.7461 C 42.7734 -41.0156 43.75 -42.5781 43.75 -44.7754 C 43.75 -48.584 41.0156 -51.4648 36.9629 -51.4648 C 35.1562 -51.4648 33.3496 -50.6836 31.9336 -49.2676 L 11.7676 -29.2969 C 10.5469 -28.0273 9.76562 -26.0254 9.76562 -24.1211 C 9.76562 -22.2168 10.5469 -20.166 11.7676 -18.9453 L 31.9336 1.07422 C 33.3496 2.49023 35.1562 3.27148 36.9629 3.27148 Z"/>
  </g>
  <g id="Bold-S" transform="matrix(1 0 0 1 2286.36 696)">
   <path d="M 36.7188 1.61133 C 40.1855 1.61133 42.4805 -0.78125 42.4805 -4.05273 C 42.4805 -5.9082 41.6992 -7.22656 40.625 -8.30078 L 33.4961 -15.2344 L 27.9785 -19.6777 L 36.5723 -19.2871 L 81.543 -19.2871 C 92.6758 -19.2871 97.4609 -24.0723 97.4609 -35.2051 L 97.4609 -57.9102 C 97.4609 -69.043 92.6758 -73.877 81.543 -73.877 L 61.2305 -73.877 C 57.7637 -73.877 55.1758 -71.1914 55.1758 -67.9199 C 55.1758 -64.5996 57.7637 -61.9141 61.2305 -61.9141 L 81.0059 -61.9141 C 84.4238 -61.9141 85.791 -60.5957 85.791 -57.1289 L 85.791 -35.9863 C 85.791 -32.5684 84.4238 -31.2012 81.0059 -31.2012 L 36.5723 -31.2012 L 27.9785 -30.8105 L 33.4961 -35.2539 L 40.625 -42.1387 C 41.6992 -43.2617 42.4805 -44.5312 42.4805 -46.3867 C 42.4805 -49.6582 40.1855 -52.0996 36.7188 -52.0996 C 35.2051 -52.0996 33.5938 -51.416 32.4219 -50.2441 L 11.5234 -29.6387 C 10.4004 -28.5156 9.76562 -26.8555 9.76562 -25.2441 C 9.76562 -23.6328 10.4004 -21.9238 11.5234 -20.8496 L 32.4219 -0.244141 C 33.5938 0.976562 35.2051 1.61133 36.7188 1.61133 Z"/>
  </g>
  <g id="Semibold-S" transform="matrix(1 0 0 1 1990.78 696)">
   <path d="M 36.5234 0.488281 C 39.5996 0.488281 41.6016 -1.61133 41.6016 -4.54102 C 41.6016 -6.10352 41.0156 -7.27539 40.0391 -8.20312 L 31.7383 -16.2598 L 25.6836 -21.1914 L 34.4238 -20.8008 L 80.2246 -20.8008 C 90.7715 -20.8008 95.2148 -25.3906 95.2148 -35.791 L 95.2148 -58.3984 C 95.2148 -68.9453 90.7715 -73.3887 80.2246 -73.3887 L 59.9609 -73.3887 C 56.8848 -73.3887 54.6387 -71.0449 54.6387 -68.1641 C 54.6387 -65.2832 56.8848 -62.9395 59.9609 -62.9395 L 79.8828 -62.9395 C 83.4961 -62.9395 84.9121 -61.5234 84.9121 -57.8613 L 84.9121 -36.2793 C 84.9121 -32.666 83.4961 -31.25 79.8828 -31.25 L 34.4238 -31.25 L 25.6836 -30.8105 L 31.7383 -35.791 L 40.0391 -43.7988 C 41.0156 -44.7754 41.6016 -45.8984 41.6016 -47.4609 C 41.6016 -50.3906 39.5996 -52.5391 36.5234 -52.5391 C 35.2051 -52.5391 33.7891 -51.9043 32.7637 -50.8789 L 11.377 -29.8828 C 10.3516 -28.9062 9.76562 -27.4414 9.76562 -26.0254 C 9.76562 -24.6094 10.3516 -23.1445 11.377 -22.1191 L 32.7637 -1.12305 C 33.7891 -0.0976562 35.2051 0.488281 36.5234 0.488281 Z"/>
  </g>
  <g id="Medium-S" transform="matrix(1 0 0 1 1694.92 696)">
   <path d="M 36.377 -0.341797 C 39.1602 -0.341797 40.9668 -2.24609 40.9668 -4.88281 C 40.9668 -6.29883 40.4297 -7.27539 39.5996 -8.10547 L 30.4199 -17.041 L 23.9258 -22.3633 L 32.8613 -21.9238 L 79.248 -21.9238 C 89.3555 -21.9238 93.5059 -26.3672 93.5059 -36.2305 L 93.5059 -58.7402 C 93.5059 -68.8477 89.3555 -72.998 79.248 -72.998 L 59.0332 -72.998 C 56.2012 -72.998 54.248 -70.8984 54.248 -68.3105 C 54.248 -65.7715 56.2012 -63.6719 59.0332 -63.6719 L 79.0527 -63.6719 C 82.8125 -63.6719 84.2773 -62.207 84.2773 -58.4473 L 84.2773 -36.5234 C 84.2773 -32.7637 82.8125 -31.2988 79.0527 -31.2988 L 32.8613 -31.2988 L 23.9258 -30.8594 L 30.4199 -36.1816 L 39.5996 -45.0684 C 40.4297 -45.8984 40.9668 -46.9238 40.9668 -48.291 C 40.9668 -50.9766 39.1602 -52.832 36.377 -52.832 C 35.2539 -52.832 33.9355 -52.2949 33.0078 -51.416 L 11.2305 -30.0781 C 10.2539 -29.1504 9.76562 -27.8809 9.76562 -26.6113 C 9.76562 -25.3418 10.2539 -24.0723 11.2305 -23.1445 L 33.0078 -1.80664 C 33.9355 -0.878906 35.2539 -0.341797 36.377 -0.341797 Z"/>
  </g>
  <g id="Regular-S" transform="matrix(1 0 0 1 1399.31 696)">
   <path d="M 36.2305 -1.46484 C 38.5742 -1.46484 40.0879 -3.07617 40.0879 -5.37109 C 40.0879 -6.49414 39.7461 -7.32422 39.0137 -8.05664 L 28.6621 -18.0664 L 21.6797 -23.877 L 30.7617 -23.4375 L 77.9297 -23.4375 C 87.5 -23.4375 91.3086 -27.6855 91.3086 -36.8164 L 91.3086 -59.1797 C 91.3086 -68.75 87.5 -72.5098 77.9297 -72.5098 L 57.7637 -72.5098 C 55.3223 -72.5098 53.7598 -70.752 53.7598 -68.5547 C 53.7598 -66.4062 55.3223 -64.6484 57.7637 -64.6484 L 77.9297 -64.6484 C 81.8848 -64.6484 83.3984 -63.0859 83.3984 -59.1797 L 83.3984 -36.8164 C 83.3984 -32.8613 81.8848 -31.2988 77.9297 -31.2988 L 30.7617 -31.2988 L 21.6797 -30.8594 L 28.6621 -36.6699 L 39.0137 -46.7285 C 39.7461 -47.4121 40.0879 -48.291 40.0879 -49.4141 C 40.0879 -51.709 38.5742 -53.2715 36.2305 -53.2715 C 35.2539 -53.2715 34.1309 -52.832 33.3496 -52.0508 L 11.084 -30.3223 C 10.2051 -29.4922 9.76562 -28.4668 9.76562 -27.3926 C 9.76562 -26.3184 10.2051 -25.293 11.084 -24.4141 L 33.3496 -2.68555 C 34.1309 -1.95312 35.2539 -1.46484 36.2305 -1.46484 Z"/>
  </g>
  <g id="Light-S" transform="matrix(1 0 0 1 1103.35 696)">
   <path d="M 35.5957 -2.34375 C 37.3535 -2.34375 38.5742 -3.56445 38.5742 -5.32227 C 38.5742 -6.15234 38.2812 -6.83594 37.7441 -7.37305 L 26.1719 -18.7012 L 18.75 -25.2441 L 27.5879 -24.9023 L 77.7832 -24.9023 C 86.1816 -24.9023 89.7949 -28.8574 89.7949 -37.0605 L 89.7949 -59.9121 C 89.7949 -68.3105 86.1816 -71.9727 77.7832 -71.9727 L 55.3223 -71.9727 C 53.5156 -71.9727 52.2949 -70.6055 52.2949 -68.9941 C 52.2949 -67.334 53.4668 -65.9668 55.3223 -65.9668 L 77.7832 -65.9668 C 81.9336 -65.9668 83.8379 -64.0625 83.8379 -59.9121 L 83.8379 -37.0605 C 83.8379 -32.7637 81.8848 -30.8594 77.7832 -30.8594 L 27.5879 -30.8594 L 18.75 -30.5176 L 26.1719 -37.0117 L 37.7441 -48.3887 C 38.2812 -48.877 38.5742 -49.5605 38.5742 -50.4395 C 38.5742 -52.1484 37.3535 -53.3691 35.5957 -53.3691 C 34.8633 -53.3691 33.9844 -53.0273 33.3984 -52.4414 L 10.7422 -30.0781 C 10.1074 -29.4434 9.76562 -28.7109 9.76562 -27.8809 C 9.76562 -27.0508 10.1074 -26.2695 10.7422 -25.6348 L 33.3984 -3.27148 C 33.9844 -2.68555 34.8633 -2.34375 35.5957 -2.34375 Z"/>
  </g>
  <g id="Thin-S" transform="matrix(1 0 0 1 807.619 696)">
   <path d="M 34.7656 -3.51562 C 35.791 -3.51562 36.5234 -4.24805 36.5234 -5.22461 C 36.5234 -5.76172 36.3281 -6.20117 36.0352 -6.49414 L 22.9004 -19.5312 L 14.9902 -27.002 L 23.4375 -26.7578 L 77.5391 -26.7578 C 84.375 -26.7578 87.8418 -30.3223 87.8418 -37.4023 L 87.8418 -60.9375 C 87.8418 -67.7734 84.375 -71.2402 77.5391 -71.2402 L 52.0996 -71.2402 C 51.0742 -71.2402 50.3418 -70.459 50.3418 -69.4824 C 50.3418 -68.5059 51.0254 -67.7734 52.0508 -67.7734 L 77.5391 -67.7734 C 81.9336 -67.7734 84.375 -65.332 84.375 -60.9375 L 84.375 -37.4023 C 84.375 -32.666 81.9336 -30.2246 77.5391 -30.2246 L 23.4375 -30.2246 L 14.9902 -30.0293 L 22.9004 -37.4512 L 36.0352 -50.5371 C 36.3281 -50.8301 36.5234 -51.2695 36.5234 -51.7578 C 36.5234 -52.7344 35.791 -53.4668 34.7656 -53.4668 C 34.2773 -53.4668 33.8379 -53.2715 33.4961 -52.9297 L 10.3516 -29.7852 C 9.96094 -29.4434 9.76562 -29.0039 9.76562 -28.5156 C 9.76562 -27.9785 9.96094 -27.5879 10.3516 -27.1973 L 33.4961 -4.05273 C 33.8379 -3.71094 34.2773 -3.51562 34.7656 -3.51562 Z"/>
  </g>
  <g id="Ultralight-S" transform="matrix(1 0 0 1 511.42 696)">
   <path d="M 34.3262 -4.10156 C 35.0098 -4.10156 35.4492 -4.58984 35.4492 -5.17578 C 35.4492 -5.51758 35.3516 -5.85938 35.1562 -6.00586 L 21.1914 -19.9707 L 13.1348 -27.8809 L 21.2891 -27.7344 L 77.4414 -27.7344 C 83.4473 -27.7344 86.8164 -31.1035 86.8164 -37.5977 L 86.8164 -61.4746 C 86.8164 -67.4805 83.4473 -70.8496 77.4414 -70.8496 L 50.4395 -70.8496 C 49.8047 -70.8496 49.3652 -70.3613 49.3652 -69.7754 C 49.3652 -69.1406 49.7559 -68.7012 50.3906 -68.7012 L 77.4414 -68.7012 C 81.9824 -68.7012 84.668 -66.0156 84.668 -61.4746 L 84.668 -37.5977 C 84.668 -32.5684 81.9336 -29.8828 77.4414 -29.8828 L 21.2891 -29.8828 L 13.1348 -29.7852 L 21.1914 -37.6953 L 35.1562 -51.6602 C 35.3516 -51.8066 35.4492 -52.1484 35.4492 -52.4902 C 35.4492 -53.0762 35.0098 -53.5645 34.3262 -53.5645 C 33.9844 -53.5645 33.7402 -53.418 33.5449 -53.2227 L 10.1074 -29.6387 C 9.86328 -29.3945 9.76562 -29.1504 9.76562 -28.8086 C 9.76562 -28.5156 9.86328 -28.2715 10.1074 -28.0273 L 33.5449 -4.44336 C 33.7402 -4.24805 33.9844 -4.10156 34.3262 -4.10156 Z"/>
  </g>
 </g>
</svg>
