<?xml version="1.0" encoding="UTF-8"?>
<!--Generator: Apple Native CoreSVG 123-->
<!DOCTYPE svg
PUBLIC "-//W3C//DTD SVG 1.1//EN"
       "http://www.w3.org/Graphics/SVG/1.1/DTD/svg11.dtd">
<svg version="1.1" xmlns="http://www.w3.org/2000/svg" xmlns:xlink="http://www.w3.org/1999/xlink" width="3300" height="2200">
 <!--glyph: "uni10019D.medium", point size: 100.000000, font version: "Version 15.0d7e11", template writer version: "5"-->
 <g id="Notes">
  <rect height="2200" id="artboard" style="fill:white;opacity:1" width="3300" x="0" y="0"/>
  <line id="" style="fill:none;stroke:black;opacity:1;stroke-width:0.5;" x1="263" x2="3036" y1="292" y2="292"/>
  <text style="stroke:none;fill:black;font-family:-apple-system,&quot;SF Pro Display&quot;,&quot;SF Pro Text&quot;,Helvetica,sans-serif;font-weight:bold;" transform="matrix(1 0 0 1 263 322)">Weight/Scale Variations</text>
  <text style="stroke:none;fill:black;font-family:-apple-system,&quot;SF Pro Display&quot;,&quot;SF Pro Text&quot;,Helvetica,sans-serif;text-anchor:middle;" transform="matrix(1 0 0 1 559.711 322)">Ultralight</text>
  <text style="stroke:none;fill:black;font-family:-apple-system,&quot;SF Pro Display&quot;,&quot;SF Pro Text&quot;,Helvetica,sans-serif;text-anchor:middle;" transform="matrix(1 0 0 1 856.422 322)">Thin</text>
  <text style="stroke:none;fill:black;font-family:-apple-system,&quot;SF Pro Display&quot;,&quot;SF Pro Text&quot;,Helvetica,sans-serif;text-anchor:middle;" transform="matrix(1 0 0 1 1153.13 322)">Light</text>
  <text style="stroke:none;fill:black;font-family:-apple-system,&quot;SF Pro Display&quot;,&quot;SF Pro Text&quot;,Helvetica,sans-serif;text-anchor:middle;" transform="matrix(1 0 0 1 1449.84 322)">Regular</text>
  <text style="stroke:none;fill:black;font-family:-apple-system,&quot;SF Pro Display&quot;,&quot;SF Pro Text&quot;,Helvetica,sans-serif;text-anchor:middle;" transform="matrix(1 0 0 1 1746.56 322)">Medium</text>
  <text style="stroke:none;fill:black;font-family:-apple-system,&quot;SF Pro Display&quot;,&quot;SF Pro Text&quot;,Helvetica,sans-serif;text-anchor:middle;" transform="matrix(1 0 0 1 2043.27 322)">Semibold</text>
  <text style="stroke:none;fill:black;font-family:-apple-system,&quot;SF Pro Display&quot;,&quot;SF Pro Text&quot;,Helvetica,sans-serif;text-anchor:middle;" transform="matrix(1 0 0 1 2339.98 322)">Bold</text>
  <text style="stroke:none;fill:black;font-family:-apple-system,&quot;SF Pro Display&quot;,&quot;SF Pro Text&quot;,Helvetica,sans-serif;text-anchor:middle;" transform="matrix(1 0 0 1 2636.69 322)">Heavy</text>
  <text style="stroke:none;fill:black;font-family:-apple-system,&quot;SF Pro Display&quot;,&quot;SF Pro Text&quot;,Helvetica,sans-serif;text-anchor:middle;" transform="matrix(1 0 0 1 2933.4 322)">Black</text>
  <line id="" style="fill:none;stroke:black;opacity:1;stroke-width:0.5;" x1="263" x2="3036" y1="1903" y2="1903"/>
  <g id="" transform="matrix(1 0 0 1 263 1933)">
   <path d="M 9.24805 0.830078 C 13.5547 0.830078 17.1387 -2.74414 17.1387 -7.05078 C 17.1387 -11.3574 13.5449 -14.9316 9.23828 -14.9316 C 4.94141 -14.9316 1.36719 -11.3574 1.36719 -7.05078 C 1.36719 -2.74414 4.95117 0.830078 9.24805 0.830078 Z M 9.24805 -0.654297 C 5.70312 -0.654297 2.87109 -3.49609 2.87109 -7.05078 C 2.87109 -10.6055 5.69336 -13.4473 9.23828 -13.4473 C 12.793 -13.4473 15.6348 -10.6055 15.6445 -7.05078 C 15.6543 -3.49609 12.8027 -0.654297 9.24805 -0.654297 Z M 9.22852 -3.42773 C 9.69727 -3.42773 9.9707 -3.74023 9.9707 -4.25781 L 9.9707 -6.31836 L 12.1973 -6.31836 C 12.6953 -6.31836 13.0371 -6.57227 13.0371 -7.04102 C 13.0371 -7.51953 12.7148 -7.7832 12.1973 -7.7832 L 9.9707 -7.7832 L 9.9707 -10.0098 C 9.9707 -10.5273 9.69727 -10.8496 9.22852 -10.8496 C 8.75977 -10.8496 8.50586 -10.5078 8.50586 -10.0098 L 8.50586 -7.7832 L 6.29883 -7.7832 C 5.78125 -7.7832 5.44922 -7.51953 5.44922 -7.04102 C 5.44922 -6.57227 5.80078 -6.31836 6.29883 -6.31836 L 8.50586 -6.31836 L 8.50586 -4.25781 C 8.50586 -3.75977 8.75977 -3.42773 9.22852 -3.42773 Z"/>
  </g>
  <g id="" transform="matrix(1 0 0 1 281.506 1933)">
   <path d="M 11.709 2.91016 C 17.1582 2.91016 21.6699 -1.60156 21.6699 -7.05078 C 21.6699 -12.4902 17.1484 -17.0117 11.6992 -17.0117 C 6.25977 -17.0117 1.74805 -12.4902 1.74805 -7.05078 C 1.74805 -1.60156 6.26953 2.91016 11.709 2.91016 Z M 11.709 1.25 C 7.09961 1.25 3.41797 -2.44141 3.41797 -7.05078 C 3.41797 -11.6504 7.08984 -15.3516 11.6992 -15.3516 C 16.3086 -15.3516 20 -11.6504 20.0098 -7.05078 C 20.0195 -2.44141 16.3184 1.25 11.709 1.25 Z M 11.6895 -2.41211 C 12.207 -2.41211 12.5195 -2.77344 12.5195 -3.33984 L 12.5195 -6.23047 L 15.5762 -6.23047 C 16.123 -6.23047 16.5039 -6.51367 16.5039 -7.03125 C 16.5039 -7.55859 16.1426 -7.86133 15.5762 -7.86133 L 12.5195 -7.86133 L 12.5195 -10.9277 C 12.5195 -11.5039 12.207 -11.8555 11.6895 -11.8555 C 11.1719 -11.8555 10.8789 -11.4844 10.8789 -10.9277 L 10.8789 -7.86133 L 7.83203 -7.86133 C 7.26562 -7.86133 6.89453 -7.55859 6.89453 -7.03125 C 6.89453 -6.51367 7.28516 -6.23047 7.83203 -6.23047 L 10.8789 -6.23047 L 10.8789 -3.33984 C 10.8789 -2.79297 11.1719 -2.41211 11.6895 -2.41211 Z"/>
  </g>
  <g id="" transform="matrix(1 0 0 1 304.924 1933)">
   <path d="M 14.9707 5.67383 C 21.9336 5.67383 27.6953 -0.078125 27.6953 -7.04102 C 27.6953 -14.0039 21.9238 -19.7559 14.9609 -19.7559 C 8.00781 -19.7559 2.25586 -14.0039 2.25586 -7.04102 C 2.25586 -0.078125 8.01758 5.67383 14.9707 5.67383 Z M 14.9707 3.85742 C 8.93555 3.85742 4.08203 -1.00586 4.08203 -7.04102 C 4.08203 -13.0762 8.92578 -17.9395 14.9609 -17.9395 C 21.0059 -17.9395 25.8594 -13.0762 25.8691 -7.04102 C 25.8789 -1.00586 21.0156 3.85742 14.9707 3.85742 Z M 14.9512 -1.06445 C 15.5176 -1.06445 15.8691 -1.45508 15.8691 -2.06055 L 15.8691 -6.13281 L 20.1074 -6.13281 C 20.6934 -6.13281 21.1133 -6.46484 21.1133 -7.02148 C 21.1133 -7.59766 20.7227 -7.93945 20.1074 -7.93945 L 15.8691 -7.93945 L 15.8691 -12.1875 C 15.8691 -12.8027 15.5176 -13.1934 14.9512 -13.1934 C 14.3848 -13.1934 14.0625 -12.7832 14.0625 -12.1875 L 14.0625 -7.93945 L 9.83398 -7.93945 C 9.21875 -7.93945 8.80859 -7.59766 8.80859 -7.02148 C 8.80859 -6.46484 9.23828 -6.13281 9.83398 -6.13281 L 14.0625 -6.13281 L 14.0625 -2.06055 C 14.0625 -1.47461 14.3848 -1.06445 14.9512 -1.06445 Z"/>
  </g>
  <text style="stroke:none;fill:black;font-family:-apple-system,&quot;SF Pro Display&quot;,&quot;SF Pro Text&quot;,Helvetica,sans-serif;font-weight:bold;" transform="matrix(1 0 0 1 263 1953)">Design Variations</text>
  <text style="stroke:none;fill:black;font-family:-apple-system,&quot;SF Pro Display&quot;,&quot;SF Pro Text&quot;,Helvetica,sans-serif;" transform="matrix(1 0 0 1 263 1971)">Symbols are supported in up to nine weights and three scales.</text>
  <text style="stroke:none;fill:black;font-family:-apple-system,&quot;SF Pro Display&quot;,&quot;SF Pro Text&quot;,Helvetica,sans-serif;" transform="matrix(1 0 0 1 263 1989)">For optimal layout with text and other symbols, vertically align</text>
  <text style="stroke:none;fill:black;font-family:-apple-system,&quot;SF Pro Display&quot;,&quot;SF Pro Text&quot;,Helvetica,sans-serif;" transform="matrix(1 0 0 1 263 2007)">symbols with the adjacent text.</text>
  <rect height="14" id="" style="fill:#00AEEF;stroke:none;opacity:0.4;" width="3" x="776" y="1919"/>
  <g id="" transform="matrix(1 0 0 1 779 1933)">
   <path d="M 10.5273 0 L 12.373 0 L 7.17773 -14.0918 L 5.43945 -14.0918 L 0.244141 0 L 2.08984 0 L 3.50586 -4.0332 L 9.11133 -4.0332 Z M 6.2793 -11.9531 L 6.33789 -11.9531 L 8.59375 -5.52734 L 4.02344 -5.52734 Z"/>
  </g>
  <rect height="14" id="" style="fill:#00AEEF;stroke:none;opacity:0.4;" width="3" x="791.617" y="1919"/>
  <text style="stroke:none;fill:black;font-family:-apple-system,&quot;SF Pro Display&quot;,&quot;SF Pro Text&quot;,Helvetica,sans-serif;font-weight:bold;" transform="matrix(1 0 0 1 776 1953)">Margins</text>
  <text style="stroke:none;fill:black;font-family:-apple-system,&quot;SF Pro Display&quot;,&quot;SF Pro Text&quot;,Helvetica,sans-serif;" transform="matrix(1 0 0 1 776 1971)">Leading and trailing margins on the left and right side of each symbol</text>
  <text style="stroke:none;fill:black;font-family:-apple-system,&quot;SF Pro Display&quot;,&quot;SF Pro Text&quot;,Helvetica,sans-serif;" transform="matrix(1 0 0 1 776 1989)">can be adjusted by modifying the width of the blue rectangles.</text>
  <text style="stroke:none;fill:black;font-family:-apple-system,&quot;SF Pro Display&quot;,&quot;SF Pro Text&quot;,Helvetica,sans-serif;" transform="matrix(1 0 0 1 776 2007)">Modifications are automatically applied proportionally to all</text>
  <text style="stroke:none;fill:black;font-family:-apple-system,&quot;SF Pro Display&quot;,&quot;SF Pro Text&quot;,Helvetica,sans-serif;" transform="matrix(1 0 0 1 776 2025)">scales and weights.</text>
  <g id="" transform="matrix(1 0 0 1 1289 1933)">
   <path d="M 2.83203 3.11523 L 4.375 4.6582 C 5.22461 5.48828 6.19141 5.41992 7.06055 4.46289 L 17.2754 -6.66016 C 17.7051 -6.36719 18.0957 -6.37695 18.5645 -6.47461 L 19.6094 -6.68945 L 20.3027 -5.99609 L 20.2539 -5.47852 C 20.1855 -4.95117 20.3516 -4.53125 20.8496 -4.0332 L 21.6602 -3.22266 C 22.168 -2.71484 22.8223 -2.68555 23.3008 -3.16406 L 26.5527 -6.41602 C 27.0312 -6.89453 27.0117 -7.54883 26.5039 -8.05664 L 25.6836 -8.87695 C 25.1855 -9.375 24.7754 -9.55078 24.2383 -9.47266 L 23.7109 -9.41406 L 23.0566 -10.0781 L 23.3398 -11.2207 C 23.4863 -11.7871 23.3398 -12.2559 22.7148 -12.8613 L 20.3027 -15.2539 C 16.7578 -18.7793 12.2266 -18.6719 9.11133 -15.5371 C 8.69141 -15.1074 8.64258 -14.5215 8.91602 -14.0918 C 9.15039 -13.7207 9.62891 -13.4961 10.2734 -13.6621 C 11.7871 -14.043 13.3008 -13.9258 14.7852 -12.9199 L 14.1602 -11.3379 C 13.9258 -10.752 13.9453 -10.2734 14.1797 -9.83398 L 3.01758 0.439453 C 2.08008 1.30859 1.97266 2.25586 2.83203 3.11523 Z M 10.6738 -15.1465 C 13.3398 -17.1387 16.6504 -16.8262 19.0527 -14.4141 L 21.6797 -11.8066 C 21.9141 -11.5723 21.9434 -11.3867 21.8848 -11.0938 L 21.5039 -9.53125 L 23.0762 -7.95898 L 24.043 -8.04688 C 24.3262 -8.07617 24.4141 -8.05664 24.6387 -7.83203 L 25.2637 -7.20703 L 22.5098 -4.46289 L 21.8848 -5.07812 C 21.6602 -5.30273 21.6406 -5.40039 21.6699 -5.68359 L 21.7578 -6.64062 L 20.1953 -8.20312 L 18.5742 -7.89062 C 18.291 -7.83203 18.1445 -7.83203 17.9102 -8.07617 L 15.7324 -10.2539 C 15.5078 -10.4883 15.4785 -10.625 15.6055 -10.9473 L 16.5527 -13.2227 C 14.9512 -14.7559 12.8418 -15.6055 10.8008 -14.9512 C 10.7129 -14.9219 10.6445 -14.9414 10.6152 -14.9805 C 10.5859 -15.0293 10.5859 -15.0781 10.6738 -15.1465 Z M 4.10156 2.41211 C 3.61328 1.91406 3.78906 1.61133 4.12109 1.30859 L 15.0781 -8.80859 L 16.3086 -7.57812 L 6.15234 3.34961 C 5.84961 3.68164 5.46875 3.7793 5.06836 3.37891 Z"/>
  </g>
  <text style="stroke:none;fill:black;font-family:-apple-system,&quot;SF Pro Display&quot;,&quot;SF Pro Text&quot;,Helvetica,sans-serif;font-weight:bold;" transform="matrix(1 0 0 1 1289 1953)">Exporting</text>
  <text style="stroke:none;fill:black;font-family:-apple-system,&quot;SF Pro Display&quot;,&quot;SF Pro Text&quot;,Helvetica,sans-serif;" transform="matrix(1 0 0 1 1289 1971)">Symbols should be outlined when exporting to ensure the</text>
  <text style="stroke:none;fill:black;font-family:-apple-system,&quot;SF Pro Display&quot;,&quot;SF Pro Text&quot;,Helvetica,sans-serif;" transform="matrix(1 0 0 1 1289 1989)">design is preserved when submitting to Xcode.</text>
  <text id="template-version" style="stroke:none;fill:black;font-family:-apple-system,&quot;SF Pro Display&quot;,&quot;SF Pro Text&quot;,Helvetica,sans-serif;text-anchor:end;" transform="matrix(1 0 0 1 3036 1933)">Template v.1.0</text>
  <text style="stroke:none;fill:black;font-family:-apple-system,&quot;SF Pro Display&quot;,&quot;SF Pro Text&quot;,Helvetica,sans-serif;text-anchor:end;" transform="matrix(1 0 0 1 3036 1951)">Generated from shift</text>
  <text style="stroke:none;fill:black;font-family:-apple-system,&quot;SF Pro Display&quot;,&quot;SF Pro Text&quot;,Helvetica,sans-serif;text-anchor:end;" transform="matrix(1 0 0 1 3036 1969)">Typeset at 100 points</text>
  <text style="stroke:none;fill:black;font-family:-apple-system,&quot;SF Pro Display&quot;,&quot;SF Pro Text&quot;,Helvetica,sans-serif;" transform="matrix(1 0 0 1 263 726)">Small</text>
  <text style="stroke:none;fill:black;font-family:-apple-system,&quot;SF Pro Display&quot;,&quot;SF Pro Text&quot;,Helvetica,sans-serif;" transform="matrix(1 0 0 1 263 1156)">Medium</text>
  <text style="stroke:none;fill:black;font-family:-apple-system,&quot;SF Pro Display&quot;,&quot;SF Pro Text&quot;,Helvetica,sans-serif;" transform="matrix(1 0 0 1 263 1586)">Large</text>
 </g>
 <g id="Guides">
  <g id="H-reference" style="fill:#27AAE1;stroke:none;" transform="matrix(1 0 0 1 339 696)">
   <path d="M 54.9316 0 L 57.666 0 L 30.5664 -70.459 L 28.0762 -70.459 L 0.976562 0 L 3.66211 0 L 12.9395 -24.4629 L 45.7031 -24.4629 Z M 29.1992 -67.0898 L 29.4434 -67.0898 L 44.8242 -26.709 L 13.8184 -26.709 Z"/>
  </g>
  <line id="Baseline-S" style="fill:none;stroke:#27AAE1;opacity:1;stroke-width:0.577;" x1="263" x2="3036" y1="696" y2="696"/>
  <line id="Capline-S" style="fill:none;stroke:#27AAE1;opacity:1;stroke-width:0.577;" x1="263" x2="3036" y1="625.541" y2="625.541"/>
  <g id="H-reference" style="fill:#27AAE1;stroke:none;" transform="matrix(1 0 0 1 339 1126)">
   <path d="M 54.9316 0 L 57.666 0 L 30.5664 -70.459 L 28.0762 -70.459 L 0.976562 0 L 3.66211 0 L 12.9395 -24.4629 L 45.7031 -24.4629 Z M 29.1992 -67.0898 L 29.4434 -67.0898 L 44.8242 -26.709 L 13.8184 -26.709 Z"/>
  </g>
  <line id="Baseline-M" style="fill:none;stroke:#27AAE1;opacity:1;stroke-width:0.577;" x1="263" x2="3036" y1="1126" y2="1126"/>
  <line id="Capline-M" style="fill:none;stroke:#27AAE1;opacity:1;stroke-width:0.577;" x1="263" x2="3036" y1="1055.54" y2="1055.54"/>
  <g id="H-reference" style="fill:#27AAE1;stroke:none;" transform="matrix(1 0 0 1 339 1556)">
   <path d="M 54.9316 0 L 57.666 0 L 30.5664 -70.459 L 28.0762 -70.459 L 0.976562 0 L 3.66211 0 L 12.9395 -24.4629 L 45.7031 -24.4629 Z M 29.1992 -67.0898 L 29.4434 -67.0898 L 44.8242 -26.709 L 13.8184 -26.709 Z"/>
  </g>
  <line id="Baseline-L" style="fill:none;stroke:#27AAE1;opacity:1;stroke-width:0.577;" x1="263" x2="3036" y1="1556" y2="1556"/>
  <line id="Capline-L" style="fill:none;stroke:#27AAE1;opacity:1;stroke-width:0.577;" x1="263" x2="3036" y1="1485.54" y2="1485.54"/>
  <rect height="119.336" id="left-margin" style="fill:#00AEEF;stroke:none;opacity:0.4;" width="9.96094" x="1387.37" y="1030.79"/>
  <rect height="119.336" id="right-margin" style="fill:#00AEEF;stroke:none;opacity:0.4;" width="9.96094" x="1502.36" y="1030.79"/>
 </g>
 <g id="Symbols">
  <g id="Black-L" transform="matrix(1 0 0 1 2848.32 1556)">
   <path d="M 64.0137 26.7578 L 106.152 26.7578 C 117.041 26.7578 123.34 20.3125 123.34 9.57031 L 123.34 -15.2344 L 145.215 -15.2344 C 152.393 -15.2344 157.275 -19.3848 157.275 -25.8301 C 157.275 -29.8828 155.664 -32.373 151.709 -36.4258 L 94.873 -94.1895 C 91.9434 -97.1191 88.623 -98.7305 85.0586 -98.7305 C 81.543 -98.7305 78.1738 -97.1191 75.293 -94.1895 L 18.457 -36.4258 C 14.4043 -32.2754 12.8906 -29.9316 12.8906 -25.8301 C 12.8906 -19.3848 17.7246 -15.2344 24.9023 -15.2344 L 46.8262 -15.2344 L 46.8262 9.57031 C 46.8262 20.3125 53.0762 26.7578 64.0137 26.7578 Z M 71.0938 5.81055 C 69.3848 5.81055 68.2617 4.6875 68.2617 2.92969 L 68.2617 -30.8105 C 68.2617 -32.2266 67.7246 -32.8125 66.2109 -32.8125 L 43.9453 -32.8125 C 43.7012 -32.8125 43.6035 -32.9102 43.6035 -33.1055 C 43.6035 -33.2031 43.6035 -33.3008 43.7988 -33.4473 L 84.5703 -74.4141 C 84.668 -74.5605 84.9121 -74.6094 85.0586 -74.6094 C 85.2539 -74.6094 85.498 -74.5605 85.5957 -74.4141 L 126.367 -33.4473 C 126.514 -33.3008 126.562 -33.2031 126.562 -33.1055 C 126.562 -32.9102 126.465 -32.8125 126.221 -32.8125 L 103.906 -32.8125 C 102.441 -32.8125 101.904 -32.2266 101.904 -30.8105 L 101.904 2.92969 C 101.904 4.58984 100.684 5.81055 99.0723 5.81055 Z"/>
  </g>
  <g id="Heavy-L" transform="matrix(1 0 0 1 2552.7 1556)">
   <path d="M 63.1348 25.6836 L 104.834 25.6836 C 115.088 25.6836 120.947 19.6289 120.947 9.61914 L 120.947 -16.2598 L 143.945 -16.2598 C 150.537 -16.2598 155.078 -20.0684 155.078 -26.0254 C 155.078 -29.7363 153.564 -32.1289 150 -35.6934 L 93.2129 -93.2129 C 90.3809 -96.0449 87.3047 -97.5098 83.9844 -97.5098 C 80.6641 -97.5098 77.5391 -96.0449 74.7559 -93.2129 L 17.9199 -35.6934 C 14.3555 -32.0312 12.8906 -29.7852 12.8906 -26.0254 C 12.8906 -20.0684 17.4316 -16.2598 24.0234 -16.2598 L 47.0215 -16.2598 L 47.0215 9.61914 C 47.0215 19.6289 52.8809 25.6836 63.1348 25.6836 Z M 68.7012 7.71484 C 66.7969 7.71484 65.5273 6.44531 65.5273 4.49219 L 65.5273 -29.5898 C 65.5273 -31.0547 64.9902 -31.5918 63.4766 -31.5918 L 39.502 -31.5918 C 39.1602 -31.5918 39.0137 -31.7383 39.0137 -31.9824 C 39.0137 -32.1289 39.0625 -32.2754 39.2578 -32.4707 L 83.1543 -76.416 C 83.3984 -76.709 83.6914 -76.8066 83.9844 -76.8066 C 84.2773 -76.8066 84.5703 -76.709 84.8145 -76.416 L 128.662 -32.4707 C 128.906 -32.2754 128.906 -32.1289 128.906 -31.9824 C 128.906 -31.7383 128.76 -31.5918 128.467 -31.5918 L 104.443 -31.5918 C 102.979 -31.5918 102.441 -31.0547 102.441 -29.5898 L 102.441 4.49219 C 102.441 6.34766 101.074 7.71484 99.2676 7.71484 Z"/>
  </g>
  <g id="Bold-L" transform="matrix(1 0 0 1 2257.24 1556)">
   <path d="M 62.1094 24.5117 L 103.369 24.5117 C 112.891 24.5117 118.213 18.8477 118.213 9.66797 L 118.213 -17.3828 L 142.529 -17.3828 C 148.438 -17.3828 152.588 -20.8496 152.588 -26.2207 C 152.588 -29.5898 151.172 -31.8359 148.145 -34.9121 L 91.4062 -92.041 C 88.623 -94.8242 85.791 -96.1914 82.7637 -96.1914 C 79.6875 -96.1914 76.8555 -94.8242 74.1211 -92.041 L 17.3828 -34.9121 C 14.2578 -31.7383 12.8906 -29.5898 12.8906 -26.2207 C 12.8906 -20.8496 17.0898 -17.3828 22.998 -17.3828 L 47.2656 -17.3828 L 47.2656 9.66797 C 47.2656 18.8477 52.6367 24.5117 62.1094 24.5117 Z M 66.0645 9.86328 C 63.916 9.86328 62.4512 8.39844 62.4512 6.25 L 62.4512 -28.2227 C 62.4512 -29.6875 61.9141 -30.2246 60.4492 -30.2246 L 34.5215 -30.2246 C 34.1309 -30.2246 33.8867 -30.4199 33.8867 -30.7129 C 33.8867 -30.9082 33.9844 -31.1035 34.2285 -31.3477 L 81.543 -78.6621 C 81.9824 -79.1016 82.373 -79.2969 82.7637 -79.2969 C 83.1543 -79.2969 83.4961 -79.1016 83.9355 -78.6621 L 131.25 -31.3477 C 131.543 -31.1035 131.592 -30.9082 131.592 -30.7129 C 131.592 -30.4199 131.396 -30.2246 130.957 -30.2246 L 105.078 -30.2246 C 103.564 -30.2246 103.027 -29.6875 103.027 -28.2227 L 103.027 6.25 C 103.027 8.34961 101.514 9.86328 99.4629 9.86328 Z"/>
  </g>
  <g id="Semibold-L" transform="matrix(1 0 0 1 1961.36 1556)">
   <path d="M 61.4258 23.6816 L 102.393 23.6816 C 111.328 23.6816 116.357 18.3105 116.357 9.7168 L 116.357 -18.1641 L 141.553 -18.1641 C 146.973 -18.1641 150.928 -21.3867 150.928 -26.3672 C 150.928 -29.4922 149.512 -31.6406 146.826 -34.3262 L 90.1367 -91.2598 C 87.4512 -93.9941 84.8145 -95.3125 81.8848 -95.3125 C 79.0039 -95.3125 76.3672 -93.9941 73.6816 -91.2598 L 16.9922 -34.3262 C 14.209 -31.543 12.8906 -29.4922 12.8906 -26.3672 C 12.8906 -21.3867 16.8457 -18.1641 22.2656 -18.1641 L 47.4121 -18.1641 L 47.4121 9.7168 C 47.4121 18.3105 52.4902 23.6816 61.4258 23.6816 Z M 64.209 11.3281 C 61.9141 11.3281 60.3516 9.76562 60.3516 7.4707 L 60.3516 -27.2949 C 60.3516 -28.7598 59.8145 -29.2969 58.3496 -29.2969 L 31.1035 -29.2969 C 30.6152 -29.2969 30.3711 -29.541 30.3711 -29.834 C 30.3711 -30.0781 30.4688 -30.3223 30.7617 -30.6152 L 80.4688 -80.2246 C 81.0059 -80.8105 81.4453 -80.957 81.8848 -80.957 C 82.373 -80.957 82.8125 -80.8105 83.3496 -80.2246 L 133.057 -30.6152 C 133.35 -30.3223 133.447 -30.0781 133.447 -29.834 C 133.447 -29.541 133.203 -29.2969 132.666 -29.2969 L 105.469 -29.2969 C 104.004 -29.2969 103.467 -28.7598 103.467 -27.2949 L 103.467 7.4707 C 103.467 9.66797 101.807 11.3281 99.6094 11.3281 Z"/>
  </g>
  <g id="Medium-L" transform="matrix(1 0 0 1 1665.28 1556)">
   <path d="M 60.8887 23.0469 L 101.611 23.0469 C 110.205 23.0469 114.99 17.9199 114.99 9.7168 L 114.99 -18.75 L 140.771 -18.75 C 145.85 -18.75 149.658 -21.7773 149.658 -26.5137 C 149.658 -29.3945 148.291 -31.4941 145.85 -33.9355 L 89.1602 -90.6738 C 86.5234 -93.3594 84.0332 -94.6289 81.25 -94.6289 C 78.5156 -94.6289 76.0254 -93.3594 73.3398 -90.6738 L 16.6992 -33.9355 C 14.1602 -31.3965 12.8906 -29.3945 12.8906 -26.5137 C 12.8906 -21.7773 16.6504 -18.75 21.7285 -18.75 L 47.5586 -18.75 L 47.5586 9.7168 C 47.5586 17.9199 52.3438 23.0469 60.8887 23.0469 Z M 62.8418 12.4512 C 60.4492 12.4512 58.7402 10.791 58.7402 8.34961 L 58.7402 -26.6113 C 58.7402 -28.0273 58.2031 -28.6133 56.7383 -28.6133 L 28.5156 -28.6133 C 27.9785 -28.6133 27.6855 -28.8086 27.6855 -29.1992 C 27.6855 -29.4922 27.7832 -29.6875 28.125 -30.0293 L 79.6387 -81.3965 C 80.2734 -82.0312 80.7617 -82.2754 81.25 -82.2754 C 81.7871 -82.2754 82.2266 -82.0312 82.8613 -81.3965 L 134.375 -30.0293 C 134.717 -29.6875 134.814 -29.4922 134.814 -29.1992 C 134.814 -28.8086 134.57 -28.6133 133.984 -28.6133 L 105.762 -28.6133 C 104.346 -28.6133 103.76 -28.0273 103.76 -26.6113 L 103.76 8.34961 C 103.76 10.7422 102.051 12.4512 99.707 12.4512 Z"/>
  </g>
  <g id="Regular-L" transform="matrix(1 0 0 1 1369.42 1556)">
   <path d="M 60.2051 22.2168 L 100.635 22.2168 C 108.691 22.2168 113.135 17.4316 113.135 9.76562 L 113.135 -19.5312 L 139.795 -19.5312 C 144.434 -19.5312 147.949 -22.3145 147.949 -26.6113 C 147.949 -29.2969 146.631 -31.2988 144.531 -33.3984 L 87.9395 -89.9414 C 85.3027 -92.5293 83.0078 -93.7012 80.4199 -93.7012 C 77.832 -93.7012 75.5371 -92.5293 72.9492 -89.9414 L 16.3086 -33.3984 C 14.1113 -31.1523 12.8906 -29.2969 12.8906 -26.6113 C 12.8906 -22.3145 16.4551 -19.5312 21.0449 -19.5312 L 47.7051 -19.5312 L 47.7051 9.76562 C 47.7051 17.4316 52.1973 22.2168 60.2051 22.2168 Z M 61.0352 13.8672 C 58.4473 13.8672 56.6895 12.1094 56.6895 9.57031 L 56.6895 -25.6836 C 56.6895 -27.1484 56.1035 -27.6855 54.6875 -27.6855 L 25.1465 -27.6855 C 24.5117 -27.6855 24.2188 -27.9297 24.2188 -28.3203 C 24.2188 -28.6621 24.3164 -28.9062 24.707 -29.2969 L 78.5645 -82.9102 C 79.3457 -83.6914 79.834 -83.9355 80.4199 -83.9355 C 81.0059 -83.9355 81.543 -83.6914 82.2754 -82.9102 L 136.133 -29.2969 C 136.523 -28.9062 136.621 -28.6621 136.621 -28.3203 C 136.621 -27.9297 136.328 -27.6855 135.693 -27.6855 L 106.201 -27.6855 C 104.736 -27.6855 104.199 -27.1484 104.199 -25.6836 L 104.199 9.57031 C 104.199 12.0605 102.344 13.8672 99.8535 13.8672 Z"/>
  </g>
  <g id="Light-L" transform="matrix(1 0 0 1 1073.01 1556)">
   <path d="M 58.9355 21.4355 L 101.367 21.4355 C 108.35 21.4355 112.5 17.0898 112.5 10.3516 L 112.5 -20.4102 L 140.576 -20.4102 C 144.482 -20.4102 147.363 -22.7539 147.363 -26.3672 C 147.363 -28.6133 146.289 -30.3223 144.434 -32.1777 L 87.207 -89.4043 C 84.4238 -92.2852 82.373 -93.1641 80.127 -93.1641 C 77.8809 -93.1641 75.8789 -92.2852 73.0469 -89.4043 L 15.8203 -32.1777 C 13.916 -30.2734 12.8906 -28.6133 12.8906 -26.3672 C 12.8906 -22.7539 15.7715 -20.4102 19.6777 -20.4102 L 47.8027 -20.4102 L 47.8027 10.3516 C 47.8027 17.0898 51.9043 21.4355 58.9355 21.4355 Z M 59.4238 14.9902 C 56.5918 14.9902 54.5898 13.0371 54.5898 10.2051 L 54.5898 -24.8535 C 54.5898 -26.2207 54.1016 -26.709 52.7344 -26.709 L 22.5586 -26.709 C 21.7285 -26.709 21.3379 -27.002 21.3379 -27.5391 C 21.3379 -27.9785 21.4844 -28.2715 21.9727 -28.8086 L 77.5391 -84.2773 C 78.6621 -85.4492 79.3457 -85.791 80.127 -85.791 C 80.9082 -85.791 81.5918 -85.4492 82.7148 -84.2773 L 138.281 -28.8086 C 138.818 -28.2715 138.916 -27.9785 138.916 -27.5391 C 138.916 -27.002 138.525 -26.709 137.695 -26.709 L 107.52 -26.709 C 106.201 -26.709 105.664 -26.2207 105.664 -24.8535 L 105.664 10.2051 C 105.664 13.0371 103.662 14.9902 100.879 14.9902 Z"/>
  </g>
  <g id="Thin-L" transform="matrix(1 0 0 1 776.686 1556)">
   <path d="M 57.1777 20.3613 L 102.295 20.3613 C 107.91 20.3613 111.621 16.6504 111.621 11.084 L 111.621 -21.5332 L 141.602 -21.5332 C 144.58 -21.5332 146.582 -23.291 146.582 -26.0254 C 146.582 -27.6855 145.801 -29.1016 144.336 -30.5664 L 86.2305 -88.7695 C 83.2031 -91.8945 81.543 -92.4805 79.7363 -92.4805 C 77.9297 -92.4805 76.3184 -91.8945 73.2422 -88.7695 L 15.1367 -30.5664 C 13.6719 -29.0527 12.8906 -27.6855 12.8906 -26.0254 C 12.8906 -23.291 14.8926 -21.5332 17.8711 -21.5332 L 47.8516 -21.5332 L 47.8516 11.084 C 47.8516 16.6504 51.5625 20.3613 57.1777 20.3613 Z M 57.2754 16.4551 C 54.1016 16.4551 51.8066 14.2578 51.8066 11.084 L 51.8066 -23.7305 C 51.8066 -25 51.416 -25.3906 50.1465 -25.3906 L 19.1895 -25.3906 C 18.0664 -25.3906 17.5293 -25.7812 17.5293 -26.5137 C 17.5293 -27.0508 17.6758 -27.4414 18.3594 -28.125 L 76.2207 -86.084 C 77.7832 -87.7441 78.7109 -88.1836 79.7363 -88.1836 C 80.8105 -88.1836 81.6895 -87.7441 83.252 -86.084 L 141.113 -28.125 C 141.797 -27.4414 141.943 -27.0508 141.943 -26.5137 C 141.943 -25.7812 141.455 -25.3906 140.283 -25.3906 L 109.326 -25.3906 C 108.105 -25.3906 107.666 -25 107.666 -23.7305 L 107.666 11.084 C 107.666 14.2578 105.42 16.4551 102.197 16.4551 Z"/>
  </g>
  <g id="Ultralight-L" transform="matrix(1 0 0 1 480.17 1556)">
   <path d="M 56.2988 19.7754 L 102.783 19.7754 C 107.666 19.7754 111.182 16.4062 111.182 11.4746 L 111.182 -22.1191 L 142.139 -22.1191 C 144.629 -22.1191 146.191 -23.584 146.191 -25.8789 C 146.191 -27.2461 145.557 -28.4668 144.287 -29.7363 L 85.7422 -88.4277 C 82.5684 -91.6992 81.1035 -92.0898 79.541 -92.0898 C 77.9785 -92.0898 76.5137 -91.6992 73.3398 -88.4277 L 14.7949 -29.7363 C 13.5742 -28.4668 12.8906 -27.2461 12.8906 -25.8789 C 12.8906 -23.584 14.4531 -22.1191 16.9434 -22.1191 L 47.9004 -22.1191 L 47.9004 11.4746 C 47.9004 16.4062 51.416 19.7754 56.2988 19.7754 Z M 56.2012 17.1875 C 52.7832 17.1875 50.3906 14.8926 50.3906 11.5234 L 50.3906 -23.1934 C 50.3906 -24.3652 50 -24.7559 48.8281 -24.7559 L 17.4316 -24.7559 C 16.1621 -24.7559 15.5762 -25.1465 15.5762 -26.0254 C 15.5762 -26.6113 15.7227 -27.002 16.5039 -27.7832 L 75.5371 -87.0117 C 77.3438 -88.916 78.3691 -89.4043 79.541 -89.4043 C 80.7129 -89.4043 81.7383 -88.916 83.5449 -87.0117 L 142.578 -27.7832 C 143.359 -27.002 143.506 -26.6113 143.506 -26.0254 C 143.506 -25.1465 142.92 -24.7559 141.65 -24.7559 L 110.254 -24.7559 C 109.082 -24.7559 108.691 -24.3652 108.691 -23.1934 L 108.691 11.5234 C 108.691 14.8926 106.299 17.1875 102.881 17.1875 Z"/>
  </g>
  <g id="Black-M" transform="matrix(1 0 0 1 2866.19 1126)">
   <path d="M 50.0977 13.8184 L 84.375 13.8184 C 93.1641 13.8184 98.4375 8.54492 98.4375 -0.292969 L 98.4375 -18.8477 L 114.648 -18.8477 C 120.654 -18.8477 124.463 -22.2168 124.463 -27.5391 C 124.463 -30.8594 123.291 -32.8613 119.775 -36.4746 L 75.293 -82.0312 C 72.8516 -84.4727 70.1172 -85.7422 67.2363 -85.7422 C 64.3555 -85.7422 61.5723 -84.4727 59.1309 -82.0312 L 14.6484 -36.4746 C 11.1328 -32.8125 9.96094 -30.957 9.96094 -27.5391 C 9.96094 -22.2168 13.7695 -18.8477 19.7754 -18.8477 L 35.9863 -18.8477 L 35.9863 -0.292969 C 35.9863 8.54492 41.2598 13.8184 50.0977 13.8184 Z M 57.373 -5.37109 C 56.2012 -5.37109 55.4199 -6.20117 55.4199 -7.42188 L 55.4199 -33.0078 C 55.4199 -34.0332 55.0293 -34.4727 53.9062 -34.4727 L 38.623 -34.4727 C 38.4277 -34.4727 38.3789 -34.5215 38.3789 -34.668 C 38.3789 -34.7168 38.3789 -34.7656 38.5254 -34.9121 L 66.8457 -63.623 C 66.8945 -63.7207 67.0898 -63.7695 67.2363 -63.7695 C 67.334 -63.7695 67.5293 -63.7207 67.5781 -63.623 L 95.9473 -34.9121 C 96.0449 -34.7656 96.0449 -34.7168 96.0449 -34.668 C 96.0449 -34.5215 95.9961 -34.4727 95.8008 -34.4727 L 80.5176 -34.4727 C 79.3945 -34.4727 79.0039 -34.0332 79.0039 -33.0078 L 79.0039 -7.42188 C 79.0039 -6.25 78.1738 -5.37109 77.0508 -5.37109 Z"/>
  </g>
  <g id="Heavy-M" transform="matrix(1 0 0 1 2570.6 1126)">
   <path d="M 49.4629 12.8418 L 82.7637 12.8418 C 91.1133 12.8418 95.9961 7.91016 95.9961 -0.390625 L 95.9961 -19.7266 L 113.037 -19.7266 C 118.604 -19.7266 122.217 -22.9004 122.217 -27.832 C 122.217 -30.9082 121.045 -32.8613 117.969 -35.9863 L 73.6816 -81.0547 C 71.3867 -83.3984 68.7988 -84.5703 66.1133 -84.5703 C 63.3789 -84.5703 60.8398 -83.3984 58.4961 -81.0547 L 14.2578 -35.9863 C 11.1328 -32.7637 9.96094 -30.957 9.96094 -27.832 C 9.96094 -22.9004 13.623 -19.7266 19.1406 -19.7266 L 36.2305 -19.7266 L 36.2305 -0.390625 C 36.2305 7.91016 41.1133 12.8418 49.4629 12.8418 Z M 55.2246 -3.61328 C 53.9062 -3.61328 52.9785 -4.49219 52.9785 -5.85938 L 52.9785 -31.8848 C 52.9785 -32.959 52.5879 -33.3984 51.4648 -33.3984 L 34.4727 -33.3984 C 34.2285 -33.3984 34.1309 -33.4961 34.1309 -33.6426 C 34.1309 -33.7402 34.1309 -33.8379 34.2773 -33.9844 L 65.5762 -65.4785 C 65.7227 -65.625 65.918 -65.6738 66.1133 -65.6738 C 66.2598 -65.6738 66.5039 -65.625 66.6016 -65.4785 L 97.9004 -33.9844 C 98.0469 -33.8379 98.0469 -33.7402 98.0469 -33.6426 C 98.0469 -33.4961 97.9492 -33.3984 97.7539 -33.3984 L 80.7617 -33.3984 C 79.5898 -33.3984 79.1992 -32.959 79.1992 -31.8848 L 79.1992 -5.85938 C 79.1992 -4.54102 78.2715 -3.61328 77.002 -3.61328 Z"/>
  </g>
  <g id="Bold-M" transform="matrix(1 0 0 1 2275.13 1126)">
   <path d="M 48.7305 11.7676 L 80.957 11.7676 C 88.7695 11.7676 93.2129 7.12891 93.2129 -0.488281 L 93.2129 -20.7031 L 111.279 -20.7031 C 116.26 -20.7031 119.727 -23.584 119.727 -28.125 C 119.727 -30.957 118.555 -32.8125 115.918 -35.498 L 71.9238 -79.9805 C 69.7266 -82.1289 67.3828 -83.3008 64.8438 -83.3008 C 62.3047 -83.3008 59.9609 -82.1289 57.7637 -79.9805 L 13.7695 -35.498 C 11.084 -32.7148 9.96094 -31.0059 9.96094 -28.125 C 9.96094 -23.584 13.4277 -20.7031 18.4082 -20.7031 L 36.4746 -20.7031 L 36.4746 -0.488281 C 36.4746 7.12891 40.918 11.7676 48.7305 11.7676 Z M 52.7832 -1.61133 C 51.2695 -1.61133 50.2441 -2.63672 50.2441 -4.15039 L 50.2441 -30.6641 C 50.2441 -31.7383 49.8535 -32.2266 48.6816 -32.2266 L 29.7852 -32.2266 C 29.4922 -32.2266 29.3945 -32.3242 29.3945 -32.5195 C 29.3945 -32.6172 29.4434 -32.7148 29.5898 -32.9102 L 64.1602 -67.5293 C 64.3555 -67.7734 64.5996 -67.8711 64.8438 -67.8711 C 65.0879 -67.8711 65.332 -67.7734 65.5273 -67.5293 L 100.098 -32.9102 C 100.293 -32.7148 100.293 -32.6172 100.293 -32.5195 C 100.293 -32.3242 100.195 -32.2266 99.9023 -32.2266 L 81.0059 -32.2266 C 79.834 -32.2266 79.4434 -31.7383 79.4434 -30.6641 L 79.4434 -4.15039 C 79.4434 -2.68555 78.3691 -1.61133 76.9043 -1.61133 Z"/>
  </g>
  <g id="Semibold-M" transform="matrix(1 0 0 1 1979.28 1126)">
   <path d="M 48.2422 11.0352 L 79.7363 11.0352 C 87.1582 11.0352 91.3574 6.64062 91.3574 -0.537109 L 91.3574 -21.3867 L 110.01 -21.3867 C 114.648 -21.3867 118.018 -24.1211 118.018 -28.3691 C 118.018 -30.957 116.846 -32.7637 114.502 -35.1074 L 70.6543 -79.1992 C 68.6035 -81.2988 66.4062 -82.4219 63.9648 -82.4219 C 61.5723 -82.4219 59.375 -81.2988 57.2754 -79.1992 L 13.4766 -35.1074 C 11.0352 -32.666 9.96094 -31.0059 9.96094 -28.3691 C 9.96094 -24.1211 13.2812 -21.3867 17.9199 -21.3867 L 36.6211 -21.3867 L 36.6211 -0.537109 C 36.6211 6.64062 40.7715 11.0352 48.2422 11.0352 Z M 51.123 -0.195312 C 49.5117 -0.195312 48.3887 -1.31836 48.3887 -2.97852 L 48.3887 -29.7852 C 48.3887 -30.9082 47.9492 -31.3965 46.7773 -31.3965 L 26.5625 -31.3965 C 26.2695 -31.3965 26.123 -31.4941 26.123 -31.6895 C 26.123 -31.8359 26.1719 -31.9824 26.3672 -32.1777 L 63.1836 -68.9453 C 63.4277 -69.2383 63.7207 -69.3359 63.9648 -69.3359 C 64.2578 -69.3359 64.502 -69.2383 64.7949 -68.9453 L 101.611 -32.1777 C 101.807 -31.9824 101.855 -31.8359 101.855 -31.6895 C 101.855 -31.4941 101.709 -31.3965 101.416 -31.3965 L 81.2012 -31.3965 C 80.0293 -31.3965 79.5898 -30.9082 79.5898 -29.7852 L 79.5898 -2.97852 C 79.5898 -1.36719 78.418 -0.195312 76.8555 -0.195312 Z"/>
  </g>
  <g id="Medium-M" transform="matrix(1 0 0 1 1683.23 1126)">
   <path d="M 47.8516 10.498 L 78.7598 10.498 C 85.9863 10.498 89.8926 6.25 89.8926 -0.634766 L 89.8926 -21.875 L 109.082 -21.875 C 113.428 -21.875 116.699 -24.4629 116.699 -28.5156 C 116.699 -31.0059 115.527 -32.7148 113.428 -34.8633 L 69.7266 -78.6621 C 67.7246 -80.6641 65.625 -81.7383 63.3301 -81.7383 C 61.0352 -81.7383 58.8867 -80.6641 56.9336 -78.6621 L 13.2324 -34.8633 C 11.0352 -32.666 9.96094 -31.0059 9.96094 -28.5156 C 9.96094 -24.4629 13.2324 -21.875 17.5293 -21.875 L 36.7676 -21.875 L 36.7676 -0.634766 C 36.7676 6.25 40.6738 10.498 47.8516 10.498 Z M 49.8535 0.830078 C 48.1445 0.830078 46.9238 -0.341797 46.9238 -2.05078 L 46.9238 -29.1504 C 46.9238 -30.2734 46.4844 -30.7617 45.3125 -30.7617 L 24.1211 -30.7617 C 23.7793 -30.7617 23.6328 -30.9082 23.6328 -31.1035 C 23.6328 -31.2988 23.6816 -31.4453 23.877 -31.6406 L 62.4023 -70.0195 C 62.7441 -70.3613 63.0371 -70.459 63.3301 -70.459 C 63.623 -70.459 63.916 -70.3613 64.2578 -70.0195 L 102.783 -31.6406 C 102.979 -31.4453 103.027 -31.2988 103.027 -31.1035 C 103.027 -30.9082 102.881 -30.7617 102.539 -30.7617 L 81.2988 -30.7617 C 80.1758 -30.7617 79.6875 -30.2734 79.6875 -29.1504 L 79.6875 -2.05078 C 79.6875 -0.390625 78.4668 0.830078 76.8066 0.830078 Z"/>
  </g>
  <g id="Regular-M" transform="matrix(1 0 0 1 1387.37 1126)">
   <path d="M 47.4121 9.76562 L 77.5391 9.76562 C 84.375 9.76562 88.0371 5.76172 88.0371 -0.683594 L 88.0371 -22.5586 L 107.861 -22.5586 C 111.865 -22.5586 114.99 -25 114.99 -28.7109 C 114.99 -31.0059 113.818 -32.7148 112.061 -34.4727 L 68.5059 -77.8809 C 66.6016 -79.7852 64.6484 -80.8594 62.4512 -80.8594 C 60.3027 -80.8594 58.3008 -79.7852 56.4453 -77.8809 L 12.8906 -34.4727 C 10.9863 -32.6172 9.96094 -31.0059 9.96094 -28.7109 C 9.96094 -25 13.0859 -22.5586 17.041 -22.5586 L 36.9141 -22.5586 L 36.9141 -0.683594 C 36.9141 5.76172 40.5762 9.76562 47.4121 9.76562 Z M 48.1934 2.19727 C 46.3379 2.19727 45.0684 0.927734 45.0684 -0.878906 L 45.0684 -28.2715 C 45.0684 -29.4922 44.6289 -29.9316 43.457 -29.9316 L 20.8984 -29.9316 C 20.5566 -29.9316 20.3613 -30.0781 20.3613 -30.3223 C 20.3613 -30.5176 20.459 -30.6641 20.6543 -30.9082 L 61.4258 -71.4355 C 61.8164 -71.8262 62.1582 -71.9238 62.4512 -71.9238 C 62.793 -71.9238 63.1348 -71.8262 63.4766 -71.4355 L 104.248 -30.9082 C 104.492 -30.6641 104.541 -30.5176 104.541 -30.3223 C 104.541 -30.0781 104.395 -29.9316 104.004 -29.9316 L 81.4941 -29.9316 C 80.3223 -29.9316 79.8828 -29.4922 79.8828 -28.2715 L 79.8828 -0.878906 C 79.8828 0.878906 78.5645 2.19727 76.7578 2.19727 Z"/>
  </g>
  <g id="Light-M" transform="matrix(1 0 0 1 1090.93 1126)">
   <path d="M 46.2402 9.0332 L 78.1738 9.0332 C 84.082 9.0332 87.4512 5.46875 87.4512 -0.195312 L 87.4512 -23.3398 L 108.594 -23.3398 C 111.914 -23.3398 114.453 -25.3418 114.453 -28.4668 C 114.453 -30.4199 113.525 -31.8359 111.963 -33.3984 L 67.8711 -77.4414 C 65.7715 -79.541 64.1113 -80.3711 62.207 -80.3711 C 60.3027 -80.3711 58.5938 -79.541 56.543 -77.4414 L 12.4512 -33.3984 C 10.8398 -31.7871 9.96094 -30.4199 9.96094 -28.4668 C 9.96094 -25.3418 12.5 -23.3398 15.8203 -23.3398 L 36.9629 -23.3398 L 36.9629 -0.195312 C 36.9629 5.46875 40.332 9.0332 46.2402 9.0332 Z M 46.7285 3.17383 C 44.6777 3.17383 43.2129 1.75781 43.2129 -0.292969 L 43.2129 -27.5391 C 43.2129 -28.6621 42.8223 -29.0527 41.6992 -29.0527 L 18.6035 -29.0527 C 18.0664 -29.0527 17.7734 -29.248 17.7734 -29.6387 C 17.7734 -29.9316 17.8711 -30.127 18.2129 -30.4688 L 60.5469 -72.6562 C 61.2305 -73.3887 61.6699 -73.584 62.207 -73.584 C 62.7441 -73.584 63.1836 -73.3887 63.8672 -72.6562 L 106.201 -30.4688 C 106.543 -30.127 106.641 -29.9316 106.641 -29.6387 C 106.641 -29.248 106.348 -29.0527 105.811 -29.0527 L 82.7148 -29.0527 C 81.5918 -29.0527 81.2012 -28.6621 81.2012 -27.5391 L 81.2012 -0.292969 C 81.2012 1.75781 79.7363 3.17383 77.6855 3.17383 Z"/>
  </g>
  <g id="Thin-M" transform="matrix(1 0 0 1 794.557 1126)">
   <path d="M 44.6777 8.05664 L 79.0527 8.05664 C 83.6914 8.05664 86.6699 5.07812 86.6699 0.488281 L 86.6699 -24.3652 L 109.473 -24.3652 C 112.012 -24.3652 113.77 -25.8789 113.77 -28.1738 C 113.77 -29.5898 113.086 -30.7617 111.865 -31.9336 L 66.9922 -76.8555 C 64.6973 -79.248 63.3301 -79.7363 61.8652 -79.7363 C 60.3516 -79.7363 59.0332 -79.248 56.6895 -76.8555 L 11.8652 -31.9336 C 10.6445 -30.7129 9.96094 -29.5898 9.96094 -28.1738 C 9.96094 -25.8789 11.7188 -24.3652 14.209 -24.3652 L 37.0605 -24.3652 L 37.0605 0.488281 C 37.0605 5.07812 40.0391 8.05664 44.6777 8.05664 Z M 44.8242 4.49219 C 42.4316 4.49219 40.7227 2.88086 40.7227 0.488281 L 40.7227 -26.5625 C 40.7227 -27.5391 40.3809 -27.8809 39.4043 -27.8809 L 15.5762 -27.8809 C 14.7461 -27.8809 14.3555 -28.1738 14.3555 -28.7109 C 14.3555 -29.1016 14.502 -29.3945 14.9902 -29.8828 L 59.3262 -74.2676 C 60.4492 -75.4395 61.084 -75.7324 61.8652 -75.7324 C 62.5977 -75.7324 63.2812 -75.4395 64.4043 -74.2676 L 108.74 -29.8828 C 109.229 -29.3945 109.326 -29.1016 109.326 -28.7109 C 109.326 -28.1738 108.936 -27.8809 108.154 -27.8809 L 84.3262 -27.8809 C 83.3008 -27.8809 82.959 -27.5391 82.959 -26.5625 L 82.959 0.488281 C 82.959 2.83203 81.2988 4.49219 78.9062 4.49219 Z"/>
  </g>
  <g id="Ultralight-M" transform="matrix(1 0 0 1 498.041 1126)">
   <path d="M 43.8477 7.56836 L 79.4922 7.56836 C 83.4961 7.56836 86.2793 4.88281 86.2793 0.830078 L 86.2793 -24.9023 L 109.961 -24.9023 C 112.061 -24.9023 113.379 -26.123 113.379 -28.0273 C 113.379 -29.1992 112.842 -30.1758 111.816 -31.2012 L 66.6016 -76.5625 C 64.1602 -79.0527 62.9883 -79.4434 61.6699 -79.4434 C 60.4004 -79.4434 59.2285 -79.0527 56.7871 -76.5625 L 11.5723 -31.2012 C 10.498 -30.1758 9.96094 -29.1992 9.96094 -28.0273 C 9.96094 -26.123 11.2793 -24.9023 13.3789 -24.9023 L 37.0605 -24.9023 L 37.0605 0.830078 C 37.0605 4.88281 39.8438 7.56836 43.8477 7.56836 Z M 43.8477 5.17578 C 41.2598 5.17578 39.4531 3.41797 39.4531 0.878906 L 39.4531 -26.0742 C 39.4531 -27.002 39.1602 -27.2949 38.2324 -27.2949 L 14.0137 -27.2949 C 13.0859 -27.2949 12.6465 -27.5879 12.6465 -28.2227 C 12.6465 -28.6621 12.7441 -29.0039 13.3301 -29.541 L 58.6914 -75.0977 C 60.0586 -76.4648 60.791 -76.8555 61.6699 -76.8555 C 62.5488 -76.8555 63.3301 -76.4648 64.6484 -75.0977 L 110.059 -29.541 C 110.596 -29.0039 110.742 -28.6621 110.742 -28.2227 C 110.742 -27.5879 110.303 -27.2949 109.326 -27.2949 L 85.1074 -27.2949 C 84.1797 -27.2949 83.8867 -27.002 83.8867 -26.0742 L 83.8867 0.878906 C 83.8867 3.41797 82.0801 5.17578 79.4922 5.17578 Z"/>
  </g>
  <g id="Black-S" transform="matrix(1 0 0 1 2880.81 696)">
   <path d="M 39.209 3.125 L 65.9668 3.125 C 72.8516 3.125 76.9531 -0.976562 76.9531 -7.86133 L 76.9531 -22.4609 L 89.6973 -22.4609 C 94.3848 -22.4609 97.3633 -25.0977 97.3633 -29.248 C 97.3633 -31.8359 96.4355 -33.3984 93.7012 -36.1816 L 58.8867 -71.8262 C 56.9824 -73.7305 54.834 -74.707 52.5879 -74.707 C 50.3418 -74.707 48.1934 -73.7305 46.2891 -71.8262 L 11.4746 -36.1816 C 8.74023 -33.3496 7.8125 -31.8848 7.8125 -29.248 C 7.8125 -25.0977 10.791 -22.4609 15.4785 -22.4609 L 28.2227 -22.4609 L 28.2227 -7.86133 C 28.2227 -0.976562 32.3242 3.125 39.209 3.125 Z M 44.8242 -11.7188 C 43.8965 -11.7188 43.2617 -12.3535 43.2617 -13.3301 L 43.2617 -33.3984 C 43.2617 -34.2285 42.9688 -34.5703 42.0898 -34.5703 L 29.9805 -34.5703 C 29.834 -34.5703 29.7852 -34.6191 29.7852 -34.7168 C 29.7852 -34.7656 29.7852 -34.8145 29.8828 -34.9121 L 52.2949 -57.6172 C 52.3438 -57.666 52.4902 -57.7148 52.5879 -57.7148 C 52.6855 -57.7148 52.832 -57.666 52.8809 -57.6172 L 75.293 -34.9121 C 75.3906 -34.8145 75.3906 -34.7656 75.3906 -34.7168 C 75.3906 -34.6191 75.3418 -34.5703 75.1953 -34.5703 L 63.0859 -34.5703 C 62.207 -34.5703 61.9141 -34.2285 61.9141 -33.3984 L 61.9141 -13.3301 C 61.9141 -12.4023 61.2305 -11.7188 60.3516 -11.7188 Z"/>
  </g>
  <g id="Heavy-S" transform="matrix(1 0 0 1 2584.93 696)">
   <path d="M 38.8672 2.49023 L 64.6484 2.49023 C 71.2891 2.49023 75.1465 -1.46484 75.1465 -8.00781 L 75.1465 -23.0469 L 88.3789 -23.0469 C 92.7734 -23.0469 95.7031 -25.5371 95.7031 -29.4922 C 95.7031 -31.9336 94.7754 -33.4473 92.334 -35.9375 L 57.7148 -71.1426 C 55.957 -72.9004 53.9062 -73.877 51.7578 -73.877 C 49.6094 -73.877 47.5586 -72.9004 45.8008 -71.1426 L 11.1816 -35.9375 C 8.74023 -33.3984 7.8125 -31.9824 7.8125 -29.4922 C 7.8125 -25.5371 10.7422 -23.0469 15.1367 -23.0469 L 28.3691 -23.0469 L 28.3691 -8.00781 C 28.3691 -1.46484 32.2266 2.49023 38.8672 2.49023 Z M 43.3105 -10.4492 C 42.2852 -10.4492 41.6016 -11.1816 41.6016 -12.207 L 41.6016 -32.6172 C 41.6016 -33.4961 41.3086 -33.8379 40.3809 -33.8379 L 27.0508 -33.8379 C 26.9043 -33.8379 26.8066 -33.8867 26.8066 -34.0332 C 26.8066 -34.082 26.8555 -34.1309 26.9531 -34.2285 L 51.416 -58.8867 C 51.5137 -58.9355 51.6602 -58.9844 51.7578 -58.9844 C 51.8555 -58.9844 52.0508 -58.9355 52.0996 -58.8867 L 76.5625 -34.2285 C 76.709 -34.1309 76.709 -34.082 76.709 -34.0332 C 76.709 -33.8867 76.6113 -33.8379 76.4648 -33.8379 L 63.1348 -33.8379 C 62.207 -33.8379 61.9141 -33.4961 61.9141 -32.6172 L 61.9141 -12.207 C 61.9141 -11.2305 61.1816 -10.4492 60.2051 -10.4492 Z"/>
  </g>
  <g id="Bold-S" transform="matrix(1 0 0 1 2289.15 696)">
   <path d="M 38.4766 1.75781 L 63.2324 1.75781 C 69.5801 1.75781 73.0957 -1.95312 73.0957 -8.1543 L 73.0957 -23.6816 L 86.9629 -23.6816 C 91.0156 -23.6816 93.8477 -26.0742 93.8477 -29.7363 C 93.8477 -32.0312 92.8711 -33.5449 90.7715 -35.6934 L 56.4453 -70.3613 C 54.7852 -72.0215 52.8809 -72.9492 50.8301 -72.9492 C 48.7793 -72.9492 46.875 -72.0215 45.2148 -70.3613 L 10.8887 -35.6934 C 8.74023 -33.4473 7.8125 -32.0801 7.8125 -29.7363 C 7.8125 -26.0742 10.6934 -23.6816 14.7461 -23.6816 L 28.5645 -23.6816 L 28.5645 -8.1543 C 28.5645 -1.95312 32.1289 1.75781 38.4766 1.75781 Z M 41.6504 -9.0332 C 40.5273 -9.0332 39.7461 -9.81445 39.7461 -10.9863 L 39.7461 -31.7871 C 39.7461 -32.666 39.4043 -33.0566 38.4766 -33.0566 L 23.7305 -33.0566 C 23.584 -33.0566 23.4863 -33.1055 23.4863 -33.2031 C 23.4863 -33.3008 23.5352 -33.3984 23.6328 -33.4961 L 50.4395 -60.3027 C 50.5371 -60.4004 50.6836 -60.4492 50.8301 -60.4492 C 50.9766 -60.4492 51.123 -60.4004 51.2207 -60.3027 L 78.0273 -33.4961 C 78.125 -33.3984 78.1738 -33.3008 78.1738 -33.2031 C 78.1738 -33.1055 78.0762 -33.0566 77.9297 -33.0566 L 63.1836 -33.0566 C 62.2559 -33.0566 61.9141 -32.666 61.9141 -31.7871 L 61.9141 -10.9863 C 61.9141 -9.86328 61.084 -9.0332 60.0098 -9.0332 Z"/>
  </g>
  <g id="Semibold-S" transform="matrix(1 0 0 1 1993.07 696)">
   <path d="M 38.1836 1.26953 L 62.207 1.26953 C 68.3594 1.26953 71.6797 -2.34375 71.6797 -8.25195 L 71.6797 -24.1211 L 85.9375 -24.1211 C 89.7461 -24.1211 92.5781 -26.416 92.5781 -29.9316 C 92.5781 -32.0801 91.6016 -33.5938 89.6973 -35.498 L 55.5664 -69.8242 C 54.0039 -71.3867 52.1973 -72.3145 50.1953 -72.3145 C 48.1934 -72.3145 46.3867 -71.3867 44.8242 -69.8242 L 10.6934 -35.498 C 8.74023 -33.4961 7.8125 -32.1289 7.8125 -29.9316 C 7.8125 -26.416 10.6445 -24.1211 14.4531 -24.1211 L 28.7109 -24.1211 L 28.7109 -8.25195 C 28.7109 -2.34375 32.0312 1.26953 38.1836 1.26953 Z M 40.4785 -8.10547 C 39.3066 -8.10547 38.4766 -8.88672 38.4766 -10.1074 L 38.4766 -31.2012 C 38.4766 -32.1289 38.1348 -32.4707 37.1582 -32.4707 L 21.4844 -32.4707 C 21.2891 -32.4707 21.2402 -32.5684 21.2402 -32.666 C 21.2402 -32.7637 21.2402 -32.8613 21.3867 -32.959 L 49.7559 -61.2793 C 49.9023 -61.377 50.0488 -61.4746 50.1953 -61.4746 C 50.3418 -61.4746 50.4883 -61.377 50.6348 -61.2793 L 79.0039 -32.959 C 79.1504 -32.8613 79.1504 -32.7637 79.1504 -32.666 C 79.1504 -32.5684 79.1016 -32.4707 78.9062 -32.4707 L 63.2324 -32.4707 C 62.2559 -32.4707 61.9141 -32.1289 61.9141 -31.2012 L 61.9141 -10.1074 C 61.9141 -8.93555 61.0352 -8.10547 59.9121 -8.10547 Z"/>
  </g>
  <g id="Medium-S" transform="matrix(1 0 0 1 1696.85 696)">
   <path d="M 37.9883 0.878906 L 61.4258 0.878906 C 67.4316 0.878906 70.6543 -2.63672 70.6543 -8.30078 L 70.6543 -24.4629 L 85.2051 -24.4629 C 88.8184 -24.4629 91.6016 -26.6602 91.6016 -30.0781 C 91.6016 -32.1777 90.625 -33.5938 88.8672 -35.3516 L 54.8828 -69.3848 C 53.418 -70.8984 51.6602 -71.8262 49.707 -71.8262 C 47.8027 -71.8262 46.0449 -70.8984 44.5312 -69.3848 L 10.5469 -35.3516 C 8.74023 -33.5449 7.8125 -32.1777 7.8125 -30.0781 C 7.8125 -26.6602 10.5957 -24.4629 14.2578 -24.4629 L 28.8086 -24.4629 L 28.8086 -8.30078 C 28.8086 -2.63672 31.9824 0.878906 37.9883 0.878906 Z M 39.5996 -7.32422 C 38.3789 -7.32422 37.5 -8.20312 37.5 -9.47266 L 37.5 -30.7617 C 37.5 -31.6895 37.1094 -32.0801 36.1816 -32.0801 L 19.7754 -32.0801 C 19.5801 -32.0801 19.4824 -32.1289 19.4824 -32.2754 C 19.4824 -32.373 19.5312 -32.4707 19.6289 -32.5684 L 49.2676 -62.0117 C 49.3652 -62.1582 49.5605 -62.207 49.707 -62.207 C 49.8535 -62.207 50.0488 -62.1582 50.1465 -62.0117 L 79.7852 -32.5684 C 79.8828 -32.4707 79.9316 -32.373 79.9316 -32.2754 C 79.9316 -32.1289 79.834 -32.0801 79.6875 -32.0801 L 63.2324 -32.0801 C 62.3047 -32.0801 61.9141 -31.6895 61.9141 -30.7617 L 61.9141 -9.47266 C 61.9141 -8.25195 61.0352 -7.32422 59.8145 -7.32422 Z"/>
  </g>
  <g id="Regular-S" transform="matrix(1 0 0 1 1400.77 696)">
   <path d="M 37.6953 0.390625 L 60.4492 0.390625 C 66.2598 0.390625 69.2383 -2.97852 69.2383 -8.39844 L 69.2383 -24.9023 L 84.1797 -24.9023 C 87.5977 -24.9023 90.332 -27.002 90.332 -30.2246 C 90.332 -32.2266 89.3555 -33.6426 87.8418 -35.2051 L 54.0039 -68.8965 C 52.5879 -70.2637 50.9277 -71.1914 49.0723 -71.1914 C 47.2168 -71.1914 45.5566 -70.2637 44.1406 -68.8965 L 10.3516 -35.2051 C 8.69141 -33.5449 7.8125 -32.2266 7.8125 -30.2246 C 7.8125 -27.002 10.5469 -24.9023 13.9648 -24.9023 L 28.9062 -24.9023 L 28.9062 -8.39844 C 28.9062 -2.97852 31.8848 0.390625 37.6953 0.390625 Z M 38.4277 -6.39648 C 37.1582 -6.39648 36.2305 -7.27539 36.2305 -8.59375 L 36.2305 -30.1758 C 36.2305 -31.1035 35.8398 -31.4941 34.8633 -31.4941 L 17.5293 -31.4941 C 17.334 -31.4941 17.2363 -31.5918 17.2363 -31.7383 C 17.2363 -31.8359 17.2852 -31.9336 17.3828 -32.0801 L 48.584 -62.9883 C 48.7305 -63.1348 48.9258 -63.1836 49.0723 -63.1836 C 49.2676 -63.1836 49.4141 -63.1348 49.5605 -62.9883 L 80.7617 -32.0801 C 80.8594 -31.9336 80.957 -31.8359 80.957 -31.7383 C 80.957 -31.5918 80.8105 -31.4941 80.6641 -31.4941 L 63.2812 -31.4941 C 62.3047 -31.4941 61.9141 -31.1035 61.9141 -30.1758 L 61.9141 -8.59375 C 61.9141 -7.32422 60.9863 -6.39648 59.7168 -6.39648 Z"/>
  </g>
  <g id="Light-S" transform="matrix(1 0 0 1 1104.28 696)">
   <path d="M 36.6699 -0.292969 L 61.0352 -0.292969 C 66.0156 -0.292969 68.75 -3.22266 68.75 -7.95898 L 68.75 -25.6348 L 84.8145 -25.6348 C 87.6465 -25.6348 89.8926 -27.3438 89.8926 -30.0293 C 89.8926 -31.6895 89.0625 -32.9102 87.7441 -34.2285 L 53.418 -68.457 C 51.8555 -70.0684 50.4395 -70.8008 48.8281 -70.8008 C 47.2656 -70.8008 45.8008 -70.0684 44.2383 -68.457 L 9.91211 -34.2285 C 8.54492 -32.8613 7.8125 -31.6895 7.8125 -30.0293 C 7.8125 -27.3438 10.0098 -25.6348 12.8906 -25.6348 L 28.9551 -25.6348 L 28.9551 -7.95898 C 28.9551 -3.22266 31.6895 -0.292969 36.6699 -0.292969 Z M 37.1582 -5.51758 C 35.6445 -5.51758 34.5703 -6.54297 34.5703 -8.10547 L 34.5703 -29.4922 C 34.5703 -30.3711 34.2285 -30.7129 33.3496 -30.7129 L 15.4785 -30.7129 C 15.1367 -30.7129 14.9414 -30.8594 14.9414 -31.1035 C 14.9414 -31.2988 14.9902 -31.4453 15.2344 -31.6406 L 47.8027 -64.0625 C 48.1934 -64.502 48.4863 -64.6484 48.8281 -64.6484 C 49.1699 -64.6484 49.4629 -64.502 49.9023 -64.0625 L 82.4707 -31.6406 C 82.666 -31.4453 82.7637 -31.2988 82.7637 -31.1035 C 82.7637 -30.8594 82.5684 -30.7129 82.2266 -30.7129 L 64.3555 -30.7129 C 63.4766 -30.7129 63.1348 -30.3711 63.1348 -29.4922 L 63.1348 -8.10547 C 63.1348 -6.5918 62.0117 -5.51758 60.498 -5.51758 Z"/>
  </g>
  <g id="Thin-S" transform="matrix(1 0 0 1 807.887 696)">
   <path d="M 35.3027 -1.12305 L 61.7676 -1.12305 C 65.6738 -1.12305 68.0664 -3.56445 68.0664 -7.37305 L 68.0664 -26.5137 L 85.5957 -26.5137 C 87.7441 -26.5137 89.2578 -27.7832 89.2578 -29.7852 C 89.2578 -30.957 88.6719 -31.9336 87.6465 -32.959 L 52.6855 -67.9688 C 50.9277 -69.7754 49.8047 -70.2148 48.5352 -70.2148 C 47.2656 -70.2148 46.1426 -69.7754 44.3848 -67.9688 L 9.42383 -32.959 C 8.39844 -31.8848 7.8125 -30.957 7.8125 -29.7852 C 7.8125 -27.7832 9.32617 -26.5137 11.4746 -26.5137 L 29.0039 -26.5137 L 29.0039 -7.37305 C 29.0039 -3.56445 31.4453 -1.12305 35.3027 -1.12305 Z M 35.498 -4.3457 C 33.6914 -4.3457 32.373 -5.61523 32.373 -7.42188 L 32.373 -28.6133 C 32.373 -29.4434 32.1289 -29.6875 31.2988 -29.6875 L 12.793 -29.6875 C 12.207 -29.6875 11.9141 -29.9316 11.9141 -30.3223 C 11.9141 -30.5664 12.0117 -30.8105 12.3535 -31.1523 L 46.7285 -65.4785 C 47.5098 -66.3086 47.998 -66.5527 48.5352 -66.5527 C 49.0723 -66.5527 49.5605 -66.3086 50.3418 -65.4785 L 84.7168 -31.1523 C 85.0586 -30.8105 85.1562 -30.5664 85.1562 -30.3223 C 85.1562 -29.9316 84.8633 -29.6875 84.2773 -29.6875 L 65.7715 -29.6875 C 64.9414 -29.6875 64.6973 -29.4434 64.6973 -28.6133 L 64.6973 -7.42188 C 64.6973 -5.61523 63.3789 -4.3457 61.5723 -4.3457 Z"/>
  </g>
  <g id="Ultralight-S" transform="matrix(1 0 0 1 511.347 696)">
   <path d="M 34.5703 -1.5625 L 62.1582 -1.5625 C 65.4785 -1.5625 67.7246 -3.75977 67.7246 -7.03125 L 67.7246 -27.002 L 86.0352 -27.002 C 87.793 -27.002 88.916 -28.0273 88.916 -29.6387 C 88.916 -30.6152 88.4766 -31.3965 87.5977 -32.2754 L 52.2949 -67.6758 C 50.3906 -69.6289 49.4629 -69.9219 48.3887 -69.9219 C 47.3145 -69.9219 46.3379 -69.6289 44.4824 -67.6758 L 9.13086 -32.2754 C 8.25195 -31.3965 7.8125 -30.6152 7.8125 -29.6387 C 7.8125 -28.0273 8.98438 -27.002 10.6934 -27.002 L 29.0527 -27.002 L 29.0527 -7.03125 C 29.0527 -3.75977 31.2988 -1.5625 34.5703 -1.5625 Z M 34.6191 -3.75977 C 32.666 -3.75977 31.25 -5.07812 31.25 -7.08008 L 31.25 -28.1738 C 31.25 -28.9062 31.0059 -29.1504 30.2734 -29.1504 L 11.377 -29.1504 C 10.6934 -29.1504 10.3516 -29.3945 10.3516 -29.8828 C 10.3516 -30.2246 10.4492 -30.4688 10.8887 -30.8594 L 46.1914 -66.2598 C 47.168 -67.2852 47.7051 -67.5293 48.3887 -67.5293 C 49.0234 -67.5293 49.6094 -67.2852 50.5859 -66.2598 L 85.8887 -30.8594 C 86.2793 -30.4688 86.377 -30.2246 86.377 -29.8828 C 86.377 -29.3945 86.0352 -29.1504 85.3516 -29.1504 L 66.5039 -29.1504 C 65.7227 -29.1504 65.4785 -28.9062 65.4785 -28.1738 L 65.4785 -7.08008 C 65.4785 -5.07812 64.1113 -3.75977 62.1094 -3.75977 Z"/>
  </g>
 </g>
</svg>
