<?xml version="1.0" encoding="UTF-8"?>
<!--Generator: Apple Native CoreSVG 123-->
<!DOCTYPE svg
PUBLIC "-//W3C//DTD SVG 1.1//EN"
       "http://www.w3.org/Graphics/SVG/1.1/DTD/svg11.dtd">
<svg version="1.1" xmlns="http://www.w3.org/2000/svg" xmlns:xlink="http://www.w3.org/1999/xlink" width="3300" height="2200">
 <!--glyph: "uni1001AA.medium", point size: 100.000000, font version: "Version 15.0d7e11", template writer version: "5"-->
 <g id="Notes">
  <rect height="2200" id="artboard" style="fill:white;opacity:1" width="3300" x="0" y="0"/>
  <line id="" style="fill:none;stroke:black;opacity:1;stroke-width:0.5;" x1="263" x2="3036" y1="292" y2="292"/>
  <text style="stroke:none;fill:black;font-family:-apple-system,&quot;SF Pro Display&quot;,&quot;SF Pro Text&quot;,Helvetica,sans-serif;font-weight:bold;" transform="matrix(1 0 0 1 263 322)">Weight/Scale Variations</text>
  <text style="stroke:none;fill:black;font-family:-apple-system,&quot;SF Pro Display&quot;,&quot;SF Pro Text&quot;,Helvetica,sans-serif;text-anchor:middle;" transform="matrix(1 0 0 1 559.711 322)">Ultralight</text>
  <text style="stroke:none;fill:black;font-family:-apple-system,&quot;SF Pro Display&quot;,&quot;SF Pro Text&quot;,Helvetica,sans-serif;text-anchor:middle;" transform="matrix(1 0 0 1 856.422 322)">Thin</text>
  <text style="stroke:none;fill:black;font-family:-apple-system,&quot;SF Pro Display&quot;,&quot;SF Pro Text&quot;,Helvetica,sans-serif;text-anchor:middle;" transform="matrix(1 0 0 1 1153.13 322)">Light</text>
  <text style="stroke:none;fill:black;font-family:-apple-system,&quot;SF Pro Display&quot;,&quot;SF Pro Text&quot;,Helvetica,sans-serif;text-anchor:middle;" transform="matrix(1 0 0 1 1449.84 322)">Regular</text>
  <text style="stroke:none;fill:black;font-family:-apple-system,&quot;SF Pro Display&quot;,&quot;SF Pro Text&quot;,Helvetica,sans-serif;text-anchor:middle;" transform="matrix(1 0 0 1 1746.56 322)">Medium</text>
  <text style="stroke:none;fill:black;font-family:-apple-system,&quot;SF Pro Display&quot;,&quot;SF Pro Text&quot;,Helvetica,sans-serif;text-anchor:middle;" transform="matrix(1 0 0 1 2043.27 322)">Semibold</text>
  <text style="stroke:none;fill:black;font-family:-apple-system,&quot;SF Pro Display&quot;,&quot;SF Pro Text&quot;,Helvetica,sans-serif;text-anchor:middle;" transform="matrix(1 0 0 1 2339.98 322)">Bold</text>
  <text style="stroke:none;fill:black;font-family:-apple-system,&quot;SF Pro Display&quot;,&quot;SF Pro Text&quot;,Helvetica,sans-serif;text-anchor:middle;" transform="matrix(1 0 0 1 2636.69 322)">Heavy</text>
  <text style="stroke:none;fill:black;font-family:-apple-system,&quot;SF Pro Display&quot;,&quot;SF Pro Text&quot;,Helvetica,sans-serif;text-anchor:middle;" transform="matrix(1 0 0 1 2933.4 322)">Black</text>
  <line id="" style="fill:none;stroke:black;opacity:1;stroke-width:0.5;" x1="263" x2="3036" y1="1903" y2="1903"/>
  <g id="" transform="matrix(1 0 0 1 263 1933)">
   <path d="M 9.24805 0.830078 C 13.5547 0.830078 17.1387 -2.74414 17.1387 -7.05078 C 17.1387 -11.3574 13.5449 -14.9316 9.23828 -14.9316 C 4.94141 -14.9316 1.36719 -11.3574 1.36719 -7.05078 C 1.36719 -2.74414 4.95117 0.830078 9.24805 0.830078 Z M 9.24805 -0.654297 C 5.70312 -0.654297 2.87109 -3.49609 2.87109 -7.05078 C 2.87109 -10.6055 5.69336 -13.4473 9.23828 -13.4473 C 12.793 -13.4473 15.6348 -10.6055 15.6445 -7.05078 C 15.6543 -3.49609 12.8027 -0.654297 9.24805 -0.654297 Z M 9.22852 -3.42773 C 9.69727 -3.42773 9.9707 -3.74023 9.9707 -4.25781 L 9.9707 -6.31836 L 12.1973 -6.31836 C 12.6953 -6.31836 13.0371 -6.57227 13.0371 -7.04102 C 13.0371 -7.51953 12.7148 -7.7832 12.1973 -7.7832 L 9.9707 -7.7832 L 9.9707 -10.0098 C 9.9707 -10.5273 9.69727 -10.8496 9.22852 -10.8496 C 8.75977 -10.8496 8.50586 -10.5078 8.50586 -10.0098 L 8.50586 -7.7832 L 6.29883 -7.7832 C 5.78125 -7.7832 5.44922 -7.51953 5.44922 -7.04102 C 5.44922 -6.57227 5.80078 -6.31836 6.29883 -6.31836 L 8.50586 -6.31836 L 8.50586 -4.25781 C 8.50586 -3.75977 8.75977 -3.42773 9.22852 -3.42773 Z"/>
  </g>
  <g id="" transform="matrix(1 0 0 1 281.506 1933)">
   <path d="M 11.709 2.91016 C 17.1582 2.91016 21.6699 -1.60156 21.6699 -7.05078 C 21.6699 -12.4902 17.1484 -17.0117 11.6992 -17.0117 C 6.25977 -17.0117 1.74805 -12.4902 1.74805 -7.05078 C 1.74805 -1.60156 6.26953 2.91016 11.709 2.91016 Z M 11.709 1.25 C 7.09961 1.25 3.41797 -2.44141 3.41797 -7.05078 C 3.41797 -11.6504 7.08984 -15.3516 11.6992 -15.3516 C 16.3086 -15.3516 20 -11.6504 20.0098 -7.05078 C 20.0195 -2.44141 16.3184 1.25 11.709 1.25 Z M 11.6895 -2.41211 C 12.207 -2.41211 12.5195 -2.77344 12.5195 -3.33984 L 12.5195 -6.23047 L 15.5762 -6.23047 C 16.123 -6.23047 16.5039 -6.51367 16.5039 -7.03125 C 16.5039 -7.55859 16.1426 -7.86133 15.5762 -7.86133 L 12.5195 -7.86133 L 12.5195 -10.9277 C 12.5195 -11.5039 12.207 -11.8555 11.6895 -11.8555 C 11.1719 -11.8555 10.8789 -11.4844 10.8789 -10.9277 L 10.8789 -7.86133 L 7.83203 -7.86133 C 7.26562 -7.86133 6.89453 -7.55859 6.89453 -7.03125 C 6.89453 -6.51367 7.28516 -6.23047 7.83203 -6.23047 L 10.8789 -6.23047 L 10.8789 -3.33984 C 10.8789 -2.79297 11.1719 -2.41211 11.6895 -2.41211 Z"/>
  </g>
  <g id="" transform="matrix(1 0 0 1 304.924 1933)">
   <path d="M 14.9707 5.67383 C 21.9336 5.67383 27.6953 -0.078125 27.6953 -7.04102 C 27.6953 -14.0039 21.9238 -19.7559 14.9609 -19.7559 C 8.00781 -19.7559 2.25586 -14.0039 2.25586 -7.04102 C 2.25586 -0.078125 8.01758 5.67383 14.9707 5.67383 Z M 14.9707 3.85742 C 8.93555 3.85742 4.08203 -1.00586 4.08203 -7.04102 C 4.08203 -13.0762 8.92578 -17.9395 14.9609 -17.9395 C 21.0059 -17.9395 25.8594 -13.0762 25.8691 -7.04102 C 25.8789 -1.00586 21.0156 3.85742 14.9707 3.85742 Z M 14.9512 -1.06445 C 15.5176 -1.06445 15.8691 -1.45508 15.8691 -2.06055 L 15.8691 -6.13281 L 20.1074 -6.13281 C 20.6934 -6.13281 21.1133 -6.46484 21.1133 -7.02148 C 21.1133 -7.59766 20.7227 -7.93945 20.1074 -7.93945 L 15.8691 -7.93945 L 15.8691 -12.1875 C 15.8691 -12.8027 15.5176 -13.1934 14.9512 -13.1934 C 14.3848 -13.1934 14.0625 -12.7832 14.0625 -12.1875 L 14.0625 -7.93945 L 9.83398 -7.93945 C 9.21875 -7.93945 8.80859 -7.59766 8.80859 -7.02148 C 8.80859 -6.46484 9.23828 -6.13281 9.83398 -6.13281 L 14.0625 -6.13281 L 14.0625 -2.06055 C 14.0625 -1.47461 14.3848 -1.06445 14.9512 -1.06445 Z"/>
  </g>
  <text style="stroke:none;fill:black;font-family:-apple-system,&quot;SF Pro Display&quot;,&quot;SF Pro Text&quot;,Helvetica,sans-serif;font-weight:bold;" transform="matrix(1 0 0 1 263 1953)">Design Variations</text>
  <text style="stroke:none;fill:black;font-family:-apple-system,&quot;SF Pro Display&quot;,&quot;SF Pro Text&quot;,Helvetica,sans-serif;" transform="matrix(1 0 0 1 263 1971)">Symbols are supported in up to nine weights and three scales.</text>
  <text style="stroke:none;fill:black;font-family:-apple-system,&quot;SF Pro Display&quot;,&quot;SF Pro Text&quot;,Helvetica,sans-serif;" transform="matrix(1 0 0 1 263 1989)">For optimal layout with text and other symbols, vertically align</text>
  <text style="stroke:none;fill:black;font-family:-apple-system,&quot;SF Pro Display&quot;,&quot;SF Pro Text&quot;,Helvetica,sans-serif;" transform="matrix(1 0 0 1 263 2007)">symbols with the adjacent text.</text>
  <rect height="14" id="" style="fill:#00AEEF;stroke:none;opacity:0.4;" width="3" x="776" y="1919"/>
  <g id="" transform="matrix(1 0 0 1 779 1933)">
   <path d="M 10.5273 0 L 12.373 0 L 7.17773 -14.0918 L 5.43945 -14.0918 L 0.244141 0 L 2.08984 0 L 3.50586 -4.0332 L 9.11133 -4.0332 Z M 6.2793 -11.9531 L 6.33789 -11.9531 L 8.59375 -5.52734 L 4.02344 -5.52734 Z"/>
  </g>
  <rect height="14" id="" style="fill:#00AEEF;stroke:none;opacity:0.4;" width="3" x="791.617" y="1919"/>
  <text style="stroke:none;fill:black;font-family:-apple-system,&quot;SF Pro Display&quot;,&quot;SF Pro Text&quot;,Helvetica,sans-serif;font-weight:bold;" transform="matrix(1 0 0 1 776 1953)">Margins</text>
  <text style="stroke:none;fill:black;font-family:-apple-system,&quot;SF Pro Display&quot;,&quot;SF Pro Text&quot;,Helvetica,sans-serif;" transform="matrix(1 0 0 1 776 1971)">Leading and trailing margins on the left and right side of each symbol</text>
  <text style="stroke:none;fill:black;font-family:-apple-system,&quot;SF Pro Display&quot;,&quot;SF Pro Text&quot;,Helvetica,sans-serif;" transform="matrix(1 0 0 1 776 1989)">can be adjusted by modifying the width of the blue rectangles.</text>
  <text style="stroke:none;fill:black;font-family:-apple-system,&quot;SF Pro Display&quot;,&quot;SF Pro Text&quot;,Helvetica,sans-serif;" transform="matrix(1 0 0 1 776 2007)">Modifications are automatically applied proportionally to all</text>
  <text style="stroke:none;fill:black;font-family:-apple-system,&quot;SF Pro Display&quot;,&quot;SF Pro Text&quot;,Helvetica,sans-serif;" transform="matrix(1 0 0 1 776 2025)">scales and weights.</text>
  <g id="" transform="matrix(1 0 0 1 1289 1933)">
   <path d="M 2.83203 3.11523 L 4.375 4.6582 C 5.22461 5.48828 6.19141 5.41992 7.06055 4.46289 L 17.2754 -6.66016 C 17.7051 -6.36719 18.0957 -6.37695 18.5645 -6.47461 L 19.6094 -6.68945 L 20.3027 -5.99609 L 20.2539 -5.47852 C 20.1855 -4.95117 20.3516 -4.53125 20.8496 -4.0332 L 21.6602 -3.22266 C 22.168 -2.71484 22.8223 -2.68555 23.3008 -3.16406 L 26.5527 -6.41602 C 27.0312 -6.89453 27.0117 -7.54883 26.5039 -8.05664 L 25.6836 -8.87695 C 25.1855 -9.375 24.7754 -9.55078 24.2383 -9.47266 L 23.7109 -9.41406 L 23.0566 -10.0781 L 23.3398 -11.2207 C 23.4863 -11.7871 23.3398 -12.2559 22.7148 -12.8613 L 20.3027 -15.2539 C 16.7578 -18.7793 12.2266 -18.6719 9.11133 -15.5371 C 8.69141 -15.1074 8.64258 -14.5215 8.91602 -14.0918 C 9.15039 -13.7207 9.62891 -13.4961 10.2734 -13.6621 C 11.7871 -14.043 13.3008 -13.9258 14.7852 -12.9199 L 14.1602 -11.3379 C 13.9258 -10.752 13.9453 -10.2734 14.1797 -9.83398 L 3.01758 0.439453 C 2.08008 1.30859 1.97266 2.25586 2.83203 3.11523 Z M 10.6738 -15.1465 C 13.3398 -17.1387 16.6504 -16.8262 19.0527 -14.4141 L 21.6797 -11.8066 C 21.9141 -11.5723 21.9434 -11.3867 21.8848 -11.0938 L 21.5039 -9.53125 L 23.0762 -7.95898 L 24.043 -8.04688 C 24.3262 -8.07617 24.4141 -8.05664 24.6387 -7.83203 L 25.2637 -7.20703 L 22.5098 -4.46289 L 21.8848 -5.07812 C 21.6602 -5.30273 21.6406 -5.40039 21.6699 -5.68359 L 21.7578 -6.64062 L 20.1953 -8.20312 L 18.5742 -7.89062 C 18.291 -7.83203 18.1445 -7.83203 17.9102 -8.07617 L 15.7324 -10.2539 C 15.5078 -10.4883 15.4785 -10.625 15.6055 -10.9473 L 16.5527 -13.2227 C 14.9512 -14.7559 12.8418 -15.6055 10.8008 -14.9512 C 10.7129 -14.9219 10.6445 -14.9414 10.6152 -14.9805 C 10.5859 -15.0293 10.5859 -15.0781 10.6738 -15.1465 Z M 4.10156 2.41211 C 3.61328 1.91406 3.78906 1.61133 4.12109 1.30859 L 15.0781 -8.80859 L 16.3086 -7.57812 L 6.15234 3.34961 C 5.84961 3.68164 5.46875 3.7793 5.06836 3.37891 Z"/>
  </g>
  <text style="stroke:none;fill:black;font-family:-apple-system,&quot;SF Pro Display&quot;,&quot;SF Pro Text&quot;,Helvetica,sans-serif;font-weight:bold;" transform="matrix(1 0 0 1 1289 1953)">Exporting</text>
  <text style="stroke:none;fill:black;font-family:-apple-system,&quot;SF Pro Display&quot;,&quot;SF Pro Text&quot;,Helvetica,sans-serif;" transform="matrix(1 0 0 1 1289 1971)">Symbols should be outlined when exporting to ensure the</text>
  <text style="stroke:none;fill:black;font-family:-apple-system,&quot;SF Pro Display&quot;,&quot;SF Pro Text&quot;,Helvetica,sans-serif;" transform="matrix(1 0 0 1 1289 1989)">design is preserved when submitting to Xcode.</text>
  <text id="template-version" style="stroke:none;fill:black;font-family:-apple-system,&quot;SF Pro Display&quot;,&quot;SF Pro Text&quot;,Helvetica,sans-serif;text-anchor:end;" transform="matrix(1 0 0 1 3036 1933)">Template v.1.0</text>
  <text style="stroke:none;fill:black;font-family:-apple-system,&quot;SF Pro Display&quot;,&quot;SF Pro Text&quot;,Helvetica,sans-serif;text-anchor:end;" transform="matrix(1 0 0 1 3036 1951)">Generated from globe</text>
  <text style="stroke:none;fill:black;font-family:-apple-system,&quot;SF Pro Display&quot;,&quot;SF Pro Text&quot;,Helvetica,sans-serif;text-anchor:end;" transform="matrix(1 0 0 1 3036 1969)">Typeset at 100 points</text>
  <text style="stroke:none;fill:black;font-family:-apple-system,&quot;SF Pro Display&quot;,&quot;SF Pro Text&quot;,Helvetica,sans-serif;" transform="matrix(1 0 0 1 263 726)">Small</text>
  <text style="stroke:none;fill:black;font-family:-apple-system,&quot;SF Pro Display&quot;,&quot;SF Pro Text&quot;,Helvetica,sans-serif;" transform="matrix(1 0 0 1 263 1156)">Medium</text>
  <text style="stroke:none;fill:black;font-family:-apple-system,&quot;SF Pro Display&quot;,&quot;SF Pro Text&quot;,Helvetica,sans-serif;" transform="matrix(1 0 0 1 263 1586)">Large</text>
 </g>
 <g id="Guides">
  <g id="H-reference" style="fill:#27AAE1;stroke:none;" transform="matrix(1 0 0 1 339 696)">
   <path d="M 54.9316 0 L 57.666 0 L 30.5664 -70.459 L 28.0762 -70.459 L 0.976562 0 L 3.66211 0 L 12.9395 -24.4629 L 45.7031 -24.4629 Z M 29.1992 -67.0898 L 29.4434 -67.0898 L 44.8242 -26.709 L 13.8184 -26.709 Z"/>
  </g>
  <line id="Baseline-S" style="fill:none;stroke:#27AAE1;opacity:1;stroke-width:0.577;" x1="263" x2="3036" y1="696" y2="696"/>
  <line id="Capline-S" style="fill:none;stroke:#27AAE1;opacity:1;stroke-width:0.577;" x1="263" x2="3036" y1="625.541" y2="625.541"/>
  <g id="H-reference" style="fill:#27AAE1;stroke:none;" transform="matrix(1 0 0 1 339 1126)">
   <path d="M 54.9316 0 L 57.666 0 L 30.5664 -70.459 L 28.0762 -70.459 L 0.976562 0 L 3.66211 0 L 12.9395 -24.4629 L 45.7031 -24.4629 Z M 29.1992 -67.0898 L 29.4434 -67.0898 L 44.8242 -26.709 L 13.8184 -26.709 Z"/>
  </g>
  <line id="Baseline-M" style="fill:none;stroke:#27AAE1;opacity:1;stroke-width:0.577;" x1="263" x2="3036" y1="1126" y2="1126"/>
  <line id="Capline-M" style="fill:none;stroke:#27AAE1;opacity:1;stroke-width:0.577;" x1="263" x2="3036" y1="1055.54" y2="1055.54"/>
  <g id="H-reference" style="fill:#27AAE1;stroke:none;" transform="matrix(1 0 0 1 339 1556)">
   <path d="M 54.9316 0 L 57.666 0 L 30.5664 -70.459 L 28.0762 -70.459 L 0.976562 0 L 3.66211 0 L 12.9395 -24.4629 L 45.7031 -24.4629 Z M 29.1992 -67.0898 L 29.4434 -67.0898 L 44.8242 -26.709 L 13.8184 -26.709 Z"/>
  </g>
  <line id="Baseline-L" style="fill:none;stroke:#27AAE1;opacity:1;stroke-width:0.577;" x1="263" x2="3036" y1="1556" y2="1556"/>
  <line id="Capline-L" style="fill:none;stroke:#27AAE1;opacity:1;stroke-width:0.577;" x1="263" x2="3036" y1="1485.54" y2="1485.54"/>
  <rect height="119.336" id="left-margin" style="fill:#00AEEF;stroke:none;opacity:0.4;" width="8.74023" x="1392.62" y="1030.79"/>
  <rect height="119.336" id="right-margin" style="fill:#00AEEF;stroke:none;opacity:0.4;" width="8.74023" x="1498.33" y="1030.79"/>
 </g>
 <g id="Symbols">
  <g id="Black-L" transform="matrix(1 0 0 1 2854.54 1556)">
   <path d="M 78.8574 32.373 C 116.016 32.373 146.436 1.95312 146.436 -35.2051 C 146.436 -72.3633 116.016 -102.783 78.8574 -102.783 C 41.6992 -102.783 11.2793 -72.3633 11.2793 -35.2051 C 11.2793 1.95312 41.748 32.373 78.8574 32.373 Z M 83.5449 -81.543 C 88.8672 -78.9551 93.75 -72.0703 97.1191 -63.1348 C 92.9199 -62.4023 88.3301 -61.9141 83.5449 -61.7676 Z M 60.5469 -63.1348 C 63.9648 -72.0703 68.8477 -78.9551 74.1699 -81.543 L 74.1699 -61.7676 C 69.3848 -61.9141 64.7949 -62.4023 60.5469 -63.1348 Z M 101.123 -76.8066 C 105.615 -74.4141 109.668 -71.3379 113.086 -67.6758 C 111.182 -66.7969 109.033 -66.0156 106.689 -65.2832 C 105.127 -69.5801 103.271 -73.4375 101.123 -76.8066 Z M 44.6289 -67.6758 C 48.0957 -71.3379 52.0996 -74.4141 56.5918 -76.8066 C 54.4434 -73.4375 52.5391 -69.5801 51.0254 -65.332 C 48.6816 -66.0156 46.5332 -66.7969 44.6289 -67.6758 Z M 111.572 -39.9902 C 111.328 -45.752 110.547 -51.2695 109.326 -56.3965 C 112.891 -57.4707 116.113 -58.7891 118.848 -60.2051 C 122.607 -54.248 125.049 -47.3633 125.781 -39.9902 Z M 31.9336 -39.9902 C 32.666 -47.3633 35.1074 -54.248 38.8672 -60.2051 C 41.6016 -58.7891 44.8242 -57.4707 48.3887 -56.3965 C 47.168 -51.2695 46.3867 -45.752 46.1426 -39.9902 Z M 55.7129 -39.9902 C 56.0059 -44.873 56.7383 -49.6094 57.8125 -54.1016 C 62.8906 -53.1738 68.4082 -52.5391 74.1699 -52.3438 L 74.1699 -39.9902 Z M 83.5449 -39.9902 L 83.5449 -52.3438 C 89.3066 -52.5391 94.8242 -53.1738 99.9023 -54.1016 C 100.977 -49.6094 101.709 -44.873 102.002 -39.9902 Z M 31.9336 -30.5664 L 46.0938 -30.5664 C 46.3867 -24.6582 47.168 -19.043 48.3887 -13.8184 C 44.873 -12.7441 41.6992 -11.4746 38.9648 -10.0586 C 35.1562 -16.1133 32.666 -23.0469 31.9336 -30.5664 Z M 55.7129 -30.5664 L 74.1699 -30.5664 L 74.1699 -17.8711 C 68.4082 -17.6758 62.8906 -17.041 57.8125 -16.1133 C 56.6895 -20.7031 56.0059 -25.5859 55.7129 -30.5664 Z M 83.5449 -17.8711 L 83.5449 -30.5664 L 102.002 -30.5664 C 101.709 -25.5859 100.977 -20.7031 99.9023 -16.1133 C 94.8242 -17.041 89.3066 -17.6758 83.5449 -17.8711 Z M 109.326 -13.8184 C 110.547 -19.043 111.328 -24.6582 111.621 -30.5664 L 125.781 -30.5664 C 125.049 -23.0469 122.607 -16.0645 118.799 -10.0586 C 116.016 -11.4746 112.842 -12.7441 109.326 -13.8184 Z M 83.5449 -8.44727 C 88.3301 -8.30078 92.9199 -7.8125 97.1191 -7.12891 C 93.75 1.85547 88.8672 8.74023 83.5449 11.3281 Z M 60.5469 -7.08008 C 64.7949 -7.8125 69.3848 -8.30078 74.1699 -8.44727 L 74.1699 11.377 C 68.7988 8.74023 63.9648 1.9043 60.5469 -7.08008 Z M 44.7754 -2.63672 C 46.6309 -3.4668 48.7305 -4.24805 51.0254 -4.93164 C 52.4902 -0.78125 54.2969 2.97852 56.3477 6.25 C 52.0508 3.90625 48.1445 0.927734 44.7754 -2.63672 Z M 106.689 -4.93164 C 108.984 -4.24805 111.084 -3.4668 112.988 -2.58789 C 109.619 0.927734 105.664 3.95508 101.318 6.29883 C 103.369 2.97852 105.176 -0.78125 106.689 -4.93164 Z"/>
  </g>
  <g id="Heavy-L" transform="matrix(1 0 0 1 2559.17 1556)">
   <path d="M 77.5391 31.0547 C 113.916 31.0547 143.75 1.17188 143.75 -35.2051 C 143.75 -71.582 113.916 -101.465 77.5391 -101.465 C 41.1621 -101.465 11.2793 -71.582 11.2793 -35.2051 C 11.2793 1.17188 41.1621 31.0547 77.5391 31.0547 Z M 81.8848 -82.959 C 87.3535 -80.4688 92.3828 -73.5352 95.9473 -64.2578 C 91.5527 -63.5254 86.8164 -63.0371 81.8848 -62.8418 Z M 59.1309 -64.2578 C 62.6465 -73.5352 67.6758 -80.4688 73.1934 -82.959 L 73.1934 -62.8418 C 68.2129 -63.0371 63.4766 -63.5254 59.1309 -64.2578 Z M 98.2422 -79.1016 C 103.467 -76.6113 108.203 -73.2422 112.207 -69.1895 C 109.961 -68.1152 107.471 -67.1387 104.736 -66.3086 C 102.93 -71.1426 100.732 -75.4395 98.2422 -79.1016 Z M 42.8711 -69.1895 C 46.875 -73.2422 51.5625 -76.6113 56.8359 -79.1016 C 54.2969 -75.4395 52.0996 -71.1426 50.3418 -66.3086 C 47.6074 -67.1387 45.0684 -68.1152 42.8711 -69.1895 Z M 109.863 -39.5996 C 109.57 -46.1914 108.643 -52.4414 107.227 -58.1543 C 111.182 -59.3262 114.697 -60.791 117.725 -62.4023 C 122.168 -55.8105 125.049 -48.0469 125.83 -39.5996 Z M 29.248 -39.5996 C 29.9805 -48.0469 32.8613 -55.8105 37.3535 -62.4023 C 40.3809 -60.791 43.8965 -59.3262 47.8027 -58.1543 C 46.3867 -52.4414 45.5078 -46.1914 45.2148 -39.5996 Z M 54.1016 -39.5996 C 54.3945 -45.3125 55.2246 -50.8789 56.543 -56.0059 C 61.7188 -54.9805 67.334 -54.3457 73.1934 -54.1504 L 73.1934 -39.5996 Z M 81.8848 -39.5996 L 81.8848 -54.1504 C 87.7441 -54.3457 93.3594 -54.9805 98.5352 -56.0059 C 99.8047 -50.8789 100.684 -45.3125 100.977 -39.5996 Z M 29.248 -30.9082 L 45.2148 -30.9082 C 45.459 -24.2188 46.3867 -17.8711 47.8027 -12.1094 C 43.9453 -10.8887 40.4297 -9.47266 37.4512 -7.86133 C 32.9102 -14.5508 29.9805 -22.4121 29.248 -30.9082 Z M 54.0527 -30.9082 L 73.1934 -30.9082 L 73.1934 -16.0645 C 67.334 -15.8691 61.7188 -15.2344 56.543 -14.209 C 55.2246 -19.4336 54.3457 -25.0977 54.0527 -30.9082 Z M 81.8848 -16.0645 L 81.8848 -30.9082 L 100.977 -30.9082 C 100.684 -25.0977 99.8535 -19.4336 98.5352 -14.209 C 93.3594 -15.2344 87.7441 -15.8691 81.8848 -16.0645 Z M 107.227 -12.1094 C 108.691 -17.8711 109.57 -24.2188 109.863 -30.9082 L 125.83 -30.9082 C 125.098 -22.4121 122.168 -14.502 117.627 -7.86133 C 114.648 -9.47266 111.133 -10.8887 107.227 -12.1094 Z M 81.8848 -7.37305 C 86.8164 -7.17773 91.5527 -6.68945 95.9473 -5.95703 C 92.3828 3.32031 87.3535 10.2539 81.8848 12.7441 Z M 59.1309 -5.95703 C 63.4766 -6.68945 68.2129 -7.17773 73.1934 -7.37305 L 73.1934 12.7441 C 67.6758 10.2539 62.6465 3.32031 59.1309 -5.95703 Z M 43.0176 -1.12305 C 45.2148 -2.14844 47.6562 -3.07617 50.3418 -3.90625 C 52.0508 0.78125 54.1992 4.98047 56.5918 8.54492 C 51.5137 6.15234 46.9238 2.83203 43.0176 -1.12305 Z M 104.736 -3.90625 C 107.422 -3.07617 109.912 -2.14844 112.061 -1.12305 C 108.154 2.88086 103.516 6.15234 98.4375 8.59375 C 100.879 5.0293 102.979 0.830078 104.736 -3.90625 Z"/>
  </g>
  <g id="Bold-L" transform="matrix(1 0 0 1 2263.93 1556)">
   <path d="M 76.0742 29.541 C 111.621 29.541 140.82 0.292969 140.82 -35.2051 C 140.82 -70.752 111.572 -99.9512 76.0254 -99.9512 C 40.5273 -99.9512 11.2793 -70.752 11.2793 -35.2051 C 11.2793 0.292969 40.5273 29.541 76.0742 29.541 Z M 79.9805 -84.4727 C 85.6934 -82.1777 90.918 -75.1465 94.5801 -65.5762 C 90.0879 -64.7461 85.1562 -64.2578 79.9805 -64.0625 Z M 57.5195 -65.5762 C 61.1816 -75.1465 66.4062 -82.1777 72.0703 -84.4727 L 72.0703 -64.0625 C 66.8945 -64.2578 62.0117 -64.7461 57.5195 -65.5762 Z M 94.9707 -81.4941 C 101.074 -79.0039 106.543 -75.3906 111.133 -70.8496 C 108.594 -69.5312 105.713 -68.4082 102.539 -67.4316 C 100.488 -72.9004 97.9004 -77.6367 94.9707 -81.4941 Z M 40.918 -70.8496 C 45.5566 -75.3906 51.0254 -79.0039 57.0801 -81.4941 C 54.1504 -77.6367 51.6113 -72.9004 49.5605 -67.4316 C 46.3867 -68.4082 43.457 -69.5312 40.918 -70.8496 Z M 107.91 -39.209 C 107.617 -46.6797 106.543 -53.7109 104.883 -60.0586 C 109.229 -61.377 113.086 -62.9883 116.309 -64.8438 C 121.68 -57.5684 125.098 -48.7793 125.879 -39.209 Z M 26.2207 -39.209 C 27.002 -48.7793 30.4199 -57.5684 35.7422 -64.8438 C 39.0137 -62.9883 42.8711 -61.377 47.2168 -60.0586 C 45.5078 -53.7109 44.4824 -46.6797 44.1895 -39.209 Z M 79.9805 -39.209 L 79.9805 -56.2012 C 85.9863 -56.3965 91.6992 -57.0312 96.9727 -58.1055 C 98.4863 -52.2461 99.5117 -45.8496 99.8047 -39.209 Z M 52.2461 -39.209 C 52.5391 -45.8496 53.5645 -52.2461 55.127 -58.1055 C 60.4004 -57.0312 66.1133 -56.3965 72.0703 -56.2012 L 72.0703 -39.209 Z M 26.2207 -31.2988 L 44.1895 -31.2988 C 44.4336 -23.7305 45.5078 -16.6016 47.2168 -10.1562 C 42.9199 -8.83789 39.1113 -7.27539 35.8887 -5.41992 C 30.4199 -12.7441 26.9531 -21.6309 26.2207 -31.2988 Z M 52.2461 -31.2988 L 72.0703 -31.2988 L 72.0703 -14.0137 C 66.1133 -13.8184 60.4004 -13.1836 55.127 -12.1094 C 53.5645 -18.0176 52.5391 -24.5605 52.2461 -31.2988 Z M 79.9805 -14.0137 L 79.9805 -31.2988 L 99.8535 -31.2988 C 99.5605 -24.5605 98.5352 -18.0664 96.9727 -12.1094 C 91.6992 -13.1836 85.9863 -13.8184 79.9805 -14.0137 Z M 104.883 -10.1562 C 106.592 -16.6016 107.617 -23.7305 107.91 -31.2988 L 125.879 -31.2988 C 125.146 -21.6309 121.68 -12.7441 116.26 -5.37109 C 113.037 -7.22656 109.18 -8.83789 104.883 -10.1562 Z M 57.5195 -4.63867 C 62.0117 -5.46875 66.8945 -5.95703 72.0703 -6.15234 L 72.0703 14.2578 C 66.4062 11.9629 61.1816 4.93164 57.5195 -4.63867 Z M 79.9805 -6.15234 C 85.1562 -5.95703 90.0879 -5.46875 94.5801 -4.63867 C 90.918 4.93164 85.6934 11.9629 79.9805 14.2578 Z M 41.0645 0.537109 C 43.6035 -0.732422 46.4355 -1.85547 49.5605 -2.7832 C 51.5625 2.53906 54.0039 7.17773 56.8359 10.9863 C 50.9277 8.54492 45.6055 4.98047 41.0645 0.537109 Z M 102.539 -2.7832 C 105.664 -1.85547 108.545 -0.732422 111.035 0.585938 C 106.494 4.98047 101.123 8.59375 95.166 11.0352 C 98.0469 7.22656 100.537 2.53906 102.539 -2.7832 Z"/>
  </g>
  <g id="Semibold-L" transform="matrix(1 0 0 1 1968.24 1556)">
   <path d="M 75.0488 28.5156 C 110.01 28.5156 138.77 -0.292969 138.77 -35.2051 C 138.77 -70.1172 109.961 -98.9258 75 -98.9258 C 40.0879 -98.9258 11.2793 -70.1172 11.2793 -35.2051 C 11.2793 -0.292969 40.1367 28.5156 75.0488 28.5156 Z M 56.3965 -66.4551 C 60.1562 -76.2695 65.5273 -83.3496 71.3379 -85.498 L 71.3379 -64.9414 C 66.0156 -65.0879 60.9863 -65.625 56.3965 -66.4551 Z M 78.7109 -85.498 C 84.5215 -83.3496 89.8438 -76.2207 93.6035 -66.4551 C 89.0625 -65.625 84.0332 -65.0879 78.7109 -64.9414 Z M 92.7246 -83.1055 C 99.4141 -80.6152 105.42 -76.8555 110.4 -72.0215 C 107.666 -70.5078 104.492 -69.2383 101.025 -68.2129 C 98.7793 -74.0723 95.9473 -79.1016 92.7246 -83.1055 Z M 39.6484 -72.0215 C 44.6289 -76.8555 50.6348 -80.6152 57.2754 -83.1055 C 54.0527 -79.1016 51.2695 -74.0723 49.0234 -68.2129 C 45.5078 -69.2383 42.3828 -70.5078 39.6484 -72.0215 Z M 106.543 -38.9648 C 106.25 -47.0703 105.078 -54.6387 103.223 -61.377 C 107.812 -62.793 111.914 -64.502 115.332 -66.5527 C 121.338 -58.8379 125.146 -49.3164 125.928 -38.9648 Z M 24.1699 -38.9648 C 24.9023 -49.3164 28.7109 -58.8379 34.7168 -66.5527 C 38.0859 -64.502 42.1875 -62.793 46.7773 -61.377 C 44.9219 -54.6387 43.75 -47.0703 43.5059 -38.9648 Z M 78.7109 -38.9648 L 78.7109 -57.5684 C 84.7656 -57.7637 90.5762 -58.4473 95.8984 -59.5215 C 97.6074 -53.2715 98.7305 -46.2402 99.0234 -38.9648 Z M 51.0254 -38.9648 C 51.3184 -46.2402 52.3926 -53.2715 54.1504 -59.5215 C 59.4727 -58.4473 65.2832 -57.7637 71.3379 -57.5684 L 71.3379 -38.9648 Z M 24.1699 -31.5918 L 43.457 -31.5918 C 43.75 -23.3398 44.9219 -15.6738 46.7773 -8.83789 C 42.2363 -7.4707 38.1836 -5.76172 34.8145 -3.75977 C 28.7598 -11.5234 24.8535 -21.0938 24.1699 -31.5918 Z M 50.9766 -31.5918 L 71.3379 -31.5918 L 71.3379 -12.6465 C 65.2832 -12.4512 59.4727 -11.7676 54.1504 -10.6934 C 52.3926 -17.041 51.2695 -24.1699 50.9766 -31.5918 Z M 78.7109 -12.6465 L 78.7109 -31.5918 L 99.0234 -31.5918 C 98.7793 -24.1699 97.6562 -17.041 95.8984 -10.6934 C 90.5762 -11.7676 84.7656 -12.4512 78.7109 -12.6465 Z M 103.223 -8.83789 C 105.127 -15.6738 106.299 -23.3398 106.543 -31.5918 L 125.928 -31.5918 C 125.195 -21.0938 121.338 -11.5234 115.234 -3.71094 C 111.865 -5.71289 107.812 -7.4707 103.223 -8.83789 Z M 56.3965 -3.75977 C 60.9863 -4.58984 65.9668 -5.12695 71.3379 -5.27344 L 71.3379 15.2832 C 65.4785 13.1348 60.1562 6.05469 56.3965 -3.75977 Z M 78.7109 -5.27344 C 84.0332 -5.12695 89.0625 -4.58984 93.6035 -3.75977 C 89.8438 6.00586 84.5215 13.1348 78.7109 15.2832 Z M 101.025 -2.00195 C 104.443 -0.976562 107.568 0.292969 110.303 1.75781 C 105.371 6.44531 99.4629 10.1562 92.9688 12.5977 C 96.0938 8.69141 98.8281 3.75977 101.025 -2.00195 Z M 39.7949 1.70898 C 42.4805 0.244141 45.6055 -0.976562 49.0234 -2.00195 C 51.1719 3.71094 53.9062 8.64258 57.0312 12.5488 C 50.5371 10.1074 44.6777 6.39648 39.7949 1.70898 Z"/>
  </g>
  <g id="Medium-L" transform="matrix(1 0 0 1 1672.31 1556)">
   <path d="M 74.2676 27.7344 C 108.789 27.7344 137.207 -0.732422 137.207 -35.2051 C 137.207 -69.6777 108.74 -98.1445 74.2188 -98.1445 C 39.7461 -98.1445 11.2793 -69.6777 11.2793 -35.2051 C 11.2793 -0.732422 39.7949 27.7344 74.2676 27.7344 Z M 55.5664 -67.1387 C 59.375 -77.0996 64.8438 -84.2285 70.752 -86.2793 L 70.752 -65.5762 C 65.2832 -65.7227 60.2051 -66.2598 55.5664 -67.1387 Z M 77.6855 -86.2793 C 83.6426 -84.2285 89.0625 -77.0996 92.9199 -67.1387 C 88.2812 -66.2598 83.1543 -65.7227 77.6855 -65.5762 Z M 91.0645 -84.2285 C 98.1445 -81.8359 104.541 -77.9297 109.863 -72.9004 C 106.934 -71.2891 103.613 -69.9219 99.8535 -68.7988 C 97.5098 -75 94.4824 -80.2246 91.0645 -84.2285 Z M 38.623 -72.9004 C 43.9453 -77.9297 50.3418 -81.8359 57.4219 -84.2285 C 54.0039 -80.2246 50.9766 -75 48.6328 -68.7988 C 44.873 -69.9219 41.5527 -71.2891 38.623 -72.9004 Z M 105.518 -38.7207 C 105.225 -47.3633 104.004 -55.3223 102.002 -62.4023 C 106.787 -63.8184 111.035 -65.6738 114.551 -67.8223 C 121.045 -59.7656 125.195 -49.707 125.928 -38.7207 Z M 22.6074 -38.7207 C 23.291 -49.707 27.4414 -59.7656 33.9355 -67.7734 C 37.4512 -65.6738 41.6992 -63.8184 46.4844 -62.4023 C 44.4824 -55.3223 43.2129 -47.3633 42.9688 -38.7207 Z M 77.6855 -38.7207 L 77.6855 -58.6426 C 83.8379 -58.8379 89.6973 -59.5215 95.0684 -60.6445 C 96.9238 -54.0039 98.1445 -46.5332 98.4375 -38.7207 Z M 50.0488 -38.7207 C 50.3418 -46.5332 51.5625 -54.0039 53.418 -60.6445 C 58.7891 -59.5215 64.6484 -58.8379 70.752 -58.6426 L 70.752 -38.7207 Z M 22.5586 -31.7871 L 42.9688 -31.7871 C 43.2129 -23.0957 44.4824 -14.9902 46.4844 -7.8125 C 41.748 -6.39648 37.5488 -4.58984 34.0332 -2.49023 C 27.4902 -10.5957 23.291 -20.7031 22.5586 -31.7871 Z M 50.0488 -31.7871 L 70.752 -31.7871 L 70.752 -11.5723 C 64.6484 -11.377 58.7891 -10.6934 53.418 -9.57031 C 51.5137 -16.3086 50.293 -23.877 50.0488 -31.7871 Z M 77.6855 -11.5723 L 77.6855 -31.7871 L 98.4375 -31.7871 C 98.1445 -23.877 96.9727 -16.3086 95.0684 -9.57031 C 89.6973 -10.6934 83.8379 -11.377 77.6855 -11.5723 Z M 102.002 -7.8125 C 104.004 -14.9902 105.273 -23.0957 105.518 -31.7871 L 125.928 -31.7871 C 125.244 -20.7031 121.045 -10.5469 114.502 -2.44141 C 110.986 -4.58984 106.738 -6.39648 102.002 -7.8125 Z M 77.6855 -4.63867 C 83.1543 -4.49219 88.2812 -3.95508 92.9199 -3.07617 C 89.0625 6.88477 83.6426 14.0137 77.6855 16.0645 Z M 55.5664 -3.07617 C 60.2051 -3.95508 65.2832 -4.49219 70.752 -4.63867 L 70.752 16.0645 C 64.8438 14.0137 59.375 6.88477 55.5664 -3.07617 Z M 38.7695 2.58789 C 41.6504 1.02539 44.9707 -0.341797 48.6328 -1.41602 C 50.9277 4.63867 53.8574 9.76562 57.1777 13.7207 C 50.2441 11.3281 43.9941 7.51953 38.7695 2.58789 Z M 99.8535 -1.41602 C 103.564 -0.341797 106.836 1.02539 109.766 2.63672 C 104.492 7.51953 98.2422 11.377 91.2598 13.7695 C 94.6289 9.81445 97.5586 4.63867 99.8535 -1.41602 Z"/>
  </g>
  <g id="Regular-L" transform="matrix(1 0 0 1 1376.63 1556)">
   <path d="M 73.291 26.7578 C 107.178 26.7578 135.156 -1.31836 135.156 -35.2051 C 135.156 -69.0918 107.129 -97.168 73.2422 -97.168 C 39.3066 -97.168 11.2793 -69.0918 11.2793 -35.2051 C 11.2793 -1.31836 39.3555 26.7578 73.291 26.7578 Z M 76.416 -87.3047 C 82.5195 -85.4004 88.0859 -78.1738 91.9922 -68.0176 C 87.2559 -67.0898 82.0312 -66.5527 76.416 -66.4062 Z M 54.4434 -68.0176 C 58.3984 -78.1738 63.9648 -85.4004 70.0195 -87.3047 L 70.0195 -66.4062 C 64.4043 -66.5527 59.1797 -67.0898 54.4434 -68.0176 Z M 37.3535 -74.0723 C 43.0664 -79.3457 50 -83.3984 57.6172 -85.7422 C 53.9062 -81.6406 50.6348 -76.1719 48.0957 -69.5801 C 44.043 -70.752 40.4785 -72.2656 37.3535 -74.0723 Z M 88.8184 -85.7422 C 96.4844 -83.3984 103.369 -79.3457 109.082 -74.0723 C 105.957 -72.2656 102.393 -70.752 98.3398 -69.5801 C 95.8008 -76.1719 92.5293 -81.6406 88.8184 -85.7422 Z M 104.199 -38.4766 C 103.906 -47.7051 102.539 -56.25 100.342 -63.6719 C 105.371 -65.2344 109.863 -67.1387 113.525 -69.4336 C 120.654 -60.9863 125.244 -50.2441 125.977 -38.4766 Z M 20.5566 -38.4766 C 21.2402 -50.2441 25.7812 -60.9863 32.959 -69.4336 C 36.6211 -67.1387 41.0645 -65.2344 46.0938 -63.6719 C 43.8965 -56.25 42.5293 -47.7051 42.2852 -38.4766 Z M 48.8281 -38.4766 C 49.0723 -46.9238 50.3906 -54.9805 52.4902 -62.0605 C 57.9102 -60.9375 63.8184 -60.2051 70.0195 -60.0098 L 70.0195 -38.4766 Z M 76.416 -38.4766 L 76.416 -60.0098 C 82.6172 -60.2051 88.5742 -60.9375 93.9941 -62.0605 C 96.0449 -54.9805 97.3633 -46.9238 97.6562 -38.4766 Z M 20.5078 -32.0801 L 42.2363 -32.0801 C 42.4805 -22.7051 43.8965 -14.0625 46.0938 -6.54297 C 41.1133 -5.0293 36.7188 -3.125 33.0566 -0.878906 C 25.8301 -9.32617 21.2402 -20.166 20.5078 -32.0801 Z M 48.8281 -32.0801 L 70.0195 -32.0801 L 70.0195 -10.2051 C 63.8184 -10.0098 57.9102 -9.32617 52.4902 -8.1543 C 50.3906 -15.2832 49.0723 -23.4863 48.8281 -32.0801 Z M 76.416 -10.2051 L 76.416 -32.0801 L 97.6562 -32.0801 C 97.4121 -23.4863 96.0449 -15.2832 93.9941 -8.1543 C 88.5742 -9.32617 82.6172 -10.0098 76.416 -10.2051 Z M 100.342 -6.54297 C 102.588 -14.0625 103.955 -22.7051 104.199 -32.0801 L 125.977 -32.0801 C 125.293 -20.166 120.703 -9.32617 113.428 -0.830078 C 109.814 -3.07617 105.371 -5.0293 100.342 -6.54297 Z M 54.4434 -2.19727 C 59.1797 -3.125 64.4043 -3.66211 70.0195 -3.80859 L 70.0195 17.0898 C 63.9648 15.1855 58.3984 7.95898 54.4434 -2.19727 Z M 76.416 -3.80859 C 82.0312 -3.66211 87.2559 -3.125 91.9922 -2.19727 C 88.0859 7.95898 82.5195 15.1855 76.416 17.0898 Z M 37.5 3.75977 C 40.5762 2.00195 44.1406 0.488281 48.0957 -0.683594 C 50.5859 5.81055 53.7598 11.1816 57.373 15.2344 C 49.9023 12.8906 43.1152 8.88672 37.5 3.75977 Z M 98.3398 -0.683594 C 102.344 0.537109 105.908 2.00195 108.984 3.75977 C 103.32 8.93555 96.5332 12.9395 89.0137 15.2344 C 92.6758 11.2305 95.8496 5.81055 98.3398 -0.683594 Z"/>
  </g>
  <g id="Light-L" transform="matrix(1 0 0 1 1080.77 1556)">
   <path d="M 72.4121 25.9277 C 105.908 25.9277 133.447 -1.66016 133.447 -35.1562 C 133.447 -68.6523 105.859 -96.2891 72.3633 -96.2891 C 38.8672 -96.2891 11.2793 -68.6523 11.2793 -35.1562 C 11.2793 -1.66016 38.916 25.9277 72.4121 25.9277 Z M 74.9512 -88.8184 C 81.7383 -87.207 87.8906 -79.3945 92.0898 -68.1152 C 86.9141 -67.0898 81.2012 -66.5039 74.9512 -66.3574 Z M 52.6855 -68.1152 C 56.8359 -79.3945 63.0371 -87.207 69.7754 -88.8184 L 69.7754 -66.3574 C 63.5254 -66.5039 57.8125 -67.0898 52.6855 -68.1152 Z M 86.084 -87.5488 C 95.0195 -85.2051 103.076 -80.6641 109.57 -74.5117 C 106.104 -72.4121 101.953 -70.7031 97.3145 -69.3848 C 94.3848 -77.1484 90.5273 -83.3496 86.084 -87.5488 Z M 35.2051 -74.5117 C 41.6992 -80.6641 49.707 -85.2051 58.6426 -87.5488 C 54.248 -83.3496 50.3418 -77.1484 47.4609 -69.3848 C 42.7734 -70.7031 38.6719 -72.4121 35.2051 -74.5117 Z M 102.93 -37.8906 C 102.734 -47.8516 101.27 -56.8848 98.9258 -64.6484 C 104.443 -66.2598 109.229 -68.3105 113.135 -70.8008 C 120.898 -61.9141 125.83 -50.4883 126.416 -37.8906 Z M 18.3594 -37.8906 C 18.9453 -50.4883 23.877 -61.9141 31.6406 -70.8008 C 35.498 -68.3105 40.332 -66.2598 45.8496 -64.6484 C 43.5059 -56.8848 42.041 -47.8027 41.7969 -37.8906 Z M 47.168 -37.8906 C 47.4121 -47.0703 48.8281 -55.8105 51.0742 -63.3301 C 56.7871 -62.0605 63.0859 -61.3281 69.7754 -61.1816 L 69.7754 -37.8906 Z M 74.9512 -37.8906 L 74.9512 -61.1816 C 81.6406 -61.3281 87.9395 -62.0605 93.7012 -63.3301 C 95.9473 -55.8105 97.3633 -47.0703 97.5586 -37.8906 Z M 18.3105 -32.666 L 41.7969 -32.666 C 41.9922 -22.6074 43.457 -13.4277 45.8496 -5.56641 C 40.3809 -4.00391 35.5469 -1.9043 31.6895 0.537109 C 23.8281 -8.39844 18.8965 -19.9707 18.3105 -32.666 Z M 47.168 -32.666 L 69.7754 -32.666 L 69.7754 -9.0332 C 63.0859 -8.88672 56.7871 -8.1543 51.0742 -6.88477 C 48.7793 -14.502 47.3633 -23.3398 47.168 -32.666 Z M 74.9512 -9.0332 L 74.9512 -32.666 L 97.6074 -32.666 C 97.3633 -23.3398 95.9473 -14.502 93.7012 -6.88477 C 87.9395 -8.1543 81.6406 -8.88672 74.9512 -9.0332 Z M 98.9258 -5.56641 C 101.27 -13.4277 102.734 -22.6074 102.93 -32.666 L 126.465 -32.666 C 125.879 -19.9707 120.947 -8.39844 113.086 0.537109 C 109.229 -1.9043 104.395 -4.00391 98.9258 -5.56641 Z M 74.9512 -3.85742 C 81.2012 -3.71094 86.9141 -3.125 92.0898 -2.09961 C 87.8906 9.17969 81.7383 16.9922 74.9512 18.6035 Z M 52.6855 -2.09961 C 57.8125 -3.125 63.5254 -3.71094 69.7754 -3.85742 L 69.7754 18.6035 C 63.0371 16.9922 56.8359 9.17969 52.6855 -2.09961 Z M 35.2539 4.24805 C 38.7207 2.19727 42.8223 0.488281 47.4609 -0.830078 C 50.3418 6.83594 54.1504 12.9395 58.4473 17.1387 C 49.6582 14.7949 41.6992 10.3027 35.2539 4.24805 Z M 97.3145 -0.830078 C 101.953 0.488281 106.055 2.19727 109.521 4.24805 C 103.027 10.3516 95.1172 14.8438 86.2793 17.1875 C 90.625 12.9883 94.4336 6.83594 97.3145 -0.830078 Z"/>
  </g>
  <g id="Thin-L" transform="matrix(1 0 0 1 785.182 1556)">
   <path d="M 71.2402 24.8535 C 104.199 24.8535 131.201 -2.14844 131.201 -35.1074 C 131.201 -68.0664 104.199 -95.0684 71.2402 -95.0684 C 38.2812 -95.0684 11.2793 -68.0664 11.2793 -35.1074 C 11.2793 -2.14844 38.2812 24.8535 71.2402 24.8535 Z M 73.0469 -90.7715 C 80.7129 -89.5996 87.6465 -81.0059 92.1875 -68.3105 C 86.5234 -67.0898 80.127 -66.4551 73.0469 -66.3086 Z M 50.293 -68.3105 C 54.834 -81.0059 61.8164 -89.5996 69.4336 -90.7715 L 69.4336 -66.3086 C 62.4023 -66.4551 56.0059 -67.0898 50.293 -68.3105 Z M 82.2266 -89.8926 C 92.9688 -87.7441 102.588 -82.5195 110.156 -75.1465 C 106.25 -72.6562 101.465 -70.6543 95.8984 -69.1895 C 92.4316 -78.6621 87.6465 -85.791 82.2266 -89.8926 Z M 32.3242 -75.1465 C 39.8926 -82.5195 49.5605 -87.7441 60.3027 -89.8926 C 54.8828 -85.791 50.0488 -78.6621 46.6309 -69.1895 C 41.0645 -70.6543 36.2793 -72.6562 32.3242 -75.1465 Z M 101.27 -37.1094 C 101.123 -47.998 99.5605 -57.7148 96.9727 -65.918 C 103.174 -67.627 108.496 -69.873 112.646 -72.6074 C 121.191 -63.1348 126.562 -50.7324 127.051 -37.1094 Z M 15.4297 -37.1094 C 15.918 -50.7324 21.2891 -63.1348 29.8828 -72.6074 C 34.0332 -69.873 39.3555 -67.627 45.5078 -65.918 C 42.9688 -57.7148 41.3574 -47.998 41.2109 -37.1094 Z M 73.0469 -37.1094 L 73.0469 -62.6953 C 80.3223 -62.8418 87.1582 -63.623 93.3105 -64.9902 C 95.8008 -56.8848 97.3145 -47.3145 97.5098 -37.1094 Z M 45.0195 -37.1094 C 45.166 -47.3145 46.7285 -56.8848 49.2188 -64.9902 C 55.3223 -63.623 62.1582 -62.8418 69.4336 -62.6953 L 69.4336 -37.1094 Z M 15.4297 -33.4473 L 41.2109 -33.4473 C 41.3574 -22.4121 42.9199 -12.5488 45.5078 -4.29688 C 39.3555 -2.63672 34.0332 -0.341797 29.8828 2.34375 C 21.2402 -7.17773 15.8691 -19.6777 15.4297 -33.4473 Z M 44.9707 -33.4473 L 69.4336 -33.4473 L 69.4336 -7.51953 C 62.1582 -7.42188 55.3223 -6.5918 49.2188 -5.22461 C 46.6797 -13.4277 45.166 -23.0957 44.9707 -33.4473 Z M 73.0469 -7.51953 L 73.0469 -33.4473 L 97.5098 -33.4473 C 97.3633 -23.0957 95.8008 -13.4277 93.3105 -5.22461 C 87.1582 -6.5918 80.3223 -7.42188 73.0469 -7.51953 Z M 96.9727 -4.29688 C 99.5605 -12.5488 101.172 -22.4121 101.318 -33.4473 L 127.051 -33.4473 C 126.66 -19.6777 121.24 -7.17773 112.598 2.39258 C 108.447 -0.341797 103.174 -2.63672 96.9727 -4.29688 Z M 50.293 -1.9043 C 56.0059 -3.125 62.4023 -3.80859 69.4336 -3.90625 L 69.4336 20.5566 C 61.8164 19.3848 54.834 10.791 50.293 -1.9043 Z M 73.0469 -3.90625 C 80.127 -3.80859 86.5234 -3.125 92.1875 -1.9043 C 87.6465 10.791 80.7129 19.3848 73.0469 20.5566 Z M 95.8984 -1.02539 C 101.465 0.439453 106.201 2.44141 110.156 4.93164 C 102.588 12.2559 92.9688 17.4805 82.2266 19.6289 C 87.6465 15.5273 92.4316 8.39844 95.8984 -1.02539 Z M 32.3242 4.93164 C 36.2793 2.44141 41.0645 0.439453 46.6309 -1.02539 C 50.0488 8.39844 54.834 15.5273 60.2539 19.6289 C 49.5117 17.4805 39.8926 12.2559 32.3242 4.93164 Z"/>
  </g>
  <g id="Ultralight-L" transform="matrix(1 0 0 1 489.032 1556)">
   <path d="M 70.6543 24.3164 C 103.369 24.3164 130.078 -2.44141 130.078 -35.1074 C 130.078 -67.7734 103.369 -94.4824 70.6543 -94.4824 C 37.9883 -94.4824 11.2793 -67.7734 11.2793 -35.1074 C 11.2793 -2.44141 37.9883 24.3164 70.6543 24.3164 Z M 49.1211 -68.4082 C 53.8086 -81.8359 61.1816 -90.8203 69.2383 -91.748 L 69.2383 -66.3086 C 61.8164 -66.4062 55.0781 -67.1387 49.1211 -68.4082 Z M 72.0703 -91.748 C 80.1758 -90.8203 87.5488 -81.8359 92.2363 -68.4082 C 86.2793 -67.1387 79.541 -66.4062 72.0703 -66.3086 Z M 80.0293 -91.0645 C 91.7969 -89.0625 102.344 -83.4961 110.498 -75.4395 C 106.299 -72.8027 101.172 -70.6055 95.166 -69.0918 C 91.4062 -79.5898 85.9863 -87.1582 80.0293 -91.0645 Z M 30.8594 -75.4395 C 39.0137 -83.4961 49.5605 -89.0625 61.3281 -91.0645 C 55.3223 -87.1582 49.9512 -79.5898 46.1914 -69.0918 C 40.1855 -70.6055 35.0098 -72.8027 30.8594 -75.4395 Z M 13.9648 -36.6699 C 14.3555 -50.8789 19.9707 -63.7695 29.0039 -73.4863 C 33.252 -70.7031 38.8184 -68.3105 45.3613 -66.5527 C 42.6758 -58.2031 41.0156 -48.0957 40.918 -36.6699 Z M 100.439 -36.6699 C 100.293 -48.0957 98.6816 -58.1543 95.9961 -66.5527 C 102.539 -68.3105 108.105 -70.7031 112.354 -73.4863 C 121.338 -63.7695 127.002 -50.8789 127.393 -36.6699 Z M 72.0703 -36.6699 L 72.0703 -63.4766 C 79.6875 -63.5742 86.7676 -64.4043 93.0664 -65.8691 C 95.7031 -57.4219 97.3145 -47.4121 97.4609 -36.6699 Z M 43.8965 -36.6699 C 44.043 -47.4121 45.6543 -57.4219 48.2422 -65.8691 C 54.5898 -64.4043 61.6699 -63.5742 69.2383 -63.4766 L 69.2383 -36.6699 Z M 13.9648 -33.8379 L 40.918 -33.8379 C 41.0156 -22.3145 42.6758 -12.1094 45.3613 -3.66211 C 38.8184 -1.9043 33.252 0.488281 28.9551 3.27148 C 19.9219 -6.54297 14.2578 -19.5312 13.9648 -33.8379 Z M 43.8965 -33.8379 L 69.2383 -33.8379 L 69.2383 -6.73828 C 61.6699 -6.64062 54.5898 -5.81055 48.2422 -4.3457 C 45.6055 -12.8906 43.9941 -22.998 43.8965 -33.8379 Z M 72.0703 -6.73828 L 72.0703 -33.8379 L 97.4609 -33.8379 C 97.3633 -22.998 95.752 -12.8906 93.0664 -4.3457 C 86.7676 -5.81055 79.6875 -6.64062 72.0703 -6.73828 Z M 95.9961 -3.66211 C 98.6816 -12.1094 100.342 -22.3145 100.439 -33.8379 L 127.393 -33.8379 C 127.051 -19.5312 121.436 -6.54297 112.354 3.27148 C 108.105 0.488281 102.539 -1.9043 95.9961 -3.66211 Z M 49.1211 -1.80664 C 55.0781 -3.125 61.8164 -3.80859 69.2383 -3.90625 L 69.2383 21.5332 C 61.1816 20.6055 53.8086 11.6211 49.1211 -1.80664 Z M 72.0703 -3.90625 C 79.541 -3.80859 86.2793 -3.125 92.2363 -1.80664 C 87.5488 11.6211 80.1758 20.6055 72.0703 21.5332 Z M 95.166 -1.12305 C 101.172 0.390625 106.299 2.58789 110.498 5.22461 C 102.344 13.2812 91.748 18.8965 79.9805 20.8496 C 85.9863 16.9922 91.4062 9.375 95.166 -1.12305 Z M 30.8594 5.22461 C 35.0098 2.58789 40.1367 0.390625 46.1914 -1.12305 C 49.9512 9.375 55.3711 16.9922 61.377 20.8496 C 49.6094 18.8965 39.0137 13.2812 30.8594 5.22461 Z"/>
  </g>
  <g id="Black-M" transform="matrix(1 0 0 1 2870.95 1126)">
   <path d="M 62.4512 18.5059 C 92.041 18.5059 116.162 -5.56641 116.162 -35.2051 C 116.162 -64.7949 92.041 -88.916 62.4512 -88.916 C 32.8613 -88.916 8.74023 -64.7949 8.74023 -35.2051 C 8.74023 -5.56641 32.8613 18.5059 62.4512 18.5059 Z M 47.9004 -55.3223 C 50.5371 -62.5 54.3945 -68.0176 58.6426 -70.166 L 58.6426 -54.2969 C 54.8828 -54.4434 51.2695 -54.7852 47.9004 -55.3223 Z M 66.2598 -70.166 C 70.5078 -68.0176 74.3652 -62.5 77.002 -55.3223 C 73.6328 -54.7852 70.0195 -54.4434 66.2598 -54.2969 Z M 35.791 -58.5449 C 38.1348 -61.2305 40.8691 -63.5254 43.8965 -65.3809 C 42.4316 -62.8906 41.1621 -60.1074 40.1367 -57.0801 C 38.5742 -57.5195 37.1094 -58.0078 35.791 -58.5449 Z M 81.0059 -65.3809 C 84.0332 -63.5254 86.7676 -61.2305 89.1113 -58.5449 C 87.793 -58.0078 86.3281 -57.5195 84.7656 -57.0801 C 83.7402 -60.1074 82.4707 -62.8906 81.0059 -65.3809 Z M 27.2461 -39.0625 C 27.7344 -43.8477 29.1992 -48.3398 31.4453 -52.3438 C 33.3984 -51.416 35.6445 -50.5371 38.0859 -49.8047 C 37.4023 -46.4355 36.9141 -42.8223 36.7188 -39.0625 Z M 88.1836 -39.0625 C 87.9883 -42.8223 87.5 -46.4355 86.7676 -49.8047 C 89.2578 -50.5371 91.5039 -51.416 93.457 -52.3438 C 95.7031 -48.3398 97.168 -43.8477 97.6562 -39.0625 Z M 66.2598 -39.0625 L 66.2598 -46.6309 C 70.8008 -46.8262 75.0977 -47.2656 79.1016 -47.998 C 79.7363 -45.1172 80.1758 -42.1387 80.3711 -39.0625 Z M 44.4824 -39.0625 C 44.7266 -42.1387 45.166 -45.1172 45.8008 -47.998 C 49.7559 -47.2656 54.1016 -46.8262 58.6426 -46.6309 L 58.6426 -39.0625 Z M 27.1973 -31.4453 L 36.7188 -31.4453 C 36.9141 -27.6367 37.3535 -23.9258 38.0859 -20.459 C 35.6445 -19.7266 33.4473 -18.8965 31.4941 -17.9688 C 29.1992 -22.0215 27.7344 -26.5625 27.1973 -31.4453 Z M 44.4824 -31.4453 L 58.6426 -31.4453 L 58.6426 -23.6328 C 54.1016 -23.4375 49.7559 -22.998 45.752 -22.2656 C 45.1172 -25.1953 44.6777 -28.3203 44.4824 -31.4453 Z M 66.2598 -23.6328 L 66.2598 -31.4453 L 80.4199 -31.4453 C 80.2246 -28.3203 79.7852 -25.1953 79.1016 -22.2656 C 75.0977 -22.998 70.8008 -23.4375 66.2598 -23.6328 Z M 86.7676 -20.459 C 87.5 -23.9258 87.9883 -27.5879 88.1836 -31.4453 L 97.7051 -31.4453 C 97.168 -26.5625 95.7031 -22.0215 93.4082 -17.9688 C 91.5039 -18.8477 89.3555 -19.6777 87.0117 -20.4102 Z M 66.2598 -15.9668 C 70.0195 -15.8203 73.6328 -15.4785 77.002 -14.9414 C 74.3652 -7.76367 70.5078 -2.24609 66.2598 -0.0976562 Z M 47.9004 -14.9414 C 51.2695 -15.4785 54.8828 -15.8203 58.6426 -15.9668 L 58.6426 -0.0976562 C 54.3945 -2.24609 50.5371 -7.76367 47.9004 -14.9414 Z M 84.7656 -13.2324 C 86.3281 -12.7441 87.7441 -12.2559 89.0137 -11.7676 C 86.7188 -9.13086 84.082 -6.88477 81.1035 -5.07812 C 82.5195 -7.51953 83.7402 -10.2539 84.7656 -13.2324 Z M 35.8887 -11.7676 C 37.1582 -12.2559 38.5742 -12.7441 40.1367 -13.2324 C 41.1621 -10.2539 42.3828 -7.51953 43.7988 -5.07812 C 40.8203 -6.88477 38.1836 -9.13086 35.8887 -11.7676 Z"/>
  </g>
  <g id="Heavy-M" transform="matrix(1 0 0 1 2575.48 1126)">
   <path d="M 61.2305 17.2852 C 90.0879 17.2852 113.672 -6.34766 113.672 -35.2051 C 113.672 -64.0625 90.0879 -87.6953 61.2305 -87.6953 C 32.3242 -87.6953 8.74023 -64.0625 8.74023 -35.2051 C 8.74023 -6.34766 32.373 17.2852 61.2305 17.2852 Z M 64.7949 -71.2402 C 69.043 -69.2383 72.9492 -63.7695 75.6348 -56.5918 C 72.2656 -56.0059 68.6035 -55.6152 64.7949 -55.4688 Z M 46.8262 -56.5918 C 49.5117 -63.7695 53.3691 -69.2383 57.6172 -71.2402 L 57.6172 -55.5176 C 53.8574 -55.6152 50.1953 -56.0059 46.8262 -56.5918 Z M 78.4668 -67.4805 C 82.0312 -65.5762 85.2539 -63.0371 88.0371 -60.1074 C 86.4746 -59.4238 84.7656 -58.7891 82.9102 -58.2031 C 81.6895 -61.6699 80.1758 -64.7949 78.4668 -67.4805 Z M 34.4238 -60.1074 C 37.1582 -63.0371 40.3809 -65.5762 43.9941 -67.4805 C 42.2852 -64.7949 40.7715 -61.6699 39.5508 -58.252 C 37.6953 -58.7891 35.9375 -59.4238 34.4238 -60.1074 Z M 86.5723 -38.8184 C 86.377 -43.2617 85.791 -47.5098 84.8633 -51.4648 C 87.6465 -52.2949 90.1855 -53.2715 92.334 -54.3945 C 95.166 -49.8047 97.0215 -44.5312 97.6074 -38.8184 Z M 24.8535 -38.8184 C 25.3906 -44.5312 27.2461 -49.8047 30.0781 -54.3945 C 32.2754 -53.2715 34.7656 -52.2949 37.5488 -51.4648 C 36.6211 -47.5098 36.0352 -43.2617 35.8398 -38.8184 Z M 64.7949 -38.8184 L 64.7949 -48.3398 C 69.3359 -48.4863 73.6816 -48.9746 77.6855 -49.707 C 78.5156 -46.2891 79.0527 -42.5781 79.2969 -38.8184 Z M 43.1641 -38.8184 C 43.3594 -42.5781 43.9453 -46.2891 44.7266 -49.707 C 48.7305 -48.9746 53.125 -48.4863 57.6172 -48.3398 L 57.6172 -38.8184 Z M 24.8535 -31.6895 L 35.8398 -31.6895 C 36.0352 -27.1484 36.6211 -22.8516 37.5488 -18.7988 C 34.8145 -17.9688 32.3242 -16.9922 30.1758 -15.918 C 27.2461 -20.5566 25.3906 -25.9277 24.8535 -31.6895 Z M 43.1152 -31.6895 L 57.6172 -31.6895 L 57.6172 -21.9238 C 53.0762 -21.7773 48.7305 -21.2891 44.7266 -20.5566 C 43.8965 -24.0723 43.3594 -27.832 43.1152 -31.6895 Z M 64.7949 -21.9238 L 64.7949 -31.6895 L 79.2969 -31.6895 C 79.1016 -27.832 78.5156 -24.0723 77.6855 -20.5566 C 73.6816 -21.2891 69.3359 -21.7773 64.7949 -21.9238 Z M 84.8633 -18.7988 C 85.791 -22.8516 86.377 -27.1484 86.6211 -31.6895 L 97.6074 -31.6895 C 97.0703 -25.9277 95.166 -20.5566 92.2852 -15.8691 C 90.1367 -16.9922 87.6465 -17.9688 84.8633 -18.7988 Z M 46.7773 -13.7207 C 50.1953 -14.2578 53.8086 -14.6484 57.6172 -14.7949 L 57.6172 0.976562 C 53.3691 -1.02539 49.4629 -6.49414 46.7773 -13.7207 Z M 64.7949 -14.7949 C 68.6035 -14.6484 72.2656 -14.2578 75.6348 -13.7207 C 72.9492 -6.49414 69.043 -1.07422 64.7949 0.976562 Z M 34.5215 -10.2051 C 36.0352 -10.8887 37.6953 -11.5234 39.5508 -12.0605 C 40.7227 -8.69141 42.1875 -5.66406 43.8477 -3.02734 C 40.3809 -4.88281 37.207 -7.32422 34.5215 -10.2051 Z M 82.9102 -12.0605 C 84.7168 -11.5234 86.4258 -10.8887 87.9395 -10.2051 C 85.2539 -7.32422 82.0801 -4.88281 78.5645 -2.97852 C 80.2246 -5.66406 81.6895 -8.69141 82.9102 -12.0605 Z"/>
  </g>
  <g id="Bold-M" transform="matrix(1 0 0 1 2280.14 1126)">
   <path d="M 59.8633 15.8691 C 87.9395 15.8691 110.938 -7.17773 110.938 -35.2051 C 110.938 -63.2812 87.8906 -86.3281 59.8633 -86.3281 C 31.7871 -86.3281 8.74023 -63.2812 8.74023 -35.2051 C 8.74023 -7.17773 31.7871 15.8691 59.8633 15.8691 Z M 45.5566 -57.959 C 48.3398 -65.1855 52.2461 -70.5566 56.543 -72.4609 L 56.543 -56.8359 C 52.6367 -56.9824 48.9746 -57.373 45.5566 -57.959 Z M 63.1348 -72.4609 C 67.4316 -70.5566 71.3379 -65.1855 74.1211 -57.959 C 70.7031 -57.373 67.041 -56.9824 63.1348 -56.8359 Z M 75.6348 -69.6289 C 79.7852 -67.7246 83.5449 -65.0391 86.7676 -61.8164 C 85.0098 -60.9375 83.0078 -60.1562 80.8105 -59.5215 C 79.3945 -63.3301 77.6367 -66.748 75.6348 -69.6289 Z M 32.9102 -61.8164 C 36.1328 -65.0391 39.8926 -67.7246 44.043 -69.6289 C 42.041 -66.748 40.2832 -63.3789 38.8672 -59.5215 C 36.6699 -60.1562 34.7168 -60.9375 32.9102 -61.8164 Z M 84.8145 -38.5742 C 84.5703 -43.7988 83.8867 -48.7793 82.7148 -53.2715 C 85.8398 -54.248 88.623 -55.3711 90.9668 -56.6895 C 94.5801 -51.4648 96.9238 -45.2637 97.5098 -38.5742 Z M 22.168 -38.5742 C 22.7539 -45.2637 25.0977 -51.4648 28.7109 -56.6895 C 31.0547 -55.3711 33.8379 -54.248 36.9629 -53.2715 C 35.791 -48.7793 35.1074 -43.7988 34.8633 -38.5742 Z M 41.6504 -38.5742 C 41.8457 -43.1641 42.5293 -47.5586 43.6035 -51.6602 C 47.6074 -50.8789 51.9531 -50.3906 56.543 -50.2441 L 56.543 -38.5742 Z M 63.1348 -38.5742 L 63.1348 -50.2441 C 67.7246 -50.3906 72.0703 -50.8789 76.0742 -51.6602 C 77.1484 -47.5586 77.832 -43.1641 78.0273 -38.5742 Z M 22.168 -31.9336 L 34.8633 -31.9336 C 35.0586 -26.6113 35.791 -21.582 36.9629 -16.9922 C 33.8867 -16.0156 31.1523 -14.8926 28.7598 -13.623 C 25.0977 -18.8965 22.7539 -25.1465 22.168 -31.9336 Z M 41.6016 -31.9336 L 56.543 -31.9336 L 56.543 -20.0684 C 51.9531 -19.873 47.6074 -19.3848 43.6035 -18.6035 C 42.5293 -22.7539 41.8457 -27.2949 41.6016 -31.9336 Z M 63.1348 -20.0684 L 63.1348 -31.9336 L 78.0762 -31.9336 C 77.832 -27.2949 77.1484 -22.7539 76.0742 -18.6035 C 72.0703 -19.3848 67.7246 -19.873 63.1348 -20.0684 Z M 82.7148 -16.9922 C 83.8867 -21.582 84.6191 -26.6113 84.8145 -31.9336 L 97.5098 -31.9336 C 96.9727 -25.1465 94.5801 -18.8965 90.918 -13.623 C 88.5742 -14.8926 85.791 -16.0156 82.7148 -16.9922 Z M 45.5566 -12.3047 C 48.9746 -12.8906 52.6367 -13.2812 56.543 -13.4277 L 56.543 2.19727 C 52.2461 0.292969 48.3398 -5.07812 45.5566 -12.3047 Z M 63.1348 -13.4277 C 67.041 -13.2812 70.7031 -12.8906 74.1211 -12.3047 C 71.3379 -5.12695 67.4316 0.292969 63.1348 2.14844 Z M 80.8105 -10.7422 C 82.959 -10.1074 84.9121 -9.375 86.6699 -8.49609 C 83.5449 -5.37109 79.834 -2.73438 75.7812 -0.878906 C 77.6855 -3.66211 79.3945 -7.03125 80.8105 -10.7422 Z M 33.0566 -8.49609 C 34.7656 -9.375 36.7188 -10.1074 38.8672 -10.7422 C 40.2832 -7.03125 41.9434 -3.71094 43.8965 -0.878906 C 39.8438 -2.7832 36.1328 -5.37109 33.0566 -8.49609 Z"/>
  </g>
  <g id="Semibold-M" transform="matrix(1 0 0 1 1984.38 1126)">
   <path d="M 58.9355 14.9414 C 86.4258 14.9414 109.033 -7.71484 109.033 -35.2051 C 109.033 -62.6953 86.377 -85.3516 58.8867 -85.3516 C 31.3965 -85.3516 8.74023 -62.6953 8.74023 -35.2051 C 8.74023 -7.71484 31.4453 14.9414 58.9355 14.9414 Z M 44.7266 -58.8867 C 47.5098 -66.1621 51.4648 -71.4844 55.7617 -73.2422 L 55.7617 -57.7637 C 51.8555 -57.9102 48.1445 -58.3008 44.7266 -58.8867 Z M 62.0117 -73.2422 C 66.3086 -71.4844 70.2637 -66.1621 73.0469 -58.8867 C 69.6289 -58.3008 65.9668 -57.9102 62.0117 -57.7637 Z M 73.6816 -70.9961 C 78.2715 -69.1406 82.373 -66.4062 85.8887 -62.9883 C 83.9355 -62.0117 81.7383 -61.1328 79.3457 -60.4004 C 77.7832 -64.502 75.8789 -68.0664 73.6816 -70.9961 Z M 31.9336 -62.9883 C 35.4004 -66.4062 39.5508 -69.1406 44.0918 -70.9961 C 41.8945 -68.0664 39.9902 -64.502 38.4277 -60.4004 C 36.0352 -61.1328 33.8379 -62.0117 31.9336 -62.9883 Z M 83.5938 -38.3789 C 83.3496 -44.1895 82.5195 -49.6582 81.25 -54.541 C 84.5215 -55.5664 87.5 -56.8359 89.9902 -58.252 C 94.1895 -52.6367 96.8262 -45.8008 97.4609 -38.3789 Z M 20.3613 -38.3789 C 20.9473 -45.8008 23.6328 -52.6367 27.7832 -58.252 C 30.2734 -56.8359 33.252 -55.5664 36.5723 -54.541 C 35.2539 -49.6582 34.4238 -44.1895 34.1797 -38.3789 Z M 40.5762 -38.3789 C 40.8203 -43.5059 41.6016 -48.4863 42.8223 -52.9785 C 46.8262 -52.1973 51.2207 -51.6602 55.7617 -51.5137 L 55.7617 -38.3789 Z M 62.0117 -38.3789 L 62.0117 -51.5137 C 66.5527 -51.6602 70.9473 -52.1973 74.9512 -52.9785 C 76.1719 -48.4863 76.9531 -43.5059 77.1973 -38.3789 Z M 20.3613 -32.1289 L 34.1797 -32.1289 C 34.375 -26.2207 35.2051 -20.7031 36.5723 -15.7227 C 33.3008 -14.6973 30.3711 -13.4766 27.8809 -12.0605 C 23.6328 -17.7246 20.9473 -24.6094 20.3613 -32.1289 Z M 40.5762 -32.1289 L 55.7617 -32.1289 L 55.7617 -18.75 C 51.2207 -18.6035 46.8262 -18.0664 42.8223 -17.2852 C 41.6016 -21.875 40.8203 -26.9043 40.5762 -32.1289 Z M 62.0117 -18.75 L 62.0117 -32.1289 L 77.1973 -32.1289 C 77.002 -26.9043 76.1719 -21.875 74.9512 -17.2852 C 70.9473 -18.0664 66.5527 -18.6035 62.0117 -18.75 Z M 81.25 -15.7227 C 82.5684 -20.7031 83.3984 -26.2207 83.5938 -32.1289 L 97.4609 -32.1289 C 96.875 -24.6094 94.1895 -17.7246 89.9414 -12.0605 C 87.4512 -13.4766 84.5215 -14.6973 81.25 -15.7227 Z M 44.7266 -11.377 C 48.1445 -11.9629 51.8066 -12.3535 55.7617 -12.5 L 55.7617 2.97852 C 51.4648 1.2207 47.5098 -4.15039 44.7266 -11.377 Z M 62.0117 -12.5 C 65.9668 -12.3535 69.6289 -11.9629 73.0469 -11.377 C 70.2637 -4.15039 66.3086 1.2207 62.0117 2.97852 Z M 32.0312 -7.32422 C 33.9355 -8.30078 36.084 -9.17969 38.4277 -9.86328 C 39.9414 -5.9082 41.7969 -2.39258 43.8965 0.488281 C 39.4531 -1.41602 35.4492 -4.05273 32.0312 -7.32422 Z M 79.3457 -9.86328 C 81.7383 -9.17969 83.8867 -8.30078 85.791 -7.32422 C 82.373 -4.00391 78.3203 -1.36719 73.8281 0.488281 C 75.9766 -2.39258 77.832 -5.9082 79.3457 -9.86328 Z"/>
  </g>
  <g id="Medium-M" transform="matrix(1 0 0 1 1688.38 1126)">
   <path d="M 58.2031 14.209 C 85.2539 14.209 107.617 -8.1543 107.617 -35.2051 C 107.617 -62.3047 85.2539 -84.668 58.1543 -84.668 C 31.1035 -84.668 8.74023 -62.3047 8.74023 -35.2051 C 8.74023 -8.1543 31.1523 14.209 58.2031 14.209 Z M 44.0918 -59.6191 C 46.9238 -66.8945 50.8789 -72.168 55.1758 -73.877 L 55.1758 -58.4961 C 51.2207 -58.5938 47.5098 -58.9844 44.0918 -59.6191 Z M 61.1816 -73.877 C 65.4785 -72.168 69.4336 -66.8945 72.2656 -59.6191 C 68.8477 -58.9844 65.1367 -58.5938 61.1816 -58.4961 Z M 72.2168 -72.0215 C 77.0508 -70.166 81.4453 -67.3828 85.1562 -63.8672 C 83.1543 -62.793 80.8105 -61.8652 78.2715 -61.084 C 76.6113 -65.332 74.5605 -69.043 72.2168 -72.0215 Z M 31.1523 -63.8672 C 34.8633 -67.3828 39.2578 -70.166 44.1406 -72.0215 C 41.7969 -69.043 39.7461 -65.332 38.0859 -61.084 C 35.5469 -61.8652 33.2031 -62.793 31.1523 -63.8672 Z M 82.666 -38.2324 C 82.4219 -44.4824 81.543 -50.293 80.0781 -55.5176 C 83.5449 -56.5918 86.6211 -57.9102 89.209 -59.4238 C 93.8477 -53.5156 96.7773 -46.2402 97.4121 -38.2324 Z M 18.9941 -38.2324 C 19.5801 -46.2402 22.5098 -53.5156 27.0996 -59.4238 C 29.6875 -57.9102 32.8125 -56.5918 36.2793 -55.5176 C 34.8145 -50.293 33.9355 -44.4824 33.6914 -38.2324 Z M 39.7949 -38.2324 C 40.0391 -43.7988 40.918 -49.1699 42.2363 -54.0039 C 46.2402 -53.1738 50.6348 -52.6855 55.1758 -52.4902 L 55.1758 -38.2324 Z M 61.1816 -38.2324 L 61.1816 -52.4902 C 65.7227 -52.6855 70.0684 -53.1738 74.1211 -54.0039 C 75.4395 -49.1699 76.3184 -43.7988 76.5625 -38.2324 Z M 18.9453 -32.2754 L 33.6914 -32.2754 C 33.8867 -25.9277 34.8145 -20.0195 36.2305 -14.7461 C 32.8613 -13.7207 29.7852 -12.4023 27.2461 -10.8887 C 22.5586 -16.8457 19.5801 -24.2188 18.9453 -32.2754 Z M 39.7949 -32.2754 L 55.1758 -32.2754 L 55.1758 -17.7734 C 50.6348 -17.627 46.2402 -17.0898 42.2363 -16.2598 C 40.8691 -21.1426 39.9902 -26.6113 39.7949 -32.2754 Z M 61.1816 -17.7734 L 61.1816 -32.2754 L 76.5625 -32.2754 C 76.3184 -26.6113 75.4395 -21.1426 74.1211 -16.2598 C 70.0684 -17.0898 65.7227 -17.627 61.1816 -17.7734 Z M 80.0781 -14.7461 C 81.543 -20.0195 82.4707 -25.9277 82.666 -32.2754 L 97.4121 -32.2754 C 96.8262 -24.2188 93.8477 -16.8457 89.1602 -10.8887 C 86.5723 -12.4023 83.4961 -13.7207 80.0781 -14.7461 Z M 61.1816 -11.7676 C 65.1367 -11.6699 68.8477 -11.2793 72.2656 -10.6445 C 69.4336 -3.41797 65.4785 1.9043 61.1816 3.61328 Z M 44.0918 -10.6445 C 47.5098 -11.2793 51.2207 -11.6699 55.1758 -11.7676 L 55.1758 3.61328 C 50.8789 1.9043 46.9238 -3.41797 44.0918 -10.6445 Z M 78.2715 -9.22852 C 80.7617 -8.44727 83.0566 -7.51953 85.1074 -6.44531 C 81.4453 -3.02734 77.1484 -0.292969 72.4121 1.51367 C 74.6582 -1.41602 76.6602 -5.0293 78.2715 -9.22852 Z M 31.2988 -6.44531 C 33.3008 -7.51953 35.5957 -8.44727 38.0859 -9.22852 C 39.6973 -5.07812 41.6504 -1.46484 43.8965 1.46484 C 39.209 -0.341797 34.9121 -3.07617 31.2988 -6.44531 Z"/>
  </g>
  <g id="Regular-M" transform="matrix(1 0 0 1 1392.62 1126)">
   <path d="M 57.2754 13.2324 C 83.7891 13.2324 105.713 -8.74023 105.713 -35.2539 C 105.713 -61.7188 83.7402 -83.7402 57.2266 -83.7402 C 30.7129 -83.7402 8.74023 -61.7188 8.74023 -35.2539 C 8.74023 -8.74023 30.7617 13.2324 57.2754 13.2324 Z M 43.2129 -60.5469 C 46.0938 -67.8223 50.0977 -73.0469 54.4434 -74.6582 L 54.4434 -59.4238 C 50.3906 -59.5215 46.6797 -59.9121 43.2129 -60.5469 Z M 60.0586 -74.6582 C 64.3555 -73.0469 68.3594 -67.8223 71.2402 -60.5469 C 67.8223 -59.9121 64.0625 -59.5215 60.0586 -59.4238 Z M 70.3125 -73.291 C 75.5371 -71.4844 80.2734 -68.7012 84.2773 -65.0391 C 82.0801 -63.8184 79.5898 -62.793 76.8066 -61.9141 C 75.0488 -66.4551 72.8516 -70.3125 70.3125 -73.291 Z M 30.1758 -65.0391 C 34.1797 -68.6523 38.916 -71.4844 44.1406 -73.291 C 41.6504 -70.3125 39.4043 -66.4551 37.6465 -61.9141 C 34.8633 -62.793 32.373 -63.8184 30.1758 -65.0391 Z M 81.4453 -38.0859 C 81.2012 -44.873 80.2246 -51.1719 78.5645 -56.7383 C 82.2266 -57.8613 85.498 -59.2773 88.1836 -60.9375 C 93.4082 -54.6875 96.7285 -46.7773 97.3145 -38.0859 Z M 17.1875 -38.0859 C 17.7734 -46.7773 21.0938 -54.6875 26.2695 -60.9375 C 29.0039 -59.2773 32.2266 -57.8613 35.8887 -56.7383 C 34.2773 -51.1719 33.252 -44.873 33.0078 -38.0859 Z M 60.0586 -38.0859 L 60.0586 -53.8086 C 64.5996 -53.9551 68.9453 -54.4922 72.998 -55.3223 C 74.5117 -50.0977 75.4395 -44.2383 75.6836 -38.0859 Z M 38.7695 -38.0859 C 39.0137 -44.2383 39.9902 -50.0977 41.4551 -55.3223 C 45.5078 -54.4922 49.8535 -53.9551 54.4434 -53.8086 L 54.4434 -38.0859 Z M 17.1387 -32.4707 L 33.0078 -32.4707 C 33.2031 -25.5859 34.2285 -19.1406 35.8887 -13.5254 C 32.2754 -12.4023 29.1016 -11.0352 26.416 -9.375 C 21.1426 -15.7227 17.7734 -23.6816 17.1387 -32.4707 Z M 38.7695 -32.4707 L 54.4434 -32.4707 L 54.4434 -16.4551 C 49.8535 -16.3086 45.5078 -15.8203 41.4551 -14.9414 C 39.9414 -20.2148 38.9648 -26.2207 38.7695 -32.4707 Z M 60.0586 -16.4551 L 60.0586 -32.4707 L 75.6836 -32.4707 C 75.4883 -26.2207 74.5117 -20.2148 72.998 -14.9414 C 68.9453 -15.8203 64.5996 -16.3086 60.0586 -16.4551 Z M 78.5645 -13.5254 C 80.2246 -19.1406 81.25 -25.5859 81.4453 -32.4707 L 97.3633 -32.4707 C 96.7773 -23.6816 93.4082 -15.6738 88.1348 -9.375 C 85.4004 -10.9863 82.1777 -12.4023 78.5645 -13.5254 Z M 43.2129 -9.7168 C 46.6797 -10.3516 50.3906 -10.7422 54.4434 -10.8398 L 54.4434 4.39453 C 50.0977 2.7832 46.0938 -2.44141 43.2129 -9.7168 Z M 60.0586 -10.8398 C 64.0625 -10.7422 67.8223 -10.3516 71.2402 -9.7168 C 68.3594 -2.44141 64.3555 2.7832 60.0586 4.39453 Z M 30.3711 -5.32227 C 32.5195 -6.49414 34.9121 -7.51953 37.6465 -8.34961 C 39.3555 -3.95508 41.5039 -0.244141 43.8965 2.73438 C 38.8184 0.976562 34.2285 -1.80664 30.3711 -5.32227 Z M 76.8066 -8.34961 C 79.541 -7.51953 81.9824 -6.49414 84.1797 -5.27344 C 80.2246 -1.75781 75.6348 1.02539 70.5078 2.7832 C 72.9492 -0.195312 75.0977 -3.95508 76.8066 -8.34961 Z"/>
  </g>
  <g id="Light-M" transform="matrix(1 0 0 1 1096.66 1126)">
   <path d="M 56.4941 12.5488 C 82.6172 12.5488 104.199 -9.08203 104.199 -35.2051 C 104.199 -61.3281 82.6172 -82.9102 56.4453 -82.9102 C 30.3223 -82.9102 8.74023 -61.3281 8.74023 -35.2051 C 8.74023 -9.08203 30.3711 12.5488 56.4941 12.5488 Z M 58.7402 -76.0742 C 63.6719 -74.707 68.2129 -68.8965 71.3379 -60.6934 C 67.5293 -59.9121 63.3301 -59.4727 58.7402 -59.375 Z M 41.6016 -60.6934 C 44.7266 -68.8965 49.2676 -74.707 54.1992 -76.0742 L 54.1992 -59.375 C 49.6094 -59.4727 45.4102 -59.9121 41.6016 -60.6934 Z M 28.2227 -65.4785 C 32.9102 -69.8242 38.623 -73.1445 44.9707 -74.9512 C 41.8945 -71.7773 39.1602 -67.2852 37.0605 -61.7676 C 33.7402 -62.7441 30.7617 -63.9648 28.2227 -65.4785 Z M 67.9688 -74.9512 C 74.3164 -73.1445 80.0293 -69.8242 84.7168 -65.4785 C 82.1777 -63.9648 79.1992 -62.7441 75.8789 -61.7676 C 73.7793 -67.2852 71.0449 -71.7773 67.9688 -74.9512 Z M 80.3223 -37.5488 C 80.127 -44.9219 79.0527 -51.709 77.2949 -57.6172 C 81.3477 -58.7891 84.9121 -60.3516 87.8418 -62.207 C 93.6035 -55.5176 97.2168 -46.9238 97.7539 -37.5488 Z M 15.1855 -37.5488 C 15.7227 -46.9238 19.3359 -55.5176 25.0977 -62.207 C 27.9785 -60.3516 31.5918 -58.7891 35.6445 -57.6172 C 33.8867 -51.709 32.8125 -44.9219 32.6172 -37.5488 Z M 58.7402 -37.5488 L 58.7402 -54.834 C 63.7207 -54.9805 68.4082 -55.5176 72.7539 -56.4453 C 74.4141 -50.8301 75.4395 -44.3359 75.6348 -37.5488 Z M 37.3047 -37.5488 C 37.5 -44.3359 38.5254 -50.8301 40.1855 -56.4453 C 44.5312 -55.5176 49.2188 -54.9805 54.1992 -54.834 L 54.1992 -37.5488 Z M 15.1855 -32.959 L 32.6172 -32.959 C 32.7637 -25.4883 33.8867 -18.6035 35.6445 -12.6953 C 31.5918 -11.4746 28.0762 -9.96094 25.1953 -8.1543 C 19.3848 -14.8438 15.6738 -23.4863 15.1855 -32.959 Z M 37.3047 -32.959 L 54.1992 -32.959 L 54.1992 -15.4297 C 49.2188 -15.332 44.5312 -14.7461 40.1855 -13.8184 C 38.5254 -19.5312 37.4512 -26.0742 37.3047 -32.959 Z M 58.7402 -15.4297 L 58.7402 -32.959 L 75.6348 -32.959 C 75.4883 -26.0742 74.4141 -19.5312 72.7539 -13.8184 C 68.4082 -14.7461 63.7207 -15.332 58.7402 -15.4297 Z M 77.2949 -12.6953 C 79.0527 -18.6035 80.1758 -25.4883 80.3223 -32.959 L 97.8027 -32.959 C 97.3145 -23.4863 93.6035 -14.8438 87.793 -8.10547 C 84.9121 -9.91211 81.3477 -11.4746 77.2949 -12.6953 Z M 58.7402 -10.8887 C 63.3301 -10.791 67.5293 -10.3516 71.3379 -9.57031 C 68.2129 -1.36719 63.6719 4.44336 58.7402 5.81055 Z M 41.6016 -9.57031 C 45.4102 -10.3516 49.6094 -10.791 54.1992 -10.8887 L 54.1992 5.81055 C 49.2676 4.44336 44.7266 -1.36719 41.6016 -9.57031 Z M 28.3203 -4.88281 C 30.8594 -6.34766 33.7402 -7.51953 37.0605 -8.49609 C 39.1113 -3.125 41.748 1.31836 44.8242 4.49219 C 38.5742 2.68555 32.959 -0.585938 28.3203 -4.88281 Z M 75.8789 -8.49609 C 79.1992 -7.51953 82.1289 -6.29883 84.6191 -4.83398 C 79.9805 -0.537109 74.3652 2.73438 68.1152 4.54102 C 71.1426 1.31836 73.8281 -3.07617 75.8789 -8.49609 Z"/>
  </g>
  <g id="Thin-M" transform="matrix(1 0 0 1 800.953 1126)">
   <path d="M 55.4688 11.5723 C 81.1035 11.5723 102.197 -9.52148 102.197 -35.1562 C 102.197 -60.791 81.1035 -81.8848 55.4688 -81.8848 C 29.7852 -81.8848 8.74023 -60.791 8.74023 -35.1562 C 8.74023 -9.52148 29.834 11.5723 55.4688 11.5723 Z M 39.502 -60.8398 C 42.9199 -70.3613 48.1445 -76.8555 53.9062 -77.8809 L 53.9062 -59.3262 C 48.584 -59.4238 43.7988 -59.9609 39.502 -60.8398 Z M 57.0312 -77.8809 C 62.7441 -76.8555 67.9688 -70.3613 71.4355 -60.8398 C 67.1387 -59.9609 62.3047 -59.4238 57.0312 -59.3262 Z M 64.5996 -77.0996 C 72.5098 -75.3906 79.6387 -71.4355 85.2539 -66.0156 C 82.2754 -64.209 78.7109 -62.6953 74.6094 -61.5723 C 72.0703 -68.5547 68.5547 -73.8281 64.5996 -77.0996 Z M 25.6836 -66.0156 C 31.2988 -71.4355 38.4277 -75.3906 46.3379 -77.0996 C 42.3828 -73.8281 38.8672 -68.5547 36.3281 -61.5723 C 32.1777 -62.6953 28.6133 -64.209 25.6836 -66.0156 Z M 78.8574 -36.8164 C 78.7109 -45.0684 77.4902 -52.4902 75.5859 -58.7402 C 80.2246 -60.0098 84.2285 -61.7676 87.4023 -63.8184 C 93.8477 -56.5918 97.9492 -47.168 98.3398 -36.8164 Z M 12.5977 -36.8164 C 12.9883 -47.168 17.041 -56.5918 23.5352 -63.8184 C 26.709 -61.7676 30.7129 -60.0098 35.3516 -58.7402 C 33.3984 -52.4902 32.2266 -45.0684 32.0801 -36.8164 Z M 35.3516 -36.8164 C 35.498 -44.5312 36.6699 -51.7578 38.5254 -57.959 C 43.2129 -56.8848 48.3887 -56.2988 53.9062 -56.2012 L 53.9062 -36.8164 Z M 57.0312 -36.8164 L 57.0312 -56.2012 C 62.5488 -56.2988 67.7246 -56.8848 72.3633 -57.959 C 74.2676 -51.7578 75.4395 -44.5312 75.5859 -36.8164 Z M 12.5977 -33.6914 L 32.0801 -33.6914 C 32.1777 -25.3418 33.3984 -17.8711 35.3516 -11.5234 C 30.7129 -10.2539 26.709 -8.54492 23.5352 -6.49414 C 17.041 -13.7695 12.9395 -23.2422 12.5977 -33.6914 Z M 35.3516 -33.6914 L 53.9062 -33.6914 L 53.9062 -14.0625 C 48.3887 -13.9648 43.2129 -13.3789 38.5254 -12.3535 C 36.6211 -18.5547 35.4492 -25.8789 35.3516 -33.6914 Z M 57.0312 -14.0625 L 57.0312 -33.6914 L 75.5859 -33.6914 C 75.4395 -25.8789 74.2676 -18.5547 72.3633 -12.3535 C 67.7246 -13.3789 62.5488 -13.9648 57.0312 -14.0625 Z M 75.5859 -11.5234 C 77.5391 -17.8711 78.7109 -25.3418 78.8574 -33.6914 L 98.3398 -33.6914 C 97.998 -23.2422 93.8965 -13.7207 87.3535 -6.49414 C 84.2285 -8.54492 80.2246 -10.2539 75.5859 -11.5234 Z M 39.502 -9.42383 C 43.7988 -10.3516 48.584 -10.8398 53.9062 -10.9375 L 53.9062 7.61719 C 48.1445 6.5918 42.9199 0.0976562 39.502 -9.42383 Z M 57.0312 -10.9375 C 62.3047 -10.8398 67.1387 -10.3516 71.4355 -9.42383 C 67.9688 0.0976562 62.7441 6.5918 57.0312 7.61719 Z M 25.6836 -4.24805 C 28.6621 -6.10352 32.1777 -7.56836 36.3281 -8.69141 C 38.8184 -1.75781 42.334 3.51562 46.2402 6.73828 C 38.3789 5.0293 31.2988 1.12305 25.6836 -4.24805 Z M 74.6094 -8.69141 C 78.7109 -7.56836 82.2754 -6.10352 85.2539 -4.24805 C 79.6387 1.17188 72.5586 5.0293 64.6484 6.78711 C 68.6035 3.51562 72.0703 -1.75781 74.6094 -8.69141 Z"/>
  </g>
  <g id="Ultralight-M" transform="matrix(1 0 0 1 504.779 1126)">
   <path d="M 54.9316 11.084 C 80.3711 11.084 101.123 -9.7168 101.123 -35.1562 C 101.123 -60.5469 80.3711 -81.3477 54.9316 -81.3477 C 29.541 -81.3477 8.74023 -60.5469 8.74023 -35.1562 C 8.74023 -9.7168 29.541 11.084 54.9316 11.084 Z M 38.4277 -60.8887 C 41.9922 -71.0938 47.6074 -77.9297 53.7109 -78.7598 L 53.7109 -59.3262 C 48.0469 -59.375 42.9688 -59.9609 38.4277 -60.8887 Z M 56.1523 -78.7598 C 62.3047 -77.9297 67.8711 -71.0938 71.4844 -60.8887 C 66.9434 -59.9609 61.8164 -59.375 56.1523 -59.3262 Z M 62.6953 -78.125 C 71.4844 -76.5625 79.3945 -72.3145 85.5469 -66.3086 C 82.373 -64.3066 78.5156 -62.6953 73.9746 -61.4746 C 71.1426 -69.2871 67.1387 -75.0488 62.6953 -78.125 Z M 24.3652 -66.3086 C 30.5176 -72.3145 38.3789 -76.5625 47.2168 -78.125 C 42.7246 -75.0488 38.7207 -69.2871 35.9375 -61.4746 C 31.3965 -62.6953 27.5391 -64.3066 24.3652 -66.3086 Z M 78.0762 -36.4746 C 77.9785 -45.166 76.709 -52.8809 74.707 -59.3262 C 79.6387 -60.6445 83.8867 -62.4512 87.1582 -64.5996 C 93.9941 -57.1289 98.291 -47.3145 98.6328 -36.4746 Z M 11.2793 -36.4746 C 11.6211 -47.3145 15.8691 -57.1289 22.7051 -64.5996 C 26.0254 -62.4512 30.2246 -60.6445 35.2051 -59.3262 C 33.1543 -52.8809 31.8848 -45.166 31.7871 -36.4746 Z M 34.3262 -36.4746 C 34.4727 -44.6289 35.6934 -52.2461 37.6953 -58.6914 C 42.5293 -57.6172 47.9492 -56.9824 53.7109 -56.8848 L 53.7109 -36.4746 Z M 56.1523 -36.4746 L 56.1523 -56.8848 C 61.9629 -56.9824 67.3828 -57.6172 72.2168 -58.6914 C 74.1699 -52.2461 75.4395 -44.6289 75.5371 -36.4746 Z M 11.2793 -34.0332 L 31.7871 -34.0332 C 31.8848 -25.2441 33.1543 -17.4316 35.2051 -10.9375 C 30.2246 -9.61914 26.0254 -7.8125 22.7051 -5.66406 C 15.8203 -13.1836 11.5234 -23.0957 11.2793 -34.0332 Z M 34.3262 -34.0332 L 53.7109 -34.0332 L 53.7109 -13.3789 C 47.9492 -13.2812 42.5293 -12.6465 37.6953 -11.5723 C 35.6934 -18.0664 34.4238 -25.7812 34.3262 -34.0332 Z M 56.1523 -13.3789 L 56.1523 -34.0332 L 75.5371 -34.0332 C 75.4395 -25.7812 74.2188 -18.0664 72.2168 -11.5723 C 67.3828 -12.6465 61.9629 -13.2812 56.1523 -13.3789 Z M 74.707 -10.9375 C 76.7578 -17.4316 78.0273 -25.2441 78.125 -34.0332 L 98.6328 -34.0332 C 98.3398 -23.1445 94.043 -13.1836 87.1582 -5.66406 C 83.8867 -7.8125 79.6387 -9.61914 74.707 -10.9375 Z M 38.4277 -9.375 C 42.9688 -10.3516 48.0469 -10.8887 53.7109 -10.9375 L 53.7109 8.49609 C 47.6074 7.66602 41.9922 0.830078 38.4277 -9.375 Z M 56.1523 -10.9375 C 61.8164 -10.8887 66.9434 -10.3516 71.4844 -9.375 C 67.8711 0.830078 62.3047 7.66602 56.1523 8.49609 Z M 73.9746 -8.78906 C 78.5156 -7.61719 82.373 -5.95703 85.5469 -3.95508 C 79.3945 2.05078 71.4844 6.29883 62.6953 7.86133 C 67.1387 4.78516 71.1426 -0.976562 73.9746 -8.78906 Z M 24.3652 -3.95508 C 27.5391 -5.95703 31.3965 -7.61719 35.9375 -8.78906 C 38.7207 -0.976562 42.7246 4.78516 47.2168 7.86133 C 38.3789 6.29883 30.5176 2.05078 24.3652 -3.95508 Z"/>
  </g>
  <g id="Black-S" transform="matrix(1 0 0 1 2884.57 696)">
   <path d="M 48.8281 6.78711 C 71.9727 6.78711 90.8203 -12.0605 90.8203 -35.2051 C 90.8203 -58.3496 71.9727 -77.1973 48.8281 -77.1973 C 25.6836 -77.1973 6.83594 -58.3496 6.83594 -35.2051 C 6.83594 -12.0605 25.6836 6.78711 48.8281 6.78711 Z M 37.4512 -51.0742 C 39.5508 -56.6895 42.5293 -60.9863 45.8496 -62.6465 L 45.8496 -50.2441 C 42.9199 -50.3906 40.0879 -50.6348 37.4512 -51.0742 Z M 51.8066 -62.6465 C 55.127 -60.9863 58.1055 -56.6895 60.2051 -51.0742 C 57.5684 -50.6348 54.7363 -50.3906 51.8066 -50.2441 Z M 63.2812 -58.9844 C 65.6738 -57.5195 67.8711 -55.7129 69.6777 -53.6133 C 68.6523 -53.1738 67.5293 -52.7832 66.2598 -52.4414 C 65.4297 -54.834 64.4531 -57.0312 63.2812 -58.9844 Z M 27.9785 -53.6133 C 29.834 -55.7129 31.9824 -57.5195 34.375 -58.9844 C 33.2031 -57.0312 32.2266 -54.834 31.3965 -52.4414 C 30.127 -52.7832 29.0039 -53.1738 27.9785 -53.6133 Z M 68.9453 -38.2324 C 68.7988 -41.2109 68.4082 -44.0918 67.8711 -46.7773 C 69.8242 -47.3633 71.582 -48.0469 73.1445 -48.7793 C 74.9023 -45.6055 76.0742 -42.041 76.5137 -38.2324 Z M 21.1426 -38.2324 C 21.582 -42.041 22.7539 -45.6055 24.5117 -48.7793 C 26.0742 -48.0469 27.832 -47.3633 29.7852 -46.7773 C 29.248 -44.0918 28.8574 -41.2109 28.7109 -38.2324 Z M 51.8066 -38.2324 L 51.8066 -44.2871 C 55.3223 -44.4336 58.7402 -44.7754 61.8652 -45.3613 C 62.3535 -43.0664 62.7441 -40.6738 62.8906 -38.2324 Z M 34.7656 -38.2324 C 34.9121 -40.6738 35.3027 -43.0664 35.791 -45.3613 C 38.916 -44.7754 42.334 -44.4336 45.8496 -44.2871 L 45.8496 -38.2324 Z M 21.1426 -32.2754 L 28.6621 -32.2754 C 28.8086 -29.1992 29.1992 -26.3184 29.7852 -23.5352 C 27.8809 -22.9492 26.123 -22.3145 24.5605 -21.5332 C 22.7539 -24.7559 21.5332 -28.418 21.1426 -32.2754 Z M 34.7656 -32.2754 L 45.8496 -32.2754 L 45.8496 -26.0254 C 42.334 -25.8789 38.916 -25.5371 35.791 -24.9512 C 35.2539 -27.2949 34.9121 -29.7852 34.7656 -32.2754 Z M 51.8066 -26.0254 L 51.8066 -32.2754 L 62.8906 -32.2754 C 62.7441 -29.7852 62.4023 -27.2949 61.8652 -24.9512 C 58.7402 -25.5371 55.3223 -25.8789 51.8066 -26.0254 Z M 67.8711 -23.5352 C 68.457 -26.3184 68.8477 -29.1992 68.9941 -32.2754 L 76.5137 -32.2754 C 76.123 -28.418 74.9023 -24.7559 73.0957 -21.5332 C 71.5332 -22.3145 69.7754 -22.9492 67.8711 -23.5352 Z M 37.4512 -19.2383 C 40.0879 -19.6777 42.9199 -19.9219 45.8496 -20.0684 L 45.8496 -7.61719 C 42.5293 -9.32617 39.502 -13.623 37.4512 -19.2383 Z M 51.8066 -20.0684 C 54.7363 -19.9219 57.5684 -19.6777 60.2051 -19.2383 C 58.1055 -13.623 55.127 -9.32617 51.8066 -7.66602 Z M 28.0273 -16.6992 C 29.0527 -17.1387 30.1758 -17.5293 31.3965 -17.8711 C 32.1777 -15.5273 33.1543 -13.3789 34.2773 -11.4746 C 31.9336 -12.8906 29.834 -14.6973 28.0273 -16.6992 Z M 66.2598 -17.8711 C 67.4805 -17.5293 68.6035 -17.1387 69.6289 -16.6992 C 67.8223 -14.6973 65.7227 -12.8906 63.3789 -11.4746 C 64.502 -13.3789 65.4785 -15.5273 66.2598 -17.8711 Z"/>
  </g>
  <g id="Heavy-S" transform="matrix(1 0 0 1 2588.72 696)">
   <path d="M 47.998 5.9082 C 70.6055 5.9082 89.1113 -12.5977 89.1113 -35.2051 C 89.1113 -57.8613 70.6055 -76.3672 47.9492 -76.3672 C 25.3418 -76.3672 6.83594 -57.8613 6.83594 -35.2051 C 6.83594 -12.5977 25.3418 5.9082 47.998 5.9082 Z M 36.8164 -52.002 C 38.8672 -57.5195 41.8457 -61.7188 45.1172 -63.3301 L 45.1172 -51.1719 C 42.1875 -51.3184 39.4043 -51.5625 36.8164 -52.002 Z M 50.8301 -63.3301 C 54.1016 -61.7188 57.0801 -57.5195 59.1309 -52.002 C 56.543 -51.5625 53.7598 -51.3184 50.8301 -51.1719 Z M 61.5723 -60.3516 C 64.3066 -58.8867 66.748 -56.9824 68.7988 -54.7363 C 67.6758 -54.248 66.3574 -53.7598 64.9414 -53.3203 C 64.0137 -55.957 62.8906 -58.3008 61.5723 -60.3516 Z M 27.1484 -54.7852 C 29.1992 -56.9824 31.6406 -58.8867 34.375 -60.3516 C 33.0566 -58.3008 31.9336 -55.957 31.0059 -53.3203 C 29.5898 -53.7598 28.2715 -54.248 27.1484 -54.7852 Z M 67.8711 -38.0859 C 67.7246 -41.5527 67.2363 -44.873 66.5527 -47.9492 C 68.6523 -48.584 70.6055 -49.3652 72.3145 -50.2441 C 74.5117 -46.6309 75.9277 -42.5293 76.3672 -38.0859 Z M 19.5801 -38.0859 C 20.0195 -42.5293 21.4355 -46.6309 23.6328 -50.2441 C 25.3418 -49.3652 27.2461 -48.584 29.3945 -47.9492 C 28.7109 -44.873 28.2227 -41.5527 28.0762 -38.0859 Z M 50.8301 -38.0859 L 50.8301 -45.459 C 54.3457 -45.6055 57.7148 -45.9961 60.791 -46.5332 C 61.4258 -43.8965 61.8652 -41.0156 62.0605 -38.0859 Z M 33.8867 -38.0859 C 34.082 -41.0156 34.5215 -43.8477 35.1562 -46.5332 C 38.2324 -45.9961 41.6016 -45.6055 45.1172 -45.459 L 45.1172 -38.0859 Z M 19.5312 -32.4219 L 28.0762 -32.4219 C 28.2227 -28.8574 28.6621 -25.4883 29.3945 -22.3633 C 27.2949 -21.7285 25.3906 -20.9961 23.7305 -20.1172 C 21.4355 -23.7305 19.9707 -27.9297 19.5312 -32.4219 Z M 33.8867 -32.4219 L 45.1172 -32.4219 L 45.1172 -24.8535 C 41.6016 -24.707 38.2324 -24.3164 35.1074 -23.7793 C 34.4727 -26.5137 34.0332 -29.3945 33.8867 -32.4219 Z M 50.8301 -24.8535 L 50.8301 -32.4219 L 62.0605 -32.4219 C 61.8652 -29.3945 61.4258 -26.5137 60.791 -23.7793 C 57.7148 -24.3164 54.3457 -24.707 50.8301 -24.8535 Z M 66.5527 -22.3633 C 67.2363 -25.4883 67.7246 -28.8574 67.8711 -32.4219 L 76.416 -32.4219 C 75.9766 -27.9297 74.5117 -23.7305 72.2656 -20.1172 C 70.5566 -20.9473 68.6523 -21.7285 66.5527 -22.3633 Z M 50.8301 -19.1406 C 53.7598 -18.9941 56.543 -18.75 59.1309 -18.3105 C 57.0801 -12.793 54.1016 -8.59375 50.8301 -6.98242 Z M 36.7676 -18.3105 C 39.4043 -18.75 42.1875 -18.9941 45.1172 -19.1406 L 45.1172 -6.98242 C 41.8457 -8.59375 38.8672 -12.793 36.7676 -18.3105 Z M 64.9414 -16.9922 C 66.3086 -16.5527 67.627 -16.1133 68.75 -15.5762 C 66.6992 -13.4277 64.3066 -11.5723 61.6699 -10.1074 C 62.9395 -12.1582 64.0137 -14.4531 64.9414 -16.9922 Z M 27.1973 -15.5762 C 28.3691 -16.1133 29.6387 -16.5527 31.0059 -16.9922 C 31.8848 -14.4531 33.0078 -12.1582 34.2285 -10.1562 C 31.6406 -11.5723 29.248 -13.4277 27.1973 -15.5762 Z"/>
  </g>
  <g id="Bold-S" transform="matrix(1 0 0 1 2292.96 696)">
   <path d="M 47.0215 4.93164 C 69.0918 4.93164 87.207 -13.1836 87.207 -35.2051 C 87.207 -57.2754 69.043 -75.3906 47.0215 -75.3906 C 24.9512 -75.3906 6.83594 -57.2754 6.83594 -35.2051 C 6.83594 -13.1836 25 4.93164 47.0215 4.93164 Z M 49.707 -64.0625 C 52.9297 -62.5488 55.8594 -58.4473 57.959 -53.0762 C 55.4199 -52.6367 52.6367 -52.3438 49.707 -52.2461 Z M 36.0352 -53.0762 C 38.1348 -58.4473 41.1133 -62.5488 44.2871 -64.0625 L 44.2871 -52.2461 C 41.4062 -52.3438 38.623 -52.6367 36.0352 -53.0762 Z M 59.668 -61.7676 C 62.6953 -60.3027 65.4785 -58.3496 67.8223 -56.0059 C 66.5039 -55.3711 65.0391 -54.834 63.4766 -54.3457 C 62.4023 -57.1289 61.1328 -59.6191 59.668 -61.7676 Z M 26.2207 -56.0059 C 28.5645 -58.3496 31.2988 -60.3027 34.3262 -61.7676 C 32.9102 -59.6191 31.6406 -57.1289 30.5664 -54.3457 C 29.0039 -54.834 27.5391 -55.3711 26.2207 -56.0059 Z M 66.6504 -37.9883 C 66.4551 -41.9922 65.918 -45.752 65.0391 -49.2188 C 67.3828 -49.9512 69.4824 -50.8301 71.2891 -51.8066 C 74.0234 -47.8027 75.7812 -43.0664 76.2695 -37.9883 Z M 17.7734 -37.9883 C 18.2617 -43.0664 20.0195 -47.8027 22.7539 -51.8066 C 24.5605 -50.8301 26.6602 -49.9512 29.0039 -49.2188 C 28.125 -45.752 27.5391 -41.9434 27.3926 -37.9883 Z M 32.9102 -37.9883 C 33.1055 -41.4062 33.6426 -44.7754 34.4238 -47.9004 C 37.5 -47.3145 40.8203 -46.9238 44.2871 -46.7773 L 44.2871 -37.9883 Z M 49.707 -37.9883 L 49.707 -46.7773 C 53.1738 -46.9238 56.543 -47.3145 59.6191 -47.9004 C 60.4004 -44.7754 60.8887 -41.4062 61.084 -37.9883 Z M 17.7734 -32.5195 L 27.3438 -32.5195 C 27.5391 -28.4668 28.0762 -24.6094 29.0039 -21.0938 C 26.6602 -20.3613 24.6094 -19.5312 22.8027 -18.5547 C 20.0195 -22.5586 18.2129 -27.3438 17.7734 -32.5195 Z M 32.9102 -32.5195 L 44.2871 -32.5195 L 44.2871 -23.5352 C 40.8203 -23.3887 37.5 -22.998 34.4238 -22.4121 C 33.5938 -25.5859 33.1055 -29.0039 32.9102 -32.5195 Z M 49.707 -23.5352 L 49.707 -32.5195 L 61.1328 -32.5195 C 60.9375 -29.0039 60.4004 -25.5859 59.6191 -22.4121 C 56.543 -22.998 53.1738 -23.3887 49.707 -23.5352 Z M 65.0391 -21.0938 C 65.918 -24.6094 66.5039 -28.4668 66.6504 -32.5195 L 76.2695 -32.5195 C 75.8301 -27.3438 74.0234 -22.5586 71.2402 -18.5059 C 69.5312 -19.4824 67.4805 -20.3125 65.2832 -20.9961 Z M 36.0352 -17.2363 C 38.623 -17.6758 41.3574 -17.9688 44.2871 -18.0664 L 44.2871 -6.25 C 41.0645 -7.76367 38.1348 -11.8164 36.0352 -17.2363 Z M 49.707 -18.0664 C 52.6367 -17.9688 55.4199 -17.6758 57.959 -17.2363 C 55.8594 -11.8652 52.9297 -7.76367 49.707 -6.25 Z M 63.4766 -15.9668 C 64.9902 -15.4785 66.4551 -14.9414 67.7246 -14.3066 C 65.4297 -12.0605 62.7441 -10.1562 59.8145 -8.74023 C 61.2305 -10.8398 62.4512 -13.2812 63.4766 -15.9668 Z M 26.3184 -14.3555 C 27.5879 -14.9414 29.0039 -15.4785 30.5664 -15.9668 C 31.5918 -13.2812 32.8125 -10.8398 34.1797 -8.78906 C 31.25 -10.2051 28.6133 -12.0605 26.3184 -14.3555 Z"/>
  </g>
  <g id="Semibold-S" transform="matrix(1 0 0 1 1996.93 696)">
   <path d="M 46.3867 4.29688 C 68.0176 4.29688 85.8398 -13.5742 85.8398 -35.2539 C 85.8398 -56.8848 67.9688 -74.7559 46.3379 -74.7559 C 24.707 -74.7559 6.83594 -56.8848 6.83594 -35.2539 C 6.83594 -13.5742 24.7559 4.29688 46.3867 4.29688 Z M 35.5469 -53.7598 C 37.6465 -59.1309 40.5762 -63.0859 43.75 -64.5508 L 43.75 -52.9297 C 40.8203 -53.0273 38.0859 -53.3203 35.5469 -53.7598 Z M 48.9746 -64.5508 C 52.1484 -63.0859 55.0293 -59.1309 57.1777 -53.7598 C 54.6387 -53.3203 51.8555 -53.0273 48.9746 -52.9297 Z M 58.3984 -62.6953 C 61.6211 -61.2793 64.5508 -59.2773 67.0898 -56.8848 C 65.6738 -56.2012 64.1113 -55.5664 62.4512 -55.0293 C 61.3281 -57.959 59.9609 -60.498 58.3984 -62.6953 Z M 25.6348 -56.8848 C 28.125 -59.2773 31.0547 -61.2793 34.3262 -62.6953 C 32.7637 -60.498 31.3965 -57.959 30.2734 -55.0293 C 28.5645 -55.5664 27.002 -56.2012 25.6348 -56.8848 Z M 65.8203 -37.8906 C 65.625 -42.2363 64.9902 -46.3867 64.0137 -50.1465 C 66.4551 -50.8789 68.7012 -51.8555 70.5566 -52.8809 C 73.6816 -48.6328 75.6836 -43.457 76.1719 -37.8906 Z M 16.5527 -37.8906 C 17.041 -43.457 19.043 -48.6328 22.1191 -52.8809 C 24.0234 -51.8066 26.2207 -50.8789 28.7109 -50.1465 C 27.6855 -46.3867 27.0996 -42.2363 26.9043 -37.8906 Z M 32.2754 -37.8906 C 32.4219 -41.6992 33.0566 -45.4102 33.9355 -48.8281 C 37.0117 -48.1934 40.2832 -47.8027 43.75 -47.7051 L 43.75 -37.8906 Z M 48.9746 -37.8906 L 48.9746 -47.7051 C 52.3926 -47.8027 55.7129 -48.1934 58.7891 -48.8281 C 59.668 -45.4102 60.2539 -41.6992 60.4492 -37.8906 Z M 16.5527 -32.6172 L 26.9043 -32.6172 C 27.0508 -28.1738 27.6855 -23.9746 28.7109 -20.166 C 26.2695 -19.4336 24.0723 -18.5059 22.2168 -17.4805 C 19.043 -21.7773 17.041 -26.9531 16.5527 -32.6172 Z M 32.2266 -32.6172 L 43.75 -32.6172 L 43.75 -22.6074 C 40.2832 -22.5098 36.9629 -22.1191 33.9355 -21.4844 C 33.0078 -24.9512 32.4219 -28.7109 32.2266 -32.6172 Z M 48.9746 -22.6074 L 48.9746 -32.6172 L 60.4492 -32.6172 C 60.2539 -28.7109 59.668 -24.9512 58.7891 -21.4844 C 55.7129 -22.1191 52.3926 -22.5098 48.9746 -22.6074 Z M 64.0137 -20.166 C 64.9902 -23.9746 65.625 -28.1738 65.8203 -32.6172 L 76.2207 -32.6172 C 75.7324 -26.9531 73.6816 -21.7285 70.5078 -17.4316 C 68.6523 -18.5059 66.4551 -19.4336 64.0137 -20.166 Z M 48.9746 -17.3828 C 51.8555 -17.2852 54.6387 -16.9922 57.1777 -16.5527 C 55.0293 -11.1816 52.1484 -7.22656 48.9746 -5.76172 Z M 35.5469 -16.5527 C 38.0859 -16.9922 40.8203 -17.2852 43.75 -17.3828 L 43.75 -5.76172 C 40.5273 -7.22656 37.6465 -11.1816 35.5469 -16.5527 Z M 62.4512 -15.2832 C 64.1113 -14.7461 65.625 -14.1602 66.9922 -13.4766 C 64.5508 -11.1328 61.6699 -9.22852 58.5449 -7.8125 C 60.0098 -9.96094 61.3281 -12.4512 62.4512 -15.2832 Z M 25.7324 -13.4766 C 27.0996 -14.1602 28.6133 -14.7461 30.2734 -15.2832 C 31.3477 -12.5 32.666 -10.0098 34.1309 -7.86133 C 31.0059 -9.27734 28.1738 -11.1816 25.7324 -13.4766 Z"/>
  </g>
  <g id="Medium-S" transform="matrix(1 0 0 1 1700.71 696)">
   <path d="M 45.8984 3.75977 C 67.2363 3.75977 84.8633 -13.916 84.8633 -35.2539 C 84.8633 -56.5918 67.1875 -74.2676 45.8496 -74.2676 C 24.5117 -74.2676 6.83594 -56.5918 6.83594 -35.2539 C 6.83594 -13.916 24.5605 3.75977 45.8984 3.75977 Z M 48.3887 -64.9414 C 51.5625 -63.5254 54.4434 -59.6191 56.543 -54.2969 C 54.0039 -53.8574 51.3184 -53.5645 48.3887 -53.4668 Z M 35.1562 -54.2969 C 37.2559 -59.6191 40.1367 -63.5254 43.3105 -64.9414 L 43.3105 -53.4668 C 40.3809 -53.5645 37.6953 -53.8574 35.1562 -54.2969 Z M 57.4219 -63.3789 C 60.8398 -61.9629 63.8672 -60.0098 66.5039 -57.5195 C 65.0879 -56.7871 63.4277 -56.1035 61.6699 -55.5664 C 60.498 -58.5449 59.0332 -61.1816 57.4219 -63.3789 Z M 25.1953 -57.5195 C 27.7832 -60.0098 30.8594 -61.9629 34.2773 -63.3789 C 32.666 -61.1816 31.2012 -58.5449 30.0293 -55.5664 C 28.2715 -56.1035 26.6113 -56.7871 25.1953 -57.5195 Z M 65.1855 -37.793 C 64.9902 -42.4805 64.3066 -46.8262 63.2324 -50.7812 C 65.7715 -51.6113 68.0664 -52.5879 70.0195 -53.7109 C 73.4375 -49.2676 75.6348 -43.7988 76.123 -37.793 Z M 15.625 -37.793 C 16.1133 -43.7988 18.3105 -49.2676 21.7285 -53.7109 C 23.6328 -52.5879 25.9277 -51.6113 28.4668 -50.7812 C 27.3926 -46.8262 26.709 -42.4805 26.5137 -37.793 Z M 48.3887 -37.793 L 48.3887 -48.3887 C 51.8066 -48.5352 55.0781 -48.877 58.1543 -49.5117 C 59.1309 -45.8984 59.7656 -41.9434 59.9609 -37.793 Z M 31.7383 -37.793 C 31.9336 -41.9434 32.5684 -45.8984 33.5449 -49.5117 C 36.6211 -48.877 39.8926 -48.5352 43.3105 -48.3887 L 43.3105 -37.793 Z M 15.625 -32.7148 L 26.5137 -32.7148 C 26.709 -27.9785 27.3926 -23.5352 28.4668 -19.5312 C 25.9766 -18.7012 23.7305 -17.7734 21.8262 -16.6504 C 18.3105 -21.1426 16.1133 -26.6602 15.625 -32.7148 Z M 31.7383 -32.7148 L 43.3105 -32.7148 L 43.3105 -21.9238 C 39.8926 -21.7773 36.6211 -21.4355 33.5449 -20.8008 C 32.5684 -24.4629 31.9336 -28.5156 31.7383 -32.7148 Z M 48.3887 -21.9238 L 48.3887 -32.7148 L 59.9609 -32.7148 C 59.7656 -28.5156 59.1309 -24.4629 58.1543 -20.8008 C 55.0781 -21.4355 51.8066 -21.7773 48.3887 -21.9238 Z M 63.2324 -19.5312 C 64.3066 -23.5352 64.9902 -27.9785 65.1855 -32.7148 L 76.123 -32.7148 C 75.6348 -26.6602 73.4375 -21.1426 69.9219 -16.6016 C 68.0176 -17.7246 65.7227 -18.7012 63.2324 -19.5312 Z M 48.3887 -16.8457 C 51.3184 -16.748 54.0039 -16.4551 56.543 -16.0156 C 54.4434 -10.6934 51.5625 -6.78711 48.3887 -5.37109 Z M 35.1562 -16.0156 C 37.6465 -16.4551 40.3809 -16.748 43.3105 -16.8457 L 43.3105 -5.37109 C 40.1367 -6.78711 37.2559 -10.6934 35.1562 -16.0156 Z M 61.6699 -14.7461 C 63.3789 -14.209 64.9902 -13.5742 66.4551 -12.793 C 63.8672 -10.4492 60.8887 -8.54492 57.5684 -7.17773 C 59.1309 -9.32617 60.498 -11.8652 61.6699 -14.7461 Z M 25.293 -12.8418 C 26.709 -13.5742 28.3203 -14.209 30.0293 -14.7461 C 31.1523 -11.9141 32.5195 -9.32617 34.082 -7.22656 C 30.8105 -8.59375 27.8809 -10.498 25.293 -12.8418 Z"/>
  </g>
  <g id="Regular-S" transform="matrix(1 0 0 1 1404.65 696)">
   <path d="M 45.2637 3.125 C 66.1621 3.125 83.5449 -14.3066 83.5449 -35.2539 C 83.5449 -56.2012 66.1133 -73.584 45.2148 -73.584 C 24.2676 -73.584 6.83594 -56.2012 6.83594 -35.2539 C 6.83594 -14.3066 24.3164 3.125 45.2637 3.125 Z M 47.6562 -65.4297 C 50.7812 -64.0625 53.6133 -60.2539 55.7617 -55.0293 C 53.2715 -54.5898 50.5371 -54.2969 47.6562 -54.1992 Z M 34.668 -55.0293 C 36.7676 -60.2539 39.5996 -64.0625 42.7246 -65.4297 L 42.7246 -54.1992 C 39.8438 -54.2969 37.1582 -54.5898 34.668 -55.0293 Z M 56.1523 -64.209 C 59.7656 -62.8418 62.9883 -60.8887 65.7715 -58.3984 C 64.2578 -57.5684 62.5488 -56.8359 60.6445 -56.2012 C 59.375 -59.3262 57.8613 -62.0117 56.1523 -64.209 Z M 24.6094 -58.3984 C 27.3926 -60.8887 30.6641 -62.8418 34.2285 -64.209 C 32.5195 -62.0117 31.0059 -59.3262 29.7363 -56.2012 C 27.8809 -56.8359 26.123 -57.5684 24.6094 -58.3984 Z M 64.3066 -37.6953 C 64.1113 -42.7246 63.3789 -47.4609 62.1582 -51.6602 C 64.8438 -52.5391 67.2363 -53.5645 69.2383 -54.7852 C 73.0469 -50.0488 75.5371 -44.1895 76.0254 -37.6953 Z M 14.4043 -37.6953 C 14.8926 -44.1895 17.334 -50.0488 21.1426 -54.7852 C 23.1934 -53.5645 25.5371 -52.5391 28.2227 -51.6602 C 27.002 -47.4609 26.2695 -42.7246 26.0742 -37.6953 Z M 47.6562 -37.6953 L 47.6562 -49.2676 C 51.0254 -49.4141 54.2969 -49.8047 57.3242 -50.3906 C 58.3984 -46.5332 59.1309 -42.2363 59.3262 -37.6953 Z M 31.1035 -37.6953 C 31.2988 -42.2363 31.9824 -46.5332 33.1055 -50.3906 C 36.084 -49.8047 39.3555 -49.4141 42.7246 -49.2676 L 42.7246 -37.6953 Z M 14.4043 -32.8125 L 26.0742 -32.8125 C 26.2207 -27.6855 27.002 -22.9004 28.2227 -18.6523 C 25.5859 -17.8223 23.2422 -16.7969 21.2891 -15.625 C 17.3828 -20.3613 14.8926 -26.2695 14.4043 -32.8125 Z M 31.0547 -32.8125 L 42.7246 -32.8125 L 42.7246 -21.0449 C 39.3555 -20.8984 36.084 -20.5078 33.1055 -19.9219 C 31.9824 -23.8281 31.25 -28.2227 31.0547 -32.8125 Z M 47.6562 -21.0449 L 47.6562 -32.8125 L 59.3262 -32.8125 C 59.1309 -28.2227 58.3984 -23.8281 57.3242 -19.9219 C 54.2969 -20.5078 51.0254 -20.8984 47.6562 -21.0449 Z M 62.1582 -18.6523 C 63.3789 -22.9004 64.1602 -27.6855 64.3555 -32.8125 L 76.0254 -32.8125 C 75.5371 -26.2695 73.0469 -20.3125 69.1895 -15.5762 C 67.1875 -16.748 64.7949 -17.8223 62.1582 -18.6523 Z M 34.668 -15.2832 C 37.1582 -15.7227 39.8438 -16.0156 42.7246 -16.1133 L 42.7246 -4.88281 C 39.5996 -6.25 36.7676 -10.0586 34.668 -15.2832 Z M 47.6562 -16.1133 C 50.5371 -16.0156 53.2715 -15.7227 55.7617 -15.2832 C 53.6133 -10.0586 50.7812 -6.25 47.6562 -4.88281 Z M 60.6445 -14.1113 C 62.5 -13.5254 64.1602 -12.793 65.7227 -11.9629 C 62.9883 -9.57031 59.8145 -7.66602 56.3477 -6.34766 C 58.0078 -8.49609 59.4238 -11.084 60.6445 -14.1113 Z M 24.7559 -12.0117 C 26.2695 -12.793 27.9297 -13.5254 29.7363 -14.1113 C 30.957 -11.1328 32.373 -8.54492 33.9844 -6.39648 C 30.5664 -7.71484 27.4414 -9.61914 24.7559 -12.0117 Z"/>
  </g>
  <g id="Light-S" transform="matrix(1 0 0 1 1108.6 696)">
   <path d="M 44.5312 2.44141 C 65.1855 2.44141 82.2266 -14.5996 82.2266 -35.2051 C 82.2266 -55.8594 65.1367 -72.9004 44.5312 -72.9004 C 23.9258 -72.9004 6.83594 -55.8594 6.83594 -35.2051 C 6.83594 -14.5996 23.9258 2.44141 44.5312 2.44141 Z M 33.2031 -55.127 C 35.5469 -61.1816 38.916 -65.5273 42.5293 -66.6992 L 42.5293 -54.1504 C 39.1602 -54.248 36.0352 -54.5898 33.2031 -55.127 Z M 46.4844 -66.6992 C 50.1465 -65.5273 53.4668 -61.1816 55.8105 -55.127 C 52.9785 -54.5898 49.8535 -54.248 46.4844 -54.1504 Z M 22.8516 -58.7402 C 26.2695 -61.9141 30.3711 -64.3066 34.9121 -65.7227 C 32.7148 -63.2812 30.7617 -60.0098 29.248 -56.1035 C 26.8555 -56.7871 24.707 -57.666 22.8516 -58.7402 Z M 54.1504 -65.7227 C 58.6914 -64.3066 62.793 -61.9141 66.1621 -58.7402 C 64.3066 -57.7148 62.207 -56.7871 59.8145 -56.1035 C 58.3008 -60.0098 56.3477 -63.2812 54.1504 -65.7227 Z M 63.3301 -37.2559 C 63.1836 -42.8223 62.3535 -47.9492 61.0352 -52.4414 C 64.0625 -53.3203 66.748 -54.4922 68.9453 -55.8594 C 73.2422 -50.7812 75.9766 -44.3359 76.416 -37.2559 Z M 12.6465 -37.2559 C 13.0859 -44.3359 15.8203 -50.7812 20.1172 -55.8594 C 22.3145 -54.4922 25 -53.3203 27.9785 -52.4414 C 26.6602 -47.9492 25.8789 -42.8223 25.6836 -37.2559 Z M 29.7852 -37.2559 C 29.9316 -42.334 30.7129 -47.168 31.9824 -51.416 C 35.2539 -50.7324 38.8184 -50.293 42.5293 -50.1953 L 42.5293 -37.2559 Z M 46.4844 -37.2559 L 46.4844 -50.1953 C 50.2441 -50.293 53.8086 -50.7324 57.0801 -51.416 C 58.3008 -47.168 59.082 -42.334 59.2773 -37.2559 Z M 12.6465 -33.252 L 25.6836 -33.252 C 25.8301 -27.6367 26.6602 -22.4121 27.9785 -17.8711 C 25 -16.9922 22.3633 -15.8203 20.166 -14.502 C 15.8203 -19.5801 13.0859 -26.123 12.6465 -33.252 Z M 29.7852 -33.252 L 42.5293 -33.252 L 42.5293 -20.1172 C 38.8184 -20.0195 35.2539 -19.5801 31.9824 -18.8965 C 30.7129 -23.1934 29.9316 -28.125 29.7852 -33.252 Z M 46.4844 -20.1172 L 46.4844 -33.252 L 59.2773 -33.252 C 59.1309 -28.125 58.3496 -23.1934 57.0801 -18.8965 C 53.8086 -19.5801 50.2441 -20.0195 46.4844 -20.1172 Z M 61.0352 -17.8711 C 62.3535 -22.4121 63.1836 -27.6367 63.3301 -33.252 L 76.416 -33.252 C 76.0254 -26.0742 73.2422 -19.5801 68.8965 -14.4531 C 66.6992 -15.8203 64.0625 -16.9922 61.0352 -17.8711 Z M 46.4844 -16.1621 C 49.8535 -16.0645 52.9785 -15.7227 55.8105 -15.1855 C 53.4668 -9.13086 50.1465 -4.78516 46.4844 -3.61328 Z M 33.2031 -15.1855 C 36.0352 -15.7227 39.1602 -16.0645 42.5293 -16.1621 L 42.5293 -3.61328 C 38.916 -4.78516 35.5469 -9.13086 33.2031 -15.1855 Z M 59.8145 -14.209 C 62.1582 -13.5254 64.2578 -12.6465 66.1133 -11.5723 C 62.7441 -8.49609 58.7402 -6.15234 54.2969 -4.73633 C 56.4453 -7.17773 58.3008 -10.4004 59.8145 -14.209 Z M 22.9492 -11.6211 C 24.8047 -12.6465 26.9043 -13.5254 29.248 -14.209 C 30.7129 -10.4004 32.6172 -7.17773 34.7168 -4.78516 C 30.3223 -6.20117 26.3184 -8.54492 22.9492 -11.6211 Z"/>
  </g>
  <g id="Thin-S" transform="matrix(1 0 0 1 812.794 696)">
   <path d="M 43.6523 1.61133 C 63.8184 1.61133 80.4199 -14.9902 80.4199 -35.2051 C 80.4199 -55.3711 63.8184 -71.9727 43.6523 -71.9727 C 23.4375 -71.9727 6.83594 -55.3711 6.83594 -35.2051 C 6.83594 -14.9902 23.4375 1.61133 43.6523 1.61133 Z M 31.3477 -55.2734 C 33.9844 -62.4512 37.9395 -67.4316 42.2852 -68.3105 L 42.2852 -54.1504 C 38.2324 -54.1992 34.6191 -54.5898 31.3477 -55.2734 Z M 45.0195 -68.3105 C 49.3164 -67.4316 53.2715 -62.4512 55.9082 -55.2734 C 52.6367 -54.5898 49.0234 -54.1992 45.0195 -54.1504 Z M 51.2695 -67.627 C 57.1289 -66.2598 62.4512 -63.2812 66.6504 -59.2285 C 64.4531 -57.8613 61.7676 -56.7383 58.6914 -55.9082 C 56.7871 -61.084 54.1992 -65.0879 51.2695 -67.627 Z M 20.6055 -59.2285 C 24.8047 -63.2812 30.127 -66.2598 35.9863 -67.627 C 33.0566 -65.0879 30.4688 -61.084 28.5645 -55.9082 C 25.4883 -56.7383 22.8027 -57.8613 20.6055 -59.2285 Z M 62.0605 -36.6211 C 61.9141 -42.9199 60.9863 -48.584 59.5215 -53.418 C 63.0371 -54.4434 66.1133 -55.7617 68.5547 -57.3242 C 73.4863 -51.7578 76.5625 -44.5312 76.9043 -36.6211 Z M 10.3516 -36.6211 C 10.6934 -44.5312 13.7695 -51.7578 18.7012 -57.3242 C 21.1426 -55.7617 24.2188 -54.4434 27.7344 -53.418 C 26.2695 -48.584 25.3418 -42.9199 25.1953 -36.6211 Z M 45.0195 -36.6211 L 45.0195 -51.416 C 49.2188 -51.4648 53.1738 -51.9531 56.7383 -52.7344 C 58.2031 -47.998 59.082 -42.4805 59.2285 -36.6211 Z M 28.0273 -36.6211 C 28.1738 -42.4805 29.0527 -47.998 30.5176 -52.7344 C 34.082 -51.9531 38.0371 -51.4648 42.2852 -51.416 L 42.2852 -36.6211 Z M 10.3516 -33.8867 L 25.1953 -33.8867 C 25.293 -27.4902 26.2207 -21.7773 27.7344 -16.8945 C 24.2188 -15.8691 21.1914 -14.5996 18.75 -13.0371 C 13.7695 -18.6035 10.6445 -25.8789 10.3516 -33.8867 Z M 28.0273 -33.8867 L 42.2852 -33.8867 L 42.2852 -18.8965 C 38.0371 -18.8477 34.082 -18.3594 30.5176 -17.5781 C 29.0527 -22.3633 28.1738 -27.9297 28.0273 -33.8867 Z M 45.0195 -18.8965 L 45.0195 -33.8867 L 59.2285 -33.8867 C 59.082 -27.9297 58.2031 -22.3633 56.7383 -17.5781 C 53.1738 -18.3594 49.2188 -18.8477 45.0195 -18.8965 Z M 59.5215 -16.8945 C 61.0352 -21.7773 61.9629 -27.4902 62.0605 -33.8867 L 76.9531 -33.8867 C 76.6113 -25.8789 73.4863 -18.6035 68.5059 -12.9883 C 66.1133 -14.5508 63.0371 -15.8691 59.5215 -16.8945 Z M 45.0195 -16.1621 C 49.0234 -16.1133 52.6367 -15.7227 55.9082 -15.0391 C 53.2715 -7.86133 49.3164 -2.88086 45.0195 -2.00195 Z M 31.3477 -15.0391 C 34.6191 -15.7227 38.2812 -16.1133 42.2852 -16.1621 L 42.2852 -2.00195 C 37.9395 -2.88086 33.9844 -7.86133 31.3477 -15.0391 Z M 20.6055 -11.084 C 22.8516 -12.4512 25.4883 -13.5742 28.5645 -14.4043 C 30.4688 -9.27734 33.0078 -5.32227 35.9375 -2.73438 C 30.0781 -4.15039 24.8047 -7.08008 20.6055 -11.084 Z M 58.6914 -14.4043 C 61.7676 -13.5742 64.4043 -12.4512 66.6504 -11.084 C 62.4512 -7.03125 57.1777 -4.10156 51.3184 -2.73438 C 54.248 -5.32227 56.7871 -9.27734 58.6914 -14.4043 Z"/>
  </g>
  <g id="Ultralight-S" transform="matrix(1 0 0 1 516.547 696)">
   <path d="M 43.1641 1.17188 C 63.1348 1.17188 79.4922 -15.1855 79.4922 -35.1562 C 79.4922 -55.127 63.1348 -71.4844 43.1641 -71.4844 C 23.1934 -71.4844 6.83594 -55.127 6.83594 -35.1562 C 6.83594 -15.1855 23.1934 1.17188 43.1641 1.17188 Z M 30.3711 -55.3223 C 33.1543 -63.1348 37.4512 -68.4082 42.1387 -69.0918 L 42.1387 -54.1016 C 37.793 -54.1504 33.8379 -54.5898 30.3711 -55.3223 Z M 44.2383 -69.0918 C 48.9258 -68.4082 53.1738 -63.1348 55.957 -55.3223 C 52.4902 -54.5898 48.5352 -54.1504 44.2383 -54.1016 Z M 19.4336 -59.5215 C 24.0723 -64.0625 30.0781 -67.2852 36.7188 -68.5547 C 33.3496 -66.1133 30.3711 -61.7188 28.2227 -55.8105 C 24.8047 -56.7383 21.8262 -57.959 19.4336 -59.5215 Z M 49.6094 -68.5547 C 56.2988 -67.2852 62.2559 -64.0625 66.9434 -59.5215 C 64.502 -57.959 61.5234 -56.7383 58.1055 -55.8105 C 55.957 -61.7188 52.9785 -66.1133 49.6094 -68.5547 Z M 61.377 -36.2793 C 61.2793 -43.0176 60.3027 -48.9258 58.7402 -53.9551 C 62.5488 -54.9805 65.8203 -56.3965 68.3105 -58.0566 C 73.584 -52.2461 76.9043 -44.6777 77.1484 -36.2793 Z M 9.17969 -36.2793 C 9.47266 -44.6777 12.7441 -52.2461 18.0176 -58.0566 C 20.5566 -56.3965 23.8281 -54.9805 27.5879 -53.9551 C 26.0254 -48.9258 25.0488 -43.0176 24.9512 -36.2793 Z M 27.1484 -36.2793 C 27.2461 -42.5781 28.2227 -48.4375 29.7363 -53.418 C 33.4961 -52.5879 37.6465 -52.0996 42.1387 -52.002 L 42.1387 -36.2793 Z M 44.2383 -36.2793 L 44.2383 -52.002 C 48.6816 -52.0996 52.8809 -52.5879 56.5918 -53.418 C 58.1543 -48.4375 59.082 -42.5781 59.1797 -36.2793 Z M 9.17969 -34.2285 L 24.9512 -34.2285 C 25.0488 -27.4414 26.0254 -21.3867 27.5879 -16.3574 C 23.8281 -15.332 20.5566 -13.916 18.0176 -12.2559 C 12.6953 -18.1152 9.42383 -25.7812 9.17969 -34.2285 Z M 27.1484 -34.2285 L 42.1387 -34.2285 L 42.1387 -18.3105 C 37.6465 -18.2129 33.4961 -17.7246 29.7363 -16.8945 C 28.1738 -21.9238 27.2461 -27.832 27.1484 -34.2285 Z M 44.2383 -18.3105 L 44.2383 -34.2285 L 59.1797 -34.2285 C 59.082 -27.832 58.1543 -21.9238 56.5918 -16.8945 C 52.8809 -17.7246 48.6816 -18.2129 44.2383 -18.3105 Z M 58.7402 -16.3574 C 60.3027 -21.3867 61.2793 -27.4414 61.377 -34.2285 L 77.1973 -34.2285 C 76.9531 -25.7812 73.6328 -18.1152 68.3105 -12.2559 C 65.7715 -13.916 62.5488 -15.332 58.7402 -16.3574 Z M 44.2383 -16.2109 C 48.5352 -16.1621 52.4902 -15.7227 55.957 -14.9902 C 53.1738 -7.17773 48.9258 -1.9043 44.2383 -1.2207 Z M 30.3711 -14.9902 C 33.8379 -15.7227 37.793 -16.1621 42.1387 -16.2109 L 42.1387 -1.2207 C 37.4512 -1.9043 33.1543 -7.17773 30.3711 -14.9902 Z M 58.1055 -14.502 C 61.5234 -13.5742 64.502 -12.3535 66.8945 -10.791 C 62.2559 -6.25 56.2988 -3.02734 49.6582 -1.75781 C 52.9785 -4.24805 56.0059 -8.59375 58.1055 -14.502 Z M 19.4336 -10.791 C 21.8262 -12.3535 24.8047 -13.5742 28.2227 -14.502 C 30.3711 -8.59375 33.3496 -4.24805 36.7188 -1.75781 C 30.0781 -3.02734 24.0723 -6.25 19.4336 -10.791 Z"/>
  </g>
 </g>
</svg>
