<?xml version="1.0" encoding="UTF-8"?>
<!--Generator: Apple Native CoreSVG 123-->
<!DOCTYPE svg
PUBLIC "-//W3C//DTD SVG 1.1//EN"
       "http://www.w3.org/Graphics/SVG/1.1/DTD/svg11.dtd">
<svg version="1.1" xmlns="http://www.w3.org/2000/svg" xmlns:xlink="http://www.w3.org/1999/xlink" width="3300" height="2200">
 <!--glyph: "uni10019B.medium", point size: 100.000000, font version: "Version 15.0d7e11", template writer version: "5"-->
 <g id="Notes">
  <rect height="2200" id="artboard" style="fill:white;opacity:1" width="3300" x="0" y="0"/>
  <line id="" style="fill:none;stroke:black;opacity:1;stroke-width:0.5;" x1="263" x2="3036" y1="292" y2="292"/>
  <text style="stroke:none;fill:black;font-family:-apple-system,&quot;SF Pro Display&quot;,&quot;SF Pro Text&quot;,Helvetica,sans-serif;font-weight:bold;" transform="matrix(1 0 0 1 263 322)">Weight/Scale Variations</text>
  <text style="stroke:none;fill:black;font-family:-apple-system,&quot;SF Pro Display&quot;,&quot;SF Pro Text&quot;,Helvetica,sans-serif;text-anchor:middle;" transform="matrix(1 0 0 1 559.711 322)">Ultralight</text>
  <text style="stroke:none;fill:black;font-family:-apple-system,&quot;SF Pro Display&quot;,&quot;SF Pro Text&quot;,Helvetica,sans-serif;text-anchor:middle;" transform="matrix(1 0 0 1 856.422 322)">Thin</text>
  <text style="stroke:none;fill:black;font-family:-apple-system,&quot;SF Pro Display&quot;,&quot;SF Pro Text&quot;,Helvetica,sans-serif;text-anchor:middle;" transform="matrix(1 0 0 1 1153.13 322)">Light</text>
  <text style="stroke:none;fill:black;font-family:-apple-system,&quot;SF Pro Display&quot;,&quot;SF Pro Text&quot;,Helvetica,sans-serif;text-anchor:middle;" transform="matrix(1 0 0 1 1449.84 322)">Regular</text>
  <text style="stroke:none;fill:black;font-family:-apple-system,&quot;SF Pro Display&quot;,&quot;SF Pro Text&quot;,Helvetica,sans-serif;text-anchor:middle;" transform="matrix(1 0 0 1 1746.56 322)">Medium</text>
  <text style="stroke:none;fill:black;font-family:-apple-system,&quot;SF Pro Display&quot;,&quot;SF Pro Text&quot;,Helvetica,sans-serif;text-anchor:middle;" transform="matrix(1 0 0 1 2043.27 322)">Semibold</text>
  <text style="stroke:none;fill:black;font-family:-apple-system,&quot;SF Pro Display&quot;,&quot;SF Pro Text&quot;,Helvetica,sans-serif;text-anchor:middle;" transform="matrix(1 0 0 1 2339.98 322)">Bold</text>
  <text style="stroke:none;fill:black;font-family:-apple-system,&quot;SF Pro Display&quot;,&quot;SF Pro Text&quot;,Helvetica,sans-serif;text-anchor:middle;" transform="matrix(1 0 0 1 2636.69 322)">Heavy</text>
  <text style="stroke:none;fill:black;font-family:-apple-system,&quot;SF Pro Display&quot;,&quot;SF Pro Text&quot;,Helvetica,sans-serif;text-anchor:middle;" transform="matrix(1 0 0 1 2933.4 322)">Black</text>
  <line id="" style="fill:none;stroke:black;opacity:1;stroke-width:0.5;" x1="263" x2="3036" y1="1903" y2="1903"/>
  <g id="" transform="matrix(1 0 0 1 263 1933)">
   <path d="M 9.24805 0.830078 C 13.5547 0.830078 17.1387 -2.74414 17.1387 -7.05078 C 17.1387 -11.3574 13.5449 -14.9316 9.23828 -14.9316 C 4.94141 -14.9316 1.36719 -11.3574 1.36719 -7.05078 C 1.36719 -2.74414 4.95117 0.830078 9.24805 0.830078 Z M 9.24805 -0.654297 C 5.70312 -0.654297 2.87109 -3.49609 2.87109 -7.05078 C 2.87109 -10.6055 5.69336 -13.4473 9.23828 -13.4473 C 12.793 -13.4473 15.6348 -10.6055 15.6445 -7.05078 C 15.6543 -3.49609 12.8027 -0.654297 9.24805 -0.654297 Z M 9.22852 -3.42773 C 9.69727 -3.42773 9.9707 -3.74023 9.9707 -4.25781 L 9.9707 -6.31836 L 12.1973 -6.31836 C 12.6953 -6.31836 13.0371 -6.57227 13.0371 -7.04102 C 13.0371 -7.51953 12.7148 -7.7832 12.1973 -7.7832 L 9.9707 -7.7832 L 9.9707 -10.0098 C 9.9707 -10.5273 9.69727 -10.8496 9.22852 -10.8496 C 8.75977 -10.8496 8.50586 -10.5078 8.50586 -10.0098 L 8.50586 -7.7832 L 6.29883 -7.7832 C 5.78125 -7.7832 5.44922 -7.51953 5.44922 -7.04102 C 5.44922 -6.57227 5.80078 -6.31836 6.29883 -6.31836 L 8.50586 -6.31836 L 8.50586 -4.25781 C 8.50586 -3.75977 8.75977 -3.42773 9.22852 -3.42773 Z"/>
  </g>
  <g id="" transform="matrix(1 0 0 1 281.506 1933)">
   <path d="M 11.709 2.91016 C 17.1582 2.91016 21.6699 -1.60156 21.6699 -7.05078 C 21.6699 -12.4902 17.1484 -17.0117 11.6992 -17.0117 C 6.25977 -17.0117 1.74805 -12.4902 1.74805 -7.05078 C 1.74805 -1.60156 6.26953 2.91016 11.709 2.91016 Z M 11.709 1.25 C 7.09961 1.25 3.41797 -2.44141 3.41797 -7.05078 C 3.41797 -11.6504 7.08984 -15.3516 11.6992 -15.3516 C 16.3086 -15.3516 20 -11.6504 20.0098 -7.05078 C 20.0195 -2.44141 16.3184 1.25 11.709 1.25 Z M 11.6895 -2.41211 C 12.207 -2.41211 12.5195 -2.77344 12.5195 -3.33984 L 12.5195 -6.23047 L 15.5762 -6.23047 C 16.123 -6.23047 16.5039 -6.51367 16.5039 -7.03125 C 16.5039 -7.55859 16.1426 -7.86133 15.5762 -7.86133 L 12.5195 -7.86133 L 12.5195 -10.9277 C 12.5195 -11.5039 12.207 -11.8555 11.6895 -11.8555 C 11.1719 -11.8555 10.8789 -11.4844 10.8789 -10.9277 L 10.8789 -7.86133 L 7.83203 -7.86133 C 7.26562 -7.86133 6.89453 -7.55859 6.89453 -7.03125 C 6.89453 -6.51367 7.28516 -6.23047 7.83203 -6.23047 L 10.8789 -6.23047 L 10.8789 -3.33984 C 10.8789 -2.79297 11.1719 -2.41211 11.6895 -2.41211 Z"/>
  </g>
  <g id="" transform="matrix(1 0 0 1 304.924 1933)">
   <path d="M 14.9707 5.67383 C 21.9336 5.67383 27.6953 -0.078125 27.6953 -7.04102 C 27.6953 -14.0039 21.9238 -19.7559 14.9609 -19.7559 C 8.00781 -19.7559 2.25586 -14.0039 2.25586 -7.04102 C 2.25586 -0.078125 8.01758 5.67383 14.9707 5.67383 Z M 14.9707 3.85742 C 8.93555 3.85742 4.08203 -1.00586 4.08203 -7.04102 C 4.08203 -13.0762 8.92578 -17.9395 14.9609 -17.9395 C 21.0059 -17.9395 25.8594 -13.0762 25.8691 -7.04102 C 25.8789 -1.00586 21.0156 3.85742 14.9707 3.85742 Z M 14.9512 -1.06445 C 15.5176 -1.06445 15.8691 -1.45508 15.8691 -2.06055 L 15.8691 -6.13281 L 20.1074 -6.13281 C 20.6934 -6.13281 21.1133 -6.46484 21.1133 -7.02148 C 21.1133 -7.59766 20.7227 -7.93945 20.1074 -7.93945 L 15.8691 -7.93945 L 15.8691 -12.1875 C 15.8691 -12.8027 15.5176 -13.1934 14.9512 -13.1934 C 14.3848 -13.1934 14.0625 -12.7832 14.0625 -12.1875 L 14.0625 -7.93945 L 9.83398 -7.93945 C 9.21875 -7.93945 8.80859 -7.59766 8.80859 -7.02148 C 8.80859 -6.46484 9.23828 -6.13281 9.83398 -6.13281 L 14.0625 -6.13281 L 14.0625 -2.06055 C 14.0625 -1.47461 14.3848 -1.06445 14.9512 -1.06445 Z"/>
  </g>
  <text style="stroke:none;fill:black;font-family:-apple-system,&quot;SF Pro Display&quot;,&quot;SF Pro Text&quot;,Helvetica,sans-serif;font-weight:bold;" transform="matrix(1 0 0 1 263 1953)">Design Variations</text>
  <text style="stroke:none;fill:black;font-family:-apple-system,&quot;SF Pro Display&quot;,&quot;SF Pro Text&quot;,Helvetica,sans-serif;" transform="matrix(1 0 0 1 263 1971)">Symbols are supported in up to nine weights and three scales.</text>
  <text style="stroke:none;fill:black;font-family:-apple-system,&quot;SF Pro Display&quot;,&quot;SF Pro Text&quot;,Helvetica,sans-serif;" transform="matrix(1 0 0 1 263 1989)">For optimal layout with text and other symbols, vertically align</text>
  <text style="stroke:none;fill:black;font-family:-apple-system,&quot;SF Pro Display&quot;,&quot;SF Pro Text&quot;,Helvetica,sans-serif;" transform="matrix(1 0 0 1 263 2007)">symbols with the adjacent text.</text>
  <rect height="14" id="" style="fill:#00AEEF;stroke:none;opacity:0.4;" width="3" x="776" y="1919"/>
  <g id="" transform="matrix(1 0 0 1 779 1933)">
   <path d="M 10.5273 0 L 12.373 0 L 7.17773 -14.0918 L 5.43945 -14.0918 L 0.244141 0 L 2.08984 0 L 3.50586 -4.0332 L 9.11133 -4.0332 Z M 6.2793 -11.9531 L 6.33789 -11.9531 L 8.59375 -5.52734 L 4.02344 -5.52734 Z"/>
  </g>
  <rect height="14" id="" style="fill:#00AEEF;stroke:none;opacity:0.4;" width="3" x="791.617" y="1919"/>
  <text style="stroke:none;fill:black;font-family:-apple-system,&quot;SF Pro Display&quot;,&quot;SF Pro Text&quot;,Helvetica,sans-serif;font-weight:bold;" transform="matrix(1 0 0 1 776 1953)">Margins</text>
  <text style="stroke:none;fill:black;font-family:-apple-system,&quot;SF Pro Display&quot;,&quot;SF Pro Text&quot;,Helvetica,sans-serif;" transform="matrix(1 0 0 1 776 1971)">Leading and trailing margins on the left and right side of each symbol</text>
  <text style="stroke:none;fill:black;font-family:-apple-system,&quot;SF Pro Display&quot;,&quot;SF Pro Text&quot;,Helvetica,sans-serif;" transform="matrix(1 0 0 1 776 1989)">can be adjusted by modifying the width of the blue rectangles.</text>
  <text style="stroke:none;fill:black;font-family:-apple-system,&quot;SF Pro Display&quot;,&quot;SF Pro Text&quot;,Helvetica,sans-serif;" transform="matrix(1 0 0 1 776 2007)">Modifications are automatically applied proportionally to all</text>
  <text style="stroke:none;fill:black;font-family:-apple-system,&quot;SF Pro Display&quot;,&quot;SF Pro Text&quot;,Helvetica,sans-serif;" transform="matrix(1 0 0 1 776 2025)">scales and weights.</text>
  <g id="" transform="matrix(1 0 0 1 1289 1933)">
   <path d="M 2.83203 3.11523 L 4.375 4.6582 C 5.22461 5.48828 6.19141 5.41992 7.06055 4.46289 L 17.2754 -6.66016 C 17.7051 -6.36719 18.0957 -6.37695 18.5645 -6.47461 L 19.6094 -6.68945 L 20.3027 -5.99609 L 20.2539 -5.47852 C 20.1855 -4.95117 20.3516 -4.53125 20.8496 -4.0332 L 21.6602 -3.22266 C 22.168 -2.71484 22.8223 -2.68555 23.3008 -3.16406 L 26.5527 -6.41602 C 27.0312 -6.89453 27.0117 -7.54883 26.5039 -8.05664 L 25.6836 -8.87695 C 25.1855 -9.375 24.7754 -9.55078 24.2383 -9.47266 L 23.7109 -9.41406 L 23.0566 -10.0781 L 23.3398 -11.2207 C 23.4863 -11.7871 23.3398 -12.2559 22.7148 -12.8613 L 20.3027 -15.2539 C 16.7578 -18.7793 12.2266 -18.6719 9.11133 -15.5371 C 8.69141 -15.1074 8.64258 -14.5215 8.91602 -14.0918 C 9.15039 -13.7207 9.62891 -13.4961 10.2734 -13.6621 C 11.7871 -14.043 13.3008 -13.9258 14.7852 -12.9199 L 14.1602 -11.3379 C 13.9258 -10.752 13.9453 -10.2734 14.1797 -9.83398 L 3.01758 0.439453 C 2.08008 1.30859 1.97266 2.25586 2.83203 3.11523 Z M 10.6738 -15.1465 C 13.3398 -17.1387 16.6504 -16.8262 19.0527 -14.4141 L 21.6797 -11.8066 C 21.9141 -11.5723 21.9434 -11.3867 21.8848 -11.0938 L 21.5039 -9.53125 L 23.0762 -7.95898 L 24.043 -8.04688 C 24.3262 -8.07617 24.4141 -8.05664 24.6387 -7.83203 L 25.2637 -7.20703 L 22.5098 -4.46289 L 21.8848 -5.07812 C 21.6602 -5.30273 21.6406 -5.40039 21.6699 -5.68359 L 21.7578 -6.64062 L 20.1953 -8.20312 L 18.5742 -7.89062 C 18.291 -7.83203 18.1445 -7.83203 17.9102 -8.07617 L 15.7324 -10.2539 C 15.5078 -10.4883 15.4785 -10.625 15.6055 -10.9473 L 16.5527 -13.2227 C 14.9512 -14.7559 12.8418 -15.6055 10.8008 -14.9512 C 10.7129 -14.9219 10.6445 -14.9414 10.6152 -14.9805 C 10.5859 -15.0293 10.5859 -15.0781 10.6738 -15.1465 Z M 4.10156 2.41211 C 3.61328 1.91406 3.78906 1.61133 4.12109 1.30859 L 15.0781 -8.80859 L 16.3086 -7.57812 L 6.15234 3.34961 C 5.84961 3.68164 5.46875 3.7793 5.06836 3.37891 Z"/>
  </g>
  <text style="stroke:none;fill:black;font-family:-apple-system,&quot;SF Pro Display&quot;,&quot;SF Pro Text&quot;,Helvetica,sans-serif;font-weight:bold;" transform="matrix(1 0 0 1 1289 1953)">Exporting</text>
  <text style="stroke:none;fill:black;font-family:-apple-system,&quot;SF Pro Display&quot;,&quot;SF Pro Text&quot;,Helvetica,sans-serif;" transform="matrix(1 0 0 1 1289 1971)">Symbols should be outlined when exporting to ensure the</text>
  <text style="stroke:none;fill:black;font-family:-apple-system,&quot;SF Pro Display&quot;,&quot;SF Pro Text&quot;,Helvetica,sans-serif;" transform="matrix(1 0 0 1 1289 1989)">design is preserved when submitting to Xcode.</text>
  <text id="template-version" style="stroke:none;fill:black;font-family:-apple-system,&quot;SF Pro Display&quot;,&quot;SF Pro Text&quot;,Helvetica,sans-serif;text-anchor:end;" transform="matrix(1 0 0 1 3036 1933)">Template v.1.0</text>
  <text style="stroke:none;fill:black;font-family:-apple-system,&quot;SF Pro Display&quot;,&quot;SF Pro Text&quot;,Helvetica,sans-serif;text-anchor:end;" transform="matrix(1 0 0 1 3036 1951)">Generated from delete.left</text>
  <text style="stroke:none;fill:black;font-family:-apple-system,&quot;SF Pro Display&quot;,&quot;SF Pro Text&quot;,Helvetica,sans-serif;text-anchor:end;" transform="matrix(1 0 0 1 3036 1969)">Typeset at 100 points</text>
  <text style="stroke:none;fill:black;font-family:-apple-system,&quot;SF Pro Display&quot;,&quot;SF Pro Text&quot;,Helvetica,sans-serif;" transform="matrix(1 0 0 1 263 726)">Small</text>
  <text style="stroke:none;fill:black;font-family:-apple-system,&quot;SF Pro Display&quot;,&quot;SF Pro Text&quot;,Helvetica,sans-serif;" transform="matrix(1 0 0 1 263 1156)">Medium</text>
  <text style="stroke:none;fill:black;font-family:-apple-system,&quot;SF Pro Display&quot;,&quot;SF Pro Text&quot;,Helvetica,sans-serif;" transform="matrix(1 0 0 1 263 1586)">Large</text>
 </g>
 <g id="Guides">
  <g id="H-reference" style="fill:#27AAE1;stroke:none;" transform="matrix(1 0 0 1 339 696)">
   <path d="M 54.9316 0 L 57.666 0 L 30.5664 -70.459 L 28.0762 -70.459 L 0.976562 0 L 3.66211 0 L 12.9395 -24.4629 L 45.7031 -24.4629 Z M 29.1992 -67.0898 L 29.4434 -67.0898 L 44.8242 -26.709 L 13.8184 -26.709 Z"/>
  </g>
  <line id="Baseline-S" style="fill:none;stroke:#27AAE1;opacity:1;stroke-width:0.577;" x1="263" x2="3036" y1="696" y2="696"/>
  <line id="Capline-S" style="fill:none;stroke:#27AAE1;opacity:1;stroke-width:0.577;" x1="263" x2="3036" y1="625.541" y2="625.541"/>
  <g id="H-reference" style="fill:#27AAE1;stroke:none;" transform="matrix(1 0 0 1 339 1126)">
   <path d="M 54.9316 0 L 57.666 0 L 30.5664 -70.459 L 28.0762 -70.459 L 0.976562 0 L 3.66211 0 L 12.9395 -24.4629 L 45.7031 -24.4629 Z M 29.1992 -67.0898 L 29.4434 -67.0898 L 44.8242 -26.709 L 13.8184 -26.709 Z"/>
  </g>
  <line id="Baseline-M" style="fill:none;stroke:#27AAE1;opacity:1;stroke-width:0.577;" x1="263" x2="3036" y1="1126" y2="1126"/>
  <line id="Capline-M" style="fill:none;stroke:#27AAE1;opacity:1;stroke-width:0.577;" x1="263" x2="3036" y1="1055.54" y2="1055.54"/>
  <g id="H-reference" style="fill:#27AAE1;stroke:none;" transform="matrix(1 0 0 1 339 1556)">
   <path d="M 54.9316 0 L 57.666 0 L 30.5664 -70.459 L 28.0762 -70.459 L 0.976562 0 L 3.66211 0 L 12.9395 -24.4629 L 45.7031 -24.4629 Z M 29.1992 -67.0898 L 29.4434 -67.0898 L 44.8242 -26.709 L 13.8184 -26.709 Z"/>
  </g>
  <line id="Baseline-L" style="fill:none;stroke:#27AAE1;opacity:1;stroke-width:0.577;" x1="263" x2="3036" y1="1556" y2="1556"/>
  <line id="Capline-L" style="fill:none;stroke:#27AAE1;opacity:1;stroke-width:0.577;" x1="263" x2="3036" y1="1485.54" y2="1485.54"/>
  <rect height="119.336" id="left-margin" style="fill:#00AEEF;stroke:none;opacity:0.4;" width="9.96094" x="1385.73" y="1030.79"/>
  <rect height="119.336" id="right-margin" style="fill:#00AEEF;stroke:none;opacity:0.4;" width="12.4512" x="1501.5" y="1030.79"/>
 </g>
 <g id="Symbols">
  <g id="Black-L" transform="matrix(1 0 0 1 2848.34 1556)">
   <path d="M 130.127 26.5137 C 145.361 26.5137 154.053 20.0684 154.053 4.88281 L 154.053 -73.0957 C 154.053 -88.2812 145.361 -96.875 130.127 -96.875 L 76.3672 -96.875 C 64.2578 -96.875 58.5938 -94.1895 51.2207 -85.498 L 20.5566 -50 C 14.3066 -42.627 12.8906 -39.3555 12.8906 -35.2051 C 12.8906 -31.0059 14.4043 -27.6367 20.5566 -20.4102 L 51.2207 15.0879 C 58.6426 23.877 64.209 26.5137 76.3184 26.5137 Z M 127.441 6.29883 L 74.6582 6.29883 C 71.5332 6.29883 69.3359 5.32227 67.041 2.63672 L 36.5234 -32.4707 C 35.5957 -33.4473 35.3027 -34.375 35.3027 -35.2051 C 35.3027 -36.084 35.5957 -36.8652 36.5234 -37.8906 L 66.9922 -73.1445 C 69.2871 -75.8301 71.5332 -76.6602 74.6582 -76.6602 L 127.441 -76.6602 C 131.641 -76.6602 133.789 -74.7559 133.789 -70.2148 L 133.789 -0.146484 C 133.789 4.39453 131.641 6.29883 127.441 6.29883 Z M 113.867 -7.86133 C 118.457 -7.86133 122.217 -11.7188 122.217 -16.2598 C 122.217 -18.75 121.484 -20.5566 119.678 -22.3145 L 106.738 -35.2539 L 119.678 -48.1934 C 121.533 -49.9512 122.217 -51.8066 122.217 -54.248 C 122.217 -58.8867 118.457 -62.6953 113.867 -62.6953 C 111.475 -62.6953 109.57 -62.0605 107.812 -60.2539 L 94.8242 -47.0215 L 81.8359 -60.2539 C 80.0293 -62.0605 78.1738 -62.6953 75.7324 -62.6953 C 71.1426 -62.6953 67.3828 -58.8867 67.3828 -54.248 C 67.3828 -51.8066 68.1152 -49.9512 69.9219 -48.1934 L 82.9102 -35.2539 L 69.9219 -22.3145 C 68.1641 -20.5566 67.3828 -18.75 67.3828 -16.2598 C 67.3828 -11.7188 71.1426 -7.86133 75.7324 -7.86133 C 78.1738 -7.86133 80.0293 -8.49609 81.7871 -10.3027 L 94.8242 -23.584 L 107.812 -10.3027 C 109.57 -8.49609 111.426 -7.86133 113.867 -7.86133 Z"/>
  </g>
  <g id="Heavy-L" transform="matrix(1 0 0 1 2552.39 1556)">
   <path d="M 129.736 25.4883 C 144.385 25.4883 152.49 19.0918 152.49 4.54102 L 152.49 -73.2422 C 152.49 -87.793 144.385 -95.8496 129.736 -95.8496 L 75.8789 -95.8496 C 64.8926 -95.8496 59.1797 -93.4082 52.3438 -85.5469 L 20.0684 -49.2188 C 14.3555 -42.6758 12.8906 -39.3066 12.8906 -35.2539 C 12.8906 -31.1035 14.4531 -27.6855 20.0684 -21.1914 L 52.3926 14.9902 C 59.2285 22.9004 64.8926 25.4883 75.8301 25.4883 Z M 127.637 8.00781 L 74.5605 8.00781 C 70.9961 8.00781 68.5547 6.93359 65.9668 4.05273 L 33.8379 -31.7383 C 32.6172 -33.0566 32.2266 -34.1797 32.2266 -35.2539 C 32.2266 -36.3281 32.6172 -37.3047 33.8379 -38.6719 L 65.9668 -74.6582 C 68.5059 -77.5391 70.9961 -78.3691 74.5117 -78.3691 L 127.637 -78.3691 C 132.471 -78.3691 135.01 -76.0742 135.01 -70.9473 L 135.01 0.585938 C 135.01 5.71289 132.471 8.00781 127.637 8.00781 Z M 113.623 -8.30078 C 117.725 -8.30078 120.996 -11.7188 120.996 -15.7227 C 120.996 -17.8711 120.312 -19.4824 118.75 -21.0449 L 104.541 -35.2539 L 118.75 -49.4629 C 120.361 -51.0254 120.996 -52.6855 120.996 -54.7852 C 120.996 -58.8867 117.676 -62.2559 113.623 -62.2559 C 111.523 -62.2559 109.863 -61.6699 108.301 -60.0586 L 94.043 -45.6055 L 79.7852 -60.0586 C 78.2227 -61.6699 76.5625 -62.2559 74.4629 -62.2559 C 70.4102 -62.2559 67.0898 -58.8867 67.0898 -54.7852 C 67.0898 -52.6855 67.7246 -51.0254 69.2871 -49.4629 L 83.5449 -35.2539 L 69.2871 -21.0449 C 67.7734 -19.4824 67.0898 -17.8711 67.0898 -15.7227 C 67.0898 -11.7188 70.3613 -8.30078 74.4629 -8.30078 C 76.5625 -8.30078 78.2227 -8.88672 79.7363 -10.4492 L 94.043 -24.9512 L 108.35 -10.4492 C 109.863 -8.88672 111.523 -8.30078 113.623 -8.30078 Z"/>
  </g>
  <g id="Bold-L" transform="matrix(1 0 0 1 2256.55 1556)">
   <path d="M 129.297 24.3652 C 143.213 24.3652 150.781 17.9688 150.781 4.15039 L 150.781 -73.3887 C 150.781 -87.2559 143.213 -94.7266 129.297 -94.7266 L 75.293 -94.7266 C 65.625 -94.7266 59.8145 -92.5293 53.6621 -85.5469 L 19.5312 -48.3887 C 14.4531 -42.6758 12.8906 -39.2578 12.8906 -35.2539 C 12.8906 -31.2012 14.502 -27.7344 19.5312 -22.0703 L 53.6621 14.8438 C 59.9121 21.8262 65.625 24.3164 75.293 24.3164 Z M 127.881 9.91211 L 74.4141 9.91211 C 70.4102 9.91211 67.6758 8.78906 64.7949 5.66406 L 30.8594 -30.957 C 29.2969 -32.6172 28.7598 -33.8867 28.7598 -35.2539 C 28.7598 -36.6211 29.3457 -37.8418 30.8594 -39.502 L 64.7949 -76.3672 C 67.627 -79.4922 70.4102 -80.2734 74.3652 -80.2734 L 127.881 -80.2734 C 133.398 -80.2734 136.328 -77.5391 136.328 -71.7285 L 136.328 1.41602 C 136.328 7.17773 133.398 9.91211 127.881 9.91211 Z M 113.379 -8.78906 C 116.846 -8.78906 119.629 -11.6699 119.629 -15.0879 C 119.629 -16.8457 119.043 -18.2617 117.725 -19.5801 L 102.051 -35.2539 L 117.725 -50.9277 C 119.043 -52.1973 119.629 -53.6133 119.629 -55.4199 C 119.629 -58.8867 116.797 -61.7188 113.379 -61.7188 C 111.621 -61.7188 110.156 -61.1816 108.887 -59.8633 L 93.1641 -44.043 L 77.4414 -59.8633 C 76.1719 -61.1816 74.7559 -61.7188 72.998 -61.7188 C 69.5801 -61.7188 66.6992 -58.8867 66.6992 -55.4199 C 66.6992 -53.6133 67.2852 -52.1973 68.6035 -50.9277 L 84.2773 -35.2539 L 68.6035 -19.5801 C 67.334 -18.2617 66.6992 -16.8457 66.6992 -15.0879 C 66.6992 -11.6699 69.5312 -8.78906 72.998 -8.78906 C 74.7559 -8.78906 76.1719 -9.32617 77.4414 -10.5957 L 93.1641 -26.5137 L 108.936 -10.5957 C 110.156 -9.32617 111.572 -8.78906 113.379 -8.78906 Z"/>
  </g>
  <g id="Semibold-L" transform="matrix(1 0 0 1 1960.43 1556)">
   <path d="M 129.004 23.584 C 142.432 23.584 149.561 17.2363 149.561 3.85742 L 149.561 -73.5352 C 149.561 -86.8652 142.432 -93.9453 129.004 -93.9453 L 74.9023 -93.9453 C 66.1621 -93.9453 60.3027 -91.8945 54.541 -85.5469 L 19.1895 -47.8027 C 14.502 -42.7246 12.8906 -39.209 12.8906 -35.2539 C 12.8906 -31.2988 14.502 -27.7344 19.1895 -22.6562 L 54.5898 14.7949 C 60.3516 21.0938 66.1621 23.5352 74.9512 23.5352 Z M 128.027 11.2793 L 74.3164 11.2793 C 69.9707 11.2793 67.0898 10.0098 64.0137 6.78711 L 28.8086 -30.4199 C 27.002 -32.3242 26.416 -33.7402 26.416 -35.2539 C 26.416 -36.8164 27.0508 -38.1836 28.8086 -40.0879 L 63.9648 -77.5879 C 66.9922 -80.8105 69.9707 -81.5918 74.2676 -81.5918 L 128.027 -81.5918 C 134.033 -81.5918 137.256 -78.5156 137.256 -72.3145 L 137.256 1.95312 C 137.256 8.20312 134.033 11.2793 128.027 11.2793 Z M 113.184 -9.13086 C 116.26 -9.13086 118.701 -11.6699 118.701 -14.6484 C 118.701 -16.1621 118.164 -17.4316 117.041 -18.5547 L 100.342 -35.2051 L 117.041 -51.9043 C 118.164 -53.0273 118.701 -54.2969 118.701 -55.8105 C 118.701 -58.8867 116.211 -61.377 113.184 -61.377 C 111.67 -61.377 110.4 -60.8887 109.277 -59.7168 L 92.5781 -42.9688 L 75.8789 -59.7168 C 74.7559 -60.8887 73.4863 -61.377 71.9727 -61.377 C 68.9941 -61.377 66.4551 -58.8867 66.4551 -55.8105 C 66.4551 -54.2969 66.9922 -53.0273 68.1152 -51.9043 L 84.8145 -35.2051 L 68.1152 -18.5547 C 66.9922 -17.4316 66.4551 -16.1621 66.4551 -14.6484 C 66.4551 -11.6211 68.8965 -9.13086 71.9727 -9.13086 C 73.5352 -9.13086 74.8047 -9.66797 75.8301 -10.7422 L 92.5781 -27.5879 L 109.326 -10.7422 C 110.4 -9.61914 111.621 -9.13086 113.184 -9.13086 Z"/>
  </g>
  <g id="Medium-L" transform="matrix(1 0 0 1 1664.18 1556)">
   <path d="M 128.76 22.998 C 141.846 22.998 148.682 16.6504 148.682 3.66211 L 148.682 -73.6328 C 148.682 -86.5723 141.846 -93.3105 128.76 -93.3105 L 74.6582 -93.3105 C 66.5527 -93.3105 60.6445 -91.4062 55.2246 -85.5957 L 18.8965 -47.4121 C 14.5508 -42.7734 12.8906 -39.209 12.8906 -35.3027 C 12.8906 -31.3477 14.5508 -27.7832 18.8965 -23.1445 L 55.2734 14.6973 C 60.6934 20.5078 66.5527 22.9492 74.6582 22.9492 Z M 128.174 12.2559 L 74.2676 12.2559 C 69.6777 12.2559 66.6504 10.9863 63.3789 7.61719 L 27.2949 -29.9805 C 25.2441 -32.0801 24.6094 -33.5938 24.6094 -35.3027 C 24.6094 -36.9629 25.3418 -38.4766 27.2949 -40.5273 L 63.3301 -78.4668 C 66.5527 -81.8359 69.6777 -82.6172 74.2188 -82.6172 L 128.174 -82.6172 C 134.521 -82.6172 137.939 -79.2969 137.939 -72.7051 L 137.939 2.39258 C 137.939 8.98438 134.521 12.2559 128.174 12.2559 Z M 113.037 -9.42383 C 115.771 -9.42383 117.969 -11.6699 117.969 -14.3066 C 117.969 -15.6738 117.48 -16.7969 116.504 -17.7734 L 99.0723 -35.2051 L 116.504 -52.6855 C 117.48 -53.6621 117.969 -54.7852 117.969 -56.1523 C 117.969 -58.8867 115.771 -61.1328 113.037 -61.1328 C 111.719 -61.1328 110.547 -60.6445 109.57 -59.6191 L 92.1387 -42.1387 L 74.6582 -59.6191 C 73.6816 -60.6445 72.5586 -61.1328 71.1914 -61.1328 C 68.5547 -61.1328 66.2598 -58.8867 66.2598 -56.1523 C 66.2598 -54.7852 66.7969 -53.6621 67.7734 -52.6855 L 85.2051 -35.2051 L 67.7734 -17.7734 C 66.7969 -16.7969 66.2598 -15.6738 66.2598 -14.3066 C 66.2598 -11.6211 68.457 -9.42383 71.1914 -9.42383 C 72.6074 -9.42383 73.7305 -9.86328 74.6094 -10.791 L 92.1387 -28.3691 L 109.619 -10.791 C 110.547 -9.86328 111.67 -9.42383 113.037 -9.42383 Z"/>
  </g>
  <g id="Regular-L" transform="matrix(1 0 0 1 1368.06 1556)">
   <path d="M 128.467 22.2168 C 141.064 22.2168 147.51 15.918 147.51 3.41797 L 147.51 -73.7305 C 147.51 -86.2305 141.064 -92.5293 128.467 -92.5293 L 74.2676 -92.5293 C 67.041 -92.5293 61.084 -90.8203 56.1035 -85.5957 L 18.5547 -46.8262 C 14.5996 -42.7734 12.8906 -39.1602 12.8906 -35.3027 C 12.8906 -31.4453 14.5508 -27.7832 18.5547 -23.7305 L 56.1523 14.5996 C 61.1328 19.7754 67.0898 22.168 74.3164 22.168 Z M 128.32 13.5742 L 74.1699 13.5742 C 69.2871 13.5742 66.0156 12.207 62.5977 8.69141 L 25.2441 -29.4434 C 22.998 -31.7871 22.2656 -33.4473 22.2656 -35.3027 C 22.2656 -37.1582 23.0469 -38.8184 25.2441 -41.1133 L 62.5488 -79.6387 C 65.918 -83.1543 69.2871 -83.8867 74.1211 -83.8867 L 128.32 -83.8867 C 135.107 -83.8867 138.818 -80.2734 138.818 -73.291 L 138.818 2.97852 C 138.818 9.96094 135.107 13.5742 128.32 13.5742 Z M 112.891 -9.76562 C 115.186 -9.76562 117.041 -11.6211 117.041 -13.8672 C 117.041 -14.9902 116.602 -15.9668 115.771 -16.7969 L 97.4121 -35.2051 L 115.771 -53.6621 C 116.602 -54.4434 117.041 -55.4688 117.041 -56.543 C 117.041 -58.8867 115.186 -60.791 112.891 -60.791 C 111.768 -60.791 110.791 -60.3027 109.961 -59.5215 L 91.5527 -41.0645 L 73.0957 -59.5215 C 72.3145 -60.3027 71.3379 -60.791 70.2148 -60.791 C 67.9688 -60.791 66.0156 -58.8867 66.0156 -56.543 C 66.0156 -55.4688 66.5039 -54.4434 67.2852 -53.6621 L 85.6934 -35.2051 L 67.2852 -16.7969 C 66.5039 -15.9668 66.0156 -14.9902 66.0156 -13.8672 C 66.0156 -11.6211 67.8711 -9.76562 70.2148 -9.76562 C 71.3867 -9.76562 72.3145 -10.2051 73.0469 -10.9375 L 91.5527 -29.4434 L 110.01 -10.9375 C 110.791 -10.1562 111.719 -9.76562 112.891 -9.76562 Z"/>
  </g>
  <g id="Light-L" transform="matrix(1 0 0 1 1072.64 1556)">
   <path d="M 126.904 21.4355 C 138.77 21.4355 144.922 15.3809 144.922 3.56445 L 144.922 -73.8281 C 144.922 -85.6445 138.77 -91.6992 126.904 -91.6992 L 73.4863 -91.6992 C 66.4551 -91.6992 60.9863 -90.2344 56.25 -85.3027 L 18.1152 -46.2402 C 14.4531 -42.4805 12.8906 -39.1113 12.8906 -35.3027 C 12.8906 -31.543 14.4043 -28.125 18.1152 -24.3652 L 56.2988 14.0137 C 61.084 18.8477 66.5039 21.3867 73.4863 21.3867 Z M 126.758 14.7949 L 73.3887 14.7949 C 68.3105 14.7949 64.7949 13.1348 61.1816 9.47266 L 23.2422 -28.7598 C 20.8496 -31.2012 20.0195 -33.1055 20.0195 -35.3027 C 20.0195 -37.5 20.8984 -39.3555 23.2422 -41.7969 L 61.1328 -80.7129 C 64.7461 -84.375 68.3105 -85.0586 73.3887 -85.0586 L 126.758 -85.0586 C 134.277 -85.0586 138.281 -81.1523 138.281 -73.4863 L 138.281 3.22266 C 138.281 10.8398 134.277 14.7949 126.758 14.7949 Z M 111.816 -10.3027 C 113.574 -10.3027 115.039 -11.7676 115.039 -13.4766 C 115.039 -14.3555 114.697 -15.0879 114.062 -15.7227 L 94.6289 -35.1562 L 114.062 -54.6387 C 114.697 -55.2734 115.039 -56.0059 115.039 -56.8359 C 115.039 -58.6914 113.623 -60.1074 111.816 -60.1074 C 110.986 -60.1074 110.205 -59.7656 109.57 -59.1309 L 90.1367 -39.6973 L 70.6543 -59.1309 C 70.0195 -59.7656 69.3359 -60.1074 68.4082 -60.1074 C 66.748 -60.1074 65.2344 -58.6426 65.2344 -56.8359 C 65.2344 -56.0059 65.5762 -55.2734 66.2109 -54.6387 L 85.5957 -35.1562 L 66.2109 -15.7227 C 65.5762 -15.0879 65.2344 -14.3555 65.2344 -13.4766 C 65.2344 -11.7188 66.6504 -10.3027 68.4082 -10.3027 C 69.3359 -10.3027 70.0684 -10.6445 70.6543 -11.2305 L 90.1367 -30.7129 L 109.619 -11.2305 C 110.205 -10.5957 110.938 -10.3027 111.816 -10.3027 Z"/>
  </g>
  <g id="Thin-L" transform="matrix(1 0 0 1 777.638 1556)">
   <path d="M 124.854 20.3613 C 135.742 20.3613 141.504 14.6484 141.504 3.75977 L 141.504 -73.9746 C 141.504 -84.8633 135.742 -90.5762 124.854 -90.5762 L 72.4121 -90.5762 C 65.6738 -90.5762 60.8887 -89.4531 56.4941 -84.9121 L 17.5781 -45.459 C 14.209 -42.041 12.8906 -39.0137 12.8906 -35.3516 C 12.8906 -31.6895 14.1602 -28.5645 17.5781 -25.1465 L 56.4941 13.1836 C 60.9863 17.627 65.6738 20.3613 72.4121 20.3613 Z M 124.707 16.4062 L 72.4121 16.4062 C 67.0898 16.4062 63.1836 14.3555 59.2773 10.4492 L 20.5566 -27.8809 C 17.9688 -30.4688 17.041 -32.666 17.041 -35.3516 C 17.041 -37.9395 18.0664 -40.1367 20.5566 -42.7246 L 59.2773 -82.1777 C 63.1348 -86.0352 67.0898 -86.6699 72.4121 -86.6699 L 124.707 -86.6699 C 133.154 -86.6699 137.549 -82.2754 137.549 -73.7793 L 137.549 3.56445 C 137.549 12.0117 133.154 16.4062 124.707 16.4062 Z M 110.4 -11.0352 C 111.475 -11.0352 112.354 -11.9629 112.354 -12.9883 C 112.354 -13.5254 112.158 -13.9648 111.768 -14.3066 L 90.9668 -35.1074 L 111.768 -55.9082 C 112.158 -56.2988 112.354 -56.7871 112.354 -57.2754 C 112.354 -58.3984 111.523 -59.2285 110.4 -59.2285 C 109.912 -59.2285 109.424 -59.0332 109.033 -58.6426 L 88.2324 -37.8418 L 67.4316 -58.6426 C 67.041 -59.0332 66.6504 -59.2285 66.0645 -59.2285 C 65.0879 -59.2285 64.1602 -58.3496 64.1602 -57.2754 C 64.1602 -56.7871 64.3555 -56.2988 64.7461 -55.9082 L 85.498 -35.1074 L 64.7461 -14.3066 C 64.3555 -13.9648 64.1602 -13.5254 64.1602 -12.9883 C 64.1602 -11.9141 64.9902 -11.0352 66.0645 -11.0352 C 66.6504 -11.0352 67.1387 -11.2793 67.4316 -11.6211 L 88.2324 -32.4219 L 109.033 -11.6211 C 109.424 -11.2305 109.912 -11.0352 110.4 -11.0352 Z"/>
  </g>
  <g id="Ultralight-L" transform="matrix(1 0 0 1 481.806 1556)">
   <path d="M 123.828 19.7754 C 134.18 19.7754 139.746 14.2578 139.746 3.85742 L 139.746 -74.0723 C 139.746 -84.4727 134.18 -89.9902 123.828 -89.9902 L 71.875 -89.9902 C 65.2832 -89.9902 60.8398 -89.0137 56.5918 -84.7168 L 17.334 -45.0684 C 14.1113 -41.8457 12.8906 -38.9648 12.8906 -35.3516 C 12.8906 -31.7871 14.0137 -28.7598 17.334 -25.5859 L 56.5918 12.793 C 60.9375 17.041 65.2832 19.7754 71.875 19.7754 Z M 123.682 17.2363 L 71.875 17.2363 C 66.4551 17.2363 62.3047 14.9902 58.3008 10.9863 L 19.1895 -27.3926 C 16.5039 -30.0781 15.5273 -32.4219 15.5273 -35.3516 C 15.5273 -38.1836 16.6016 -40.5273 19.1895 -43.2129 L 58.3496 -82.9102 C 62.3535 -86.9141 66.4551 -87.4512 71.875 -87.4512 L 123.682 -87.4512 C 132.568 -87.4512 137.158 -82.8125 137.158 -73.9258 L 137.158 3.75977 C 137.158 12.6465 132.568 17.2363 123.682 17.2363 Z M 109.668 -11.4258 C 110.352 -11.4258 110.938 -12.0605 110.938 -12.6953 C 110.938 -13.0859 110.84 -13.3301 110.596 -13.623 L 89.0625 -35.1074 L 110.596 -56.5918 C 110.84 -56.8359 110.938 -57.1777 110.938 -57.4707 C 110.938 -58.3008 110.449 -58.7891 109.668 -58.7891 C 109.326 -58.7891 109.033 -58.6426 108.74 -58.3984 L 87.2559 -36.9141 L 65.7715 -58.3984 C 65.5273 -58.6426 65.2832 -58.7891 64.8926 -58.7891 C 64.2578 -58.7891 63.5742 -58.2031 63.5742 -57.4707 C 63.5742 -57.1777 63.7207 -56.8359 63.9648 -56.5918 L 85.4492 -35.1074 L 63.9648 -13.623 C 63.7207 -13.3301 63.5742 -13.0859 63.5742 -12.6953 C 63.5742 -12.0117 64.1602 -11.4258 64.8926 -11.4258 C 65.2832 -11.4258 65.625 -11.6211 65.7715 -11.8164 L 87.2559 -33.252 L 108.74 -11.8164 C 109.033 -11.5234 109.375 -11.4258 109.668 -11.4258 Z"/>
  </g>
  <g id="Black-M" transform="matrix(1 0 0 1 2867.12 1126)">
   <path d="M 100.586 13.5742 C 112.842 13.5742 120.117 8.64258 120.117 -3.61328 L 120.117 -64.4043 C 120.117 -76.6602 112.842 -83.9355 100.586 -83.9355 L 59.4238 -83.9355 C 48.584 -83.9355 44.5312 -81.6895 38.2324 -74.0234 L 16.3574 -47.3633 C 10.8887 -40.7227 9.96094 -38.4277 9.96094 -35.2051 C 9.96094 -31.8848 11.0352 -29.4922 16.3574 -22.998 L 38.1836 3.61328 C 44.6289 11.377 48.5352 13.5742 59.3262 13.5742 Z M 97.6562 -4.73633 L 57.6172 -4.73633 C 55.6641 -4.73633 54.1504 -5.46875 52.5879 -7.42188 L 30.8105 -33.6914 C 30.4688 -34.082 30.2734 -34.7168 30.2734 -35.2051 C 30.2734 -35.7422 30.4199 -36.1816 30.8105 -36.6211 L 52.5879 -63.1348 C 54.1504 -65.0391 55.6641 -65.6738 57.6172 -65.6738 L 97.6562 -65.6738 C 100.439 -65.6738 101.807 -64.5508 101.807 -61.4746 L 101.807 -8.88672 C 101.807 -5.81055 100.439 -4.73633 97.6562 -4.73633 Z M 87.9883 -13.7207 C 91.9922 -13.7207 95.2637 -17.1387 95.2637 -21.0938 C 95.2637 -23.291 94.6289 -24.8535 93.0664 -26.4648 L 84.1797 -35.2539 L 93.0664 -44.0918 C 94.7266 -45.6543 95.2637 -47.2168 95.2637 -49.4141 C 95.2637 -53.4668 91.9922 -56.7871 87.9883 -56.7871 C 85.8398 -56.7871 84.2285 -56.2988 82.6172 -54.6387 L 73.7305 -45.5078 L 64.8926 -54.6387 C 63.2812 -56.2988 61.6699 -56.7871 59.5215 -56.7871 C 55.5176 -56.7871 52.2461 -53.4668 52.2461 -49.4141 C 52.2461 -47.2168 52.7832 -45.6543 54.4434 -44.0918 L 63.3301 -35.2539 L 54.4434 -26.4648 C 52.832 -24.8535 52.2461 -23.291 52.2461 -21.0938 C 52.2461 -17.1387 55.5176 -13.7207 59.5215 -13.7207 C 61.6699 -13.7207 63.2812 -14.2578 64.8926 -15.8691 L 73.7305 -25 L 82.6172 -15.8691 C 84.2285 -14.2578 85.8398 -13.7207 87.9883 -13.7207 Z"/>
  </g>
  <g id="Heavy-M" transform="matrix(1 0 0 1 2570.92 1126)">
   <path d="M 100.537 12.6465 C 112.305 12.6465 119.092 7.71484 119.092 -4.05273 L 119.092 -64.5508 C 119.092 -76.3184 112.305 -83.0566 100.537 -83.0566 L 59.082 -83.0566 C 49.4629 -83.0566 45.2148 -80.957 39.4043 -74.1211 L 15.9668 -46.6797 C 11.0352 -40.8691 9.96094 -38.4277 9.96094 -35.2051 C 9.96094 -31.9824 11.084 -29.4434 15.9668 -23.6816 L 39.4531 3.66211 C 45.2637 10.5469 49.4141 12.6465 59.0332 12.6465 Z M 98.291 -3.17383 L 57.7148 -3.17383 C 55.3223 -3.17383 53.6133 -3.95508 51.8066 -6.05469 L 28.418 -33.1055 C 27.7832 -33.7891 27.4902 -34.5703 27.4902 -35.2051 C 27.4902 -35.9375 27.7344 -36.5234 28.418 -37.3047 L 51.8066 -64.502 C 53.5645 -66.6016 55.3223 -67.2363 57.666 -67.2363 L 98.291 -67.2363 C 101.562 -67.2363 103.271 -65.7715 103.271 -62.207 L 103.271 -8.1543 C 103.271 -4.63867 101.562 -3.17383 98.291 -3.17383 Z M 87.9883 -14.0625 C 91.6016 -14.0625 94.4824 -17.0898 94.4824 -20.5566 C 94.4824 -22.5098 93.8965 -23.9258 92.5293 -25.293 L 82.5195 -35.2539 L 92.5293 -45.2148 C 93.9453 -46.582 94.4824 -47.998 94.4824 -49.9512 C 94.4824 -53.5156 91.5527 -56.4453 87.9883 -56.4453 C 86.1328 -56.4453 84.668 -55.957 83.3008 -54.541 L 73.291 -44.3359 L 63.2812 -54.541 C 61.8652 -55.957 60.4492 -56.4453 58.5449 -56.4453 C 54.9805 -56.4453 52.0996 -53.5156 52.0996 -49.9512 C 52.0996 -47.998 52.6367 -46.582 54.0527 -45.2148 L 64.0625 -35.2539 L 54.0527 -25.293 C 52.6855 -23.9258 52.0996 -22.5098 52.0996 -20.5566 C 52.0996 -17.041 54.9805 -14.0625 58.5449 -14.0625 C 60.4492 -14.0625 61.8652 -14.5508 63.2324 -15.9668 L 73.291 -26.1719 L 83.3008 -15.9668 C 84.668 -14.5508 86.1328 -14.0625 87.9883 -14.0625 Z"/>
  </g>
  <g id="Bold-M" transform="matrix(1 0 0 1 2274.77 1126)">
   <path d="M 100.488 11.6699 C 111.719 11.6699 117.92 6.68945 117.92 -4.49219 L 117.92 -64.6973 C 117.92 -75.8789 111.719 -82.0312 100.488 -82.0312 L 58.6914 -82.0312 C 50.4395 -82.0312 45.9473 -80.1758 40.7715 -74.2188 L 15.4785 -45.9473 C 11.1328 -41.0156 9.96094 -38.3789 9.96094 -35.2539 C 9.96094 -32.0801 11.2305 -29.3945 15.4785 -24.4629 L 40.8203 3.66211 C 46.0449 9.66797 50.4395 11.6211 58.6914 11.6211 Z M 98.9746 -1.41602 L 57.7637 -1.41602 C 54.9316 -1.41602 53.0273 -2.24609 50.9766 -4.49219 L 25.7812 -32.4219 C 24.7559 -33.4961 24.4141 -34.375 24.4141 -35.2539 C 24.4141 -36.1328 24.7559 -36.9141 25.7812 -38.0371 L 50.9277 -66.0645 C 52.9785 -68.3594 54.9316 -68.9453 57.7637 -68.9453 L 98.9746 -68.9453 C 102.832 -68.9453 104.883 -67.1387 104.883 -63.0371 L 104.883 -7.32422 C 104.883 -3.27148 102.832 -1.41602 98.9746 -1.41602 Z M 88.0371 -14.4531 C 91.1133 -14.4531 93.5547 -16.9922 93.5547 -20.0195 C 93.5547 -21.582 93.0664 -22.8516 91.8945 -23.9746 L 80.6152 -35.2539 L 91.8945 -46.4844 C 93.0664 -47.6562 93.5547 -48.877 93.5547 -50.4883 C 93.5547 -53.5645 91.0645 -56.1035 88.0371 -56.1035 C 86.4746 -56.1035 85.2051 -55.6152 84.0332 -54.4434 L 72.7539 -43.0176 L 61.4746 -54.4434 C 60.3027 -55.6152 59.0332 -56.1035 57.4707 -56.1035 C 54.4434 -56.1035 51.9531 -53.5645 51.9531 -50.4883 C 51.9531 -48.877 52.4414 -47.6562 53.6133 -46.4844 L 64.8926 -35.2539 L 53.6133 -23.9746 C 52.4414 -22.8516 51.9531 -21.582 51.9531 -20.0195 C 51.9531 -16.9922 54.3945 -14.4531 57.4707 -14.4531 C 59.082 -14.4531 60.3027 -14.8926 61.4258 -16.0645 L 72.7539 -27.4902 L 84.082 -16.0645 C 85.2051 -14.8926 86.4258 -14.4531 88.0371 -14.4531 Z"/>
  </g>
  <g id="Semibold-M" transform="matrix(1 0 0 1 1978.47 1126)">
   <path d="M 100.488 10.9863 C 111.328 10.9863 117.139 5.95703 117.139 -4.78516 L 117.139 -64.8438 C 117.139 -75.5859 111.328 -81.3477 100.488 -81.3477 L 58.4473 -81.3477 C 51.123 -81.3477 46.4844 -79.5898 41.748 -74.3164 L 15.1367 -45.459 C 11.2305 -41.1133 9.96094 -38.3789 9.96094 -35.2539 C 9.96094 -32.1289 11.2793 -29.3457 15.1367 -25.0488 L 41.748 3.71094 C 46.5332 9.0332 51.123 10.9375 58.4473 10.9375 Z M 99.4629 -0.195312 L 57.8125 -0.195312 C 54.6875 -0.195312 52.5879 -1.07422 50.3418 -3.4668 L 23.9258 -31.9336 C 22.6562 -33.252 22.2656 -34.2285 22.2656 -35.2539 C 22.2656 -36.2793 22.7051 -37.207 23.9258 -38.5254 L 50.3418 -67.1387 C 52.5391 -69.5312 54.6875 -70.166 57.7637 -70.166 L 99.4629 -70.166 C 103.711 -70.166 105.957 -68.0664 105.957 -63.623 L 105.957 -6.78711 C 105.957 -2.34375 103.711 -0.195312 99.4629 -0.195312 Z M 88.0371 -14.6973 C 90.7715 -14.6973 92.9688 -16.9434 92.9688 -19.5801 C 92.9688 -20.9961 92.4805 -22.0703 91.4551 -23.0957 L 79.3457 -35.2539 L 91.4551 -47.4121 C 92.4805 -48.3887 92.9688 -49.5117 92.9688 -50.8789 C 92.9688 -53.6133 90.7227 -55.8594 88.0371 -55.8594 C 86.7188 -55.8594 85.5469 -55.4199 84.5703 -54.3945 L 72.4121 -42.1387 L 60.2051 -54.3945 C 59.2285 -55.4199 58.1055 -55.8594 56.7383 -55.8594 C 54.0527 -55.8594 51.8066 -53.6133 51.8066 -50.8789 C 51.8066 -49.5117 52.2949 -48.3887 53.3203 -47.4121 L 65.4297 -35.2539 L 53.3203 -23.0957 C 52.2949 -22.0703 51.8066 -20.9961 51.8066 -19.5801 C 51.8066 -16.9434 54.0039 -14.6973 56.7383 -14.6973 C 58.1055 -14.6973 59.2285 -15.1367 60.2051 -16.1133 L 72.4121 -28.418 L 84.5703 -16.1133 C 85.5469 -15.1367 86.6699 -14.6973 88.0371 -14.6973 Z"/>
  </g>
  <g id="Medium-M" transform="matrix(1 0 0 1 1682.05 1126)">
   <path d="M 100.488 10.4492 C 111.035 10.4492 116.553 5.41992 116.553 -5.0293 L 116.553 -64.8926 C 116.553 -75.3906 111.035 -80.8105 100.488 -80.8105 L 58.252 -80.8105 C 51.6113 -80.8105 46.875 -79.1992 42.4316 -74.3652 L 14.8926 -45.0684 C 11.3281 -41.1621 9.96094 -38.3301 9.96094 -35.2539 C 9.96094 -32.1777 11.3281 -29.2969 14.8926 -25.4395 L 42.4805 3.71094 C 46.9238 8.54492 51.6602 10.4004 58.3008 10.4004 Z M 99.8535 0.732422 L 57.8613 0.732422 C 54.4922 0.732422 52.2949 -0.146484 49.9023 -2.63672 L 22.5098 -31.5918 C 21.0938 -33.1055 20.6543 -34.1309 20.6543 -35.2539 C 20.6543 -36.377 21.1426 -37.4023 22.5098 -38.916 L 49.8535 -67.9688 C 52.1973 -70.459 54.4922 -71.0938 57.8125 -71.0938 L 99.8535 -71.0938 C 104.346 -71.0938 106.836 -68.75 106.836 -64.0137 L 106.836 -6.34766 C 106.836 -1.61133 104.346 0.732422 99.8535 0.732422 Z M 88.0859 -14.8926 C 90.5273 -14.8926 92.4805 -16.8945 92.4805 -19.2871 C 92.4805 -20.5078 92.041 -21.5332 91.1621 -22.4121 L 78.3691 -35.2539 L 91.1621 -48.0469 C 92.041 -48.9746 92.4805 -49.9512 92.4805 -51.1719 C 92.4805 -53.6621 90.4785 -55.6641 88.0859 -55.6641 C 86.8652 -55.6641 85.8398 -55.2246 84.9609 -54.2969 L 72.1191 -41.4551 L 59.2773 -54.2969 C 58.3984 -55.2246 57.373 -55.6641 56.1523 -55.6641 C 53.7598 -55.6641 51.7578 -53.6133 51.7578 -51.1719 C 51.7578 -49.9512 52.1973 -48.9746 53.0762 -48.0469 L 65.8691 -35.2539 L 53.0762 -22.4121 C 52.1973 -21.5332 51.7578 -20.5078 51.7578 -19.2871 C 51.7578 -16.8945 53.7109 -14.8926 56.1523 -14.8926 C 57.4219 -14.8926 58.3984 -15.332 59.2285 -16.1621 L 72.1191 -29.1016 L 85.0098 -16.1621 C 85.8398 -15.2832 86.8164 -14.8926 88.0859 -14.8926 Z"/>
  </g>
  <g id="Regular-M" transform="matrix(1 0 0 1 1385.73 1126)">
   <path d="M 100.439 9.76562 C 110.645 9.76562 115.771 4.73633 115.771 -5.37109 L 115.771 -64.9902 C 115.771 -75.0977 110.645 -80.127 100.439 -80.127 L 58.0078 -80.127 C 52.2949 -80.127 47.3633 -78.6621 43.3594 -74.4141 L 14.5996 -44.5312 C 11.4258 -41.2598 9.96094 -38.3301 9.96094 -35.2539 C 9.96094 -32.2266 11.377 -29.248 14.5996 -25.9766 L 43.4082 3.75977 C 47.4609 7.95898 52.3438 9.7168 58.0566 9.7168 Z M 100.342 1.9043 L 57.9102 1.9043 C 54.1992 1.9043 51.9043 1.02539 49.3164 -1.61133 L 20.7031 -31.1523 C 19.043 -32.8613 18.5547 -34.0332 18.5547 -35.2539 C 18.5547 -36.5234 19.0918 -37.6953 20.7031 -39.4043 L 49.2676 -69.043 C 51.8066 -71.6309 54.1992 -72.2656 57.8613 -72.2656 L 100.342 -72.2656 C 105.225 -72.2656 107.91 -69.6777 107.91 -64.5996 L 107.91 -5.76172 C 107.91 -0.683594 105.225 1.9043 100.342 1.9043 Z M 88.0859 -15.1855 C 90.1855 -15.1855 91.8945 -16.8457 91.8945 -18.8965 C 91.8945 -19.9219 91.4551 -20.8008 90.7227 -21.5332 L 77.0508 -35.2539 L 90.7227 -48.9258 C 91.4551 -49.6582 91.8945 -50.5859 91.8945 -51.5625 C 91.8945 -53.6621 90.1367 -55.4199 88.0859 -55.4199 C 87.1094 -55.4199 86.1816 -54.9805 85.4492 -54.248 L 71.7773 -40.5273 L 58.0566 -54.248 C 57.3242 -54.9805 56.4453 -55.4199 55.4199 -55.4199 C 53.3691 -55.4199 51.6113 -53.6621 51.6113 -51.5625 C 51.6113 -50.5859 52.0508 -49.6582 52.7832 -48.9258 L 66.4551 -35.2539 L 52.7832 -21.5332 C 52.0508 -20.8008 51.6113 -19.9219 51.6113 -18.8965 C 51.6113 -16.8457 53.3203 -15.1855 55.4199 -15.1855 C 56.4941 -15.1855 57.3242 -15.5273 58.0078 -16.2109 L 71.7773 -30.0293 L 85.498 -16.2109 C 86.1816 -15.5273 87.0605 -15.1855 88.0859 -15.1855 Z"/>
  </g>
  <g id="Light-M" transform="matrix(1 0 0 1 1090.17 1126)">
   <path d="M 99.0723 9.0332 C 108.594 9.0332 113.477 4.19922 113.477 -5.22461 L 113.477 -65.0879 C 113.477 -74.5605 108.594 -79.3945 99.0723 -79.3945 L 57.2754 -79.3945 C 51.7578 -79.3945 47.3145 -78.125 43.5059 -74.1699 L 14.209 -44.043 C 11.2793 -40.9668 9.96094 -38.2324 9.96094 -35.3027 C 9.96094 -32.3242 11.2305 -29.5898 14.209 -26.5137 L 43.5547 3.17383 C 47.3633 7.12891 51.8066 8.98438 57.3242 8.98438 Z M 98.9258 2.97852 L 57.2266 2.97852 C 53.3691 2.97852 50.7812 1.85547 48.0469 -0.927734 L 18.8965 -30.5176 C 17.0898 -32.373 16.5039 -33.7402 16.5039 -35.3027 C 16.5039 -36.8164 17.1875 -38.1836 18.8965 -40.0391 L 47.998 -70.0195 C 50.6836 -72.7539 53.3691 -73.3398 57.1777 -73.3398 L 98.9258 -73.3398 C 104.443 -73.3398 107.422 -70.4102 107.422 -64.7949 L 107.422 -5.56641 C 107.422 0.0976562 104.443 2.97852 98.9258 2.97852 Z M 87.1094 -15.6738 C 88.7695 -15.6738 90.0391 -16.9922 90.0391 -18.5547 C 90.0391 -19.3359 89.7461 -20.0195 89.1602 -20.6055 L 74.5605 -35.2051 L 89.1602 -49.8047 C 89.7461 -50.3906 90.0391 -51.0742 90.0391 -51.8555 C 90.0391 -53.5156 88.7695 -54.7852 87.1094 -54.7852 C 86.377 -54.7852 85.6445 -54.4922 85.1074 -53.9062 L 70.459 -39.3066 L 55.8594 -53.9062 C 55.2734 -54.4922 54.6387 -54.7852 53.8086 -54.7852 C 52.2461 -54.7852 50.9277 -53.4668 50.9277 -51.8555 C 50.9277 -51.0742 51.2207 -50.3906 51.8066 -49.8047 L 66.3574 -35.2051 L 51.8066 -20.6055 C 51.2207 -20.0195 50.9277 -19.3359 50.9277 -18.5547 C 50.9277 -16.9434 52.1973 -15.6738 53.8086 -15.6738 C 54.6387 -15.6738 55.3223 -15.9668 55.8105 -16.5039 L 70.459 -31.1523 L 85.1074 -16.5039 C 85.6445 -15.9668 86.3281 -15.6738 87.1094 -15.6738 Z"/>
  </g>
  <g id="Thin-M" transform="matrix(1 0 0 1 794.996 1126)">
   <path d="M 97.2168 8.05664 C 105.859 8.05664 110.4 3.56445 110.4 -5.0293 L 110.4 -65.2344 C 110.4 -73.877 105.859 -78.3691 97.2168 -78.3691 L 56.3477 -78.3691 C 51.0742 -78.3691 47.2168 -77.3926 43.7012 -73.8281 L 13.7695 -43.3105 C 11.084 -40.625 9.96094 -38.1836 9.96094 -35.3027 C 9.96094 -32.4707 10.9863 -29.9805 13.7695 -27.2461 L 43.75 2.49023 C 47.2656 6.00586 51.0742 8.05664 56.3477 8.05664 Z M 97.1191 4.44336 L 56.3477 4.44336 C 52.2461 4.44336 49.3164 2.92969 46.3379 -0.0488281 L 16.5039 -29.7363 C 14.5508 -31.6895 13.8672 -33.3496 13.8672 -35.3027 C 13.8672 -37.2559 14.5996 -38.8672 16.5039 -40.8691 L 46.3379 -71.2891 C 49.2676 -74.2676 52.2461 -74.7559 56.2988 -74.7559 L 97.1191 -74.7559 C 103.418 -74.7559 106.738 -71.4355 106.738 -65.0391 L 106.738 -5.22461 C 106.738 1.12305 103.418 4.44336 97.1191 4.44336 Z M 85.8398 -16.3086 C 86.8652 -16.3086 87.6465 -17.1875 87.6465 -18.0664 C 87.6465 -18.6035 87.4512 -18.9941 87.1094 -19.3359 L 71.2891 -35.1562 L 87.1094 -50.9766 C 87.4512 -51.3184 87.6465 -51.7578 87.6465 -52.2461 C 87.6465 -53.2715 86.8652 -54.0039 85.8398 -54.0039 C 85.4004 -54.0039 84.9609 -53.8086 84.6191 -53.4668 L 68.7988 -37.6465 L 52.9785 -53.4668 C 52.6367 -53.8086 52.2461 -54.0039 51.709 -54.0039 C 50.7812 -54.0039 49.9512 -53.2227 49.9512 -52.2461 C 49.9512 -51.7578 50.1465 -51.3184 50.4883 -50.9766 L 66.3086 -35.1562 L 50.4883 -19.3359 C 50.1465 -18.9941 49.9512 -18.6035 49.9512 -18.0664 C 49.9512 -17.1387 50.7324 -16.3086 51.709 -16.3086 C 52.2461 -16.3086 52.6855 -16.5527 52.9785 -16.8457 L 68.7988 -32.666 L 84.6191 -16.8457 C 84.9609 -16.5039 85.4004 -16.3086 85.8398 -16.3086 Z"/>
  </g>
  <g id="Ultralight-M" transform="matrix(1 0 0 1 499.067 1126)">
   <path d="M 96.2891 7.56836 C 104.443 7.56836 108.838 3.22266 108.838 -4.98047 L 108.838 -65.2832 C 108.838 -73.4863 104.443 -77.832 96.2891 -77.832 L 55.8594 -77.832 C 50.6836 -77.832 47.168 -77.0508 43.7988 -73.6328 L 13.5254 -42.9688 C 10.9375 -40.4297 9.96094 -38.1348 9.96094 -35.3027 C 9.96094 -32.5195 10.8887 -30.1758 13.5254 -27.6367 L 43.7988 2.09961 C 47.2168 5.46875 50.6836 7.56836 55.8594 7.56836 Z M 96.1426 5.17578 L 55.8594 5.17578 C 51.6602 5.17578 48.5352 3.4668 45.5078 0.439453 L 15.2832 -29.2969 C 13.2324 -31.3477 12.5 -33.1055 12.5 -35.3027 C 12.5 -37.4512 13.2812 -39.209 15.2832 -41.2598 L 45.5078 -71.9727 C 48.5352 -75 51.6602 -75.4395 55.8594 -75.4395 L 96.1426 -75.4395 C 102.93 -75.4395 106.445 -71.9727 106.445 -65.1855 L 106.445 -5.07812 C 106.445 1.66016 102.93 5.17578 96.1426 5.17578 Z M 85.2051 -16.6504 C 85.8887 -16.6504 86.4258 -17.2363 86.4258 -17.8711 C 86.4258 -18.2129 86.2793 -18.457 86.0352 -18.7012 L 69.5801 -35.1562 L 86.0352 -51.5625 C 86.2793 -51.8066 86.4258 -52.0996 86.4258 -52.3926 C 86.4258 -53.125 85.9375 -53.6133 85.2051 -53.6133 C 84.9121 -53.6133 84.6191 -53.5156 84.375 -53.2715 L 67.9199 -36.8164 L 51.4648 -53.2715 C 51.2207 -53.5156 51.0254 -53.6133 50.6348 -53.6133 C 50.0488 -53.6133 49.4629 -53.0762 49.4629 -52.3926 C 49.4629 -52.0996 49.5605 -51.8066 49.8047 -51.5625 L 66.2598 -35.1562 L 49.8047 -18.7012 C 49.5605 -18.457 49.4629 -18.2129 49.4629 -17.8711 C 49.4629 -17.1875 50 -16.6504 50.6348 -16.6504 C 51.0254 -16.6504 51.3184 -16.8457 51.4648 -16.9922 L 67.9199 -33.4473 L 84.375 -16.9922 C 84.6191 -16.7969 84.9121 -16.6504 85.2051 -16.6504 Z"/>
  </g>
  <g id="Black-S" transform="matrix(1 0 0 1 2881.5 696)">
   <path d="M 78.8086 2.92969 C 88.3789 2.92969 94.043 -0.927734 94.043 -10.498 L 94.043 -58.1055 C 94.043 -67.6758 88.3789 -73.3398 78.8086 -73.3398 L 46.5332 -73.3398 C 38.1348 -73.3398 34.9609 -71.582 30.0293 -65.625 L 12.793 -44.6777 C 8.54492 -39.5508 7.8125 -37.7441 7.8125 -35.2051 C 7.8125 -32.6172 8.64258 -30.7129 12.793 -25.6836 L 30.0293 -4.78516 C 35.0098 1.2207 38.0859 2.92969 46.4844 2.92969 Z M 76.5625 -11.2305 L 45.166 -11.2305 C 43.6035 -11.2305 42.3828 -11.8164 41.1621 -13.3301 L 23.9746 -33.9844 C 23.6816 -34.3262 23.5352 -34.8145 23.5352 -35.2051 C 23.5352 -35.6445 23.6328 -35.9863 23.9746 -36.377 L 41.1621 -57.1777 C 42.3828 -58.6914 43.6035 -59.1797 45.166 -59.1797 L 76.5625 -59.1797 C 78.8086 -59.1797 79.8828 -58.3008 79.8828 -55.8594 L 79.8828 -14.5508 C 79.8828 -12.1094 78.8086 -11.2305 76.5625 -11.2305 Z M 68.9453 -18.4082 C 72.0703 -18.4082 74.6094 -21.0449 74.6094 -24.1211 C 74.6094 -25.8301 74.1211 -27.0508 72.9004 -28.2715 L 65.8691 -35.2539 L 72.9004 -42.2363 C 74.1699 -43.457 74.6094 -44.6777 74.6094 -46.3867 C 74.6094 -49.5117 72.0703 -52.0996 68.9453 -52.0996 C 67.2852 -52.0996 66.0156 -51.709 64.7949 -50.4395 L 57.7637 -43.2129 L 50.7324 -50.4395 C 49.5117 -51.709 48.2422 -52.0996 46.582 -52.0996 C 43.457 -52.0996 40.918 -49.5117 40.918 -46.3867 C 40.918 -44.6777 41.3574 -43.457 42.627 -42.2363 L 49.6582 -35.2539 L 42.627 -28.2715 C 41.4062 -27.0508 40.918 -25.8301 40.918 -24.1211 C 40.918 -21.0449 43.457 -18.4082 46.582 -18.4082 C 48.2422 -18.4082 49.5117 -18.7988 50.7324 -20.0684 L 57.7637 -27.2949 L 64.7949 -20.0684 C 66.0156 -18.7988 67.2852 -18.4082 68.9453 -18.4082 Z"/>
  </g>
  <g id="Heavy-S" transform="matrix(1 0 0 1 2585.05 696)">
   <path d="M 78.9551 2.34375 C 88.2324 2.34375 93.5059 -1.5625 93.5059 -10.8398 L 93.5059 -58.2031 C 93.5059 -67.4316 88.2324 -72.7539 78.9551 -72.7539 L 46.3379 -72.7539 C 38.8672 -72.7539 35.498 -71.0938 30.957 -65.7227 L 12.5 -44.2383 C 8.64258 -39.6973 7.8125 -37.7441 7.8125 -35.2051 C 7.8125 -32.666 8.74023 -30.6641 12.5 -26.1719 L 30.957 -4.6875 C 35.5469 0.683594 38.8184 2.29492 46.3379 2.29492 Z M 77.1973 -10.1562 L 45.3125 -10.1562 C 43.457 -10.1562 42.0898 -10.7422 40.7227 -12.3535 L 22.3633 -33.5938 C 21.8262 -34.1797 21.6309 -34.7168 21.6309 -35.2051 C 21.6309 -35.7422 21.8262 -36.1816 22.3633 -36.8164 L 40.7227 -58.1543 C 42.0898 -59.7656 43.457 -60.2539 45.2637 -60.2539 L 77.1973 -60.2539 C 79.7363 -60.2539 81.0547 -59.1309 81.0547 -56.3965 L 81.0547 -14.0137 C 81.0547 -11.2793 79.7363 -10.1562 77.1973 -10.1562 Z M 69.0918 -18.6035 C 71.9238 -18.6035 74.2188 -20.9961 74.2188 -23.7793 C 74.2188 -25.293 73.7305 -26.416 72.6562 -27.4902 L 64.8438 -35.2539 L 72.6562 -43.0176 C 73.7793 -44.0918 74.2188 -45.2148 74.2188 -46.7285 C 74.2188 -49.5605 71.875 -51.9043 69.0918 -51.9043 C 67.5781 -51.9043 66.4551 -51.5137 65.332 -50.3906 L 57.5684 -42.4316 L 49.7559 -50.3906 C 48.6328 -51.5137 47.5098 -51.9043 45.9961 -51.9043 C 43.2129 -51.9043 40.8691 -49.5605 40.8691 -46.7285 C 40.8691 -45.2148 41.3086 -44.0918 42.4316 -43.0176 L 50.2441 -35.2539 L 42.4316 -27.4902 C 41.3574 -26.416 40.8691 -25.293 40.8691 -23.7793 C 40.8691 -20.9961 43.1641 -18.6035 45.9961 -18.6035 C 47.5098 -18.6035 48.6328 -18.9941 49.707 -20.1172 L 57.5684 -28.0762 L 65.3809 -20.1172 C 66.4551 -18.9941 67.5781 -18.6035 69.0918 -18.6035 Z"/>
  </g>
  <g id="Bold-S" transform="matrix(1 0 0 1 2288.64 696)">
   <path d="M 79.1016 1.66016 C 88.0371 1.66016 92.9199 -2.29492 92.9199 -11.1816 L 92.9199 -58.3008 C 92.9199 -67.1875 88.0371 -72.0703 79.1016 -72.0703 L 46.1426 -72.0703 C 39.6973 -72.0703 36.0352 -70.5566 31.9824 -65.8691 L 12.207 -43.75 C 8.78906 -39.8438 7.8125 -37.6953 7.8125 -35.2539 C 7.8125 -32.7148 8.83789 -30.5664 12.207 -26.709 L 31.9824 -4.58984 C 36.084 0.0976562 39.6973 1.61133 46.1426 1.61133 Z M 77.9297 -8.93555 L 45.4102 -8.93555 C 43.2617 -8.93555 41.7969 -9.52148 40.1855 -11.2793 L 20.5566 -33.1543 C 19.7754 -33.9844 19.5312 -34.6191 19.5312 -35.2539 C 19.5312 -35.8887 19.7754 -36.4258 20.5566 -37.3047 L 40.1855 -59.2285 C 41.748 -60.9375 43.2617 -61.4746 45.4102 -61.4746 L 77.9297 -61.4746 C 80.8105 -61.4746 82.3242 -60.0586 82.3242 -56.9824 L 82.3242 -13.4277 C 82.3242 -10.3516 80.8105 -8.93555 77.9297 -8.93555 Z M 69.1895 -18.8477 C 71.7285 -18.8477 73.7305 -20.8984 73.7305 -23.3398 C 73.7305 -24.6582 73.291 -25.6836 72.3633 -26.6113 L 63.7207 -35.2539 L 72.3633 -43.8965 C 73.3398 -44.8242 73.7305 -45.8496 73.7305 -47.1191 C 73.7305 -49.6582 71.6797 -51.709 69.1895 -51.709 C 67.9199 -51.709 66.8945 -51.3184 65.9668 -50.3418 L 57.2754 -41.6016 L 48.6328 -50.3418 C 47.7051 -51.3184 46.6797 -51.709 45.3613 -51.709 C 42.9199 -51.709 40.8691 -49.6582 40.8691 -47.1191 C 40.8691 -45.8496 41.2598 -44.8242 42.2363 -43.8965 L 50.8789 -35.2539 L 42.2363 -26.6113 C 41.3086 -25.6836 40.8691 -24.6582 40.8691 -23.3398 C 40.8691 -20.8984 42.8711 -18.8477 45.3613 -18.8477 C 46.6797 -18.8477 47.7051 -19.1895 48.6328 -20.1172 L 57.2754 -28.9551 L 65.9668 -20.1172 C 66.8945 -19.1895 67.9199 -18.8477 69.1895 -18.8477 Z"/>
  </g>
  <g id="Semibold-S" transform="matrix(1 0 0 1 1992.12 696)">
   <path d="M 79.1992 1.17188 C 87.8906 1.17188 92.5293 -2.83203 92.5293 -11.4258 L 92.5293 -58.3984 C 92.5293 -67.041 87.8906 -71.582 79.1992 -71.582 L 46.0449 -71.582 C 40.2344 -71.582 36.4746 -70.166 32.666 -65.918 L 12.0117 -43.4082 C 8.83789 -39.9414 7.8125 -37.6953 7.8125 -35.2539 C 7.8125 -32.7637 8.88672 -30.5176 12.0117 -27.0508 L 32.7148 -4.54102 C 36.5234 -0.292969 40.2832 1.17188 46.0449 1.17188 Z M 78.418 -8.10547 L 45.5078 -8.10547 C 43.1152 -8.10547 41.5527 -8.69141 39.8438 -10.5469 L 19.2871 -32.8613 C 18.3594 -33.8379 18.0664 -34.5703 18.0664 -35.2539 C 18.0664 -35.9375 18.3594 -36.6211 19.2871 -37.5977 L 39.8438 -59.9609 C 41.5039 -61.7676 43.1152 -62.3047 45.5078 -62.3047 L 78.418 -62.3047 C 81.543 -62.3047 83.2031 -60.6934 83.2031 -57.4219 L 83.2031 -12.9883 C 83.2031 -9.7168 81.543 -8.10547 78.418 -8.10547 Z M 69.2871 -18.9941 C 71.582 -18.9941 73.4375 -20.8496 73.4375 -23.0957 C 73.4375 -24.2188 72.998 -25.1465 72.168 -26.0254 L 62.9395 -35.2539 L 72.168 -44.4824 C 72.998 -45.3125 73.4375 -46.2402 73.4375 -47.4121 C 73.4375 -49.707 71.5332 -51.5625 69.2871 -51.5625 C 68.1641 -51.5625 67.2363 -51.1719 66.4062 -50.3418 L 57.1289 -41.0156 L 47.8516 -50.3418 C 47.0215 -51.1719 46.0938 -51.5625 44.9707 -51.5625 C 42.7246 -51.5625 40.8203 -49.707 40.8203 -47.4121 C 40.8203 -46.2402 41.2598 -45.3125 42.0898 -44.4824 L 51.3184 -35.2539 L 42.0898 -26.0254 C 41.2598 -25.1465 40.8203 -24.2188 40.8203 -23.0957 C 40.8203 -20.8496 42.6758 -18.9941 44.9707 -18.9941 C 46.0938 -18.9941 47.0215 -19.3359 47.8516 -20.166 L 57.1289 -29.541 L 66.4062 -20.166 C 67.2363 -19.3359 68.1641 -18.9941 69.2871 -18.9941 Z"/>
  </g>
  <g id="Medium-S" transform="matrix(1 0 0 1 1695.55 696)">
   <path d="M 79.248 0.830078 C 87.793 0.830078 92.2363 -3.17383 92.2363 -11.6211 L 92.2363 -58.4473 C 92.2363 -66.8945 87.793 -71.2402 79.248 -71.2402 L 45.8984 -71.2402 C 40.6738 -71.2402 36.7676 -69.873 33.2031 -66.0156 L 11.8164 -43.1152 C 8.93555 -39.9902 7.8125 -37.6953 7.8125 -35.2539 C 7.8125 -32.8125 8.93555 -30.4688 11.8164 -27.3438 L 33.252 -4.49219 C 36.8164 -0.585938 40.7227 0.78125 45.9473 0.78125 Z M 78.8086 -7.4707 L 45.6055 -7.4707 C 43.0176 -7.4707 41.4062 -8.05664 39.5996 -9.96094 L 18.3594 -32.6172 C 17.2852 -33.7402 16.9434 -34.4727 16.9434 -35.2539 C 16.9434 -35.9863 17.2852 -36.7188 18.3594 -37.8418 L 39.5508 -60.498 C 41.3086 -62.4023 43.0176 -62.9395 45.5566 -62.9395 L 78.8086 -62.9395 C 82.0801 -62.9395 83.8867 -61.1816 83.8867 -57.7148 L 83.8867 -12.6953 C 83.8867 -9.22852 82.0801 -7.4707 78.8086 -7.4707 Z M 69.3848 -19.0918 C 71.4844 -19.0918 73.1934 -20.8008 73.1934 -22.8516 C 73.1934 -23.9258 72.8027 -24.8047 72.0215 -25.5371 L 62.3535 -35.2539 L 72.0215 -44.9707 C 72.8027 -45.7031 73.1934 -46.582 73.1934 -47.6074 C 73.1934 -49.707 71.4355 -51.4648 69.3848 -51.4648 C 68.3594 -51.4648 67.4805 -51.0742 66.6992 -50.293 L 56.9824 -40.5762 L 47.3145 -50.293 C 46.5332 -51.0742 45.6543 -51.4648 44.6289 -51.4648 C 42.5781 -51.4648 40.8203 -49.707 40.8203 -47.6074 C 40.8203 -46.582 41.2109 -45.7031 41.9922 -44.9707 L 51.6602 -35.2539 L 41.9922 -25.5371 C 41.2109 -24.8047 40.8203 -23.9258 40.8203 -22.8516 C 40.8203 -20.8008 42.5293 -19.0918 44.6289 -19.0918 C 45.7031 -19.0918 46.5332 -19.4336 47.2656 -20.166 L 56.9824 -29.9805 L 66.748 -20.166 C 67.4805 -19.4336 68.3105 -19.0918 69.3848 -19.0918 Z"/>
  </g>
  <g id="Regular-S" transform="matrix(1 0 0 1 1399.04 696)">
   <path d="M 79.3945 0.390625 C 87.6465 0.390625 91.8457 -3.71094 91.8457 -11.9141 L 91.8457 -58.4961 C 91.8457 -66.6992 87.6465 -70.8008 79.3945 -70.8008 L 45.8008 -70.8008 C 41.2109 -70.8008 37.1582 -69.4824 33.8867 -66.0645 L 11.6211 -42.7734 C 9.0332 -40.0879 7.8125 -37.6953 7.8125 -35.2539 C 7.8125 -32.8125 8.98438 -30.4199 11.6211 -27.7344 L 33.9355 -4.44336 C 37.207 -1.02539 41.2598 0.341797 45.8496 0.341797 Z M 79.2969 -6.68945 L 45.7031 -6.68945 C 42.8711 -6.68945 41.1621 -7.22656 39.2578 -9.22852 L 17.0898 -32.3242 C 15.8691 -33.5938 15.5273 -34.4238 15.5273 -35.2539 C 15.5273 -36.084 15.918 -36.9141 17.0898 -38.1836 L 39.209 -61.2305 C 41.1133 -63.2324 42.8711 -63.7207 45.6543 -63.7207 L 79.2969 -63.7207 C 82.8125 -63.7207 84.7656 -61.8164 84.7656 -58.1543 L 84.7656 -12.2559 C 84.7656 -8.54492 82.8125 -6.68945 79.2969 -6.68945 Z M 69.4824 -19.2871 C 71.3379 -19.2871 72.8516 -20.752 72.8516 -22.6074 C 72.8516 -23.4863 72.5098 -24.3164 71.8262 -24.9512 L 61.5723 -35.2539 L 71.8262 -45.5566 C 72.5098 -46.1914 72.8516 -47.0215 72.8516 -47.9004 C 72.8516 -49.7559 71.3379 -51.3184 69.4824 -51.3184 C 68.6035 -51.3184 67.7734 -50.9277 67.1387 -50.293 L 56.8359 -39.9902 L 46.5332 -50.293 C 45.8984 -50.9277 45.0684 -51.3184 44.1895 -51.3184 C 42.334 -51.3184 40.8203 -49.7559 40.8203 -47.9004 C 40.8203 -47.0215 41.1621 -46.1914 41.8457 -45.5566 L 52.0996 -35.2539 L 41.8457 -24.9512 C 41.1621 -24.3164 40.8203 -23.4863 40.8203 -22.6074 C 40.8203 -20.752 42.2852 -19.2871 44.1895 -19.2871 C 45.1172 -19.2871 45.8984 -19.5801 46.4844 -20.2148 L 56.8359 -30.6152 L 67.1875 -20.2148 C 67.7734 -19.5801 68.5547 -19.2871 69.4824 -19.2871 Z"/>
  </g>
  <g id="Light-S" transform="matrix(1 0 0 1 1103.35 696)">
   <path d="M 78.125 -0.292969 C 85.8398 -0.292969 89.7949 -4.15039 89.7949 -11.7676 L 89.7949 -58.5938 C 89.7949 -66.2598 85.8398 -70.1172 78.125 -70.1172 L 45.166 -70.1172 C 40.7715 -70.1172 37.1094 -69.043 34.0332 -65.8203 L 11.2793 -42.334 C 8.88672 -39.8438 7.8125 -37.6465 7.8125 -35.2539 C 7.8125 -32.9102 8.83789 -30.6641 11.2793 -28.2227 L 34.082 -4.93164 C 37.1582 -1.75781 40.7715 -0.292969 45.166 -0.292969 Z M 78.0273 -5.71289 L 45.1172 -5.71289 C 42.1387 -5.71289 40.1855 -6.49414 38.1348 -8.64258 L 15.5273 -31.7871 C 14.1602 -33.1543 13.7207 -34.1797 13.7207 -35.2539 C 13.7207 -36.377 14.209 -37.3535 15.5273 -38.7207 L 38.0859 -62.1094 C 40.1367 -64.209 42.1387 -64.6973 45.0684 -64.6973 L 78.0273 -64.6973 C 82.1289 -64.6973 84.3262 -62.5 84.3262 -58.3008 L 84.3262 -12.0605 C 84.3262 -7.86133 82.1289 -5.71289 78.0273 -5.71289 Z M 68.6523 -19.7266 C 70.0684 -19.7266 71.2402 -20.8984 71.2402 -22.3145 C 71.2402 -22.998 70.9473 -23.584 70.459 -24.1211 L 59.375 -35.2051 L 70.459 -46.3379 C 70.9473 -46.8262 71.2402 -47.4609 71.2402 -48.1445 C 71.2402 -49.6094 70.0684 -50.7812 68.6523 -50.7812 C 67.9199 -50.7812 67.334 -50.4883 66.7969 -50 L 55.7129 -38.916 L 44.5801 -50 C 44.0918 -50.4883 43.5059 -50.7812 42.7734 -50.7812 C 41.3574 -50.7812 40.1367 -49.6094 40.1367 -48.1445 C 40.1367 -47.4609 40.4297 -46.8262 40.9668 -46.3379 L 52.0508 -35.2051 L 40.9668 -24.1211 C 40.4297 -23.584 40.1367 -22.998 40.1367 -22.3145 C 40.1367 -20.8496 41.3086 -19.7266 42.7734 -19.7266 C 43.5059 -19.7266 44.0918 -19.9707 44.5801 -20.459 L 55.7129 -31.5918 L 66.8457 -20.459 C 67.334 -19.9707 67.9199 -19.7266 68.6523 -19.7266 Z"/>
  </g>
  <g id="Thin-S" transform="matrix(1 0 0 1 808.009 696)">
   <path d="M 76.5137 -1.12305 C 83.4473 -1.12305 87.0605 -4.6875 87.0605 -11.6211 L 87.0605 -58.6914 C 87.0605 -65.625 83.4473 -69.2383 76.5137 -69.2383 L 44.3359 -69.2383 C 40.1367 -69.2383 37.0117 -68.4082 34.2285 -65.5273 L 10.8887 -41.6992 C 8.69141 -39.502 7.8125 -37.5488 7.8125 -35.3027 C 7.8125 -33.0078 8.69141 -31.0059 10.8887 -28.8574 L 34.2285 -5.56641 C 37.0605 -2.68555 40.1367 -1.12305 44.3359 -1.12305 Z M 76.416 -4.44336 L 44.2871 -4.44336 C 41.1621 -4.44336 38.916 -5.56641 36.6211 -7.8125 L 13.3789 -31.0547 C 11.8652 -32.6172 11.377 -33.8379 11.377 -35.3027 C 11.377 -36.7188 11.9141 -37.9395 13.3789 -39.4531 L 36.6211 -63.2324 C 38.8672 -65.5273 41.1621 -65.918 44.2871 -65.918 L 76.416 -65.918 C 81.25 -65.918 83.7891 -63.3789 83.7891 -58.5449 L 83.7891 -11.8164 C 83.7891 -6.93359 81.25 -4.44336 76.416 -4.44336 Z M 67.5293 -20.2637 C 68.4082 -20.2637 69.1406 -21.0449 69.1406 -21.875 C 69.1406 -22.3633 68.9453 -22.7051 68.6523 -22.998 L 56.4941 -35.2051 L 68.6523 -47.3633 C 68.9453 -47.6562 69.1406 -48.0469 69.1406 -48.4863 C 69.1406 -49.4141 68.4082 -50.0977 67.5293 -50.0977 C 67.0898 -50.0977 66.6992 -49.9512 66.4062 -49.6094 L 54.1992 -37.4512 L 42.041 -49.6094 C 41.748 -49.9512 41.3574 -50.0977 40.918 -50.0977 C 40.0879 -50.0977 39.3066 -49.3652 39.3066 -48.4863 C 39.3066 -48.0469 39.502 -47.6562 39.7949 -47.3633 L 51.9531 -35.2051 L 39.7949 -22.998 C 39.502 -22.7051 39.3066 -22.3633 39.3066 -21.875 C 39.3066 -20.9961 40.0391 -20.2637 40.918 -20.2637 C 41.4062 -20.2637 41.748 -20.459 42.041 -20.752 L 54.1992 -32.959 L 66.4062 -20.752 C 66.6992 -20.459 67.0898 -20.2637 67.5293 -20.2637 Z"/>
  </g>
  <g id="Ultralight-S" transform="matrix(1 0 0 1 511.982 696)">
   <path d="M 75.6836 -1.5625 C 82.2266 -1.5625 85.6934 -5.0293 85.6934 -11.5234 L 85.6934 -58.7891 C 85.6934 -65.2832 82.2266 -68.75 75.6836 -68.75 L 43.8965 -68.75 C 39.7949 -68.75 36.9629 -68.0664 34.3262 -65.3809 L 10.6445 -41.3574 C 8.59375 -39.3555 7.8125 -37.5 7.8125 -35.3027 C 7.8125 -33.1055 8.54492 -31.2012 10.6445 -29.1504 L 34.3262 -5.85938 C 37.0117 -3.22266 39.8438 -1.5625 43.8965 -1.5625 Z M 75.5859 -3.75977 L 43.8965 -3.75977 C 40.625 -3.75977 38.2324 -5.0293 35.8887 -7.42188 L 12.3047 -30.7129 C 10.6934 -32.2754 10.1562 -33.6426 10.1562 -35.3027 C 10.1562 -36.9141 10.7422 -38.2812 12.3047 -39.8438 L 35.8887 -63.8184 C 38.2324 -66.2109 40.625 -66.5527 43.8965 -66.5527 L 75.5859 -66.5527 C 80.7617 -66.5527 83.4473 -63.8672 83.4473 -58.6426 L 83.4473 -11.6699 C 83.4473 -6.44531 80.7617 -3.75977 75.5859 -3.75977 Z M 66.9434 -20.6055 C 67.5293 -20.6055 68.0176 -21.1426 68.0176 -21.6797 C 68.0176 -22.0215 67.9199 -22.2168 67.6758 -22.4609 L 54.9805 -35.1562 L 67.6758 -47.9004 C 67.9199 -48.0957 68.0176 -48.3887 68.0176 -48.6328 C 68.0176 -49.3164 67.5781 -49.7559 66.9434 -49.7559 C 66.6504 -49.7559 66.3574 -49.6094 66.1621 -49.4141 L 53.4668 -36.7188 L 40.7227 -49.4141 C 40.5273 -49.6094 40.2832 -49.7559 39.9414 -49.7559 C 39.4043 -49.7559 38.8672 -49.2676 38.8672 -48.6328 C 38.8672 -48.3887 38.9648 -48.0957 39.209 -47.9004 L 51.9043 -35.1562 L 39.209 -22.4609 C 38.9648 -22.2168 38.8672 -22.0215 38.8672 -21.6797 C 38.8672 -21.0938 39.3555 -20.6055 39.9414 -20.6055 C 40.2832 -20.6055 40.5762 -20.752 40.7227 -20.8984 L 53.4668 -33.6426 L 66.1621 -20.8984 C 66.3574 -20.7031 66.6504 -20.6055 66.9434 -20.6055 Z"/>
  </g>
 </g>
</svg>
