<?xml version="1.0" encoding="UTF-8"?>
<!--Generator: Apple Native CoreSVG 123-->
<!DOCTYPE svg
PUBLIC "-//W3C//DTD SVG 1.1//EN"
       "http://www.w3.org/Graphics/SVG/1.1/DTD/svg11.dtd">
<svg version="1.1" xmlns="http://www.w3.org/2000/svg" xmlns:xlink="http://www.w3.org/1999/xlink" width="3300" height="2200">
 <!--glyph: "uni100195.medium", point size: 100.000000, font version: "Version 15.0d7e11", template writer version: "5"-->
 <g id="Notes">
  <rect height="2200" id="artboard" style="fill:white;opacity:1" width="3300" x="0" y="0"/>
  <line id="" style="fill:none;stroke:black;opacity:1;stroke-width:0.5;" x1="263" x2="3036" y1="292" y2="292"/>
  <text style="stroke:none;fill:black;font-family:-apple-system,&quot;SF Pro Display&quot;,&quot;SF Pro Text&quot;,Helvetica,sans-serif;font-weight:bold;" transform="matrix(1 0 0 1 263 322)">Weight/Scale Variations</text>
  <text style="stroke:none;fill:black;font-family:-apple-system,&quot;SF Pro Display&quot;,&quot;SF Pro Text&quot;,Helvetica,sans-serif;text-anchor:middle;" transform="matrix(1 0 0 1 559.711 322)">Ultralight</text>
  <text style="stroke:none;fill:black;font-family:-apple-system,&quot;SF Pro Display&quot;,&quot;SF Pro Text&quot;,Helvetica,sans-serif;text-anchor:middle;" transform="matrix(1 0 0 1 856.422 322)">Thin</text>
  <text style="stroke:none;fill:black;font-family:-apple-system,&quot;SF Pro Display&quot;,&quot;SF Pro Text&quot;,Helvetica,sans-serif;text-anchor:middle;" transform="matrix(1 0 0 1 1153.13 322)">Light</text>
  <text style="stroke:none;fill:black;font-family:-apple-system,&quot;SF Pro Display&quot;,&quot;SF Pro Text&quot;,Helvetica,sans-serif;text-anchor:middle;" transform="matrix(1 0 0 1 1449.84 322)">Regular</text>
  <text style="stroke:none;fill:black;font-family:-apple-system,&quot;SF Pro Display&quot;,&quot;SF Pro Text&quot;,Helvetica,sans-serif;text-anchor:middle;" transform="matrix(1 0 0 1 1746.56 322)">Medium</text>
  <text style="stroke:none;fill:black;font-family:-apple-system,&quot;SF Pro Display&quot;,&quot;SF Pro Text&quot;,Helvetica,sans-serif;text-anchor:middle;" transform="matrix(1 0 0 1 2043.27 322)">Semibold</text>
  <text style="stroke:none;fill:black;font-family:-apple-system,&quot;SF Pro Display&quot;,&quot;SF Pro Text&quot;,Helvetica,sans-serif;text-anchor:middle;" transform="matrix(1 0 0 1 2339.98 322)">Bold</text>
  <text style="stroke:none;fill:black;font-family:-apple-system,&quot;SF Pro Display&quot;,&quot;SF Pro Text&quot;,Helvetica,sans-serif;text-anchor:middle;" transform="matrix(1 0 0 1 2636.69 322)">Heavy</text>
  <text style="stroke:none;fill:black;font-family:-apple-system,&quot;SF Pro Display&quot;,&quot;SF Pro Text&quot;,Helvetica,sans-serif;text-anchor:middle;" transform="matrix(1 0 0 1 2933.4 322)">Black</text>
  <line id="" style="fill:none;stroke:black;opacity:1;stroke-width:0.5;" x1="263" x2="3036" y1="1903" y2="1903"/>
  <g id="" transform="matrix(1 0 0 1 263 1933)">
   <path d="M 9.24805 0.830078 C 13.5547 0.830078 17.1387 -2.74414 17.1387 -7.05078 C 17.1387 -11.3574 13.5449 -14.9316 9.23828 -14.9316 C 4.94141 -14.9316 1.36719 -11.3574 1.36719 -7.05078 C 1.36719 -2.74414 4.95117 0.830078 9.24805 0.830078 Z M 9.24805 -0.654297 C 5.70312 -0.654297 2.87109 -3.49609 2.87109 -7.05078 C 2.87109 -10.6055 5.69336 -13.4473 9.23828 -13.4473 C 12.793 -13.4473 15.6348 -10.6055 15.6445 -7.05078 C 15.6543 -3.49609 12.8027 -0.654297 9.24805 -0.654297 Z M 9.22852 -3.42773 C 9.69727 -3.42773 9.9707 -3.74023 9.9707 -4.25781 L 9.9707 -6.31836 L 12.1973 -6.31836 C 12.6953 -6.31836 13.0371 -6.57227 13.0371 -7.04102 C 13.0371 -7.51953 12.7148 -7.7832 12.1973 -7.7832 L 9.9707 -7.7832 L 9.9707 -10.0098 C 9.9707 -10.5273 9.69727 -10.8496 9.22852 -10.8496 C 8.75977 -10.8496 8.50586 -10.5078 8.50586 -10.0098 L 8.50586 -7.7832 L 6.29883 -7.7832 C 5.78125 -7.7832 5.44922 -7.51953 5.44922 -7.04102 C 5.44922 -6.57227 5.80078 -6.31836 6.29883 -6.31836 L 8.50586 -6.31836 L 8.50586 -4.25781 C 8.50586 -3.75977 8.75977 -3.42773 9.22852 -3.42773 Z"/>
  </g>
  <g id="" transform="matrix(1 0 0 1 281.506 1933)">
   <path d="M 11.709 2.91016 C 17.1582 2.91016 21.6699 -1.60156 21.6699 -7.05078 C 21.6699 -12.4902 17.1484 -17.0117 11.6992 -17.0117 C 6.25977 -17.0117 1.74805 -12.4902 1.74805 -7.05078 C 1.74805 -1.60156 6.26953 2.91016 11.709 2.91016 Z M 11.709 1.25 C 7.09961 1.25 3.41797 -2.44141 3.41797 -7.05078 C 3.41797 -11.6504 7.08984 -15.3516 11.6992 -15.3516 C 16.3086 -15.3516 20 -11.6504 20.0098 -7.05078 C 20.0195 -2.44141 16.3184 1.25 11.709 1.25 Z M 11.6895 -2.41211 C 12.207 -2.41211 12.5195 -2.77344 12.5195 -3.33984 L 12.5195 -6.23047 L 15.5762 -6.23047 C 16.123 -6.23047 16.5039 -6.51367 16.5039 -7.03125 C 16.5039 -7.55859 16.1426 -7.86133 15.5762 -7.86133 L 12.5195 -7.86133 L 12.5195 -10.9277 C 12.5195 -11.5039 12.207 -11.8555 11.6895 -11.8555 C 11.1719 -11.8555 10.8789 -11.4844 10.8789 -10.9277 L 10.8789 -7.86133 L 7.83203 -7.86133 C 7.26562 -7.86133 6.89453 -7.55859 6.89453 -7.03125 C 6.89453 -6.51367 7.28516 -6.23047 7.83203 -6.23047 L 10.8789 -6.23047 L 10.8789 -3.33984 C 10.8789 -2.79297 11.1719 -2.41211 11.6895 -2.41211 Z"/>
  </g>
  <g id="" transform="matrix(1 0 0 1 304.924 1933)">
   <path d="M 14.9707 5.67383 C 21.9336 5.67383 27.6953 -0.078125 27.6953 -7.04102 C 27.6953 -14.0039 21.9238 -19.7559 14.9609 -19.7559 C 8.00781 -19.7559 2.25586 -14.0039 2.25586 -7.04102 C 2.25586 -0.078125 8.01758 5.67383 14.9707 5.67383 Z M 14.9707 3.85742 C 8.93555 3.85742 4.08203 -1.00586 4.08203 -7.04102 C 4.08203 -13.0762 8.92578 -17.9395 14.9609 -17.9395 C 21.0059 -17.9395 25.8594 -13.0762 25.8691 -7.04102 C 25.8789 -1.00586 21.0156 3.85742 14.9707 3.85742 Z M 14.9512 -1.06445 C 15.5176 -1.06445 15.8691 -1.45508 15.8691 -2.06055 L 15.8691 -6.13281 L 20.1074 -6.13281 C 20.6934 -6.13281 21.1133 -6.46484 21.1133 -7.02148 C 21.1133 -7.59766 20.7227 -7.93945 20.1074 -7.93945 L 15.8691 -7.93945 L 15.8691 -12.1875 C 15.8691 -12.8027 15.5176 -13.1934 14.9512 -13.1934 C 14.3848 -13.1934 14.0625 -12.7832 14.0625 -12.1875 L 14.0625 -7.93945 L 9.83398 -7.93945 C 9.21875 -7.93945 8.80859 -7.59766 8.80859 -7.02148 C 8.80859 -6.46484 9.23828 -6.13281 9.83398 -6.13281 L 14.0625 -6.13281 L 14.0625 -2.06055 C 14.0625 -1.47461 14.3848 -1.06445 14.9512 -1.06445 Z"/>
  </g>
  <text style="stroke:none;fill:black;font-family:-apple-system,&quot;SF Pro Display&quot;,&quot;SF Pro Text&quot;,Helvetica,sans-serif;font-weight:bold;" transform="matrix(1 0 0 1 263 1953)">Design Variations</text>
  <text style="stroke:none;fill:black;font-family:-apple-system,&quot;SF Pro Display&quot;,&quot;SF Pro Text&quot;,Helvetica,sans-serif;" transform="matrix(1 0 0 1 263 1971)">Symbols are supported in up to nine weights and three scales.</text>
  <text style="stroke:none;fill:black;font-family:-apple-system,&quot;SF Pro Display&quot;,&quot;SF Pro Text&quot;,Helvetica,sans-serif;" transform="matrix(1 0 0 1 263 1989)">For optimal layout with text and other symbols, vertically align</text>
  <text style="stroke:none;fill:black;font-family:-apple-system,&quot;SF Pro Display&quot;,&quot;SF Pro Text&quot;,Helvetica,sans-serif;" transform="matrix(1 0 0 1 263 2007)">symbols with the adjacent text.</text>
  <rect height="14" id="" style="fill:#00AEEF;stroke:none;opacity:0.4;" width="3" x="776" y="1919"/>
  <g id="" transform="matrix(1 0 0 1 779 1933)">
   <path d="M 10.5273 0 L 12.373 0 L 7.17773 -14.0918 L 5.43945 -14.0918 L 0.244141 0 L 2.08984 0 L 3.50586 -4.0332 L 9.11133 -4.0332 Z M 6.2793 -11.9531 L 6.33789 -11.9531 L 8.59375 -5.52734 L 4.02344 -5.52734 Z"/>
  </g>
  <rect height="14" id="" style="fill:#00AEEF;stroke:none;opacity:0.4;" width="3" x="791.617" y="1919"/>
  <text style="stroke:none;fill:black;font-family:-apple-system,&quot;SF Pro Display&quot;,&quot;SF Pro Text&quot;,Helvetica,sans-serif;font-weight:bold;" transform="matrix(1 0 0 1 776 1953)">Margins</text>
  <text style="stroke:none;fill:black;font-family:-apple-system,&quot;SF Pro Display&quot;,&quot;SF Pro Text&quot;,Helvetica,sans-serif;" transform="matrix(1 0 0 1 776 1971)">Leading and trailing margins on the left and right side of each symbol</text>
  <text style="stroke:none;fill:black;font-family:-apple-system,&quot;SF Pro Display&quot;,&quot;SF Pro Text&quot;,Helvetica,sans-serif;" transform="matrix(1 0 0 1 776 1989)">can be adjusted by modifying the width of the blue rectangles.</text>
  <text style="stroke:none;fill:black;font-family:-apple-system,&quot;SF Pro Display&quot;,&quot;SF Pro Text&quot;,Helvetica,sans-serif;" transform="matrix(1 0 0 1 776 2007)">Modifications are automatically applied proportionally to all</text>
  <text style="stroke:none;fill:black;font-family:-apple-system,&quot;SF Pro Display&quot;,&quot;SF Pro Text&quot;,Helvetica,sans-serif;" transform="matrix(1 0 0 1 776 2025)">scales and weights.</text>
  <g id="" transform="matrix(1 0 0 1 1289 1933)">
   <path d="M 2.83203 3.11523 L 4.375 4.6582 C 5.22461 5.48828 6.19141 5.41992 7.06055 4.46289 L 17.2754 -6.66016 C 17.7051 -6.36719 18.0957 -6.37695 18.5645 -6.47461 L 19.6094 -6.68945 L 20.3027 -5.99609 L 20.2539 -5.47852 C 20.1855 -4.95117 20.3516 -4.53125 20.8496 -4.0332 L 21.6602 -3.22266 C 22.168 -2.71484 22.8223 -2.68555 23.3008 -3.16406 L 26.5527 -6.41602 C 27.0312 -6.89453 27.0117 -7.54883 26.5039 -8.05664 L 25.6836 -8.87695 C 25.1855 -9.375 24.7754 -9.55078 24.2383 -9.47266 L 23.7109 -9.41406 L 23.0566 -10.0781 L 23.3398 -11.2207 C 23.4863 -11.7871 23.3398 -12.2559 22.7148 -12.8613 L 20.3027 -15.2539 C 16.7578 -18.7793 12.2266 -18.6719 9.11133 -15.5371 C 8.69141 -15.1074 8.64258 -14.5215 8.91602 -14.0918 C 9.15039 -13.7207 9.62891 -13.4961 10.2734 -13.6621 C 11.7871 -14.043 13.3008 -13.9258 14.7852 -12.9199 L 14.1602 -11.3379 C 13.9258 -10.752 13.9453 -10.2734 14.1797 -9.83398 L 3.01758 0.439453 C 2.08008 1.30859 1.97266 2.25586 2.83203 3.11523 Z M 10.6738 -15.1465 C 13.3398 -17.1387 16.6504 -16.8262 19.0527 -14.4141 L 21.6797 -11.8066 C 21.9141 -11.5723 21.9434 -11.3867 21.8848 -11.0938 L 21.5039 -9.53125 L 23.0762 -7.95898 L 24.043 -8.04688 C 24.3262 -8.07617 24.4141 -8.05664 24.6387 -7.83203 L 25.2637 -7.20703 L 22.5098 -4.46289 L 21.8848 -5.07812 C 21.6602 -5.30273 21.6406 -5.40039 21.6699 -5.68359 L 21.7578 -6.64062 L 20.1953 -8.20312 L 18.5742 -7.89062 C 18.291 -7.83203 18.1445 -7.83203 17.9102 -8.07617 L 15.7324 -10.2539 C 15.5078 -10.4883 15.4785 -10.625 15.6055 -10.9473 L 16.5527 -13.2227 C 14.9512 -14.7559 12.8418 -15.6055 10.8008 -14.9512 C 10.7129 -14.9219 10.6445 -14.9414 10.6152 -14.9805 C 10.5859 -15.0293 10.5859 -15.0781 10.6738 -15.1465 Z M 4.10156 2.41211 C 3.61328 1.91406 3.78906 1.61133 4.12109 1.30859 L 15.0781 -8.80859 L 16.3086 -7.57812 L 6.15234 3.34961 C 5.84961 3.68164 5.46875 3.7793 5.06836 3.37891 Z"/>
  </g>
  <text style="stroke:none;fill:black;font-family:-apple-system,&quot;SF Pro Display&quot;,&quot;SF Pro Text&quot;,Helvetica,sans-serif;font-weight:bold;" transform="matrix(1 0 0 1 1289 1953)">Exporting</text>
  <text style="stroke:none;fill:black;font-family:-apple-system,&quot;SF Pro Display&quot;,&quot;SF Pro Text&quot;,Helvetica,sans-serif;" transform="matrix(1 0 0 1 1289 1971)">Symbols should be outlined when exporting to ensure the</text>
  <text style="stroke:none;fill:black;font-family:-apple-system,&quot;SF Pro Display&quot;,&quot;SF Pro Text&quot;,Helvetica,sans-serif;" transform="matrix(1 0 0 1 1289 1989)">design is preserved when submitting to Xcode.</text>
  <text id="template-version" style="stroke:none;fill:black;font-family:-apple-system,&quot;SF Pro Display&quot;,&quot;SF Pro Text&quot;,Helvetica,sans-serif;text-anchor:end;" transform="matrix(1 0 0 1 3036 1933)">Template v.1.0</text>
  <text style="stroke:none;fill:black;font-family:-apple-system,&quot;SF Pro Display&quot;,&quot;SF Pro Text&quot;,Helvetica,sans-serif;text-anchor:end;" transform="matrix(1 0 0 1 3036 1951)">Generated from option</text>
  <text style="stroke:none;fill:black;font-family:-apple-system,&quot;SF Pro Display&quot;,&quot;SF Pro Text&quot;,Helvetica,sans-serif;text-anchor:end;" transform="matrix(1 0 0 1 3036 1969)">Typeset at 100 points</text>
  <text style="stroke:none;fill:black;font-family:-apple-system,&quot;SF Pro Display&quot;,&quot;SF Pro Text&quot;,Helvetica,sans-serif;" transform="matrix(1 0 0 1 263 726)">Small</text>
  <text style="stroke:none;fill:black;font-family:-apple-system,&quot;SF Pro Display&quot;,&quot;SF Pro Text&quot;,Helvetica,sans-serif;" transform="matrix(1 0 0 1 263 1156)">Medium</text>
  <text style="stroke:none;fill:black;font-family:-apple-system,&quot;SF Pro Display&quot;,&quot;SF Pro Text&quot;,Helvetica,sans-serif;" transform="matrix(1 0 0 1 263 1586)">Large</text>
 </g>
 <g id="Guides">
  <g id="H-reference" style="fill:#27AAE1;stroke:none;" transform="matrix(1 0 0 1 339 696)">
   <path d="M 54.9316 0 L 57.666 0 L 30.5664 -70.459 L 28.0762 -70.459 L 0.976562 0 L 3.66211 0 L 12.9395 -24.4629 L 45.7031 -24.4629 Z M 29.1992 -67.0898 L 29.4434 -67.0898 L 44.8242 -26.709 L 13.8184 -26.709 Z"/>
  </g>
  <line id="Baseline-S" style="fill:none;stroke:#27AAE1;opacity:1;stroke-width:0.577;" x1="263" x2="3036" y1="696" y2="696"/>
  <line id="Capline-S" style="fill:none;stroke:#27AAE1;opacity:1;stroke-width:0.577;" x1="263" x2="3036" y1="625.541" y2="625.541"/>
  <g id="H-reference" style="fill:#27AAE1;stroke:none;" transform="matrix(1 0 0 1 339 1126)">
   <path d="M 54.9316 0 L 57.666 0 L 30.5664 -70.459 L 28.0762 -70.459 L 0.976562 0 L 3.66211 0 L 12.9395 -24.4629 L 45.7031 -24.4629 Z M 29.1992 -67.0898 L 29.4434 -67.0898 L 44.8242 -26.709 L 13.8184 -26.709 Z"/>
  </g>
  <line id="Baseline-M" style="fill:none;stroke:#27AAE1;opacity:1;stroke-width:0.577;" x1="263" x2="3036" y1="1126" y2="1126"/>
  <line id="Capline-M" style="fill:none;stroke:#27AAE1;opacity:1;stroke-width:0.577;" x1="263" x2="3036" y1="1055.54" y2="1055.54"/>
  <g id="H-reference" style="fill:#27AAE1;stroke:none;" transform="matrix(1 0 0 1 339 1556)">
   <path d="M 54.9316 0 L 57.666 0 L 30.5664 -70.459 L 28.0762 -70.459 L 0.976562 0 L 3.66211 0 L 12.9395 -24.4629 L 45.7031 -24.4629 Z M 29.1992 -67.0898 L 29.4434 -67.0898 L 44.8242 -26.709 L 13.8184 -26.709 Z"/>
  </g>
  <line id="Baseline-L" style="fill:none;stroke:#27AAE1;opacity:1;stroke-width:0.577;" x1="263" x2="3036" y1="1556" y2="1556"/>
  <line id="Capline-L" style="fill:none;stroke:#27AAE1;opacity:1;stroke-width:0.577;" x1="263" x2="3036" y1="1485.54" y2="1485.54"/>
  <rect height="119.336" id="left-margin" style="fill:#00AEEF;stroke:none;opacity:0.4;" width="9.96094" x="1390.03" y="1030.79"/>
  <rect height="119.336" id="right-margin" style="fill:#00AEEF;stroke:none;opacity:0.4;" width="9.96094" x="1499.7" y="1030.79"/>
 </g>
 <g id="Symbols">
  <g id="Black-L" transform="matrix(1 0 0 1 2853.54 1556)">
   <path d="M 52.7832 -93.1641 L 24.2676 -93.1641 C 17.8223 -93.1641 12.8906 -88.3301 12.8906 -82.1289 C 12.8906 -75.8789 17.7734 -71.0938 24.2676 -71.0938 L 47.8027 -71.0938 C 49.1699 -71.0938 50.1953 -70.5078 50.7812 -69.3359 L 90.0879 11.7676 C 93.8965 19.4824 98.877 22.7051 106.885 22.7051 L 135.498 22.7051 C 141.895 22.7051 146.826 17.8223 146.826 11.6699 C 146.826 5.41992 141.943 0.634766 135.498 0.634766 L 111.914 0.634766 C 110.449 0.634766 109.424 0.0488281 108.887 -1.12305 L 69.6289 -82.1289 C 66.1133 -89.2578 60.2051 -93.1641 52.7832 -93.1641 Z M 135.498 -93.1641 L 99.707 -93.1641 C 93.2617 -93.1641 88.3301 -88.3301 88.3301 -82.1289 C 88.3301 -75.8789 93.2129 -71.1426 99.707 -71.1426 L 135.498 -71.1426 C 141.943 -71.1426 146.826 -75.8789 146.826 -82.1289 C 146.826 -88.3789 141.943 -93.1641 135.498 -93.1641 Z"/>
  </g>
  <g id="Heavy-L" transform="matrix(1 0 0 1 2557.42 1556)">
   <path d="M 51.7578 -93.1152 L 22.7539 -93.1152 C 17.1875 -93.1152 12.8906 -88.916 12.8906 -83.5449 C 12.8906 -78.125 17.1387 -73.9746 22.7539 -73.9746 L 47.5098 -73.9746 C 49.0723 -73.9746 50.293 -73.2422 50.9766 -71.875 L 91.0645 12.5977 C 94.4824 19.6777 99.1211 22.6562 106.592 22.6562 L 135.791 22.6562 C 141.309 22.6562 145.654 18.457 145.654 13.0859 C 145.654 7.71484 141.357 3.51562 135.791 3.51562 L 110.938 3.51562 C 109.229 3.51562 108.008 2.83203 107.373 1.46484 L 67.3828 -82.959 C 64.209 -89.502 58.6914 -93.1152 51.7578 -93.1152 Z M 135.791 -93.1152 L 98.3887 -93.1152 C 92.8223 -93.1152 88.5254 -88.9648 88.5254 -83.5938 C 88.5254 -78.1738 92.7734 -74.0723 98.3887 -74.0723 L 135.791 -74.0723 C 141.406 -74.0723 145.605 -78.1738 145.605 -83.5938 C 145.605 -89.0137 141.406 -93.1152 135.791 -93.1152 Z"/>
  </g>
  <g id="Bold-L" transform="matrix(1 0 0 1 2261.36 1556)">
   <path d="M 50.6348 -93.1152 L 21.0938 -93.1152 C 16.4551 -93.1152 12.8906 -89.6484 12.8906 -85.1562 C 12.8906 -80.7129 16.4551 -77.2461 21.0938 -77.2461 L 47.1191 -77.2461 C 48.9746 -77.2461 50.4395 -76.3672 51.1719 -74.7559 L 92.1387 13.5254 C 95.1172 19.873 99.4629 22.6562 106.201 22.6562 L 136.133 22.6562 C 140.723 22.6562 144.336 19.1406 144.336 14.6973 C 144.336 10.2539 140.723 6.78711 136.133 6.78711 L 109.863 6.78711 C 107.812 6.78711 106.445 5.95703 105.664 4.3457 L 64.8438 -83.8379 C 62.0605 -89.6973 56.9336 -93.1152 50.6348 -93.1152 Z M 136.133 -93.1152 L 96.9238 -93.1152 C 92.2852 -93.1152 88.7695 -89.6484 88.7695 -85.2051 C 88.7695 -80.7129 92.2852 -77.3438 96.9238 -77.3438 L 136.133 -77.3438 C 140.771 -77.3438 144.287 -80.7129 144.287 -85.2051 C 144.287 -89.6973 140.771 -93.1152 136.133 -93.1152 Z"/>
  </g>
  <g id="Semibold-L" transform="matrix(1 0 0 1 1965.12 1556)">
   <path d="M 49.9023 -93.0664 L 19.9219 -93.0664 C 15.9668 -93.0664 12.8906 -90.0879 12.8906 -86.2793 C 12.8906 -82.4707 15.9668 -79.4922 19.9219 -79.4922 L 46.875 -79.4922 C 48.9258 -79.4922 50.4883 -78.4668 51.3184 -76.709 L 92.9199 14.209 C 95.5566 19.9707 99.6582 22.6074 105.957 22.6074 L 136.377 22.6074 C 140.283 22.6074 143.408 19.6289 143.408 15.8203 C 143.408 12.0117 140.283 9.0332 136.377 9.0332 L 109.082 9.0332 C 106.885 9.0332 105.371 8.1543 104.541 6.29883 L 63.0859 -84.4727 C 60.5469 -89.8926 55.7617 -93.0664 49.9023 -93.0664 Z M 136.377 -93.0664 L 95.8984 -93.0664 C 91.9434 -93.0664 88.916 -90.1367 88.916 -86.3281 C 88.916 -82.4707 91.9434 -79.5898 95.8984 -79.5898 L 136.377 -79.5898 C 140.332 -79.5898 143.359 -82.4707 143.359 -86.3281 C 143.359 -90.1855 140.332 -93.0664 136.377 -93.0664 Z"/>
  </g>
  <g id="Medium-L" transform="matrix(1 0 0 1 1668.75 1556)">
   <path d="M 49.3164 -93.0664 L 19.043 -93.0664 C 15.5762 -93.0664 12.8906 -90.4785 12.8906 -87.1582 C 12.8906 -83.7891 15.5762 -81.2012 19.043 -81.2012 L 46.7285 -81.2012 C 48.877 -81.2012 50.5859 -80.127 51.4648 -78.1738 L 93.457 14.6973 C 95.8984 20.0684 99.8047 22.6074 105.811 22.6074 L 136.572 22.6074 C 139.941 22.6074 142.725 19.9707 142.725 16.6992 C 142.725 13.3789 139.99 10.7422 136.572 10.7422 L 108.496 10.7422 C 106.152 10.7422 104.541 9.76562 103.662 7.8125 L 61.7676 -84.9121 C 59.4238 -89.9902 54.8828 -93.0664 49.3164 -93.0664 Z M 136.572 -93.0664 L 95.1172 -93.0664 C 91.6992 -93.0664 89.0137 -90.5273 89.0137 -87.1582 C 89.0137 -83.8379 91.6504 -81.2988 95.1172 -81.2988 L 136.572 -81.2988 C 140.039 -81.2988 142.676 -83.8379 142.676 -87.1582 C 142.676 -90.5273 140.039 -93.0664 136.572 -93.0664 Z"/>
  </g>
  <g id="Regular-L" transform="matrix(1 0 0 1 1372.5 1556)">
   <path d="M 48.5352 -93.0664 L 17.9199 -93.0664 C 15.0879 -93.0664 12.8906 -90.9668 12.8906 -88.2324 C 12.8906 -85.5469 15.0879 -83.3984 17.9199 -83.3984 L 46.4844 -83.3984 C 48.7793 -83.3984 50.6348 -82.2266 51.6113 -80.127 L 94.1895 15.332 C 96.3379 20.2148 100 22.6074 105.566 22.6074 L 136.768 22.6074 C 139.551 22.6074 141.797 20.459 141.797 17.7734 C 141.797 15.1367 139.551 12.9395 136.768 12.9395 L 107.764 12.9395 C 105.176 12.9395 103.467 11.9141 102.49 9.81445 L 60.0098 -85.5469 C 57.959 -90.1855 53.7109 -93.0664 48.5352 -93.0664 Z M 136.768 -93.0664 L 94.1406 -93.0664 C 91.3086 -93.0664 89.1602 -91.0156 89.1602 -88.2812 C 89.1602 -85.5957 91.3086 -83.4961 94.1406 -83.4961 L 136.768 -83.4961 C 139.6 -83.4961 141.748 -85.5957 141.748 -88.2812 C 141.748 -91.0156 139.6 -93.0664 136.768 -93.0664 Z"/>
  </g>
  <g id="Light-L" transform="matrix(1 0 0 1 1075.64 1556)">
   <path d="M 47.6562 -93.1152 L 16.6016 -93.1152 C 14.5508 -93.1152 12.8906 -91.5527 12.8906 -89.502 C 12.8906 -87.5 14.5508 -85.8887 16.6016 -85.8887 L 46.3867 -85.8887 C 48.7793 -85.8887 50.8789 -84.5215 51.8555 -82.373 L 95.9473 16.1133 C 97.8516 20.4102 101.318 22.6562 106.396 22.6562 L 138.379 22.6562 C 140.43 22.6562 142.139 21.0449 142.139 19.043 C 142.139 17.041 140.43 15.4297 138.379 15.4297 L 107.812 15.4297 C 105.127 15.4297 103.271 14.3066 102.295 12.1582 L 58.3008 -86.1816 C 56.3965 -90.3809 52.3926 -93.1152 47.6562 -93.1152 Z M 138.379 -93.1152 L 93.1641 -93.1152 C 91.1133 -93.1152 89.4531 -91.5527 89.4531 -89.5508 C 89.4531 -87.5 91.1133 -85.9375 93.1641 -85.9375 L 138.379 -85.9375 C 140.479 -85.9375 142.09 -87.5 142.09 -89.5508 C 142.09 -91.5527 140.479 -93.1152 138.379 -93.1152 Z"/>
  </g>
  <g id="Thin-L" transform="matrix(1 0 0 1 778.712 1556)">
   <path d="M 46.5332 -93.2129 L 14.8926 -93.2129 C 13.7695 -93.2129 12.8418 -92.334 12.8418 -91.2109 C 12.8418 -90.0879 13.7695 -89.1602 14.8926 -89.1602 L 46.2402 -89.1602 C 48.7793 -89.1602 51.2207 -87.5488 52.1484 -85.3027 L 98.291 17.1387 C 99.8047 20.6543 103.027 22.7539 107.52 22.7539 L 140.479 22.7539 C 141.602 22.7539 142.529 21.875 142.529 20.752 C 142.529 19.6289 141.602 18.7012 140.479 18.7012 L 107.812 18.7012 C 105.127 18.7012 102.979 17.4316 102.002 15.2832 L 56.0059 -87.0117 C 54.3457 -90.6738 50.6836 -93.2129 46.5332 -93.2129 Z M 140.479 -93.2129 L 91.8945 -93.2129 C 90.7715 -93.2129 89.8438 -92.334 89.8438 -91.2109 C 89.8438 -90.0879 90.7715 -89.1602 91.8945 -89.1602 L 140.479 -89.1602 C 141.602 -89.1602 142.529 -90.0879 142.529 -91.2109 C 142.529 -92.334 141.602 -93.2129 140.479 -93.2129 Z"/>
  </g>
  <g id="Ultralight-L" transform="matrix(1 0 0 1 481.903 1556)">
   <path d="M 45.9473 -93.2617 L 14.0137 -93.2617 C 13.3789 -93.2617 12.8418 -92.7246 12.8418 -92.041 C 12.8418 -91.4062 13.3789 -90.8691 14.0137 -90.8691 L 46.1914 -90.8691 C 48.7793 -90.8691 51.3672 -89.1113 52.3438 -86.8164 L 99.4629 17.6758 C 100.83 20.752 103.906 22.8027 108.105 22.8027 L 141.553 22.8027 C 142.236 22.8027 142.773 22.2656 142.773 21.582 C 142.773 20.9473 142.236 20.4102 141.553 20.4102 L 107.812 20.4102 C 105.078 20.4102 102.832 19.0918 101.904 16.8945 L 54.834 -87.4023 C 53.2715 -90.8203 49.8047 -93.2617 45.9473 -93.2617 Z M 141.553 -93.2617 L 91.2598 -93.2617 C 90.625 -93.2617 90.0879 -92.7246 90.0879 -92.041 C 90.0879 -91.4062 90.625 -90.8203 91.2598 -90.8203 L 141.553 -90.8203 C 142.188 -90.8203 142.773 -91.4062 142.773 -92.041 C 142.773 -92.7246 142.188 -93.2617 141.553 -93.2617 Z"/>
  </g>
  <g id="Black-M" transform="matrix(1 0 0 1 2870.63 1126)">
   <path d="M 41.748 -80.2246 L 20.1172 -80.2246 C 14.3555 -80.2246 9.96094 -75.8301 9.96094 -70.3125 C 9.96094 -64.6973 14.3066 -60.4004 20.1172 -60.4004 L 37.4023 -60.4004 C 38.1836 -60.4004 38.8672 -60.0586 39.1602 -59.4238 L 69.4336 0.439453 C 72.8027 7.03125 76.9043 9.76562 83.6914 9.76562 L 105.42 9.76562 C 111.133 9.76562 115.576 5.41992 115.576 -0.146484 C 115.576 -5.76172 111.23 -10.0586 105.42 -10.0586 L 88.0371 -10.0586 C 87.2559 -10.0586 86.5723 -10.4004 86.2793 -11.0352 L 56.0547 -70.8496 C 52.9785 -76.9531 48.0469 -80.2246 41.748 -80.2246 Z M 105.42 -80.2246 L 78.5156 -80.2246 C 72.7539 -80.2246 68.3594 -75.8301 68.3594 -70.3125 C 68.3594 -64.6973 72.7051 -60.4004 78.5156 -60.4004 L 105.42 -60.4004 C 111.23 -60.4004 115.576 -64.6973 115.576 -70.3125 C 115.576 -75.9277 111.23 -80.2246 105.42 -80.2246 Z"/>
  </g>
  <g id="Heavy-M" transform="matrix(1 0 0 1 2574.63 1126)">
   <path d="M 40.8691 -80.1758 L 18.7988 -80.1758 C 13.8184 -80.1758 9.96094 -76.3672 9.96094 -71.5332 C 9.96094 -66.6992 13.7695 -62.9395 18.7988 -62.9395 L 37.1094 -62.9395 C 38.0859 -62.9395 38.916 -62.5 39.3066 -61.6211 L 70.0684 1.17188 C 72.998 7.17773 76.9043 9.7168 83.1055 9.7168 L 105.322 9.7168 C 110.303 9.7168 114.16 5.9082 114.16 1.07422 C 114.16 -3.75977 110.352 -7.51953 105.322 -7.51953 L 86.9629 -7.51953 C 85.8887 -7.51953 85.1074 -7.95898 84.668 -8.78906 L 54.0527 -71.582 C 51.2695 -77.0996 46.6797 -80.1758 40.8691 -80.1758 Z M 105.322 -80.1758 L 77.2949 -80.1758 C 72.3145 -80.1758 68.457 -76.3672 68.457 -71.582 C 68.457 -66.6992 72.2656 -62.9883 77.2949 -62.9883 L 105.322 -62.9883 C 110.352 -62.9883 114.16 -66.6992 114.16 -71.582 C 114.16 -76.416 110.352 -80.1758 105.322 -80.1758 Z"/>
  </g>
  <g id="Bold-M" transform="matrix(1 0 0 1 2278.7 1126)">
   <path d="M 39.8926 -80.0781 L 17.334 -80.0781 C 13.1836 -80.0781 9.96094 -76.9531 9.96094 -72.9492 C 9.96094 -68.8965 13.1348 -65.7715 17.334 -65.7715 L 36.7188 -65.7715 C 37.9883 -65.7715 38.9648 -65.1855 39.502 -64.1113 L 70.7031 2.00195 C 73.291 7.32422 76.8066 9.61914 82.4707 9.61914 L 105.225 9.61914 C 109.375 9.61914 112.598 6.49414 112.598 2.49023 C 112.598 -1.5625 109.424 -4.6875 105.225 -4.6875 L 85.7422 -4.6875 C 84.375 -4.6875 83.3984 -5.22461 82.9102 -6.34766 L 51.7578 -72.3633 C 49.3652 -77.2949 45.166 -80.0781 39.8926 -80.0781 Z M 105.225 -80.0781 L 75.9766 -80.0781 C 71.8262 -80.0781 68.6035 -77.002 68.6035 -72.9492 C 68.6035 -68.8965 71.7773 -65.8203 75.9766 -65.8203 L 105.225 -65.8203 C 109.424 -65.8203 112.598 -68.8965 112.598 -72.9492 C 112.598 -77.002 109.424 -80.0781 105.225 -80.0781 Z"/>
  </g>
  <g id="Semibold-M" transform="matrix(1 0 0 1 1982.52 1126)">
   <path d="M 39.2578 -80.0781 L 16.3574 -80.0781 C 12.7441 -80.0781 9.96094 -77.3438 9.96094 -73.9258 C 9.96094 -70.4102 12.7441 -67.7246 16.3574 -67.7246 L 36.4746 -67.7246 C 37.8906 -67.7246 39.0137 -67.0898 39.5996 -65.7715 L 71.1426 2.53906 C 73.4375 7.42188 76.8066 9.61914 82.0312 9.61914 L 105.176 9.61914 C 108.74 9.61914 111.523 6.88477 111.523 3.4668 C 111.523 0 108.74 -2.73438 105.176 -2.73438 L 84.9121 -2.73438 C 83.3496 -2.73438 82.2754 -3.32031 81.6406 -4.63867 L 50.1953 -72.9004 C 48.0957 -77.4414 44.1406 -80.0781 39.2578 -80.0781 Z M 105.176 -80.0781 L 75.0488 -80.0781 C 71.4844 -80.0781 68.75 -77.3926 68.75 -73.9258 C 68.75 -70.459 71.4355 -67.8223 75.0488 -67.8223 L 105.176 -67.8223 C 108.789 -67.8223 111.523 -70.459 111.523 -73.9258 C 111.523 -77.4414 108.789 -80.0781 105.176 -80.0781 Z"/>
  </g>
  <g id="Medium-M" transform="matrix(1 0 0 1 1686.2 1126)">
   <path d="M 38.7207 -80.0293 L 15.5762 -80.0293 C 12.4023 -80.0293 9.96094 -77.6855 9.96094 -74.6094 C 9.96094 -71.582 12.4023 -69.2383 15.5762 -69.2383 L 36.2793 -69.2383 C 37.8418 -69.2383 39.0137 -68.5059 39.6973 -67.0898 L 71.5332 2.97852 C 73.584 7.51953 76.7578 9.57031 81.6895 9.57031 L 105.127 9.57031 C 108.252 9.57031 110.742 7.17773 110.742 4.15039 C 110.742 1.17188 108.252 -1.2207 105.127 -1.2207 L 84.2773 -1.2207 C 82.5195 -1.2207 81.3965 -1.9043 80.7129 -3.36914 L 49.0234 -73.3398 C 47.0703 -77.5391 43.3594 -80.0293 38.7207 -80.0293 Z M 105.127 -80.0293 L 74.3652 -80.0293 C 71.2402 -80.0293 68.7988 -77.7344 68.7988 -74.6582 C 68.7988 -71.6309 71.1914 -69.2871 74.3652 -69.2871 L 105.127 -69.2871 C 108.301 -69.2871 110.693 -71.6309 110.693 -74.6582 C 110.693 -77.7344 108.301 -80.0293 105.127 -80.0293 Z"/>
  </g>
  <g id="Regular-M" transform="matrix(1 0 0 1 1390.03 1126)">
   <path d="M 38.0859 -79.9805 L 14.5508 -79.9805 C 11.9629 -79.9805 9.96094 -78.0762 9.96094 -75.5859 C 9.96094 -73.0957 11.9629 -71.1426 14.5508 -71.1426 L 36.0352 -71.1426 C 37.793 -71.1426 39.0625 -70.3613 39.7949 -68.75 L 71.9727 3.51562 C 73.7793 7.61719 76.7578 9.52148 81.25 9.52148 L 105.078 9.52148 C 107.617 9.52148 109.668 7.56836 109.668 5.12695 C 109.668 2.68555 107.617 0.683594 105.078 0.683594 L 83.4473 0.683594 C 81.4941 0.683594 80.2734 -0.0488281 79.4922 -1.66016 L 47.4609 -73.877 C 45.8008 -77.6855 42.2852 -79.9805 38.0859 -79.9805 Z M 105.078 -79.9805 L 73.4863 -79.9805 C 70.8984 -79.9805 68.8965 -78.125 68.8965 -75.6348 C 68.8965 -73.1445 70.8984 -71.2402 73.4863 -71.2402 L 105.078 -71.2402 C 107.666 -71.2402 109.619 -73.1445 109.619 -75.6348 C 109.619 -78.125 107.666 -79.9805 105.078 -79.9805 Z"/>
  </g>
  <g id="Light-M" transform="matrix(1 0 0 1 1093.17 1126)">
   <path d="M 37.3047 -80.0781 L 13.4277 -80.0781 C 11.4746 -80.0781 9.96094 -78.6133 9.96094 -76.709 C 9.96094 -74.8535 11.4746 -73.3887 13.4277 -73.3887 L 35.9375 -73.3887 C 37.793 -73.3887 39.3066 -72.4121 40.0391 -70.752 L 73.5352 4.19922 C 75.1465 7.8125 77.9297 9.61914 82.0312 9.61914 L 106.494 9.61914 C 108.398 9.61914 109.961 8.10547 109.961 6.25 C 109.961 4.44336 108.398 2.92969 106.494 2.92969 L 83.4961 2.92969 C 81.4941 2.92969 80.0781 2.09961 79.3457 0.439453 L 45.9473 -74.4141 C 44.3848 -77.8809 41.1621 -80.0781 37.3047 -80.0781 Z M 106.494 -80.0781 L 72.6074 -80.0781 C 70.6543 -80.0781 69.1895 -78.6133 69.1895 -76.7578 C 69.1895 -74.9023 70.6543 -73.4375 72.6074 -73.4375 L 106.494 -73.4375 C 108.447 -73.4375 109.961 -74.9023 109.961 -76.7578 C 109.961 -78.6133 108.447 -80.0781 106.494 -80.0781 Z"/>
  </g>
  <g id="Thin-M" transform="matrix(1 0 0 1 796.266 1126)">
   <path d="M 36.2793 -80.1758 L 11.9141 -80.1758 C 10.8398 -80.1758 9.96094 -79.2969 9.96094 -78.2227 C 9.96094 -77.1484 10.8398 -76.3184 11.9141 -76.3184 L 35.8887 -76.3184 C 37.793 -76.3184 39.5996 -75.0977 40.332 -73.3887 L 75.6348 5.12695 C 76.9043 8.00781 79.4922 9.7168 83.1055 9.7168 L 108.398 9.7168 C 109.473 9.7168 110.352 8.83789 110.352 7.76367 C 110.352 6.73828 109.473 5.85938 108.398 5.85938 L 83.5449 5.85938 C 81.4453 5.85938 79.8828 4.93164 79.1016 3.22266 L 43.8965 -75.1953 C 42.5293 -78.125 39.6484 -80.1758 36.2793 -80.1758 Z M 108.398 -80.1758 L 71.4844 -80.1758 C 70.4102 -80.1758 69.5312 -79.2969 69.5312 -78.2715 C 69.5312 -77.1973 70.4102 -76.3184 71.4844 -76.3184 L 108.398 -76.3184 C 109.473 -76.3184 110.352 -77.1973 110.352 -78.2715 C 110.352 -79.2969 109.473 -80.1758 108.398 -80.1758 Z"/>
  </g>
  <g id="Ultralight-M" transform="matrix(1 0 0 1 499.433 1126)">
   <path d="M 35.791 -80.1758 L 11.1328 -80.1758 C 10.498 -80.1758 9.96094 -79.6875 9.96094 -79.0039 C 9.96094 -78.3691 10.498 -77.832 11.1328 -77.832 L 35.8398 -77.832 C 37.8418 -77.832 39.7461 -76.5137 40.5273 -74.7559 L 76.7578 5.61523 C 77.832 8.10547 80.2734 9.7168 83.5938 9.7168 L 109.375 9.7168 C 110.059 9.7168 110.547 9.22852 110.547 8.54492 C 110.547 7.91016 110.059 7.37305 109.375 7.37305 L 83.5449 7.37305 C 81.4453 7.37305 79.7363 6.34766 79.0039 4.6875 L 42.8223 -75.5371 C 41.6016 -78.2715 38.8672 -80.1758 35.791 -80.1758 Z M 109.375 -80.1758 L 70.9473 -80.1758 C 70.2637 -80.1758 69.7266 -79.6875 69.7266 -79.0039 C 69.7266 -78.3691 70.2637 -77.832 70.9473 -77.832 L 109.375 -77.832 C 110.059 -77.832 110.547 -78.3691 110.547 -79.0039 C 110.547 -79.6875 110.059 -80.1758 109.375 -80.1758 Z"/>
  </g>
  <g id="Black-S" transform="matrix(1 0 0 1 2884.28 696)">
   <path d="M 32.666 -70.459 L 15.6738 -70.459 C 11.2305 -70.459 7.8125 -67.0898 7.8125 -62.793 C 7.8125 -58.4473 11.1816 -55.127 15.6738 -55.127 L 29.2969 -55.127 C 29.9316 -55.127 30.4688 -54.834 30.7129 -54.3457 L 54.4434 -7.22656 C 57.0312 -2.09961 60.2539 0 65.5273 0 L 82.5684 0 C 87.0117 0 90.4297 -3.36914 90.4297 -7.66602 C 90.4297 -12.0117 87.0605 -15.332 82.5684 -15.332 L 68.8965 -15.332 C 68.2617 -15.332 67.7246 -15.625 67.4805 -16.1133 L 43.7988 -63.1836 C 41.4062 -67.9199 37.5488 -70.459 32.666 -70.459 Z M 82.5684 -70.459 L 61.4258 -70.459 C 56.9824 -70.459 53.5645 -67.0898 53.5645 -62.793 C 53.5645 -58.4473 56.9336 -55.127 61.4258 -55.127 L 82.5684 -55.127 C 87.0605 -55.127 90.4297 -58.4473 90.4297 -62.793 C 90.4297 -67.1387 87.0605 -70.459 82.5684 -70.459 Z"/>
  </g>
  <g id="Heavy-S" transform="matrix(1 0 0 1 2588.1 696)">
   <path d="M 32.0801 -70.4102 L 14.7949 -70.4102 C 10.8398 -70.4102 7.8125 -67.4316 7.8125 -63.623 C 7.8125 -59.7656 10.8398 -56.8359 14.7949 -56.8359 L 29.0527 -56.8359 C 29.834 -56.8359 30.4688 -56.4453 30.8105 -55.8105 L 54.7363 -6.73828 C 57.0801 -2.00195 60.1074 -0.0488281 64.9902 -0.0488281 L 82.3242 -0.0488281 C 86.2793 -0.0488281 89.3555 -3.02734 89.3555 -6.83594 C 89.3555 -10.6934 86.3281 -13.623 82.3242 -13.623 L 68.0664 -13.623 C 67.2363 -13.623 66.6016 -14.0137 66.2598 -14.6484 L 42.4316 -63.6719 C 40.2832 -68.0176 36.6211 -70.4102 32.0801 -70.4102 Z M 82.3242 -70.4102 L 60.5957 -70.4102 C 56.6406 -70.4102 53.6133 -67.4316 53.6133 -63.623 C 53.6133 -59.7656 56.6406 -56.8359 60.5957 -56.8359 L 82.3242 -56.8359 C 86.3281 -56.8359 89.3066 -59.7656 89.3066 -63.623 C 89.3066 -67.4805 86.3281 -70.4102 82.3242 -70.4102 Z"/>
  </g>
  <g id="Bold-S" transform="matrix(1 0 0 1 2292.03 696)">
   <path d="M 31.4453 -70.3613 L 13.8184 -70.3613 C 10.4492 -70.3613 7.8125 -67.8223 7.8125 -64.5508 C 7.8125 -61.2305 10.4004 -58.7402 13.8184 -58.7402 L 28.7598 -58.7402 C 29.7852 -58.7402 30.4688 -58.3008 30.9082 -57.4219 L 55.0293 -6.20117 C 57.0801 -1.9043 59.9121 -0.0976562 64.4043 -0.0976562 L 82.0801 -0.0976562 C 85.4492 -0.0976562 88.0859 -2.68555 88.0859 -5.9082 C 88.0859 -9.17969 85.498 -11.7188 82.0801 -11.7188 L 67.1387 -11.7188 C 66.0645 -11.7188 65.332 -12.1582 64.9414 -13.0371 L 40.8691 -64.209 C 38.9648 -68.1641 35.6445 -70.3613 31.4453 -70.3613 Z M 82.0801 -70.3613 L 59.7168 -70.3613 C 56.2988 -70.3613 53.7109 -67.8223 53.7109 -64.5508 C 53.7109 -61.2793 56.2988 -58.7402 59.7168 -58.7402 L 82.0801 -58.7402 C 85.498 -58.7402 88.0859 -61.2793 88.0859 -64.5508 C 88.0859 -67.8711 85.498 -70.3613 82.0801 -70.3613 Z"/>
  </g>
  <g id="Semibold-S" transform="matrix(1 0 0 1 1995.73 696)">
   <path d="M 31.0059 -70.3125 L 13.1348 -70.3125 C 10.1562 -70.3125 7.8125 -68.0664 7.8125 -65.1855 C 7.8125 -62.2559 10.1074 -60.0098 13.1348 -60.0098 L 28.6133 -60.0098 C 29.6875 -60.0098 30.5176 -59.5703 30.957 -58.5449 L 55.2246 -5.85938 C 57.1289 -1.85547 59.7656 -0.146484 64.0137 -0.146484 L 81.9336 -0.146484 C 84.9121 -0.146484 87.2559 -2.39258 87.2559 -5.27344 C 87.2559 -8.1543 84.9121 -10.4492 81.9336 -10.4492 L 66.5039 -10.4492 C 65.2832 -10.4492 64.4531 -10.8887 64.0137 -11.9141 L 39.7949 -64.5996 C 38.0859 -68.2617 34.9121 -70.3125 31.0059 -70.3125 Z M 81.9336 -70.3125 L 59.082 -70.3125 C 56.0547 -70.3125 53.7598 -68.1152 53.7598 -65.1855 C 53.7598 -62.3047 56.0547 -60.1074 59.082 -60.1074 L 81.9336 -60.1074 C 84.9609 -60.1074 87.2559 -62.3047 87.2559 -65.1855 C 87.2559 -68.1152 84.9609 -70.3125 81.9336 -70.3125 Z"/>
  </g>
  <g id="Medium-S" transform="matrix(1 0 0 1 1699.34 696)">
   <path d="M 30.6641 -70.3125 L 12.6465 -70.3125 C 9.91211 -70.3125 7.8125 -68.2617 7.8125 -65.6738 C 7.8125 -63.0371 9.91211 -61.0352 12.6465 -61.0352 L 28.4668 -61.0352 C 29.6387 -61.0352 30.5176 -60.498 31.0059 -59.4238 L 55.4199 -5.56641 C 57.1289 -1.80664 59.668 -0.146484 63.7207 -0.146484 L 81.7871 -0.146484 C 84.4727 -0.146484 86.6211 -2.19727 86.6211 -4.78516 C 86.6211 -7.37305 84.4727 -9.42383 81.7871 -9.42383 L 66.0156 -9.42383 C 64.6484 -9.42383 63.8184 -9.96094 63.2812 -11.084 L 39.0137 -64.8438 C 37.4023 -68.3105 34.4238 -70.3125 30.6641 -70.3125 Z M 81.7871 -70.3125 L 58.5938 -70.3125 C 55.8594 -70.3125 53.8086 -68.3105 53.8086 -65.7227 C 53.8086 -63.0859 55.8594 -61.084 58.5938 -61.084 L 81.7871 -61.084 C 84.5215 -61.084 86.5723 -63.0859 86.5723 -65.7227 C 86.5723 -68.3105 84.5215 -70.3125 81.7871 -70.3125 Z"/>
  </g>
  <g id="Regular-S" transform="matrix(1 0 0 1 1403.04 696)">
   <path d="M 30.2246 -70.2637 L 11.9629 -70.2637 C 9.61914 -70.2637 7.8125 -68.5547 7.8125 -66.3086 C 7.8125 -64.0625 9.61914 -62.3047 11.9629 -62.3047 L 28.2715 -62.3047 C 29.5898 -62.3047 30.5176 -61.7676 31.1035 -60.498 L 55.6152 -5.22461 C 57.1289 -1.70898 59.5703 -0.195312 63.2812 -0.195312 L 81.6406 -0.195312 C 83.9355 -0.195312 85.791 -1.95312 85.791 -4.15039 C 85.791 -6.34766 83.9355 -8.1543 81.6406 -8.1543 L 65.3809 -8.1543 C 63.8672 -8.1543 62.9395 -8.69141 62.3535 -9.96094 L 37.9395 -65.2344 C 36.5723 -68.4082 33.6914 -70.2637 30.2246 -70.2637 Z M 81.6406 -70.2637 L 57.959 -70.2637 C 55.6152 -70.2637 53.8574 -68.6035 53.8574 -66.3574 C 53.8574 -64.1113 55.6152 -62.4023 57.959 -62.4023 L 81.6406 -62.4023 C 83.9844 -62.4023 85.7422 -64.1113 85.7422 -66.3574 C 85.7422 -68.6035 83.9844 -70.2637 81.6406 -70.2637 Z"/>
  </g>
  <g id="Light-S" transform="matrix(1 0 0 1 1106.21 696)">
   <path d="M 29.541 -70.3125 L 10.9863 -70.3125 C 9.17969 -70.3125 7.8125 -68.9941 7.8125 -67.2852 C 7.8125 -65.5762 9.17969 -64.2578 10.9863 -64.2578 L 28.2227 -64.2578 C 29.5898 -64.2578 30.7129 -63.5742 31.2988 -62.3047 L 57.0312 -4.58984 C 58.3496 -1.5625 60.5957 -0.146484 64.0137 -0.146484 L 82.9102 -0.146484 C 84.6191 -0.146484 86.0352 -1.46484 86.0352 -3.17383 C 86.0352 -4.83398 84.6191 -6.20117 82.9102 -6.20117 L 65.4297 -6.20117 C 63.8672 -6.20117 62.793 -6.78711 62.207 -8.10547 L 36.5723 -65.7227 C 35.3027 -68.5547 32.7148 -70.3125 29.541 -70.3125 Z M 82.9102 -70.3125 L 57.2266 -70.3125 C 55.4688 -70.3125 54.1016 -69.043 54.1016 -67.334 C 54.1016 -65.625 55.4688 -64.3555 57.2266 -64.3555 L 82.9102 -64.3555 C 84.668 -64.3555 86.0352 -65.625 86.0352 -67.334 C 86.0352 -69.043 84.668 -70.3125 82.9102 -70.3125 Z"/>
  </g>
  <g id="Thin-S" transform="matrix(1 0 0 1 809.303 696)">
   <path d="M 28.6621 -70.4102 L 9.61914 -70.4102 C 8.64258 -70.4102 7.8125 -69.6289 7.8125 -68.6523 C 7.8125 -67.627 8.64258 -66.8457 9.61914 -66.8457 L 28.125 -66.8457 C 29.6387 -66.8457 30.957 -65.9668 31.543 -64.6484 L 58.8867 -3.80859 C 59.9121 -1.41602 61.9629 -0.0488281 64.8926 -0.0488281 L 84.5703 -0.0488281 C 85.5957 -0.0488281 86.377 -0.830078 86.377 -1.80664 C 86.377 -2.7832 85.5957 -3.61328 84.5703 -3.61328 L 65.4297 -3.61328 C 63.8184 -3.61328 62.6465 -4.29688 62.0605 -5.61523 L 34.7656 -66.3574 C 33.6914 -68.7988 31.3477 -70.4102 28.6621 -70.4102 Z M 84.5703 -70.4102 L 56.25 -70.4102 C 55.2246 -70.4102 54.4434 -69.6289 54.4434 -68.6523 C 54.4434 -67.6758 55.2246 -66.8945 56.25 -66.8945 L 84.5703 -66.8945 C 85.5957 -66.8945 86.377 -67.6758 86.377 -68.6523 C 86.377 -69.6289 85.5957 -70.4102 84.5703 -70.4102 Z"/>
  </g>
  <g id="Ultralight-S" transform="matrix(1 0 0 1 512.519 696)">
   <path d="M 28.1738 -70.459 L 8.93555 -70.459 C 8.30078 -70.459 7.8125 -69.9707 7.8125 -69.3359 C 7.8125 -68.7012 8.30078 -68.2129 8.93555 -68.2129 L 28.0762 -68.2129 C 29.6387 -68.2129 31.1035 -67.1875 31.6895 -65.8203 L 59.8633 -3.36914 C 60.7422 -1.26953 62.6953 0 65.3809 0 L 85.4492 0 C 86.084 0 86.5723 -0.537109 86.5723 -1.12305 C 86.5723 -1.75781 86.084 -2.24609 85.4492 -2.24609 L 65.4785 -2.24609 C 63.8184 -2.24609 62.5 -3.02734 61.9141 -4.3457 L 33.8379 -66.6992 C 32.8613 -68.8965 30.6641 -70.459 28.1738 -70.459 Z M 85.4492 -70.459 L 55.7129 -70.459 C 55.127 -70.459 54.5898 -69.9707 54.5898 -69.3359 C 54.5898 -68.7012 55.127 -68.2129 55.7129 -68.2129 L 85.4492 -68.2129 C 86.084 -68.2129 86.5723 -68.7012 86.5723 -69.3359 C 86.5723 -69.9707 86.084 -70.459 85.4492 -70.459 Z"/>
  </g>
 </g>
</svg>
